<?xml version="1.0" encoding="utf-8"?>
<!-- Generator: Adobe Illustrator 12.0.0, SVG Export Plug-In . SVG Version: 6.00 Build 51448)  -->
<!DOCTYPE svg PUBLIC "-//W3C//DTD SVG 1.1//EN" "http://www.w3.org/Graphics/SVG/1.1/DTD/svg11.dtd" [
	<!ENTITY ns_svg "http://www.w3.org/2000/svg">
	<!ENTITY ns_xlink "http://www.w3.org/1999/xlink">
]>
<svg  version="1.1" id="Layer_1" xmlns="&ns_svg;" xmlns:xlink="&ns_xlink;" width="99.556" height="114.307"
	 viewBox="0 0 99.556 114.307" overflow="visible" enable-background="new 0 0 99.556 114.307" xml:space="preserve">
<path d="M61.814,36.044c-0.013-0.02-0.022-0.049-0.039-0.053c-0.017-0.005-0.04,0.016-0.062,0.026c0.023,0.03,0.046,0.06,0.068,0.09
	C61.792,36.087,61.805,36.065,61.814,36.044 M56.055,41.451l-0.011,0.054l0.065-0.019L56.055,41.451z M73.751,45.648
	c-0.014-0.025-0.03-0.071-0.041-0.07c-0.049,0.009-0.098,0.029-0.146,0.046c0.015,0.023,0.033,0.067,0.045,0.066
	C73.657,45.685,73.704,45.663,73.751,45.648 M64.055,46.337c-0.027,0.042-0.06,0.083-0.078,0.128
	c-0.004,0.011,0.035,0.054,0.06,0.057c0.021,0.002,0.071-0.032,0.069-0.042C64.096,46.431,64.073,46.386,64.055,46.337
	 M59.036,46.847c-0.025-0.035-0.054-0.073-0.082-0.111c-0.024,0.018-0.07,0.041-0.067,0.055c0.009,0.054,0.032,0.105,0.052,0.158
	C58.971,46.915,59.005,46.881,59.036,46.847 M67.714,47.128c-0.023-0.047-0.047-0.095-0.068-0.143
	c-0.021,0.02-0.061,0.046-0.057,0.059c0.013,0.048,0.039,0.092,0.06,0.137C67.669,47.163,67.691,47.146,67.714,47.128
	 M47.068,47.186c-0.021,0.005-0.05,0.005-0.057,0.016c-0.013,0.022-0.011,0.051-0.015,0.076c0.032-0.005,0.063-0.012,0.095-0.02
	C47.083,47.234,47.076,47.21,47.068,47.186 M47.92,47.596c0.024-0.014,0.046-0.03,0.068-0.045c-0.019-0.017-0.048-0.055-0.057-0.051
	c-0.032,0.015-0.057,0.046-0.086,0.069C47.872,47.578,47.896,47.587,47.92,47.596 M70.909,48.342
	c0.022-0.017,0.043-0.034,0.064-0.051c-0.042-0.026-0.083-0.056-0.128-0.074c-0.009-0.003-0.036,0.036-0.054,0.055
	C70.831,48.295,70.87,48.318,70.909,48.342 M55.745,52.667c-0.021,0.019-0.062,0.043-0.06,0.059c0.011,0.048,0.035,0.093,0.056,0.14
	c0.024-0.016,0.07-0.04,0.068-0.049C55.796,52.765,55.769,52.717,55.745,52.667 M51.331,54.325c0.025,0.037,0.049,0.102,0.078,0.107
	c0.047,0.005,0.1-0.031,0.149-0.049c-0.026-0.036-0.051-0.098-0.083-0.103C51.433,54.272,51.38,54.308,51.331,54.325 M69.087,36.59
	c0.039-0.029,0.1-0.053,0.111-0.091c0.014-0.043-0.017-0.099-0.029-0.15c-0.041,0.031-0.102,0.053-0.113,0.093
	C69.04,36.484,69.075,36.54,69.087,36.59 M59.521,46.281c-0.009-0.026-0.019-0.051-0.026-0.077
	c-0.026,0.011-0.051,0.022-0.076,0.032c0.019,0.038,0.039,0.074,0.058,0.111C59.493,46.325,59.508,46.304,59.521,46.281
	 M61.421,41.829c-0.049-0.031-0.09-0.063-0.137-0.08c-0.018-0.007-0.05,0.027-0.074,0.041c0.027,0.037,0.052,0.102,0.082,0.108
	C61.331,41.902,61.376,41.856,61.421,41.829 M73.653,34.405c-0.031,0.076-0.074,0.149-0.085,0.224
	c-0.003,0.024,0.119,0.09,0.124,0.084c0.055-0.064,0.1-0.137,0.146-0.209C73.786,34.476,73.735,34.45,73.653,34.405 M55.509,55.052
	c0.054,0.05,0.105,0.116,0.121,0.108c0.064-0.032,0.125-0.08,0.17-0.136c0.011-0.013-0.051-0.082-0.079-0.124
	C55.652,54.947,55.585,54.997,55.509,55.052 M46.245,45.726c-0.027-0.042-0.048-0.109-0.085-0.119
	c-0.029-0.008-0.118,0.063-0.114,0.072c0.027,0.061,0.068,0.116,0.107,0.173C46.183,45.81,46.214,45.768,46.245,45.726
	 M59.411,46.768c-0.065,0.034-0.147,0.06-0.146,0.08c0.002,0.052,0.028,0.126,0.069,0.149c0.039,0.022,0.108-0.009,0.164-0.016
	C59.471,46.91,59.44,46.84,59.411,46.768 M53.393,50.671c-0.065-0.046-0.127-0.102-0.198-0.128
	c-0.019-0.008-0.109,0.104-0.103,0.114c0.05,0.063,0.114,0.115,0.176,0.171C53.302,50.785,53.335,50.744,53.393,50.671
	 M58.717,39.155c0.062,0.091,0.082,0.154,0.122,0.171c0.137,0.055,0.229-0.012,0.256-0.145c0.009-0.04-0.059-0.135-0.074-0.131
	C58.921,39.071,58.827,39.115,58.717,39.155 M56.389,50.03c-0.129-0.087-0.211-0.172-0.306-0.193
	c-0.045-0.01-0.116,0.106-0.178,0.165c0.082,0.073,0.155,0.166,0.25,0.209C56.188,50.226,56.276,50.12,56.389,50.03 M73.958,22.108
	c0.598,0.161,0.822,0.066,0.957-0.34c0.09-0.262,0.131-0.557,0.279-0.781c0.516-0.787,0.856-1.653,1.25-2.496
	c0.252-0.538,0.455-1.108,0.893-1.541c0.082-0.08,0.117-0.211,0.166-0.324c0.108-0.257,0.201-0.521,0.32-0.774
	c0.342-0.733,0.693-1.464,1.041-2.196c0.319-0.665,0.465-1.364,0.377-2.098c-0.053-0.429-0.158-0.861-0.267-1.269
	c-0.231-0.87-0.761-1.628-1.231-2.391c-0.24-0.387-0.652-0.665-0.977-1.002c-0.24-0.252-0.564-0.244-0.864-0.32
	c-0.481,0.396-1.099,0.162-1.477,0.301C73.7,7.3,73.491,8.067,72.794,8.313c-0.061,0.022-0.084,0.152-0.117,0.235
	c-0.061,0.143-0.084,0.319-0.182,0.425c-0.522,0.571-0.576,1.299-0.711,1.999c-0.047,0.245-0.082,0.49-0.119,0.735
	c-0.026,0.185-0.082,0.375-0.063,0.556c0.066,0.623,0.209,1.238,0.139,1.872c-0.013,0.113,0.065,0.239,0.104,0.357
	c0.085,0.265,0.183,0.527,0.255,0.797c0.151,0.571,0.293,1.143,0.517,1.695c0.174,0.431,0.174,0.934,0.36,1.355
	c0.408,0.916,0.53,1.929,1.01,2.812C74.155,21.461,74.068,21.748,73.958,22.108 M68.036,5.721c0.287-0.345,0.582-0.668,0.842-1.019
	c0.695-0.926,1.572-1.624,2.611-2.122c0.166-0.081,0.346-0.136,0.522-0.197c0.208-0.072,0.425-0.118,0.623-0.208
	c1.626-0.738,3.278-0.748,4.946-0.181c0.444,0.152,0.877,0.34,1.304,0.54c1.512,0.711,2.521,1.958,3.405,3.31
	c0.836,1.277,1.384,2.675,1.523,4.212c0.032,0.344,0.059,0.695,0.15,1.027c0.365,1.307,0.097,2.545-0.324,3.784
	c-0.366,1.068-0.668,2.156-1.014,3.23c-0.113,0.358-0.211,0.746-0.426,1.041c-0.285,0.393-0.416,0.833-0.59,1.267
	c-0.266,0.67-0.576,1.322-0.877,1.977c-0.684,1.487-1.441,2.933-2.376,4.281c-0.159,0.231-0.274,0.498-0.373,0.762
	c-0.377,1.01-0.938,1.912-1.569,2.778c-0.146,0.203-0.267,0.426-0.396,0.641c-0.298,0.482-0.541,1.011-0.904,1.435
	c-0.406,0.475-0.509,0.974-0.461,1.562c0.096,1.161,0.073,2.323,0.049,3.489c-0.011,0.492,0.127,0.988,0.135,1.485
	c0.014,0.973,0.016,1.949-0.034,2.921c-0.058,1.098-0.164,2.192-0.4,3.273c-0.071,0.332-0.079,0.69-0.058,1.033
	c0.04,0.604-0.184,1.106-0.518,1.578c-0.146,0.205-0.302,0.406-0.474,0.587c-1.286,1.349-2.713,2.52-4.349,3.422
	c-0.137,0.075-0.283,0.182-0.428,0.187c-0.713,0.027-1.203,0.452-1.691,0.891c-0.116,0.102-0.23,0.218-0.367,0.288
	c-0.977,0.499-1.932,1.059-2.945,1.463c-1.632,0.646-3.23,1.37-4.879,1.968c-0.703,0.255-1.439,0.459-2.179,0.591
	c-1.022,0.182-1.985-0.162-2.931-0.52c-0.098-0.038-0.185-0.162-0.226-0.266c-0.065-0.166-0.133-0.27-0.336-0.205
	c-0.08,0.024-0.19,0.036-0.259-0.002c-0.631-0.354-1.266-0.701-1.876-1.086c-0.93-0.586-1.844-1.197-2.762-1.8
	c-1.153-0.757-2.354-1.441-3.401-2.355c-0.542-0.473-1.153-0.864-1.732-1.294c-0.075-0.056-0.162-0.105-0.215-0.177
	c-0.483-0.679-1.188-1.117-1.795-1.661c-0.14-0.127-0.282-0.262-0.444-0.349c-0.987-0.53-1.7-1.378-2.493-2.131
	c-0.339-0.323-0.715-0.607-1.064-0.919c-0.231-0.208-0.497-0.404-0.661-0.66c-0.477-0.745-1.045-1.407-1.667-2.032
	c-0.401-0.399-0.786-0.819-1.137-1.261c-1.109-1.406-2.278-2.763-3.205-4.311c-0.628-1.048-1.364-2.031-1.932-3.119
	c-0.014-0.028-0.026-0.061-0.048-0.081c-0.909-0.814-1.303-1.99-2.046-2.919c-0.286-0.804-0.901-1.416-1.277-2.166
	c-0.365-0.731-0.721-1.466-1.092-2.195c-0.099-0.193-0.219-0.382-0.363-0.544c-0.507-0.577-0.845-1.25-1.106-1.959
	c-0.369-1.005-0.17-1.734,0.818-2.33c0.618-0.371,1.278-0.676,1.927-0.994c0.161-0.08,0.356-0.093,0.537-0.133
	c0.769-0.173,1.465-0.473,2.119-0.944c0.812-0.585,1.688-1.086,2.566-1.571c0.853-0.47,1.744-0.866,2.612-1.309
	c0.389-0.199,0.756-0.445,1.146-0.648c0.809-0.417,1.63-0.813,2.44-1.231c1.255-0.649,2.525-1.273,3.75-1.975
	c0.801-0.458,1.693-0.665,2.511-1.063c0.875-0.428,1.744-0.862,2.541-1.425c0.231-0.162,0.469-0.318,0.722-0.44
	c1.132-0.546,2.273-1.071,3.403-1.62c0.535-0.259,1.046-0.573,1.582-0.834c0.42-0.206,0.869-0.356,1.291-0.559
	c0.422-0.206,0.857-0.409,1.234-0.685c0.612-0.45,1.285-0.77,1.969-1.091c1.074-0.507,2.125-1.066,3.182-1.61
	c0.502-0.259,0.992-0.54,1.494-0.799c0.894-0.461,1.791-0.909,2.684-1.371c0.425-0.222,0.846-0.408,1.346-0.368
	c0.541,0.044,0.986,0.264,1.235,0.743c0.288,0.55,0.608,1.093,0.713,1.726c0.034,0.212,0.113,0.437,0.237,0.609
	c0.533,0.745,0.871,1.593,1.305,2.39C67.854,5.553,67.936,5.612,68.036,5.721"/>
<path d="M99.541,72.498c-0.433,0-0.868,0.022-1.299-0.004c-1.729-0.099-3.456-0.211-5.183-0.324c-2.387-0.16-4.773-0.324-7.16-0.484
	c-1.098-0.074-2.196-0.154-3.295-0.219c-2.547-0.153-5.092-0.301-7.635-0.443c-2.892-0.164-5.783-0.331-8.674-0.481
	c-1.635-0.084-3.27-0.153-4.906-0.2c-7.08-0.209-14.161-0.355-21.243-0.103c-2.863,0.103-5.727,0.149-8.588,0.271
	c-3.144,0.131-6.287,0.317-9.43,0.481c-1.446,0.076-2.892,0.154-4.336,0.238c-1.791,0.103-3.582,0.214-5.372,0.319
	c-1.069,0.065-2.136,0.131-3.205,0.191c-2.702,0.152-5.404,0.301-8.107,0.446C0.813,72.201,0.51,72.243,0,72.091
	c0.912-0.179,1.608-0.336,2.312-0.447c3.199-0.508,6.393-1.049,9.602-1.486c2.959-0.404,5.934-0.714,8.906-1.018
	c2.565-0.262,5.136-0.497,7.709-0.676c2.731-0.19,5.468-0.307,8.203-0.444c4.371-0.22,8.746-0.235,13.121-0.237
	c4.188-0.003,8.375,0.075,12.556,0.289c3.395,0.174,6.785,0.412,10.172,0.682c2.885,0.227,5.768,0.496,8.643,0.824
	c3.844,0.439,7.68,0.948,11.492,1.609c1.92,0.332,3.842,0.666,5.762,1.007c0.361,0.065,0.72,0.164,1.078,0.247
	C99.552,72.46,99.546,72.48,99.541,72.498"/>
<path d="M15.744,38.439c-0.008-0.022-0.016-0.047-0.022-0.072c-0.021,0.008-0.055,0.013-0.056,0.023
	c-0.003,0.023,0.01,0.047,0.016,0.071C15.703,38.455,15.723,38.448,15.744,38.439 M18.559,41.009
	c-0.011-0.023-0.021-0.046-0.031-0.069c-0.004,0.043-0.009,0.086-0.012,0.13C18.529,41.051,18.545,41.029,18.559,41.009
	 M16.151,34.311c-0.017-0.023-0.033-0.047-0.049-0.071c-0.041,0.033-0.097,0.056-0.116,0.099c-0.011,0.02,0.049,0.072,0.078,0.111
	C16.093,34.404,16.122,34.358,16.151,34.311 M20.826,32.453c-0.054-0.09-0.072-0.164-0.113-0.178
	c-0.148-0.056-0.204,0.051-0.216,0.17c-0.007,0.048,0.043,0.103,0.067,0.153C20.65,32.552,20.737,32.502,20.826,32.453
	 M21.271,27.638c0.319,0,0.409,0.159,0.359,0.307c-0.369,1.081-0.066,2.104,0.231,3.13c0.095,0.331,0.215,0.66,0.274,0.998
	c0.149,0.871,0.393,1.714,0.727,2.53c0.23,0.564,0.341,1.139,0.306,1.749c-0.025,0.408-0.003,0.816-0.015,1.225
	c-0.025,0.967-0.352,1.854-0.822,2.675c-0.504,0.883-1.349,1.382-2.284,1.686c-1.361,0.44-2.582-0.017-3.742-0.711
	c-0.214-0.13-0.418-0.281-0.609-0.442c-1.146-0.957-1.683-2.604-1.267-4.179c0.015-0.058,0.048-0.117,0.088-0.164
	c0.424-0.516,0.464-1.225,0.892-1.742c0.26-0.313,0.483-0.661,0.756-0.963c0.399-0.444,0.828-0.861,1.244-1.29
	c0.902-0.921,1.809-1.835,2.699-2.766c0.44-0.458,0.737-1.013,0.979-1.598C21.146,27.942,21.205,27.799,21.271,27.638"/>
<path d="M66.146,106.893c0.051-0.018,0.1-0.034,0.15-0.051c-0.019-0.022-0.039-0.063-0.055-0.062
	c-0.05,0.008-0.098,0.031-0.146,0.049C66.112,106.85,66.13,106.873,66.146,106.893 M67.604,106.789
	c-0.02,0.021-0.038,0.039-0.059,0.06c0.045,0.021,0.09,0.048,0.139,0.058c0.017,0.006,0.041-0.033,0.063-0.054
	C67.699,106.833,67.652,106.809,67.604,106.789 M63.601,107.005l-0.06,0.023l0.06,0.022V107.005z M65.865,107.441
	c-0.007-0.02-0.007-0.051-0.021-0.059c-0.022-0.012-0.055-0.012-0.082-0.018c0.008,0.035,0.017,0.071,0.025,0.107
	C65.813,107.461,65.839,107.451,65.865,107.441 M66.173,108.165c0.008,0.024,0.008,0.056,0.022,0.067
	c0.022,0.015,0.056,0.012,0.085,0.02c-0.01-0.041-0.018-0.082-0.027-0.12C66.226,108.142,66.2,108.154,66.173,108.165
	 M68.681,109.107c-0.016-0.02-0.028-0.053-0.049-0.058c-0.027-0.008-0.059,0.007-0.088,0.01c0.021,0.033,0.042,0.066,0.064,0.099
	C68.632,109.14,68.656,109.125,68.681,109.107 M65.419,109.275l-0.004,0.047l0.059-0.021L65.419,109.275z M66.79,106.712
	c0.047-0.023,0.094-0.043,0.141-0.066c-0.019-0.02-0.037-0.059-0.057-0.059c-0.051-0.002-0.102,0.015-0.152,0.023
	C66.745,106.643,66.769,106.679,66.79,106.712 M68.448,106.49c-0.005-0.02-0.005-0.056-0.016-0.058
	c-0.055-0.013-0.111-0.021-0.168-0.028c0.006,0.039,0.012,0.078,0.017,0.115C68.337,106.508,68.392,106.5,68.448,106.49
	 M69.726,107.958c-0.084,0.023-0.186,0.023-0.237,0.074c-0.08,0.078-0.126,0.19-0.194,0.298
	C69.81,108.453,69.81,108.453,69.726,107.958 M67.205,107.757c-0.313,0.191-0.541,0.477-0.573,0.823
	c-0.037,0.372-0.339,0.639-0.306,1.039c0.026,0.334-0.058,0.675-0.11,1.012c-0.09,0.558-0.195,1.113-0.291,1.671
	c-0.057,0.321-0.254,0.477-0.562,0.553c-0.509,0.129-1.002,0.028-1.492-0.078c-0.313-0.069-0.422-0.334-0.463-0.641
	c-0.115-0.871-0.241-1.742-0.368-2.613c-0.035-0.25-0.125-0.494-0.13-0.742c-0.005-0.198,0.082-0.399,0.146-0.67
	c-0.051-0.086-0.287-0.119-0.315-0.375c-0.065-0.593-0.177-1.182-0.276-1.771c-0.183-1.083-0.38-2.162-0.552-3.25
	c-0.052-0.334-0.044-0.678-0.062-1.008c0.615-0.371,1.207-0.289,1.785-0.148c0.318,0.077,0.522,0.341,0.578,0.679
	c0.026,0.155,0.018,0.316,0.036,0.473c0.077,0.685,0.138,1.376,0.245,2.058c0.089,0.554,0.006,1.116,0.188,1.666
	c0.059,0.183-0.125,0.438-0.195,0.661c0.191,0.175,0.37,0.102,0.494-0.052c0.135-0.168,0.215-0.379,0.33-0.565
	c0.127-0.205,0.267-0.408,0.431-0.654c0-0.271-0.046-0.614,0.008-0.941c0.171-1.044,0.128-2.131,0.517-3.107
	c0.846-0.242,0.959-0.244,1.951-0.056c0.282,0.448,0.178,1.008,0.287,1.519c0.104,0.486,0.154,0.982,0.234,1.508
	c-0.141,0.063-0.283,0.087-0.339,0.168c-0.089,0.125,0.007,0.225,0.138,0.277c0.196,0.079,0.324,0.207,0.247,0.432
	c-0.146,0.433,0.121,0.787,0.253,1.148c0.109,0.295,0.4,0.225,0.646,0.068c0.229-1.355,0.455-2.716,0.684-4.076
	c0.02-0.125,0.029-0.249,0.057-0.372c0.104-0.481,0.279-0.667,0.752-0.69c0.375-0.019,0.754,0.016,1.129,0.054
	c0.283,0.028,0.455,0.24,0.449,0.513c-0.004,0.124-0.033,0.249-0.062,0.369c-0.204,0.854-0.425,1.704-0.614,2.561
	c-0.204,0.92-0.381,1.847-0.568,2.77c-0.297,1.443-0.596,2.889-0.883,4.336c-0.056,0.283-0.205,0.453-0.472,0.521
	c-0.272,0.071-0.552,0.18-0.824,0.172c-0.911-0.028-1.192-0.004-1.265-1.063c-0.068-0.97-0.215-1.933-0.34-2.899
	c-0.061-0.467-0.164-0.93-0.524-1.277c0.323,0.102,0.323,0.102,0.567-0.061C67.534,107.721,67.369,107.74,67.205,107.757"/>
<path d="M11.038,107.792c0.005,0.021,0.004,0.051,0.017,0.059c0.019,0.014,0.047,0.01,0.073,0.016
	c-0.008-0.036-0.016-0.069-0.024-0.102C11.083,107.775,11.061,107.783,11.038,107.792 M10.54,108.124
	c-0.026-0.007-0.055-0.017-0.081-0.025c-0.003,0.036-0.006,0.071-0.01,0.107c0.028-0.005,0.06-0.009,0.084-0.023
	C10.542,108.174,10.538,108.144,10.54,108.124 M10.706,109.428c-0.037,0.028-0.076,0.054-0.115,0.081
	c0.022,0.02,0.045,0.057,0.063,0.055c0.051-0.009,0.099-0.031,0.147-0.05C10.77,109.484,10.738,109.457,10.706,109.428
	 M12.649,107.648c0.036-0.016,0.082-0.035,0.127-0.057c-0.021-0.018-0.041-0.049-0.063-0.049c-0.053-0.002-0.106,0.013-0.159,0.018
	C12.585,107.588,12.616,107.618,12.649,107.648 M11.664,108.139c0.141,0.15,0.223,0.028,0.297-0.053
	c0.023-0.029-0.004-0.095-0.008-0.144c-0.031,0.006-0.068,0-0.088,0.016C11.794,108.014,11.732,108.078,11.664,108.139
	 M14.231,109.115c-0.049-0.038-0.143-0.162-0.211-0.15c-0.101,0.02-0.23,0.123-0.261,0.216c-0.049,0.151,0.094,0.207,0.221,0.205
	C14.1,109.38,14.228,109.357,14.231,109.115 M11.715,108.89c-0.37,0.223-0.638,0.551-0.619,0.977
	c0.017,0.382-0.303,0.662-0.191,1.082c0.092,0.345-0.003,0.74-0.027,1.111c-0.033,0.502-0.087,1.004-0.114,1.506
	c-0.024,0.422-0.287,0.633-0.651,0.688c-0.37,0.058-0.752,0.058-1.128,0.048c-0.45-0.013-0.622-0.164-0.733-0.583
	c-0.126-0.487-0.24-0.977-0.361-1.463c-0.174-0.703-0.346-1.403-0.532-2.155c0.041-0.054,0.111-0.147,0.212-0.285
	c-0.299-0.082-0.403-0.304-0.475-0.586c-0.419-1.61-0.865-3.216-1.29-4.826c-0.078-0.301-0.105-0.611-0.157-0.93
	c0.596-0.476,1.26-0.406,1.904-0.283c0.275,0.052,0.482,0.302,0.515,0.614c0.123,1.157,0.586,2.245,0.667,3.409
	c0.007,0.12,0.044,0.255,0.109,0.352c0.223,0.336,0.153,0.649-0.075,0.92c0.218,0.227,0.399,0.162,0.515,0
	c0.124-0.179,0.185-0.395,0.288-0.588c0.129-0.242,0.271-0.477,0.411-0.72c-0.041-0.175-0.13-0.387-0.129-0.596
	c0.009-0.909,0.045-1.824,0.073-2.736c0.003-0.125,0.018-0.25,0.034-0.374c0.042-0.314,0.208-0.52,0.526-0.585
	c0.185-0.034,0.37-0.086,0.555-0.093c0.311-0.018,0.625-0.006,0.909-0.006c0.398,0.486,0.32,1.063,0.495,1.562
	c0.166,0.468,0.246,0.966,0.364,1.45c-0.14,0.107-0.254,0.196-0.394,0.303c0.167,0.105,0.322,0.201,0.518,0.326
	c-0.075,0.426,0.144,0.816,0.28,1.221c0.114,0.336,0.293,0.359,0.751,0.155c0.103-1.496,0.204-2.998,0.313-4.5
	c0.039-0.524,0.16-0.669,0.664-0.743c0.372-0.059,0.75-0.082,1.127-0.094c0.282-0.011,0.478,0.176,0.483,0.469
	c0.005,0.344-0.015,0.692-0.06,1.034c-0.124,0.962-0.286,1.92-0.396,2.888c-0.127,1.123-0.207,2.25-0.32,3.377
	c-0.065,0.658-0.15,1.312-0.23,1.968c-0.05,0.403-0.11,0.807-0.172,1.26c-0.621,0.567-1.378,0.582-2.223,0.418
	c-0.072-0.19-0.169-0.387-0.217-0.59c-0.243-1.04-0.452-2.09-0.717-3.124c-0.115-0.443-0.335-0.861-0.505-1.289
	c0.075,0.045,0.143,0.109,0.222,0.125c0.063,0.016,0.191,0.041,0.156-0.105c-0.007-0.029-0.082-0.065-0.124-0.063
	C11.882,108.839,11.798,108.871,11.715,108.89"/>
<path d="M39.792,110.585l-0.01,0.058l0.075-0.02L39.792,110.585z M41.404,106.652c-0.016,0.018-0.029,0.037-0.045,0.056
	c0.031,0.013,0.06,0.028,0.091,0.04c0.006-0.022,0.022-0.051,0.015-0.068C41.458,106.664,41.426,106.66,41.404,106.652
	 M40.249,104.693h-0.015c0.031,0.373,0.043,0.748,0.1,1.118c0.045,0.282,0.266,0.418,0.548,0.392
	c0.692-0.065,0.997-0.39,0.999-1.086c0.001-0.279-0.002-0.567-0.064-0.84c-0.047-0.201-0.165-0.406-0.302-0.563
	c-0.234-0.268-0.667-0.296-1.043-0.115c-0.317,0.153-0.323,0.428-0.276,0.721C40.215,104.443,40.232,104.568,40.249,104.693
	 M40.374,108.261c-0.059,0.996-0.028,1.957,0.081,2.917c0.043,0.372,0.028,0.752,0.011,1.129c-0.014,0.308-0.176,0.491-0.455,0.507
	c-0.562,0.025-1.126,0.03-1.688,0.019c-0.242-0.005-0.413-0.185-0.452-0.416c-0.081-0.46-0.173-0.927-0.174-1.392
	c-0.007-1.979,0.014-3.959,0.027-5.935c0.22-0.342-0.099-0.633-0.085-0.961c0.015-0.345-0.024-0.688-0.039-1.035
	c-0.012-0.282-0.021-0.565-0.034-0.849c-0.014-0.33,0.15-0.551,0.458-0.622c0.332-0.076,0.684-0.164,1.015-0.13
	c0.755,0.074,1.502,0.033,2.255-0.006c0.524-0.027,1.063,0.062,1.584,0.162c0.491,0.096,0.844,0.426,1.023,0.892
	c0.309,0.798,0.505,1.622,0.457,2.483c-0.034,0.668-0.143,1.313-0.672,1.805c-0.214,0.199-0.199,0.445-0.049,0.688
	c0.017,0.025,0.032,0.054,0.053,0.078c0.579,0.698,0.641,1.55,0.656,2.392c0.011,0.604,0.056,1.19,0.212,1.772
	c0.041,0.149,0.07,0.308,0.073,0.463c0.004,0.315-0.211,0.538-0.522,0.545c-0.407,0.009-0.815,0.003-1.221,0
	c-0.39-0.002-0.687-0.188-0.787-0.553c-0.115-0.42-0.174-0.861-0.215-1.294c-0.031-0.344,0.01-0.691,0.007-1.037
	c-0.002-0.219-0.021-0.438-0.044-0.658c-0.042-0.398-0.248-0.702-0.567-0.938C40.981,108.07,40.683,108.228,40.374,108.261"/>
<path d="M74.877,93.767l-0.056,0.028l0.058,0.024L74.877,93.767z M76.805,94.088c0.513-0.616,0.618-1.272,0.577-1.985
	c-0.031-0.529-0.034-1.07,0.037-1.595c0.113-0.836,0.107-1.675,0.15-2.512c0.021-0.396-0.211-0.642-0.524-0.824
	c-0.199-0.116-0.438-0.075-0.604,0.091c-0.252,0.26-0.375,0.576-0.393,0.934c-0.016,0.375-0.013,0.75-0.029,1.126
	c-0.046,1.12-0.123,2.243-0.134,3.366C75.881,93.294,76.048,93.866,76.805,94.088 M80.146,89.795
	c-0.09,0.999-0.229,1.996-0.25,2.996c-0.015,0.753-0.22,1.415-0.554,2.065c-0.428,0.828-1.108,1.261-2.032,1.311
	c-0.693,0.038-1.381,0.016-2.053-0.202c-0.697-0.226-1.202-0.653-1.527-1.311c-0.268-0.542-0.466-1.108-0.478-1.714
	c-0.037-1.854,0.026-3.704,0.282-5.547c0.109-0.803,0.617-1.359,1.061-1.959c0.137-0.182,0.41-0.287,0.641-0.373
	c0.912-0.338,1.852-0.36,2.783-0.129c1.168,0.293,1.807,0.861,1.983,2.407c0.092,0.81,0.065,1.634,0.091,2.45
	C80.11,89.792,80.128,89.793,80.146,89.795"/>
<path d="M57.985,84.595c0.915-0.396,1.257-0.406,2.473-0.072c0.026,0.246,0.084,0.518,0.079,0.789
	c-0.036,2.076-0.082,4.152-0.128,6.229c-0.016,0.723-0.018,1.439-0.204,2.152c-0.161,0.619-0.502,1.076-1.032,1.402
	c-0.515,0.316-1.057,0.524-1.683,0.533c-0.633,0.012-1.25-0.033-1.874-0.15c-0.964-0.181-1.471-0.789-1.686-1.687
	c-0.088-0.364-0.143-0.745-0.146-1.12c-0.024-1.855-0.019-3.713-0.044-5.57c-0.006-0.561-0.043-1.129-0.132-1.683
	c-0.05-0.31,0.028-0.563,0.153-0.812c0.063-0.12,0.216-0.231,0.352-0.276c0.398-0.131,1.543-0.024,2.04,0.163
	c0.158,0.38,0.11,0.795,0.106,1.195c-0.012,2.074-0.055,4.148-0.07,6.224c-0.012,1.114,0.066,1.203,1.197,1.62
	c0.432-0.291,0.509-0.783,0.475-1.221c-0.057-0.734,0.163-1.457-0.001-2.205c-0.113-0.508-0.03-1.061-0.021-1.594
	c0.02-1.066,0.045-2.133,0.076-3.197C57.925,85.068,57.964,84.821,57.985,84.595"/>
<path d="M89.743,106.662c-0.051-0.008-0.101-0.016-0.149-0.021c0.022,0.019,0.044,0.046,0.067,0.05
	C89.688,106.695,89.717,106.674,89.743,106.662 M90.832,107.648c0.022-0.021,0.044-0.041,0.065-0.062
	c-0.051-0.022-0.099-0.054-0.152-0.066c-0.016-0.005-0.043,0.035-0.065,0.056C90.729,107.598,90.78,107.625,90.832,107.648
	 M90.169,107.767c-0.018-0.023-0.041-0.068-0.053-0.063c-0.053,0.015-0.103,0.042-0.152,0.064c0.021,0.021,0.046,0.062,0.061,0.057
	C90.075,107.816,90.122,107.788,90.169,107.767 M91.418,108.779c0.05-0.018,0.101-0.039,0.151-0.057
	c-0.019-0.023-0.037-0.066-0.053-0.063c-0.048,0.005-0.094,0.026-0.14,0.043C91.39,108.727,91.403,108.753,91.418,108.779
	 M90.373,109.049c-0.109-0.021-0.192-0.039-0.275-0.044c-0.021-0.002-0.042,0.039-0.063,0.061c0.07,0.036,0.135,0.082,0.209,0.1
	C90.268,109.173,90.31,109.107,90.373,109.049 M91.473,107.954c-0.009-0.046-0.019-0.095-0.026-0.144
	c-0.027,0.014-0.064,0.019-0.076,0.039c-0.025,0.042-0.037,0.094-0.055,0.141C91.368,107.976,91.42,107.966,91.473,107.954
	 M88.362,102.643c0.549-0.005,1.137-0.129,1.726,0.058c0.461,0.142,0.558,0.285,0.504,0.748c-0.045,0.397-0.05,0.808-0.146,1.194
	c-0.09,0.357-0.078,0.668,0.082,0.999c0.055,0.115-0.021,0.29-0.026,0.438c-0.004,0.112,0.003,0.112,0.371,0.268
	c0.319-0.901,1.034-1.6,1.284-2.548c0.054-0.207,0.174-0.413,0.313-0.573c0.115-0.133,0.306-0.278,0.463-0.278
	c0.562-0.002,1.124,0.047,1.685,0.101c0.108,0.01,0.209,0.127,0.35,0.219c-0.044,0.179-0.053,0.371-0.139,0.521
	c-0.389,0.681-0.813,1.344-1.204,2.024c-0.343,0.598-0.662,1.211-0.989,1.818c-0.175,0.324-0.176,0.639-0.043,0.994
	c0.544,1.436,1.059,2.886,1.591,4.326c0.153,0.412,0.322,0.814,0.097,1.277c-0.383,0.12-0.756,0.012-1.123,0.004
	c-0.188-0.006-0.371-0.06-0.558-0.08c-0.755-0.078-0.788-0.094-0.957-0.787c-0.179-0.73-0.29-1.48-0.653-2.155
	c-0.058-0.104-0.049-0.244-0.074-0.367c-0.104-0.496-0.188-0.56-0.86-0.639c-0.006,1.116-0.134,2.225-0.157,3.338
	c-0.004,0.084-0.072,0.171-0.134,0.307c-0.558,0.136-1.146,0.167-1.731,0.052c-0.516-0.1-0.68-0.352-0.635-0.871
	c0.012-0.125,0.03-0.252,0.063-0.373c0.265-0.946,0.293-1.916,0.307-2.891c0.019-1.257,0.123-2.51,0.173-3.766
	c0.027-0.69,0.027-1.38,0.026-2.074C87.966,103.482,88.002,103.051,88.362,102.643"/>
<path d="M48.453,92.865c0.213,0.24,0.397,0.449,0.603,0.682c0.332-0.149,0.609-0.271,0.89-0.396
	c0.023-0.447,0.062-0.849,0.059-1.253c-0.002-0.403-0.094-0.817,0.264-1.188c0.691-0.075,1.406-0.058,2.043-0.022
	c0.326,0.262,0.355,0.559,0.355,0.834c0,0.887-0.108,1.75-0.478,2.575c-0.465,1.038-1.282,1.511-2.383,1.538
	c-0.439,0.012-0.883,0.007-1.318-0.04c-0.305-0.033-0.613-0.118-0.898-0.235c-1.063-0.431-1.479-1.328-1.566-2.383
	c-0.106-1.316-0.135-2.637-0.199-3.955c-0.017-0.359,0.201-0.682,0.063-1.086c-0.102-0.297,0.056-0.677,0.075-1.021
	c0.074-1.319,0.922-2.068,2.032-2.459c0.847-0.297,1.79-0.277,2.679,0.016c0.769,0.256,1.266,0.865,1.566,1.54
	c0.355,0.796,0.524,1.679,0.359,2.578c-0.018,0.086-0.071,0.167-0.135,0.309c-0.596,0.102-1.215,0.171-1.842,0.091
	c-0.431-0.055-0.571-0.234-0.602-0.683c-0.034-0.497-0.064-0.994-0.097-1.502c-0.317-0.149-0.599-0.28-0.928-0.435
	c-0.368,0.352-0.523,0.77-0.528,1.254c-0.009,0.815-0.014,1.632-0.015,2.449C48.452,90.981,48.453,91.892,48.453,92.865"/>
<path d="M36.5,86.804c0.005,0.02,0.005,0.049,0.018,0.056c0.021,0.014,0.052,0.011,0.077,0.014c-0.006-0.03-0.012-0.064-0.02-0.096
	C36.551,86.785,36.525,86.794,36.5,86.804 M36.017,91.89c-0.025-0.008-0.051-0.02-0.075-0.018c-0.008,0-0.015,0.035-0.023,0.055
	c0.025,0.006,0.05,0.019,0.074,0.016C36.002,91.942,36.009,91.909,36.017,91.89 M36.473,92.224c0.281,0,0.528,0.014,0.772-0.004
	c0.321-0.021,0.453-0.161,0.416-0.483c-0.111-0.955-0.237-1.91-0.374-2.86c-0.014-0.098-0.127-0.234-0.213-0.252
	c-0.088-0.015-0.269,0.073-0.291,0.15c-0.199,0.68-0.441,1.359-0.529,2.056C36.2,91.268,36.388,91.736,36.473,92.224 M40.682,95.477
	c-0.298,0.27-0.614,0.35-0.921,0.268c-0.317-0.086-0.6-0.081-0.913,0.007c-0.294,0.079-0.473-0.029-0.607-0.313
	c-0.106-0.228-0.169-0.472-0.254-0.708c-0.053-0.145-0.109-0.29-0.18-0.484c-0.248-0.019-0.494-0.062-0.738-0.051
	c-0.52,0.023-0.904,0.236-1.005,0.805c-0.026,0.153-0.053,0.323-0.139,0.445c-0.102,0.145-0.259,0.332-0.404,0.347
	c-0.559,0.05-1.125,0.064-1.684,0.044c-0.267-0.011-0.418-0.279-0.372-0.553c0.148-0.834,0.319-1.664,0.453-2.501
	c0.381-2.388,0.749-4.774,1.121-7.163c0.165-1.055,0.29-1.154,1.322-1.139c0.439,0.007,0.877-0.043,1.316-0.051
	c0.562-0.01,0.795,0.179,0.932,0.721c0.005,0.031,0.009,0.063,0.012,0.094c0.047,1.01,0.431,1.949,0.602,2.934
	c0.174,0.989,0.363,1.979,0.58,2.959c0.205,0.914,0.477,1.813,0.684,2.728C40.604,94.378,40.81,94.888,40.682,95.477"/>
<path d="M32.527,106.86c-0.003-0.022,0.002-0.058-0.012-0.069c-0.019-0.012-0.052-0.01-0.078-0.012
	c0.005,0.036,0.008,0.069,0.013,0.104C32.476,106.875,32.502,106.868,32.527,106.86 M35.694,108.208
	c-0.828,0.088-1.7,0.181-2.633,0.279c0.048,0.161,0.126,0.314,0.13,0.469c0.003,0.182-0.098,0.364-0.084,0.543
	c0.025,0.321,0,0.662,0.216,0.945c0.233,0.305,0.553,0.396,0.916,0.377c0.157-0.007,0.31-0.041,0.467-0.053
	c0.437-0.034,0.875-0.077,1.315-0.09c0.537-0.021,0.683,0.115,0.709,0.625c0.015,0.281,0.024,0.564,0.007,0.848
	c-0.032,0.568-0.261,0.8-0.817,0.809c-0.91,0.01-1.821-0.004-2.733,0.004c-0.469,0.006-0.938,0.031-1.408,0.047
	c-0.188,0.005-0.377,0.02-0.561-0.004c-0.343-0.041-0.468-0.16-0.532-0.539c-0.279-1.678-0.437-3.358-0.165-5.056
	c0.048-0.306,0.051-0.627,0.031-0.935c-0.05-0.848-0.131-1.692-0.19-2.537c-0.027-0.408-0.044-0.819-0.051-1.227
	c-0.01-0.728,0.263-1.011,1.017-1.031c0.628-0.02,1.256-0.003,1.885-0.018c0.721-0.015,1.442-0.041,2.165-0.07
	c0.73-0.029,0.96,0.173,1.006,0.908c0.008,0.125,0.005,0.252-0.002,0.377c-0.054,1.108-0.401,1.09-1.146,1.076
	c-0.409-0.009-0.816-0.006-1.225,0c-0.626,0.006-0.92,0.272-0.98,0.87c-0.002,0.031-0.007,0.067,0.001,0.095
	c0.101,0.352-0.146,0.559-0.38,0.765c0.547,0.325,1.079,0.407,1.647,0.356c0.375-0.035,0.754-0.025,1.13-0.014
	c0.222,0.012,0.423,0.215,0.444,0.423c0.036,0.339,0.059,0.681,0.086,1.023C35.978,107.737,35.914,107.97,35.694,108.208"/>
<path d="M19.033,109.65c-0.027-0.008-0.054-0.018-0.081-0.025c-0.002,0.036-0.006,0.071-0.008,0.107
	c0.027-0.008,0.058-0.008,0.082-0.023C19.036,109.703,19.03,109.671,19.033,109.65 M20.015,106.356
	c-0.148,0.079-0.352,0.125-0.374,0.214c-0.171,0.721-0.373,1.443-0.435,2.175c-0.036,0.437,0.166,0.89,0.26,1.339
	c0.271-0.023,0.49-0.029,0.705-0.062c0.338-0.046,0.445-0.17,0.409-0.487C20.465,108.486,20.369,107.434,20.015,106.356
	 M20.807,112.007c-0.294,0-0.542-0.019-0.787,0.002c-0.451,0.035-0.767,0.237-0.851,0.724c-0.135,0.778-0.279,1.042-1.28,1.004
	c-0.251-0.01-0.502,0.017-0.754,0.015c-0.242-0.003-0.409-0.136-0.522-0.361c0.147-1.043,0.353-2.092,0.433-3.154
	c0.143-1.816,0.481-3.607,0.636-5.421c0.049-0.563,0.121-1.127,0.203-1.685c0.088-0.613,0.324-0.854,0.936-0.81
	c0.513,0.035,0.998-0.087,1.495-0.116c0.597-0.033,0.793,0.111,0.96,0.672c0.017,0.06,0.027,0.125,0.033,0.186
	c0.1,0.971,0.484,1.872,0.683,2.82c0.2,0.953,0.394,1.907,0.629,2.851c0.241,0.973,0.534,1.931,0.793,2.899
	c0.106,0.393,0.198,0.793,0.267,1.192c0.051,0.298-0.081,0.491-0.374,0.56c-0.21,0.05-0.442,0.098-0.645,0.055
	c-0.259-0.057-0.48-0.036-0.733,0.038c-0.36,0.104-0.53,0.018-0.681-0.312C21.094,112.822,20.979,112.462,20.807,112.007"/>
<path d="M52.187,108.789c0.026-0.012,0.052-0.027,0.078-0.041c-0.02-0.022-0.051-0.063-0.056-0.062
	c-0.034,0.02-0.063,0.05-0.095,0.075C52.14,108.771,52.163,108.781,52.187,108.789 M52.759,103.826
	c0.025,0.008,0.047,0.015,0.071,0.021c-0.015-0.022-0.03-0.046-0.046-0.071C52.776,103.792,52.769,103.808,52.759,103.826
	 M52.655,109.178c0.273,0,0.488,0.011,0.701-0.003c0.313-0.02,0.461-0.165,0.445-0.473c-0.055-0.991-0.045-1.992-0.277-2.967
	c-0.021-0.092-0.148-0.186-0.248-0.224c-0.051-0.019-0.197,0.071-0.217,0.138c-0.215,0.711-0.418,1.426-0.619,2.14
	c-0.006,0.024,0.039,0.054,0.043,0.082C52.538,108.268,52.588,108.667,52.655,109.178 M53.886,111.154
	c-0.311-0.019-0.558-0.06-0.803-0.041c-0.445,0.03-0.73,0.242-0.88,0.705c-0.3,0.933-0.353,0.943-1.349,0.92
	c-0.189-0.006-0.379,0.002-0.566-0.006c-0.219-0.01-0.219-0.015-0.665-0.382c0.176-0.892,0.368-1.809,0.537-2.728
	c0.438-2.408,0.868-4.818,1.301-7.229c0.022-0.125,0.029-0.251,0.06-0.374c0.117-0.451,0.354-0.682,0.799-0.641
	c0.566,0.053,1.123,0.016,1.688-0.021c0.555-0.037,0.823,0.176,0.883,0.754c0.11,1.096,0.418,2.15,0.573,3.233
	c0.126,0.871,0.257,1.743,0.421,2.606c0.18,0.953,0.404,1.897,0.6,2.846c0.088,0.43,0.168,0.866,0.226,1.3
	c0.044,0.341-0.112,0.55-0.437,0.621c-0.15,0.036-0.322,0.074-0.463,0.033c-0.34-0.095-0.658-0.153-1.008-0.023
	c-0.188,0.071-0.373-0.063-0.468-0.239c-0.088-0.164-0.147-0.344-0.206-0.521C54.05,111.73,53.985,111.488,53.886,111.154"/>
<path d="M75.438,107.079c0.024-0.015,0.052-0.028,0.077-0.043c-0.02-0.021-0.053-0.063-0.06-0.059
	c-0.034,0.019-0.065,0.051-0.096,0.079C75.386,107.064,75.409,107.072,75.438,107.079 M74.265,109.642
	c-0.023-0.01-0.047-0.018-0.069-0.027c-0.007,0.032-0.015,0.066-0.021,0.1c0.026-0.002,0.057,0.002,0.076-0.012
	C74.263,109.696,74.261,109.664,74.265,109.642 M73.593,102.378c0.328-0.476,0.678-0.613,1.129-0.565
	c0.438,0.047,0.879,0.047,1.318,0.067c0.91,0.045,1.818,0.104,2.729,0.127c0.575,0.015,0.882,0.117,0.918,0.906
	c0.007,0.125-0.003,0.252-0.019,0.375c-0.095,0.793-0.209,1.278-1.326,1.08c-0.43-0.074-0.875-0.066-1.315-0.087
	c-0.123-0.007-0.247,0.009-0.339,0.013c-0.503,0.306-0.538,0.772-0.5,1.219c-0.182,0.154-0.315,0.271-0.458,0.396
	c0.521,0.385,1.08,0.484,1.679,0.471c0.346-0.006,0.691,0.026,1.033,0.064c0.195,0.023,0.413,0.145,0.396,0.341
	c-0.039,0.528,0.146,1.066-0.059,1.582c-0.021,0.06-0.068,0.108-0.136,0.207c-0.858,0.175-1.772,0.021-2.661,0.127
	c0,0.285,0.102,0.64-0.025,0.869c-0.16,0.293,0.028,0.53-0.027,0.804c-0.063,0.314,0.356,0.685,0.718,0.715
	c0.312,0.028,0.626,0.011,0.942,0.011c0.406,0.002,0.816-0.017,1.225,0.002c0.378,0.018,0.572,0.227,0.558,0.612
	c-0.014,0.373-0.049,0.75-0.112,1.123c-0.066,0.377-0.27,0.535-0.654,0.535c-0.283,0-0.564-0.031-0.846-0.052
	c-0.908-0.073-1.815-0.16-2.725-0.221c-0.248-0.019-0.501,0.056-0.75,0.043c-0.244-0.011-0.494-0.054-0.729-0.127
	c-0.185-0.056-0.311-0.212-0.32-0.423c-0.083-1.726-0.176-3.45,0.234-5.154c0.08-0.332,0.108-0.68,0.113-1.021
	c0.016-1.07,0.008-2.138,0.008-3.209V102.378z"/>
<path d="M83.302,105.902c-0.15,0.131-0.288,0.25-0.437,0.375c0.604,0.393,1.235,0.505,1.903,0.486
	c0.25-0.007,0.504,0.014,0.751,0.053c0.379,0.06,0.497,0.24,0.485,0.662c-0.008,0.217,0.004,0.435-0.002,0.653
	c-0.006,0.156-0.01,0.313-0.045,0.464c-0.028,0.12-0.104,0.228-0.17,0.364c-0.898,0.158-1.813,0.013-2.715,0.11
	c0.047,0.317,0.205,0.656-0.057,0.957c-0.225,0.258,0.199,0.529-0.037,0.796c-0.021,0.024,0.167,0.241,0.261,0.366
	c0.144,0.187,0.335,0.277,0.571,0.279c0.281,0,0.566,0.006,0.848,0.006c0.377,0.004,0.756-0.008,1.133,0.01
	c0.51,0.028,0.651,0.185,0.635,0.715c-0.01,0.343-0.03,0.691-0.1,1.027c-0.078,0.383-0.291,0.525-0.668,0.536
	c-0.093,0.003-0.188-0.006-0.283-0.016c-1.062-0.104-2.123-0.216-3.188-0.31c-0.246-0.021-0.498,0.026-0.747,0.024
	c-0.217,0-0.439,0.002-0.648-0.046c-0.359-0.085-0.439-0.214-0.488-0.588c-0.189-1.447-0.023-2.883,0.117-4.322
	c0.007-0.061,0.012-0.127,0.033-0.182c0.357-0.875,0.278-1.792,0.291-2.701c0.012-0.85,0.014-1.7,0.043-2.548
	c0.024-0.662,0.349-0.945,1.029-0.917c0.566,0.022,1.13,0.068,1.696,0.101c0.817,0.046,1.63,0.101,2.446,0.136
	c0.674,0.03,0.894,0.239,0.908,0.92c0.004,0.125-0.008,0.25-0.022,0.375c-0.097,0.791-0.249,1.278-1.339,1.069
	c-0.43-0.082-0.877-0.087-1.316-0.106c-0.447-0.019-0.713,0.181-0.814,0.608C83.325,105.471,83.325,105.695,83.302,105.902"/>
<path d="M63.446,89.649c-0.051-0.022-0.101-0.05-0.154-0.063c-0.014-0.004-0.053,0.039-0.053,0.063
	c-0.002,0.021,0.039,0.064,0.051,0.063C63.346,89.699,63.396,89.671,63.446,89.649 M65.008,90.866
	c0.052-0.019,0.106-0.037,0.158-0.056c-0.019-0.022-0.042-0.066-0.06-0.063c-0.052,0.008-0.103,0.033-0.154,0.05
	C64.971,90.82,64.989,90.843,65.008,90.866 M65.597,86.072c-0.021-0.012-0.044-0.029-0.068-0.034
	c-0.025-0.004-0.053,0.004-0.082,0.007c0.027,0.016,0.054,0.039,0.08,0.047C65.548,86.095,65.573,86.08,65.597,86.072
	 M65.469,89.052c0.076-0.539,0.199-1.031,0.201-1.525c0.005-0.734-0.146-0.866-0.922-1.051c-0.056-0.014-0.121,0.007-0.147,0.008
	c-0.307,0.226-0.479,0.49-0.459,0.865c0.021,0.404-0.01,0.814,0.025,1.218c0.042,0.475,0.371,0.685,0.85,0.588
	C65.14,89.128,65.261,89.099,65.469,89.052 M61.515,95.468c-0.023-0.156-0.058-0.279-0.056-0.401
	c0.017-1.163,0.044-2.326,0.058-3.489c0.006-0.298,0.051-0.561,0.332-0.757c-0.117-0.232-0.357-0.397-0.314-0.716
	c0.06-0.463,0.089-0.937,0.09-1.405c0.003-0.909-0.02-1.82-0.035-2.731c-0.006-0.281-0.036-0.564-0.027-0.847
	c0.012-0.483,0.219-0.741,0.674-0.726c1.377,0.047,2.769-0.045,4.129,0.235c0.906,0.188,1.498,0.779,1.676,1.704
	c0.177,0.924,0.247,1.837,0.089,2.795c-0.164,0.982-1.401,2.275-2.521,2.144c-0.215-0.025-0.441-0.015-0.658,0.016
	c-0.594,0.085-0.869,0.412-0.857,1.024c0.014,0.723,0.051,1.445,0.075,2.169c0.008,0.188,0.026,0.378,0.019,0.564
	c-0.02,0.53-0.246,0.718-0.773,0.683c-0.311-0.02-0.626-0.038-0.938-0.02C62.151,95.728,61.849,95.71,61.515,95.468"/>
<path d="M24.878,90.431c-0.006-0.021-0.008-0.052-0.021-0.061c-0.026-0.014-0.058-0.012-0.087-0.017
	c0.009,0.036,0.019,0.073,0.028,0.11C24.825,90.453,24.852,90.442,24.878,90.431 M24.502,91.557
	c-0.037-0.004-0.076-0.006-0.116-0.009c0.019,0.013,0.036,0.035,0.054,0.035C24.46,91.585,24.482,91.568,24.502,91.557
	 M24.367,87.203c0.394-0.217,0.558-0.531,0.616-0.933c0.041-0.276,0.1-0.559,0.203-0.817c0.147-0.383,0.426-0.616,0.864-0.603
	c0.529,0.019,1.063-0.071,1.579,0.043c0.147,0.383,0.055,0.707-0.076,1.033c-0.443,1.108-0.843,2.233-1.336,3.317
	c-0.272,0.601-0.28,1.127-0.012,1.711c0.512,1.111,1.001,2.234,1.491,3.356c0.211,0.486,0.436,0.968,0.559,1.556
	c-0.251,0.1-0.469,0.209-0.701,0.267c-0.179,0.045-0.374,0.026-0.563,0.028c-1.017,0.006-1.324-0.196-1.459-1.182
	c-0.069-0.5-0.31-0.877-0.557-1.269c-0.056-0.091-0.222-0.198-0.295-0.173c-0.128,0.045-0.273,0.162-0.325,0.287
	c-0.109,0.258-0.163,0.539-0.235,0.813c-0.078,0.303-0.156,0.608-0.228,0.914c-0.079,0.339-0.297,0.535-0.614,0.655
	c-0.549,0.209-1.108,0.175-1.642,0.121c-0.239-0.17-0.27-0.394-0.218-0.61c0.099-0.396,0.22-0.786,0.351-1.171
	c0.211-0.624,0.439-1.241,0.658-1.862c0.198-0.562,0.376-1.132,0.595-1.685c0.2-0.5,0.181-0.934-0.094-1.428
	c-0.671-1.209-1.273-2.455-1.901-3.687c-0.043-0.083-0.08-0.172-0.107-0.261c-0.063-0.221,0.063-0.504,0.275-0.522
	c0.561-0.051,1.127-0.083,1.689-0.088c0.275-0.002,0.464,0.194,0.563,0.44c0.119,0.291,0.199,0.596,0.308,0.893
	C23.872,86.669,23.956,87.019,24.367,87.203"/>
<path d="M83.478,94.504c-0.028,0.47-0.033,0.941-0.092,1.407c-0.049,0.385-0.252,0.584-0.627,0.568
	c-0.562-0.024-1.123-0.106-1.68-0.195c-0.195-0.031-0.313-0.204-0.318-0.416c-0.002-0.125-0.014-0.262,0.029-0.374
	c0.242-0.601,0.217-1.233,0.235-1.86c0.062-2.106,0.111-4.212,0.169-6.317c0.018-0.567,0.036-1.134,0.084-1.697
	c0.034-0.392,0.194-0.504,0.609-0.573c0.722-0.121,1.441-0.095,2.156,0.04c0.867,0.162,1.733,0.314,2.623,0.24
	c0.152-0.013,0.313,0.012,0.465,0.043c0.293,0.06,0.433,0.218,0.447,0.522c0.012,0.28-0.015,0.565,0.006,0.847
	c0.041,0.547-0.399,1.021-1.031,0.888c-0.49-0.102-0.996-0.133-1.497-0.177c-0.216-0.019-0.442-0.021-0.653,0.022
	c-0.43,0.088-0.645,0.34-0.654,0.795c-0.008,0.31,0.014,0.631,0.094,0.929c0.104,0.389,0.359,0.549,0.767,0.556
	c0.315,0.005,0.63-0.02,0.945-0.01c0.186,0.006,0.38,0.027,0.551,0.095c0.286,0.111,0.463,0.334,0.437,0.656
	c-0.029,0.408-0.074,0.813-0.139,1.218c-0.031,0.202-0.195,0.334-0.396,0.348c-0.278,0.018-0.562-0.006-0.842-0.019
	c-0.314-0.014-0.627-0.067-0.939-0.05c-0.428,0.025-0.592,0.207-0.666,0.643c-0.048,0.278-0.111,0.555-0.128,0.834
	c-0.022,0.344-0.007,0.69-0.007,1.036C83.443,94.503,83.46,94.503,83.478,94.504"/>
<path d="M21.457,49.914c-0.024-0.045-0.046-0.091-0.07-0.138c-0.045,0.044-0.105,0.08-0.129,0.133
	c-0.009,0.021,0.059,0.078,0.094,0.119C21.387,49.99,21.423,49.953,21.457,49.914 M22.022,51.682c0.006,0.022,0.013,0.046,0.02,0.07
	c0.036-0.021,0.072-0.041,0.107-0.06c-0.018-0.017-0.037-0.046-0.057-0.046C22.069,51.644,22.045,51.668,22.022,51.682
	 M23.583,49.658c-0.11-0.046-0.18-0.092-0.254-0.099c-0.024-0.003-0.095,0.104-0.083,0.13c0.037,0.069,0.106,0.121,0.162,0.18
	C23.457,49.81,23.506,49.75,23.583,49.658 M22.901,42.637c0.126,0.442,0.074,0.781,0.046,1.104
	c-0.068,0.798,0.052,1.566,0.265,2.329c0.243,0.878,0.448,1.768,0.703,2.642c0.274,0.942,0.241,1.816-0.182,2.737
	c-0.394,0.859-0.962,1.451-1.795,1.829c-0.114,0.052-0.233,0.098-0.354,0.131c-1.158,0.314-2.945-0.455-3.492-1.529
	c-0.498-0.98-0.579-1.982-0.033-2.982c0.47-0.862,1.026-1.65,1.837-2.24c0.301-0.218,0.555-0.506,0.813-0.781
	c0.28-0.296,0.564-0.594,0.803-0.924c0.309-0.431,0.584-0.887,0.857-1.343C22.538,43.329,22.612,42.988,22.901,42.637"/>
<path d="M27.533,113.168c-0.721,0.028-1.463,0.411-2.207-0.112c-0.236-1.383-0.043-2.798-0.129-4.201
	c-0.086-1.404-0.209-2.805-0.316-4.219c-0.181-0.234-0.432-0.334-0.731-0.332c-0.189,0-0.378-0.012-0.566,0
	c-0.582,0.041-0.901-0.206-0.886-0.917c0.002-0.127,0.003-0.252,0.012-0.377c0.019-0.219,0.043-0.435,0.061-0.631
	c0.235-0.304,0.542-0.337,0.86-0.342c0.661-0.013,1.32-0.013,1.979-0.041c0.97-0.043,1.941-0.112,2.913-0.159
	c0.245-0.014,0.492,0.015,0.735,0.025c0.38,0.574,0.301,1.176,0.265,1.765c-0.017,0.271-0.228,0.448-0.507,0.466
	c-0.25,0.018-0.503-0.012-0.751,0.005c-0.409,0.028-0.708,0.293-0.764,0.704c-0.036,0.273-0.024,0.559-0.009,0.84
	c0.123,2.098,0.251,4.191,0.377,6.288C27.896,112.374,27.915,112.812,27.533,113.168"/>
<path d="M18.322,85.46c0.206,0.418,0.243,0.818,0.269,1.229c0.121,1.912,0.248,3.824,0.385,5.735
	c0.081,1.125,0.121,2.253,0.331,3.369c0.118,0.621-0.091,0.898-0.709,0.979c-0.461,0.061-0.939,0.038-1.404-0.01
	c-0.142-0.014-0.277-0.219-0.39-0.357c-0.052-0.064-0.048-0.18-0.052-0.271c-0.06-1.256-0.081-2.514-0.183-3.768
	c-0.092-1.125-0.269-2.244-0.414-3.365c-0.027-0.203-0.156-0.348-0.355-0.396c-0.334-0.08-0.675-0.135-1.012-0.213
	c-0.315-0.073-0.49-0.256-0.494-0.488c-0.004-0.364,0.146-0.704,0.433-0.759c0.71-0.135,1.141-0.605,1.531-1.148
	c0.018-0.025,0.038-0.051,0.057-0.076C16.966,85.121,17.231,85.055,18.322,85.46"/>
</svg>
