<?xml version="1.0" encoding="utf-8"?>
<!-- Generator: Adobe Illustrator 12.0.0, SVG Export Plug-In . SVG Version: 6.00 Build 51448)  -->
<!DOCTYPE svg PUBLIC "-//W3C//DTD SVG 1.1//EN" "http://www.w3.org/Graphics/SVG/1.1/DTD/svg11.dtd" [
	<!ENTITY ns_svg "http://www.w3.org/2000/svg">
	<!ENTITY ns_xlink "http://www.w3.org/1999/xlink">
]>
<svg  version="1.1" id="Layer_1" xmlns="&ns_svg;" xmlns:xlink="&ns_xlink;" width="106.998" height="131.086"
	 viewBox="0 0 106.998 131.086" overflow="visible" enable-background="new 0 0 106.998 131.086" xml:space="preserve">
<path d="M50.429,20.702c-0.204,0.32-0.302,0.437-0.362,0.572c-0.433,0.98-1.075,1.809-1.792,2.596
	c-0.399,0.435-0.762,0.909-1.084,1.404c-0.602,0.92-0.793,1.885-0.144,2.879c0.05,0.079,0.12,0.159,0.133,0.245
	c0.084,0.545,0.51,0.749,0.939,0.937c0.553,0.245,1.1,0.277,1.717,0.145c0.796-0.171,1.351-0.552,1.712-1.264
	c0.225-0.442-0.024-1.003,0.363-1.402c0.034-0.036,0.023-0.121,0.021-0.182c-0.007-0.124-0.023-0.249-0.033-0.372
	c-0.053-0.627-0.297-1.193-0.511-1.774C50.962,23.324,50.465,22.182,50.429,20.702 M40.63,28.204
	c-0.401,0.367-0.753,0.668-1.083,0.99c-0.759,0.742-1.36,1.609-1.966,2.475c-0.534,0.761-0.792,1.608-0.853,2.525
	c-0.016,0.216,0.033,0.469-0.065,0.638c-0.206,0.361-0.083,0.661,0.064,0.97c0.255,0.537,0.607,0.992,1.08,1.369
	c0.757,0.604,1.606,0.829,2.565,0.946c1.196,0.148,1.972-0.454,2.646-1.22c1.178-1.341,1.083-2.968,0.836-4.597
	c-0.004-0.031-0.017-0.061-0.03-0.088c-0.243-0.536-0.489-1.07-0.731-1.604c-0.062-0.141-0.152-0.281-0.167-0.428
	c-0.036-0.377-0.202-0.705-0.332-1.052c-0.157-0.424-0.375-0.832-0.403-1.306c-0.02-0.337-0.125-0.67-0.216-1
	c-0.036-0.136-0.127-0.256-0.233-0.459C41.172,26.961,40.818,27.585,40.63,28.204 M60.53,65.2c0.027-0.169,0.066-0.319,0.073-0.47
	c0.045-0.931,0.092-1.863,0.122-2.795c0.02-0.651-0.073-1.319,0.044-1.95c0.194-1.05,0.174-2.104,0.239-3.158
	c0.108-1.8,0.196-3.602,0.319-5.401c0.06-0.895,0.161-1.791,0.278-2.682c0.053-0.405-0.096-0.678-0.426-0.846
	c-0.498-0.253-1.004-0.49-1.521-0.701c-0.574-0.234-1.15-0.214-1.714,0.078c-0.33,0.172-0.667,0.333-1.009,0.484
	c-0.879,0.384-1.764,0.566-2.705,0.164c-0.626-0.271-1.28-0.482-1.93-0.7c-1.126-0.378-2.282-0.602-3.478-0.518
	c-0.879,0.061-1.713,0.293-2.493,0.714c-1.038,0.56-2.14,0.842-3.325,0.722c-0.501-0.052-0.956-0.156-1.213-0.688
	c-0.096-0.201-0.344-0.358-0.556-0.469c-1.497-0.784-3.067-0.996-4.69-0.481c-0.934,0.295-1.856,0.525-2.832,0.237
	c-0.205-0.061-0.413-0.12-0.615-0.191c-0.595-0.206-1.194-0.309-1.833-0.247c-0.817,0.08-1.582,0.339-2.334,0.628
	c-1.01,0.388-1.325,0.887-1.19,1.92c0.118,0.891,0.186,1.789,0.261,2.685c0.05,0.589,0.072,1.181,0.105,1.77
	c0.042,0.746,0.064,1.493,0.122,2.236c0.114,1.478,0.527,2.937,0.294,4.44c-0.018,0.117,0.048,0.245,0.045,0.368
	c-0.008,0.615,0.104,1.219-0.04,1.849c-0.131,0.565-0.041,1.184,0.245,1.718c0.131,0.244,0.177,0.46,0.086,0.708
	c-0.123,0.332-0.158,0.658,0.018,1.025c0.375,0.084,0.763,0.185,1.158,0.25c0.178,0.031,0.384,0.039,0.549-0.021
	c0.705-0.256,1.421-0.09,2.121-0.04c0.434,0.03,0.842,0.126,1.274-0.027c0.191-0.065,0.423-0.017,0.637-0.011
	c0.215,0.007,0.431,0.036,0.647,0.038c0.806,0.001,1.614-0.014,2.423-0.005c0.405,0.004,0.796,0.008,1.193-0.138
	c0.315-0.114,0.66-0.11,1.002,0.028c0.354,0.144,0.748,0.134,1.095-0.018c0.623-0.269,1.277-0.242,1.924-0.248
	c0.37-0.005,0.74,0.11,1.095-0.093c0.066-0.038,0.207-0.037,0.26,0.008c0.399,0.341,0.88,0.27,1.337,0.27
	c2.334-0.003,4.659-0.261,6.998-0.197c1.305,0.035,2.612-0.053,3.919-0.076c0.653-0.012,1.307,0.017,1.961-0.01
	C59.148,65.331,59.835,65.366,60.53,65.2 M70.28,0.089c-0.203,0.286-0.283,0.402-0.364,0.518c1.007,0.845,0.978,2.154-0.351,2.82
	c-0.084,0.701-0.182,1.438-0.262,2.177c-0.248,2.259-0.496,4.52-0.734,6.779c-0.393,3.717-0.773,7.433-1.167,11.149
	c-0.269,2.54-0.556,5.074-0.817,7.615c-0.291,2.787-0.598,5.572-0.826,8.365c-0.123,1.488-0.256,2.973-0.48,4.447
	c-0.016,0.093-0.047,0.194-0.023,0.278c0.187,0.655-0.009,1.299-0.057,1.943c-0.032,0.453-0.025,0.902-0.229,1.357
	c-0.18,0.404-0.099,0.92-0.147,1.383c-0.079,0.742-0.177,1.482-0.252,2.224c-0.03,0.277-0.011,0.558-0.033,0.837
	c-0.04,0.52,0.021,1.053-0.231,1.549c-0.092,0.185-0.082,0.425-0.108,0.64c-0.317,2.472-0.45,4.961-0.685,7.441
	c-0.141,1.487-0.381,2.963-0.569,4.447c-0.091,0.708-0.159,1.421-0.242,2.132c-0.017,0.149-0.058,0.295-0.099,0.483
	c-0.227,0.046-0.432,0.103-0.641,0.126c-3.561,0.432-7.133,0.707-10.708,0.944c-2.207,0.146-4.419,0.167-6.629,0.243
	c-0.094,0.004-0.188-0.002-0.281,0.006c-2.177,0.185-4.357,0.109-6.536,0.06c-2.802-0.063-5.605-0.188-8.377-0.628
	c-1.043-0.167-2.074-0.395-3.157-0.602c-0.081-0.989-0.448-1.899-0.313-2.887c0.045-0.326-0.075-0.676-0.109-1.015
	c-0.097-0.993-0.184-1.985-0.287-2.976c-0.053-0.525-0.157-1.035-0.285-1.551c-0.186-0.749-0.216-1.541-0.267-2.316
	c-0.029-0.436-0.021-0.864-0.167-1.288c-0.079-0.23-0.074-0.491-0.1-0.737c-0.164-1.519-0.332-3.037-0.486-4.557
	c-0.086-0.865-0.159-1.723-0.126-2.602c0.037-0.99-0.105-1.99-0.21-2.98c-0.167-1.549-0.378-3.092-0.548-4.64
	c-0.047-0.429-0.016-0.866-0.023-1.299c-0.003-0.184,0.012-0.374-0.023-0.553c-0.211-1.101-0.307-2.213-0.405-3.33
	c-0.18-2.079-0.469-4.149-0.698-6.223c-0.252-2.292-0.491-4.585-0.736-6.878c-0.016-0.153-0.001-0.346-0.087-0.451
	c-0.527-0.646-0.405-1.452-0.546-2.185c-0.146-0.761-0.222-1.549-0.204-2.322c0.016-0.65,0.033-1.285-0.115-1.918
	c0.23-0.577-0.052-1.098-0.214-1.616c-0.18-0.573-0.247-1.101-0.1-1.718c0.14-0.584,0.072-1.236-0.159-1.835
	c-0.054-0.14-0.141-0.299-0.117-0.433c0.048-0.262-0.006-0.458-0.13-0.699c-0.117-0.224-0.122-0.537-0.092-0.802
	c0.064-0.595,0.038-1.175-0.048-1.765c-0.127-0.862-0.205-1.728-0.298-2.595c-0.047-0.436-0.146-0.809-0.488-1.161
	c-0.661-0.678-0.792-1.868-0.391-2.611c0.216-0.4,0.504-0.706,0.998-0.743c0.215-0.018,0.428-0.094,0.644-0.099
	c0.839-0.022,1.679-0.028,2.518-0.036C22.969,0,23.265-0.026,23.554,0.176c0.154,0.106,0.421,0.073,0.635,0.065
	c1.148-0.05,2.297-0.113,3.446-0.169c0.217-0.009,0.451-0.054,0.651,0.003c0.549,0.16,1.108,0.139,1.667,0.152
	c0.777,0.021,1.556,0.057,2.334,0.048c0.495-0.007,0.987-0.092,1.481-0.133c0.554-0.046,1.1-0.1,1.666,0.019
	c1.167,0.243,2.359,0.116,3.541,0.106c1.179-0.413,2.403-0.205,3.607-0.227c0.639-0.012,1.284,0.194,1.944,0.142
	c0.43-0.034,0.861-0.069,1.293-0.107c0.832-0.074,1.678-0.067,2.517-0.038c0.516,0.016,1.039-0.026,1.55,0.203
	c0.257,0.115,0.617,0.052,0.921,0.006c1.087-0.165,2.176-0.024,3.264-0.052c0.496-0.013,0.991-0.043,1.486-0.069
	c0.898-0.049,1.798-0.208,2.693,0.023c0.088,0.022,0.186,0.009,0.278,0.009c1.056-0.003,2.11-0.019,3.165-0.005
	c0.807,0.011,1.615,0.081,2.421,0.087c1.058,0.004,2.118-0.017,3.176-0.053c0.621-0.021,1.237-0.107,1.857-0.141
	C69.451,0.028,69.761,0.066,70.28,0.089"/>
<path d="M0,90.543c0.778-0.401,1.478-0.549,2.159-0.737c2.91-0.804,5.819-1.615,8.744-2.365c2.17-0.556,4.36-1.037,6.549-1.522
	c2.128-0.469,4.26-0.924,6.399-1.347c1.894-0.372,3.794-0.721,5.699-1.032c3.167-0.516,6.335-1.021,9.511-1.476
	c2.468-0.35,4.944-0.638,7.421-0.907c3.005-0.326,6.011-0.635,9.022-0.891c3.662-0.309,7.33-0.547,11.004-0.668
	c2.118-0.069,4.235-0.173,6.351-0.21c2.211-0.04,4.422-0.042,6.633-0.026c2.24,0.016,4.483,0.031,6.724,0.119
	c2.954,0.117,5.905,0.295,8.858,0.461c0.926,0.051,1.85,0.143,2.783,0.217c-0.016,0.228-0.171,0.163-0.264,0.19
	c-0.087,0.024-0.184,0.024-0.277,0.03c-1.587,0.08-3.172,0.169-4.759,0.238c-1.368,0.061-2.739,0.09-4.108,0.149
	c-2.521,0.108-5.041,0.229-7.562,0.345c-3.701,0.166-7.405,0.329-11.108,0.501c-1.338,0.064-2.674,0.14-4.011,0.229
	c-7.306,0.482-14.608,1.016-21.875,1.928c-4.112,0.514-8.216,1.075-12.317,1.671c-3.575,0.519-7.142,1.103-10.708,1.681
	c-4.09,0.666-8.174,1.358-12.259,2.043c-2.489,0.416-4.975,0.842-7.463,1.256C0.819,90.475,0.486,90.493,0,90.543"/>
<path d="M104.808,39.216l-0.057,0.029l0.063,0.017L104.808,39.216z M102.253,37.481c-0.01-0.022-0.019-0.043-0.025-0.066
	c-0.027,0.01-0.053,0.021-0.079,0.032c0.009,0.02,0.016,0.059,0.024,0.059C102.199,37.506,102.226,37.492,102.253,37.481
	 M102.155,36.345c0.023,0.005,0.051,0.01,0.075,0.013c-0.019-0.023-0.037-0.047-0.054-0.07
	C102.169,36.306,102.162,36.326,102.155,36.345 M103.354,34.046c-0.005,0.023-0.024,0.051-0.017,0.072
	c0.006,0.02,0.039,0.03,0.061,0.046c0.008-0.043,0.015-0.084,0.021-0.125C103.398,34.041,103.376,34.042,103.354,34.046
	 M99.146,35.805c-0.054-0.08-0.091-0.168-0.11-0.164c-0.076,0.015-0.146,0.059-0.217,0.092c0.035,0.046,0.066,0.124,0.105,0.13
	C98.992,35.87,99.064,35.829,99.146,35.805 M102.947,33.424c0.013,0.02,0.024,0.058,0.036,0.058c0.053,0,0.104-0.011,0.156-0.019
	c-0.017-0.031-0.036-0.093-0.045-0.092C103.042,33.378,102.996,33.405,102.947,33.424 M100.115,33.151
	c-0.06-0.012-0.124-0.042-0.176-0.027c-0.028,0.008-0.035,0.09-0.054,0.14c0.055,0.016,0.123,0.057,0.162,0.038
	C100.085,33.284,100.095,33.204,100.115,33.151 M98.48,33.874c0.206,0.025,0.284,0.043,0.362,0.038
	c0.027-0.002,0.051-0.059,0.076-0.09c-0.025-0.01-0.052-0.033-0.074-0.029C98.763,33.805,98.685,33.827,98.48,33.874 M99.407,34.9
	c-0.025,0.041-0.057,0.081-0.072,0.125c-0.005,0.012,0.047,0.06,0.055,0.056c0.047-0.019,0.086-0.052,0.13-0.081
	C99.481,34.968,99.444,34.934,99.407,34.9 M102.71,34.619c-0.043,0.092-0.08,0.154-0.093,0.222c-0.004,0.015,0.106,0.08,0.138,0.065
	c0.067-0.034,0.118-0.102,0.176-0.156C102.869,34.713,102.808,34.676,102.71,34.619 M100.153,35.994
	c0.061-0.043,0.105-0.074,0.15-0.105c-0.051-0.065-0.094-0.142-0.159-0.191c-0.019-0.013-0.097,0.054-0.15,0.084
	C100.048,35.853,100.101,35.924,100.153,35.994 M104.312,35.753c-0.055-0.072-0.092-0.159-0.122-0.156
	c-0.078,0.008-0.152,0.055-0.226,0.086c0.032,0.047,0.064,0.131,0.098,0.132C104.14,35.817,104.22,35.779,104.312,35.753
	 M101.384,37.302c-0.125-0.055-0.223-0.1-0.32-0.143c-0.02,0.041-0.061,0.111-0.049,0.12c0.06,0.053,0.129,0.103,0.203,0.129
	C101.246,37.417,101.298,37.357,101.384,37.302 M102.476,38.099c0.052,0.018,0.117,0.062,0.15,0.044
	c0.036-0.017,0.04-0.095,0.06-0.147c-0.056-0.015-0.115-0.052-0.159-0.039C102.498,37.966,102.491,38.049,102.476,38.099
	 M100.263,34.77c-0.025-0.048-0.041-0.12-0.082-0.138c-0.045-0.019-0.111,0.008-0.168,0.016c0.035,0.063,0.062,0.135,0.11,0.19
	C100.132,34.848,100.214,34.793,100.263,34.77 M101.052,36.201c0.056-0.075,0.101-0.136,0.143-0.196
	c-0.068-0.035-0.148-0.108-0.206-0.094c-0.062,0.016-0.108,0.11-0.161,0.17C100.896,36.117,100.96,36.152,101.052,36.201
	 M100.58,35.223c0.318-0.014,0.527-0.088,0.697-0.335C100.919,34.783,100.753,34.94,100.58,35.223 M104.332,42.059
	c0.011-0.511,0.035-0.975,0.027-1.437c-0.011-0.435-0.106-0.875-0.074-1.304c0.036-0.44-0.157-0.951,0.292-1.303
	c0.021-0.016,0.043-0.057,0.035-0.076c-0.155-0.422-0.158-0.905-0.465-1.265c-0.116-0.138-0.256-0.282-0.414-0.349
	c-0.157-0.066-0.364-0.081-0.525-0.036c-0.107,0.032-0.175,0.206-0.305,0.374c0.286,0.075,0.49,0.126,0.693,0.179
	c0.006,0.047,0.033,0.113,0.012,0.154c-0.055,0.11-0.174,0.203-0.191,0.313c-0.138,0.914-0.246,1.832-0.386,2.745
	c-0.069,0.455-0.17,0.911-0.291,1.358c-0.056,0.202-0.172,0.402-0.305,0.568c-0.343,0.436-0.867,0.4-1.167-0.067
	c-0.065-0.102-0.117-0.224-0.139-0.342c-0.187-1.105-0.387-2.209-0.537-3.32c-0.068-0.517-0.197-1.101-0.453-1.452
	c-0.148-0.205-0.324-0.382-0.586-0.435c-0.207-0.045-0.354,0.032-0.444,0.274c0.162,0.105,0.313,0.202,0.483,0.312
	c0.002,0.074,0.043,0.193,0,0.25c-0.24,0.327-0.166,0.68-0.168,1.049c-0.004,0.835,0.209,1.662,0.037,2.504
	c-0.059,0.289,0.063,0.611,0.063,0.917c-0.001,0.143-0.094,0.284-0.154,0.453c-0.8,0.038-1.592,0.391-2.331-0.091
	c-0.163-1.394-0.079-2.72,0.038-4.049c0.053-0.587,0.045-1.182,0.037-1.773c-0.012-0.715-0.093-1.429,0.096-2.137
	c0.045-0.174,0.006-0.372-0.002-0.558c-0.047-1.089-0.055-2.181-0.158-3.265c-0.074-0.763,0.377-1.099,1.049-1.066
	c0.623,0.031,1.242,0.096,1.861,0.136c0.293,0.02,0.444,0.197,0.553,0.434c0.039,0.085,0.067,0.176,0.086,0.265
	c0.187,0.876,0.369,1.754,0.551,2.629c0.025,0.122,0.029,0.25,0.07,0.368c0.166,0.471,0.232,0.953,0.095,1.475
	c0.237,0.099,0.431,0.181,0.681,0.287c0.203-0.446,0.551-0.769,0.531-1.314c-0.007-0.276,0.079-0.62,0.341-0.841
	c0.022-0.02,0.065-0.035,0.07-0.058c0.014-0.082,0.051-0.185,0.017-0.246c-0.216-0.384,0.35-0.545,0.241-0.933
	c-0.079-0.279-0.006-0.612,0.042-0.913c0.034-0.212,0.141-0.411,0.212-0.617c0.125-0.369,0.399-0.579,0.771-0.572
	c0.713,0.012,1.428,0.04,2.135,0.123c0.5,0.06,0.665,0.322,0.642,0.854c-0.014,0.342-0.071,0.682-0.091,1.023
	c-0.051,0.836-0.152,1.675-0.111,2.507c0.022,0.446,0.182,0.895,0.176,1.361c-0.028,1.711-0.037,3.424-0.069,5.135
	c-0.011,0.497-0.062,0.994-0.108,1.489c-0.029,0.291-0.176,0.427-0.478,0.497C105.878,42.375,104.97,42.286,104.332,42.059"/>
<path d="M37.149,103.667l-0.074,0.039l0.078,0.024L37.149,103.667z M36.162,105.127c-0.015-0.016-0.03-0.039-0.047-0.043
	c-0.022-0.006-0.049,0.008-0.074,0.013c0.021,0.026,0.039,0.054,0.063,0.073C36.11,105.174,36.142,105.142,36.162,105.127
	 M37.444,104.461c-0.008-0.023-0.009-0.057-0.024-0.063c-0.023-0.01-0.054-0.004-0.081-0.004c0.009,0.032,0.019,0.064,0.03,0.098
	C37.394,104.481,37.418,104.471,37.444,104.461 M39.403,104.81c0.042-0.075,0.085-0.151,0.126-0.226
	c-0.066-0.037-0.133-0.07-0.2-0.106c-0.031,0.079-0.072,0.157-0.085,0.24C39.241,104.735,39.334,104.771,39.403,104.81
	 M30.629,99.536c0.615-0.496,1.246-0.498,1.861-0.459c0.358,0.023,0.609,0.295,0.709,0.657c0.259,0.961,0.522,1.921,0.762,2.888
	c0.075,0.297,0.126,0.59,0.267,0.875c0.108,0.221,0.071,0.514,0.102,0.807c0.097-0.049,0.205-0.066,0.246-0.127
	c0.349-0.51,0.565-1.032,0.503-1.696c-0.095-1.022-0.079-2.053-0.091-3.08c-0.002-0.177,0.086-0.356,0.14-0.56
	c0.422-0.209,0.861-0.348,1.331-0.371c0.592-0.029,0.81,0.095,0.975,0.646c0.204,0.685,0.344,1.385,0.552,2.066
	c0.078,0.255-0.102,0.377-0.159,0.561c0.163,0.129,0.414,0.162,0.419,0.44c0.005,0.153,0.013,0.317,0.068,0.456
	c0.103,0.254,0.24,0.495,0.384,0.781c0.169-0.03,0.335-0.058,0.537-0.094c0.024-1.254,0.045-2.462,0.07-3.67
	c0.006-0.311,0.026-0.621,0.031-0.932c0.004-0.381,0.238-0.579,0.567-0.641c0.427-0.078,0.863-0.111,1.297-0.139
	c0.207-0.015,0.363,0.124,0.409,0.318c0.046,0.209,0.062,0.431,0.052,0.645c-0.029,0.621-0.045,1.246-0.127,1.861
	c-0.213,1.605-0.237,3.223-0.295,4.833c-0.035,0.965-0.114,1.928-0.165,2.89c-0.02,0.359-0.217,0.579-0.534,0.692
	c-0.507,0.175-1.036,0.202-1.566,0.131c-0.246-0.032-0.361-0.215-0.428-0.438c-0.169-0.565-0.346-1.131-0.516-1.696
	c-0.189-0.626-0.38-1.251-0.562-1.879c-0.082-0.28-0.198-0.522-0.564-0.63c-0.076,0.094-0.218,0.189-0.251,0.314
	c-0.132,0.529-0.268,1.04-0.225,1.617c0.064,0.863-0.029,1.738-0.057,2.607c-0.008,0.25-0.157,0.414-0.368,0.496
	c-0.201,0.078-0.417,0.138-0.633,0.157c-1.164,0.105-1.386,0.216-1.733-1.075c-0.234-0.871-0.519-1.731-0.842-2.57
	c-0.093-0.241,0.134-0.493-0.154-0.736c-0.204-0.177-0.237-0.557-0.34-0.85c-0.093-0.264-0.175-0.532-0.264-0.797
	c-0.088-0.267-0.175-0.531-0.265-0.797c-0.089-0.267-0.182-0.53-0.269-0.797c-0.097-0.294-0.187-0.593-0.287-0.887
	c-0.091-0.264-0.198-0.521-0.285-0.788C30.827,100.245,30.74,99.917,30.629,99.536"/>
<path d="M69.061,101.828l-0.002,0.055l0.073-0.026L69.061,101.828z M70.546,101.313c-0.056-0.015-0.111-0.035-0.166-0.041
	c-0.015,0-0.047,0.051-0.043,0.076c0.004,0.022,0.051,0.063,0.063,0.06C70.451,101.381,70.499,101.346,70.546,101.313
	 M68.964,100.569l-0.002-0.049l-0.058,0.027L68.964,100.569z M72.628,101.589c-0.129-0.062-0.207-0.128-0.258-0.11
	c-0.049,0.013-0.076,0.117-0.096,0.186c-0.003,0.01,0.093,0.074,0.131,0.064C72.468,101.714,72.521,101.659,72.628,101.589
	 M70.035,101.456c-0.399,0.234-0.437,0.556-0.528,0.847c-0.203,0.656-0.104,1.339-0.186,2.007c-0.057,0.491-0.066,0.993-0.121,1.488
	c-0.056,0.492-0.201,0.654-0.693,0.732c-0.366,0.058-0.744,0.08-1.116,0.078c-0.431-0.002-0.634-0.152-0.751-0.562
	c-0.189-0.658-0.346-1.324-0.52-1.987c-0.102-0.391-0.201-0.783-0.313-1.17c-0.068-0.24-0.121-0.474,0.053-0.695
	c-0.609-0.438-0.447-1.181-0.677-1.771c-0.234-0.604-0.349-1.256-0.515-1.89c-0.186-0.723-0.371-1.443-0.552-2.166
	c-0.028-0.116-0.026-0.24-0.042-0.391c0.614-0.478,1.283-0.472,1.952-0.281c0.302,0.084,0.494,0.345,0.556,0.69
	c0.187,1.072,0.393,2.142,0.594,3.211c0.021,0.119,0.064,0.235,0.105,0.349c0.163,0.459,0.165,0.459,0.077,1.044
	c0.131-0.056,0.246-0.069,0.317-0.136c0.381-0.342,0.438-0.854,0.658-1.283c-0.225-0.454-0.039-0.924-0.047-1.383
	c-0.009-0.562,0.024-1.121,0.043-1.682c0.002-0.093,0.006-0.188,0.021-0.277c0.092-0.66,0.211-0.78,0.868-0.879
	c1.328-0.201,1.48-0.082,1.718,1.24c0.091,0.518,0.218,1.031,0.343,1.541c0.059,0.235-0.086,0.337-0.256,0.463
	c0.157,0.154,0.475,0.205,0.41,0.5c-0.08,0.377,0.191,0.646,0.264,0.975c0.069,0.317,0.178,0.324,0.676,0.143
	c0.109-1.344,0.221-2.702,0.332-4.061c0.012-0.154,0.021-0.311,0.034-0.465c0.027-0.328,0.231-0.519,0.533-0.562
	c0.431-0.062,0.867-0.095,1.302-0.108c0.297-0.009,0.533,0.234,0.54,0.528c0.005,0.151-0.034,0.308-0.055,0.461
	c-0.238,1.818-0.489,3.634-0.713,5.454c-0.162,1.326-0.292,2.658-0.433,3.986c-0.05,0.475-0.205,0.677-0.662,0.77
	c-0.213,0.045-0.433,0.063-0.649,0.076c-1.063,0.056-1.106,0.029-1.374-1.038c-0.212-0.845-0.391-1.698-0.596-2.547
	c-0.073-0.298-0.157-0.603-0.273-0.89C70.309,101.688,70.165,101.594,70.035,101.456"/>
<path d="M71.599,116.843v-0.048l-0.062,0.028L71.599,116.843z M74.421,117.85c-0.086,0.215-0.128,0.289-0.137,0.365
	c-0.003,0.02,0.111,0.09,0.146,0.074c0.064-0.03,0.158-0.102,0.158-0.156C74.589,118.061,74.511,117.992,74.421,117.85
	 M71.981,118.073c-0.088,0.139-0.236,0.275-0.27,0.438c-0.107,0.496-0.279,0.958-0.244,1.507c0.051,0.799-0.125,1.605-0.188,2.412
	c-0.03,0.363-0.212,0.575-0.558,0.649c-0.211,0.045-0.428,0.082-0.644,0.09c-1.069,0.034-1.089,0.022-1.384-1.046
	c-0.266-0.959-0.545-1.916-0.74-2.891c-0.063-0.303-0.045-0.604-0.208-0.9c-0.146-0.268-0.168-0.6-0.248-0.896
	c-0.087-0.334-0.177-0.662-0.264-0.996c-0.087-0.33-0.173-0.66-0.257-0.992c-0.074-0.305-0.139-0.607-0.219-0.91
	c-0.088-0.33-0.186-0.657-0.283-0.988c-0.094-0.326-0.197-0.65-0.164-1.029c0.565-0.453,1.212-0.427,1.854-0.285
	c0.271,0.062,0.479,0.283,0.539,0.592c0.21,1.038,0.449,2.068,0.614,3.113c0.043,0.277,0.055,0.56,0.215,0.778
	c0.199,0.274-0.067,0.523,0.002,0.854c0.14-0.084,0.276-0.116,0.324-0.202c0.212-0.372,0.397-0.76,0.592-1.143
	c0.015-0.027,0.028-0.064,0.022-0.092c-0.237-0.921-0.01-1.845-0.027-2.769c-0.003-0.095-0.012-0.189-0.002-0.279
	c0.043-0.364-0.03-0.813,0.352-1.011c0.538-0.275,1.135-0.327,1.721-0.11c0.23,0.085,0.287,0.32,0.33,0.533
	c0.121,0.546,0.224,1.096,0.33,1.646c0.049,0.24,0.092,0.484,0.141,0.756c-0.102,0.082-0.215,0.177-0.342,0.279
	c0.312,0.114,0.535,0.256,0.521,0.66c-0.007,0.29,0.118,0.598,0.236,0.873c0.046,0.11,0.236,0.232,0.349,0.221
	c0.108-0.012,0.269-0.179,0.284-0.295c0.068-0.459,0.091-0.925,0.128-1.39c0.069-0.931,0.132-1.864,0.208-2.794
	c0.043-0.527,0.214-0.73,0.732-0.798c0.367-0.05,0.746-0.041,1.117-0.024c0.301,0.014,0.498,0.264,0.479,0.579
	c-0.019,0.31-0.071,0.616-0.113,0.925c-0.137,0.983-0.298,1.967-0.409,2.952c-0.231,2.009-0.436,4.019-0.646,6.026
	c-0.034,0.31-0.174,0.518-0.468,0.635c-0.547,0.219-1.106,0.126-1.659,0.066c-0.115-0.012-0.252-0.183-0.308-0.311
	c-0.096-0.229-0.142-0.478-0.199-0.718c-0.229-1.003-0.456-2.004-0.68-3.008C72.479,118.466,72.399,118.172,71.981,118.073"/>
<path d="M95.695,34.498c-0.499,0.052-0.96,0.117-1.425,0.142c-0.243,0.014-0.499-0.01-0.734-0.075
	c-0.359-0.099-0.456-0.277-0.479-0.68c-0.033-0.616,0.027-1.244-0.207-1.881c-0.284-0.129-0.588-0.268-0.898-0.409
	c-0.408,0.37-0.57,0.801-0.605,1.269c-0.036,0.493-0.017,0.99-0.021,1.484c-0.016,1.552-0.033,3.104-0.053,4.743
	c0.183,0.188,0.415,0.428,0.681,0.7c0.33-0.149,0.632-0.286,0.978-0.445c0.01-0.598,0.019-1.18,0.027-1.761
	c0.004-0.156-0.007-0.314,0.023-0.464c0.078-0.36,0.193-0.606,0.691-0.601c0.342,0.004,0.684-0.026,1.026-0.021
	c0.278,0.002,0.556,0.034,0.81,0.05c0.393,0.253,0.438,0.643,0.43,1.009c-0.03,1.094-0.194,2.162-0.696,3.161
	c-0.562,1.117-1.522,1.493-2.685,1.498c-0.432,0.001-0.867-0.109-1.301-0.102c-0.856,0.008-1.457-0.476-2.031-1.005
	c-0.174-0.158-0.301-0.409-0.359-0.641c-0.136-0.539-0.279-1.091-0.309-1.643c-0.073-1.399-0.096-2.799-0.116-4.199
	c-0.005-0.323,0.106-0.646,0.121-0.971c0.014-0.307-0.065-0.619-0.039-0.925c0.032-0.401,0.112-0.8,0.202-1.194
	c0.158-0.698,0.582-1.196,1.144-1.645c0.849-0.676,1.821-0.753,2.817-0.686c0.417,0.028,0.848,0.046,1.263,0.26
	c0.802,0.415,1.28,1.076,1.562,1.877c0.205,0.581,0.303,1.206,0.4,1.819C95.979,33.586,95.991,34.029,95.695,34.498"/>
<path d="M99.038,98.583c0.445-0.541,0.33-1.128,0.209-1.698c-0.127-0.593-0.627-0.83-1.207-0.618
	c-0.223,0.08-0.363,0.236-0.35,0.483c0.027,0.491,0.049,0.985,0.107,1.474c0.061,0.531,0.271,0.645,0.828,0.486
	C98.771,98.668,98.917,98.621,99.038,98.583 M100.986,99.722c0.066,0.153,0.084,0.252,0.14,0.318
	c0.606,0.707,0.668,1.575,0.744,2.444c0.049,0.586,0.119,1.173,0.184,1.759c0.01,0.093,0.037,0.184,0.046,0.276
	c0.046,0.53-0.171,0.752-0.69,0.728c-0.311-0.015-0.619-0.024-0.928-0.017c-0.588,0.011-0.89-0.158-1.009-0.738
	c-0.108-0.545-0.111-1.11-0.146-1.667c-0.025-0.37,0.004-0.745-0.043-1.113c-0.043-0.354-0.252-0.628-0.556-0.825
	c-0.257-0.168-0.521-0.16-0.795-0.048c-0.228,0.856-0.047,1.709-0.022,2.563c0.01,0.436,0.026,0.873,0.02,1.308
	c-0.007,0.368-0.215,0.608-0.555,0.616c-0.557,0.016-1.112,0.013-1.668-0.016c-0.234-0.011-0.397-0.207-0.443-0.425
	c-0.091-0.419-0.194-0.848-0.189-1.274c0.016-1.646,0.078-3.293,0.111-4.941c0.01-0.551-0.051-1.098-0.105-1.648
	c-0.068-0.711-0.045-1.431-0.064-2.145c-0.008-0.295,0.146-0.504,0.404-0.551c0.457-0.081,0.922-0.115,1.385-0.133
	c0.525-0.021,1.054-0.008,1.58,0c0.527,0.007,1.06-0.017,1.579,0.045c0.813,0.094,1.407,0.519,1.594,1.35
	c0.149,0.664,0.292,1.339,0.334,2.018c0.042,0.659-0.14,1.293-0.647,1.782C101.157,99.473,101.094,99.582,100.986,99.722"/>
<path d="M42.136,117.833c-0.006,0.001-0.013,0.001-0.017,0.004c0.055,0.334,0.078,0.676,0.181,0.995
	c0.047,0.145,0.245,0.325,0.385,0.336c0.342,0.021,0.677-0.107,0.875-0.407c0.297-0.444,0.099-1.626-0.306-1.983
	c-0.045-0.045-0.099-0.076-0.153-0.106c-0.299-0.169-0.59-0.142-0.868,0.051c-0.243,0.165-0.254,0.399-0.183,0.656
	C42.09,117.526,42.107,117.681,42.136,117.833 M42.653,121.294c-0.131,0.909,0.143,1.712,0.259,2.532
	c0.06,0.432,0.132,0.861,0.166,1.293c0.029,0.373-0.16,0.596-0.52,0.654c-0.488,0.078-0.988-0.014-1.475,0.149
	c-0.231,0.077-0.488-0.108-0.571-0.374c-0.128-0.412-0.225-0.833-0.311-1.259c-0.049-0.24-0.054-0.493-0.077-0.742
	c-0.23-2.438-0.368-4.889-0.811-7.306c-0.039-0.215-0.061-0.432-0.078-0.648c-0.026-0.283,0.117-0.466,0.361-0.593
	c0.37-0.188,0.765-0.274,1.174-0.246c0.628,0.046,1.232-0.065,1.848-0.179c0.541-0.1,1.114-0.076,1.668-0.038
	c0.489,0.032,0.896,0.301,1.129,0.735c0.445,0.832,0.739,1.717,0.747,2.668c0.007,0.565-0.08,1.117-0.48,1.57
	c-0.194,0.219-0.194,0.475,0.002,0.674c0.729,0.743,0.851,1.692,0.97,2.655c0.047,0.366,0.156,0.726,0.245,1.086
	c0.046,0.181,0.118,0.355,0.159,0.535c0.124,0.569-0.069,0.795-0.668,0.819c-0.247,0.011-0.495,0.031-0.736,0.07
	c-0.669,0.104-0.895-0.008-1.135-0.651c-0.118-0.315-0.188-0.656-0.242-0.993c-0.063-0.396-0.071-0.805-0.129-1.205
	c-0.036-0.243-0.094-0.488-0.185-0.717c-0.107-0.266-0.309-0.462-0.582-0.575C43.129,121.106,42.895,121.163,42.653,121.294"/>
<path d="M57.087,101.375c-0.063-0.006-0.117-0.021-0.17-0.018c-0.023,0.003-0.043,0.04-0.064,0.063
	c0.051,0.021,0.104,0.058,0.155,0.06C57.034,101.48,57.058,101.415,57.087,101.375 M57.539,100.138
	c-0.015-0.024-0.026-0.049-0.041-0.075c-0.039,0.038-0.085,0.069-0.111,0.113c-0.005,0.011,0.056,0.06,0.085,0.093
	C57.494,100.225,57.517,100.182,57.539,100.138 M56.257,107.266c-0.232,0.266-0.454,0.343-0.718,0.35
	c-0.37,0.012-0.738,0.045-1.108,0.07c-0.33,0.025-0.558-0.083-0.662-0.395c-0.088-0.258-0.148-0.541-0.152-0.815
	c-0.032-2.746-0.544-5.446-0.713-8.179c-0.018-0.307-0.127-0.609-0.145-0.915c-0.03-0.466,0.149-0.681,0.632-0.752
	c0.432-0.066,0.866-0.095,1.301-0.111c0.371-0.014,0.602,0.163,0.655,0.522c0.074,0.492,0.2,1.005,0.13,1.48
	c-0.064,0.434,0.068,0.788,0.154,1.168c0.131,0.576,0.418,0.768,0.997,0.709c0.12-0.013,0.235-0.064,0.374-0.105
	c0.191-0.438,0.236-0.866,0.125-1.349c-0.132-0.571-0.164-1.168-0.225-1.753c-0.017-0.152-0.004-0.314,0.03-0.463
	c0.064-0.258,0.218-0.467,0.503-0.48c0.557-0.026,1.114-0.037,1.668-0.015c0.116,0.003,0.283,0.161,0.322,0.283
	c0.075,0.231,0.089,0.487,0.105,0.735c0.078,1.178,0.13,2.361,0.23,3.539c0.143,1.671,0.32,3.344,0.484,5.014
	c0.04,0.4,0.128,0.806-0.153,1.223c-0.471,0.24-1.043,0.221-1.588,0.314c-0.312,0.056-0.528-0.109-0.644-0.419
	c-0.073-0.203-0.135-0.417-0.154-0.632c-0.064-0.676-0.21-1.352-0.112-2.045c0.031-0.209-0.007-0.435-0.053-0.646
	c-0.091-0.414-0.369-0.647-0.776-0.688c-0.328-0.035-0.637,0.164-0.787,0.535c-0.08,0.199-0.125,0.412-0.162,0.537
	C56.224,105.114,56.161,106.229,56.257,107.266"/>
<path d="M79.903,33.002c-0.049-0.249-0.071-0.498-0.155-0.728c-0.06-0.166-0.169-0.35-0.31-0.443
	c-0.483-0.316-0.998-0.42-1.115,0.338c-0.133,0.833-0.664,1.035-1.32,1.182c-0.03,0.007-0.061,0.016-0.092,0.024
	c-0.889,0.191-1.281-0.126-1.299-1.048c-0.002-0.063,0.002-0.125-0.002-0.186c-0.021-1.464,0.528-2.497,2.385-2.986
	c1.027-0.271,2.033-0.119,2.999,0.294c0.165,0.072,0.309,0.209,0.435,0.34c0.754,0.778,1.075,1.743,1.117,2.796
	c0.038,0.95-0.139,1.861-0.689,2.668c-0.488,0.72-0.967,1.45-1.465,2.162c-0.121,0.176-0.281,0.356-0.467,0.446
	c-0.421,0.206-0.609,0.599-0.852,0.949c-0.17,0.246-0.094,0.508,0.193,0.592c0.397,0.118,0.746,0.328,1.238,0.149
	c0.438-0.16,0.977-0.059,1.471-0.037c0.195,0.008,0.34,0.176,0.357,0.379c0.035,0.494,0.068,0.99,0.064,1.486
	c-0.004,0.461-0.246,0.669-0.707,0.652c-0.559-0.021-1.119-0.079-1.678-0.076c-0.9,0.003-1.801,0.042-2.703,0.07
	c-0.279,0.007-0.56,0.039-0.84,0.044c-0.801,0.012-0.947-0.137-0.979-0.966c-0.002-0.093-0.016-0.186-0.026-0.277
	c-0.14-1.068,0.228-1.988,0.961-2.72c0.558-0.557,1.009-1.178,1.46-1.81c0.664-0.936,1.363-1.851,1.717-2.968
	C79.642,33.199,79.801,33.107,79.903,33.002"/>
<path d="M94.755,115.879l0.055,0.027l0.008-0.045L94.755,115.879z M93.756,117.133c-0.012-0.018-0.028-0.051-0.038-0.047
	c-0.051,0.01-0.1,0.031-0.148,0.046c0.013,0.016,0.031,0.05,0.041,0.047C93.659,117.168,93.708,117.151,93.756,117.133
	 M91.276,111.068c0.42-0.044,0.82-0.099,1.222-0.12c0.214-0.014,0.437,0.006,0.646,0.057c0.344,0.08,0.463,0.244,0.465,0.595
	c0.003,0.401,0.031,0.806-0.019,1.202c-0.048,0.385-0.071,0.752,0.202,1.051c0.154,0.171-0.177,0.452,0.184,0.563
	c0.053-0.055,0.141-0.104,0.166-0.179c0.269-0.784,0.762-1.474,0.942-2.295c0.034-0.151,0.093-0.296,0.144-0.444
	c0.127-0.357,0.377-0.563,0.759-0.588c0.374-0.025,0.75-0.064,1.122-0.05c0.234,0.007,0.467,0.105,0.75,0.175
	c-0.045,0.237-0.043,0.426-0.112,0.582c-0.274,0.627-0.577,1.242-0.86,1.865c-0.296,0.652-0.578,1.309-0.871,1.964
	c-0.179,0.396-0.15,0.776,0.043,1.167c0.648,1.307,1.151,2.685,1.883,3.954c0.207,0.356,0.345,0.73,0.256,1.206
	c-0.152,0.046-0.319,0.127-0.492,0.141c-0.434,0.033-0.871,0.045-1.307,0.049c-0.444,0.006-0.771-0.15-0.907-0.631
	c-0.224-0.777-0.479-1.543-0.906-2.243c-0.091-0.15-0.089-0.358-0.14-0.591c-0.203-0.072-0.424-0.154-0.725-0.262
	c0.039,1.006,0.075,1.922,0.113,2.84c0.007,0.155,0.023,0.312,0.018,0.467c-0.009,0.203-0.115,0.377-0.318,0.406
	c-0.492,0.067-0.988,0.149-1.482,0.139c-0.516-0.01-0.72-0.275-0.734-0.778c-0.004-0.091,0.009-0.187,0.02-0.278
	c0.171-1.619,0.028-3.234-0.079-4.849c-0.088-1.336-0.007-2.681-0.231-4.006C90.966,111.827,91.056,111.497,91.276,111.068"/>
<path d="M78.644,102.36c0.033-0.113,0.11-0.234,0.092-0.342c-0.168-1.025-0.153-2.085-0.568-3.171
	c-0.168,0.153-0.313,0.226-0.36,0.336c-0.194,0.464-0.155,0.983-0.271,1.452c-0.159,0.643,0.007,1.197,0.109,1.829
	C78.012,102.426,78.313,102.394,78.644,102.36 M81.856,104.999c0.072,0.539-0.09,0.761-0.625,0.805
	c-0.307,0.025-0.619-0.021-0.927,0.004c-0.755,0.064-0.815,0.035-1.087-0.668c-0.011-0.027-0.02-0.059-0.029-0.087
	c-0.072-0.269-0.111-0.575-0.449-0.647c-0.373-0.08-0.75-0.062-1.07,0.178c-0.114,0.086-0.199,0.231-0.26,0.367
	c-0.063,0.139-0.086,0.299-0.123,0.449c-0.101,0.408-0.338,0.652-0.778,0.667c-0.405,0.013-0.81,0.065-1.211,0.054
	c-0.384-0.011-0.599-0.314-0.547-0.697c0.415-3.077,0.831-6.154,1.247-9.232c0.02-0.152,0.048-0.307,0.076-0.459
	c0.125-0.668,0.262-0.792,0.897-0.842c0.526-0.041,1.052-0.087,1.577-0.124c0.572-0.039,0.781,0.106,0.967,0.655
	c0.039,0.117,0.069,0.24,0.096,0.359c0.416,1.815,0.832,3.631,1.248,5.444c0.049,0.212,0.09,0.429,0.172,0.628
	c0.393,0.956,0.539,1.973,0.789,2.963C81.834,104.875,81.845,104.937,81.856,104.999"/>
<path d="M90.454,98.245c0.582,0.469,1.207,0.378,1.823,0.341c0.155-0.009,0.311-0.015,0.467-0.011
	c0.749,0.018,0.813,0.085,0.878,0.856c0.021,0.248,0.064,0.495,0.066,0.743c0,0.387-0.157,0.568-0.555,0.614
	c-0.556,0.063-1.115,0.102-1.674,0.153c-0.186,0.017-0.37,0.039-0.5,0.053c-0.031,0.335-0.066,0.628-0.081,0.923
	c-0.007,0.146,0.015,0.291,0.033,0.437c0.087,0.645,0.31,0.883,0.906,0.903c0.278,0.013,0.557-0.046,0.836-0.065
	c0.434-0.035,0.868-0.076,1.303-0.088c0.231-0.007,0.429,0.16,0.453,0.391c0.039,0.402,0.076,0.81,0.044,1.208
	c-0.036,0.468-0.262,0.646-0.729,0.688c-0.062,0.005-0.123,0.007-0.185,0.005c-0.965-0.011-1.927-0.025-2.89-0.025
	c-0.342,0-0.684,0.027-1.023,0.051c-0.186,0.012-0.372,0.057-0.557,0.053c-0.52-0.001-0.727-0.187-0.748-0.72
	c-0.049-1.151-0.114-2.303-0.092-3.452c0.031-1.591-0.049-3.173-0.186-4.756c-0.035-0.403-0.072-0.807-0.087-1.21
	c-0.019-0.591,0.282-0.92,0.888-0.967c0.463-0.036,0.933-0.05,1.399-0.046c0.964,0.012,1.925,0.039,2.888-0.074
	c0.15-0.02,0.311,0.003,0.463,0.025c0.236,0.037,0.42,0.182,0.45,0.412c0.052,0.397,0.104,0.805,0.065,1.199
	c-0.053,0.546-0.242,0.704-0.784,0.732c-0.528,0.027-1.058,0.018-1.587,0.012c-0.637-0.007-0.938,0.223-0.943,0.852
	C90.796,97.829,90.713,98.078,90.454,98.245"/>
<path d="M21.907,121.443c0.697,0.29,1.336,0.134,1.974,0.019c1.02-0.187,1.068-0.147,1.257,0.905
	c0.021,0.122,0.055,0.243,0.072,0.364c0.086,0.575-0.054,0.783-0.559,0.869c-0.368,0.064-0.729,0.16-1.091,0.244
	c-0.27,0.061-0.562,0.061-0.817,0.342c0.118,0.388-0.088,0.823,0.102,1.277c0.216,0.508,0.434,0.73,0.923,0.697
	c0.183-0.014,0.366-0.066,0.547-0.105c0.456-0.1,0.91-0.208,1.368-0.294c0.402-0.077,0.672,0.087,0.754,0.48
	c0.068,0.337,0.115,0.679,0.126,1.018c0.019,0.487-0.212,0.755-0.697,0.819c-0.926,0.117-1.856,0.204-2.779,0.326
	c-0.428,0.055-0.856,0.141-1.272,0.254c-0.352,0.096-0.674,0.09-1.033-0.135c-0.035-0.131-0.101-0.304-0.128-0.484
	c-0.204-1.319-0.438-2.64-0.585-3.967c-0.147-1.333-0.462-2.631-0.705-3.945c-0.09-0.487-0.194-0.976-0.258-1.47
	c-0.061-0.47,0.216-0.851,0.67-0.965c0.15-0.039,0.309-0.043,0.461-0.067c1.258-0.191,2.537-0.229,3.777-0.573
	c0.552-0.152,0.881,0.097,1.002,0.681c0.064,0.3,0.084,0.618,0.078,0.925c-0.008,0.468-0.197,0.681-0.66,0.755
	c-0.523,0.079-1.05,0.123-1.575,0.195c-0.54,0.072-0.749,0.314-0.756,0.854C22.095,120.939,22.058,121.143,21.907,121.443"/>
<path d="M79.996,115.364c0.563,0.382,1.177,0.355,1.796,0.296c0.28-0.027,0.562-0.042,0.84-0.025
	c0.234,0.013,0.455,0.157,0.459,0.39c0.016,0.549,0.275,1.105-0.043,1.689c-0.797,0.301-1.697,0.171-2.475,0.391
	c-0.027,0.328-0.064,0.631-0.079,0.936c-0.047,1.052,0.384,1.327,1.207,1.283c0.185-0.01,0.369-0.063,0.554-0.081
	c0.371-0.042,0.741-0.089,1.112-0.104c0.405-0.018,0.597,0.131,0.627,0.516c0.032,0.398,0.046,0.809,0.002,1.207
	c-0.044,0.379-0.249,0.533-0.626,0.567c-0.186,0.019-0.373,0.009-0.561,0.011c-0.465,0.006-0.932,0.01-1.398,0.018
	c-0.311,0.005-0.621,0.007-0.931,0.019c-0.402,0.018-0.806,0.036-1.206,0.06c-0.217,0.01-0.436,0.048-0.65,0.031
	c-0.344-0.021-0.511-0.184-0.541-0.525c-0.05-0.589-0.096-1.18-0.109-1.77c-0.031-1.152-0.033-2.304-0.061-3.455
	c-0.007-0.371-0.051-0.746-0.083-1.117c-0.099-1.086-0.213-2.17-0.299-3.256c-0.042-0.531,0.263-0.891,0.794-0.948
	c0.434-0.048,0.871-0.052,1.307-0.071c0.933-0.045,1.863-0.092,2.795-0.135c0.154-0.008,0.313-0.025,0.465-0.003
	c0.265,0.034,0.466,0.18,0.543,0.446c0.146,0.488,0.156,0.979,0.017,1.474c-0.077,0.271-0.264,0.431-0.532,0.446
	c-0.56,0.03-1.121,0.033-1.681,0.041c-0.646,0.011-0.899,0.226-0.89,0.896C80.354,114.938,80.232,115.168,79.996,115.364"/>
<path d="M87.235,117.866c0.07,0.478-0.233,0.889-0.047,1.365c0.057,0.146-0.049,0.346,0.133,0.488
	c0.195,0.156,0.373,0.344,0.646,0.333c0.28-0.013,0.56-0.044,0.839-0.068c0.403-0.034,0.805-0.087,1.209-0.104
	c0.34-0.017,0.558,0.148,0.586,0.466c0.036,0.4,0.053,0.808,0.03,1.209c-0.024,0.365-0.244,0.561-0.601,0.604
	c-0.154,0.019-0.312,0.016-0.467,0.014c-0.996-0.008-1.989-0.021-2.985-0.016c-0.247,0-0.492,0.066-0.74,0.084
	c-0.213,0.021-0.435,0.038-0.646,0.012c-0.348-0.041-0.474-0.186-0.51-0.555c-0.037-0.338-0.066-0.682-0.068-1.024
	c-0.014-2.771-0.032-5.543-0.336-8.304c-0.024-0.217-0.01-0.433-0.014-0.605c0.262-0.471,0.635-0.619,1.112-0.616
	c0.81,0.004,1.621-0.016,2.429-0.038c0.527-0.012,1.055-0.044,1.584-0.064c0.545-0.02,0.768,0.13,0.832,0.656
	c0.045,0.365,0.032,0.748-0.019,1.109c-0.06,0.423-0.265,0.584-0.695,0.607c-0.528,0.023-1.059,0.024-1.588,0.033
	c-0.644,0.01-0.802,0.155-0.881,0.804c-0.052,0.432-0.085,0.511-0.343,0.817c0.42,0.318,0.888,0.365,1.397,0.324
	c0.433-0.036,0.87-0.005,1.306,0.012c0.216,0.008,0.355,0.172,0.377,0.357c0.047,0.432,0.07,0.865,0.066,1.299
	c-0.003,0.327-0.177,0.505-0.521,0.547c-0.463,0.06-0.932,0.082-1.397,0.135C87.715,117.767,87.508,117.818,87.235,117.866"/>
<path d="M33.821,126.489c-0.196-1.611-0.425-3.215-0.579-4.824c-0.114-1.211-0.366-2.396-0.557-3.594
	c-0.073-0.461-0.169-0.918-0.223-1.382c-0.06-0.511,0.242-0.91,0.757-0.987c0.585-0.087,1.175-0.124,1.763-0.195
	c0.772-0.097,1.544-0.193,2.313-0.304c0.766-0.112,1.025,0.063,1.129,0.84c0.038,0.275,0.041,0.559,0.022,0.837
	c-0.025,0.377-0.192,0.565-0.575,0.62c-0.523,0.078-1.052,0.113-1.578,0.175c-0.677,0.078-0.892,0.287-0.846,0.948
	c0.023,0.327-0.08,0.584-0.236,0.841c0.477,0.232,0.944,0.262,1.436,0.178c0.398-0.068,0.804-0.094,1.207-0.125
	c0.213-0.018,0.385,0.106,0.429,0.291c0.103,0.419,0.184,0.847,0.227,1.275c0.035,0.354-0.164,0.57-0.529,0.647
	c-0.667,0.136-1.338,0.259-1.993,0.386c-0.01,0.362-0.009,0.656-0.029,0.947c-0.035,0.516,0.221,1.064,0.633,1.158
	c0.29,0.063,0.615,0.015,0.915-0.03c0.43-0.062,0.857-0.153,1.276-0.263c0.485-0.125,0.836,0.143,0.86,0.69
	c0.012,0.277,0.074,0.558,0.071,0.837c-0.005,0.465-0.203,0.688-0.666,0.74c-0.959,0.105-1.921,0.181-2.88,0.29
	c-0.398,0.044-0.801,0.101-1.186,0.211C34.596,126.803,34.252,126.792,33.821,126.489"/>
<path d="M100.847,118.477c0.158,0.46,0.31,0.899,0.703,1.204c0.285,0.226,0.58,0.213,0.879,0.112
	c0.129-0.045,0.283-0.186,0.318-0.311c0.11-0.418,0.209-0.861-0.152-1.217c-0.243-0.24-0.514-0.454-0.775-0.674
	c-0.234-0.197-0.516-0.339-0.633-0.662c-0.045-0.122-0.23-0.186-0.348-0.283c-0.408-0.332-0.842-0.642-1.215-1.011
	c-0.822-0.812-1.037-1.815-0.81-2.926c0.147-0.718,0.591-1.228,1.233-1.552c0.273-0.139,0.58-0.238,0.883-0.289
	c0.742-0.123,1.488-0.092,2.225,0.068c0.936,0.203,1.559,0.739,1.803,1.686c0.047,0.18,0.121,0.352,0.162,0.535
	c0.106,0.476-0.107,0.826-0.578,0.873c-0.334,0.031-0.682,0.013-1.014-0.045c-0.641-0.111-0.636-0.129-0.736-0.859
	c-0.507-0.409-1.029-0.534-1.589,0.007c-0.093,0.42,0.101,0.783,0.442,1.087c0.388,0.348,0.701,0.753,1.181,1.025
	c0.56,0.318,1.073,0.762,1.513,1.24c0.455,0.496,0.848,1.073,0.893,1.797c0.021,0.312,0.072,0.621,0.064,0.932
	c-0.021,0.864-0.388,1.557-1.082,2.07c-1.34,0.992-2.76,0.801-4.155,0.187c-0.864-0.378-1.536-1.774-1.405-2.666
	c0.045-0.312,0.162-0.432,0.469-0.485C99.767,118.208,100.188,118.243,100.847,118.477"/>
<path d="M16.601,129.257c-0.605,0.596-1.283,0.521-1.925,0.535c-0.152,0.003-0.351-0.146-0.456-0.282
	c-0.167-0.219-0.34-0.469-0.388-0.73c-0.107-0.564-0.47-0.922-0.817-1.276c-0.3-0.015-0.353,0.194-0.378,0.367
	c-0.074,0.489-0.123,0.987-0.165,1.483c-0.047,0.563-0.32,0.935-0.88,1.059c-0.33,0.076-0.666,0.152-1.004,0.18
	c-0.306,0.027-0.547-0.207-0.523-0.521c0.032-0.432,0.106-0.865,0.19-1.291c0.095-0.486,0.248-0.963,0.326-1.451
	c0.118-0.735,0.167-1.484,0.413-2.194c0.157-0.453,0.024-0.825-0.25-1.215c-0.752-1.069-1.457-2.169-2.178-3.258
	c-0.085-0.128-0.161-0.268-0.219-0.408c-0.094-0.233-0.008-0.463,0.231-0.524c0.48-0.123,0.967-0.228,1.457-0.305
	c0.305-0.047,0.549,0.12,0.697,0.381c0.169,0.296,0.309,0.608,0.458,0.918c0.119,0.256,0.241,0.508,0.584,0.615
	c0.252-0.168,0.422-0.384,0.422-0.736c0.001-0.31,0.035-0.625,0.094-0.929c0.083-0.435,0.321-0.726,0.805-0.771
	c0.491-0.045,0.974-0.162,1.489-0.18c0.06,0.156,0.136,0.266,0.136,0.379c-0.003,0.248-0.018,0.501-0.074,0.74
	c-0.263,1.118-0.498,2.246-0.834,3.344c-0.194,0.637-0.07,1.137,0.261,1.668c0.625,1.002,1.22,2.022,1.812,3.043
	C16.134,128.325,16.347,128.772,16.601,129.257"/>
<path d="M60.355,116.073c-0.067-0.193-0.132-0.336-0.169-0.486c-0.079-0.322-0.316-0.439-0.607-0.5
	c-0.234-0.047-0.447,0.053-0.518,0.28c-0.094,0.294-0.156,0.597-0.238,0.913c-0.385,0.283-0.834,0.41-1.289,0.503
	c-0.457,0.093-0.801-0.148-0.873-0.616c-0.054-0.336-0.082-0.684-0.063-1.022c0.036-0.729,0.374-1.29,0.985-1.709
	c1.088-0.751,2.26-0.785,3.476-0.438c0.171,0.047,0.326,0.179,0.465,0.299c0.728,0.621,1.068,1.449,1.165,2.373
	c0.079,0.748,0.01,1.492-0.372,2.175c-0.364,0.651-0.711,1.314-1.09,1.959c-0.124,0.208-0.313,0.38-0.489,0.553
	c-0.343,0.34-0.347,0.335-0.563,1.058c0.369,0.229,0.734,0.34,1.197,0.194c0.379-0.121,0.795-0.137,1.195-0.169
	c0.301-0.023,0.461,0.127,0.504,0.429c0.055,0.403,0.107,0.804,0.133,1.206c0.024,0.346-0.138,0.532-0.467,0.579
	c-0.186,0.025-0.373,0.045-0.56,0.037c-1.129-0.042-2.235,0.14-3.339,0.335c-0.307,0.055-0.617,0.102-0.928,0.116
	c-0.283,0.014-0.578-0.209-0.621-0.472c-0.142-0.897-0.241-1.795,0.302-2.615c0.053-0.079,0.086-0.172,0.149-0.236
	c0.658-0.683,1.034-1.549,1.521-2.344c0.376-0.613,0.67-1.26,0.854-1.956C60.155,116.374,60.258,116.245,60.355,116.073"/>
<path d="M28.699,123.022c-0.024-0.015-0.048-0.041-0.07-0.041c-0.027,0-0.053,0.023-0.078,0.036c0.023,0.015,0.047,0.041,0.07,0.041
	C28.647,123.06,28.673,123.036,28.699,123.022 M28.902,121.493c0.113,0.043,0.33,0.185,0.557,0.201
	c0.135,0.01,0.285-0.177,0.453-0.293c-0.136-0.066-0.218-0.107-0.314-0.154c-0.016-1.231-0.033-2.473-0.048-3.711
	c0-0.125,0.002-0.25,0.014-0.371c0.072-0.709,0.231-1.006,0.936-1.03c0.338-0.011,0.674-0.114,1.012-0.111
	c0.331,0.001,0.47,0.209,0.453,0.562c-0.072,1.461-0.143,2.922-0.225,4.384c-0.016,0.278-0.072,0.552-0.116,0.829
	c-0.029,0.185-0.086,0.365-0.097,0.55c-0.023,0.401-0.008,0.802-0.04,1.202c-0.029,0.359-0.13,0.718-0.145,1.08
	c-0.021,0.488,0.017,0.981,0.016,1.472c-0.002,0.999-0.237,1.25-1.243,1.349c-0.032,0.002-0.062,0.006-0.094,0.006
	c-1.132,0.09-1.179,0.065-1.552-0.979c-0.448-1.26-0.869-2.526-1.329-3.782c-0.501-1.367-1.036-2.727-1.554-4.09
	c-0.12-0.32-0.243-0.639-0.339-0.967c-0.139-0.473-0.005-0.686,0.497-0.797c0.304-0.068,0.614-0.104,0.924-0.139
	c0.463-0.054,0.778,0.142,0.946,0.58c0.032,0.086,0.093,0.163,0.119,0.252C28.114,118.812,28.49,120.092,28.902,121.493"/>
<path d="M6.854,114.336c-0.124,0.013-0.246,0.03-0.371,0.039c-0.705,0.037-0.893-0.084-0.857-0.748
	c0.036-0.666-0.108-1.3-0.237-1.933c-0.429-2.073-0.883-4.14-1.322-6.21c-0.096-0.455-0.181-0.915-0.234-1.379
	c-0.039-0.327,0.12-0.533,0.457-0.595c0.916-0.177,1.839-0.322,2.756-0.488c0.58-0.106,1.156-0.231,1.736-0.34
	c0.213-0.042,0.429-0.079,0.646-0.091c0.242-0.008,0.42,0.128,0.495,0.351c0.099,0.295,0.187,0.595,0.248,0.897
	c0.119,0.593-0.147,0.963-0.745,1.05c-0.523,0.075-1.047,0.134-1.572,0.206c-0.152,0.02-0.308,0.047-0.452,0.101
	c-0.441,0.167-0.646,0.487-0.553,0.944c0.061,0.299,0.158,0.605,0.311,0.863c0.189,0.316,0.487,0.446,0.883,0.32
	c0.353-0.113,0.721-0.201,1.09-0.238c0.559-0.06,0.809,0.146,0.906,0.695c0.053,0.307,0.089,0.617,0.111,0.928
	c0.022,0.342-0.108,0.523-0.446,0.607c-0.24,0.061-0.491,0.086-0.736,0.119c-0.185,0.025-0.376,0.02-0.557,0.059
	c-0.599,0.124-0.744,0.348-0.726,0.969c0.019,0.598,0.168,1.162,0.317,1.735c0.117,0.449,0.184,0.914,0.226,1.376
	c0.03,0.332-0.13,0.526-0.455,0.611c-0.299,0.077-0.609,0.115-0.915,0.172C6.857,114.351,6.855,114.342,6.854,114.336"/>
<path d="M83.196,105.459c-0.182-1.006-0.101-1.973-0.119-2.935c-0.008-0.403,0.035-0.806,0.013-1.205
	c-0.067-1.242-0.157-2.479-0.239-3.722c-0.009-0.121-0.025-0.242-0.044-0.418c-0.187-0.076-0.376-0.181-0.575-0.227
	c-0.209-0.045-0.436-0.061-0.649-0.04c-0.771,0.071-0.97-0.332-0.972-1.021c0-1.098,0.108-1.238,1.209-1.268
	c1.058-0.027,2.115-0.02,3.172-0.052c0.561-0.015,1.117-0.088,1.677-0.125c0.598-0.04,0.795,0.116,0.86,0.711
	c0.051,0.463,0.07,0.929-0.129,1.412c-0.164,0.048-0.334,0.122-0.514,0.144c-0.214,0.028-0.436,0-0.65,0.02
	c-0.438,0.042-0.672,0.268-0.735,0.706c-0.032,0.213-0.067,0.434-0.048,0.646c0.193,2.074,0.141,4.162,0.389,6.23
	c0.054,0.453,0.016,0.871-0.318,1.216C84.397,105.78,83.976,105.771,83.196,105.459"/>
<path d="M46.311,114.366c0.115-0.086,0.228-0.229,0.36-0.254c0.459-0.083,0.924-0.147,1.39-0.171
	c0.406-0.022,0.587,0.142,0.737,0.564c0.158,0.438,0.331,0.876,0.445,1.325c0.091,0.36,0.296,0.604,0.599,0.801
	c0.142-0.059,0.287-0.117,0.466-0.192c-0.107-0.728,0.116-1.44,0.192-2.166c0.022-0.231,0.181-0.374,0.395-0.483
	c0.579-0.289,1.186-0.31,1.818-0.267c0.227,0.413,0.179,0.808,0.084,1.204c-0.356,1.514-0.715,3.027-1.078,4.539
	c-0.103,0.427-0.131,0.841-0.067,1.29c0.152,1.077,0.245,2.166,0.344,3.251c0.053,0.576-0.114,0.866-0.642,0.953
	c-0.516,0.082-1.053,0.06-1.578,0.047c-0.186-0.006-0.33-0.169-0.368-0.373c-0.017-0.092-0.017-0.186-0.026-0.279
	c-0.077-0.774-0.197-1.549-0.223-2.324c-0.045-1.348-0.574-2.529-1.153-3.707c-0.561-1.143-1.101-2.299-1.644-3.453
	C46.323,114.591,46.331,114.491,46.311,114.366"/>
<path d="M45.503,97.631c0.313-0.271,0.664-0.266,1.001-0.296c1.242-0.12,2.483-0.23,3.723-0.354c0.464-0.044,0.926-0.133,1.39-0.171
	c0.36-0.029,0.543,0.092,0.6,0.443c0.075,0.458,0.098,0.925,0.107,1.389c0.005,0.199-0.151,0.35-0.351,0.385
	c-0.275,0.047-0.557,0.049-0.834,0.084c-0.468,0.063-0.742,0.327-0.724,0.809c0.028,0.65,0.117,1.297,0.19,1.943
	c0.188,1.674,0.375,3.345,0.576,5.013c0.047,0.389,0.014,0.739-0.205,1.045c-1.312,0.354-1.555,0.366-2.306,0.099
	c-0.2-0.486-0.225-1.021-0.25-1.543c-0.077-1.684-0.259-3.354-0.517-5.017c-0.067-0.429-0.074-0.869-0.129-1.3
	c-0.048-0.373-0.236-0.557-0.602-0.58c-0.246-0.017-0.497,0.02-0.746,0.029c-0.717,0.026-0.944-0.176-1-0.902
	c-0.016-0.217-0.013-0.438,0.001-0.654C45.437,97.903,45.48,97.753,45.503,97.631"/>
<path d="M21.75,111.266c-0.13-1.118-0.267-2.293-0.403-3.466c-0.039-0.338-0.062-0.681-0.121-1.017
	c-0.259-1.44-0.528-2.877-0.79-4.316c-0.061-0.336-0.129-0.674-0.162-1.012c-0.037-0.397,0.151-0.717,0.515-0.777
	c0.581-0.098,1.172-0.143,1.763-0.172c0.113-0.006,0.304,0.136,0.343,0.248c0.119,0.351,0.227,0.716,0.255,1.083
	c0.127,1.614,0.316,3.215,0.663,4.801c0.133,0.604,0.177,1.229,0.286,1.843c0.081,0.458,0.324,0.655,0.781,0.587
	c0.551-0.081,1.097-0.214,1.64-0.345c0.414-0.098,0.801-0.102,1.126,0.204c0.095,0.401,0.19,0.791,0.275,1.184
	c0.086,0.396-0.057,0.683-0.445,0.8c-0.232,0.069-0.487,0.068-0.731,0.095c-0.4,0.042-0.805,0.056-1.199,0.124
	c-0.889,0.156-1.774,0.324-2.658,0.512C22.451,111.735,22.092,111.649,21.75,111.266"/>
<path d="M15.252,112.258c-0.079-0.753-0.151-1.525-0.244-2.3c-0.279-2.352-0.723-4.676-1.249-6.985
	c-0.034-0.151-0.064-0.307-0.073-0.461c-0.022-0.414,0.204-0.73,0.623-0.799c0.552-0.087,1.113-0.133,1.672-0.176
	c0.206-0.016,0.359,0.119,0.4,0.321c0.084,0.392,0.213,0.768,0.235,1.182c0.05,0.831,0.168,1.663,0.3,2.487
	c0.197,1.229,0.431,2.451,0.652,3.678c0.155,0.865,0.355,1.005,1.193,0.823c0.457-0.099,0.908-0.22,1.367-0.308
	c0.211-0.041,0.435-0.053,0.647-0.033c0.273,0.021,0.421,0.193,0.484,0.479c0.067,0.303,0.142,0.604,0.208,0.906
	c0.096,0.443-0.077,0.721-0.519,0.833c-0.09,0.022-0.183,0.048-0.276,0.047c-1.356-0.01-2.637,0.445-3.959,0.647
	c-0.092,0.014-0.186,0.023-0.273,0.057C16.002,112.819,15.654,112.667,15.252,112.258"/>
<path d="M75.9,50.264c0.446,0.756,0.651,0.962,1.211,1.279c0.494,0.279,0.683,0.766,0.867,1.235
	c-0.138,0.216-0.304,0.174-0.431,0.099c-0.899-0.545-1.828-1.036-2.648-1.715c-0.643-0.534-1.385-0.95-2.078-1.421
	c-0.15-0.103-0.289-0.222-0.477-0.366c0.353-0.382,0.824-0.501,1.188-0.771c0.377-0.277,0.761-0.543,1.142-0.813
	c0.381-0.269,0.754-0.552,1.146-0.802c0.393-0.249,0.805-0.467,1.249-0.72c0.136,0.083,0.321,0.15,0.433,0.279
	c0.164,0.187,0.131,0.428-0.055,0.58c-0.359,0.296-0.729,0.582-1.1,0.865c-0.268,0.204-0.543,0.399-0.789,0.582
	c0.001,0.23,0.142,0.225,0.256,0.22c0.589-0.019,1.179-0.063,1.768-0.068c1.494-0.011,2.99,0.007,4.483-0.008
	c1.308-0.013,2.614-0.054,3.922-0.081c1.651-0.034,3.301-0.07,4.952-0.096c0.273-0.005,0.545,0.046,0.852,0.073
	c-0.054,0.501-0.168,0.908-0.419,1.304c-0.212,0.022-0.428,0.06-0.642,0.063c-1.243,0.022-2.488,0.015-3.73,0.055
	c-1.181,0.037-2.359,0.136-3.539,0.18c-0.902,0.033-1.807,0.028-2.709,0.027c-1.463-0.003-2.928-0.021-4.392-0.026
	C76.218,50.217,76.072,50.247,75.9,50.264"/>
<path d="M12.138,113.212c-0.323-0.958-0.352-1.854-0.435-2.744c-0.032-0.339-0.071-0.678-0.138-1.008
	c-0.364-1.796-0.74-3.588-1.107-5.384c-0.061-0.305-0.109-0.612-0.143-0.92c-0.054-0.493,0.126-0.781,0.611-0.879
	c0.485-0.096,0.982-0.146,1.478-0.181c0.369-0.028,0.575,0.149,0.665,0.507c0.028,0.12,0.056,0.248,0.047,0.367
	c-0.062,0.822,0.193,1.6,0.332,2.391c0.058,0.338,0.156,0.674,0.161,1.01c0.016,1.193,0.31,2.334,0.567,3.484
	c0.161,0.726,0.319,1.452,0.468,2.183c0.133,0.643-0.042,0.958-0.693,1.065C13.375,113.196,12.78,113.178,12.138,113.212"/>
<path d="M7.461,120.157c0.281,0.404,0.365,0.791,0.426,1.194c0.22,1.446,0.426,2.894,0.68,4.332c0.22,1.253,0.501,2.496,0.752,3.743
	c0.043,0.214,0.088,0.428,0.115,0.643c0.056,0.479-0.054,0.719-0.523,0.842c-0.444,0.119-0.916,0.154-1.378,0.175
	c-0.288,0.013-0.474-0.209-0.53-0.554c-0.176-1.073-0.38-2.146-0.505-3.227c-0.136-1.182-0.535-2.299-0.777-3.453
	c-0.05-0.242-0.231-0.361-0.471-0.384c-0.278-0.028-0.557-0.046-0.835-0.076c-0.386-0.038-0.595-0.192-0.62-0.446
	c-0.04-0.387,0.096-0.705,0.452-0.816c0.322-0.1,0.545-0.291,0.749-0.525c0.161-0.184,0.305-0.387,0.451-0.584
	c0.109-0.15,0.201-0.315,0.315-0.462c0.33-0.433,0.74-0.659,1.3-0.481C7.177,120.112,7.302,120.127,7.461,120.157"/>
<path d="M43.378,108.688c-0.058-0.696-0.141-1.277-0.15-1.86c-0.025-1.532-0.324-3.026-0.531-4.536
	c-0.151-1.113-0.306-2.223-0.457-3.335c-0.026-0.185-0.053-0.371-0.055-0.556c-0.004-0.307,0.166-0.586,0.456-0.626
	c0.614-0.087,1.236-0.128,1.856-0.164c0.206-0.013,0.37,0.136,0.407,0.323c0.06,0.303,0.108,0.619,0.082,0.922
	c-0.041,0.476,0.04,0.926,0.122,1.388c0.108,0.61,0.205,1.235,0.193,1.853c-0.015,0.881,0.097,1.738,0.234,2.599
	c0.157,0.985,0.309,1.972,0.463,2.955c0.013,0.093,0.026,0.185,0.031,0.278c0.009,0.336-0.116,0.534-0.42,0.647
	c-0.145,0.053-0.299,0.112-0.451,0.114C44.604,108.702,44.048,108.692,43.378,108.688"/>
</svg>
