<?xml version="1.0" encoding="utf-8"?>
<!-- Generator: Adobe Illustrator 12.0.0, SVG Export Plug-In . SVG Version: 6.00 Build 51448)  -->
<!DOCTYPE svg PUBLIC "-//W3C//DTD SVG 1.1//EN" "http://www.w3.org/Graphics/SVG/1.1/DTD/svg11.dtd" [
	<!ENTITY ns_svg "http://www.w3.org/2000/svg">
	<!ENTITY ns_xlink "http://www.w3.org/1999/xlink">
]>
<svg  version="1.1" id="Layer_1" xmlns="&ns_svg;" xmlns:xlink="&ns_xlink;" width="137.151" height="133.525"
	 viewBox="0 0 137.151 133.525" overflow="visible" enable-background="new 0 0 137.151 133.525" xml:space="preserve">
<path d="M2.252,107.422l-0.064-0.049l-0.022,0.067L2.252,107.422z M3.504,108.18c-0.019-0.021-0.039-0.06-0.052-0.06
	c-0.049,0.008-0.094,0.029-0.14,0.044c0.016,0.02,0.035,0.059,0.051,0.057C3.412,108.215,3.455,108.191,3.504,108.18 M4.292,109.354
	c0.048-0.021,0.097-0.037,0.142-0.056c-0.011-0.021-0.021-0.057-0.035-0.057c-0.046-0.005-0.096,0-0.144,0.003
	C4.266,109.28,4.278,109.316,4.292,109.354 M2.93,108.459c-0.051-0.012-0.106-0.051-0.146-0.036
	c-0.045,0.021-0.073,0.08-0.108,0.123c0.054,0.013,0.112,0.046,0.155,0.034C2.871,108.564,2.898,108.5,2.93,108.459 M2.779,109.826
	c0.167,0.073,0.236,0.119,0.306,0.126c0.051,0.005,0.108-0.043,0.161-0.067c-0.036-0.037-0.068-0.1-0.105-0.103
	C3.055,109.775,2.971,109.801,2.779,109.826 M3.3,110.822c-0.08,0.158-0.217,0.26-0.188,0.494c0.097,0.77,0.233,1.537,0.206,2.322
	c-0.007,0.271,0.107,0.549,0.13,0.828c0.032,0.387-0.061,0.526-0.423,0.613c-0.363,0.089-0.739,0.173-1.111,0.191
	c-0.836,0.044-1.085-0.203-1.104-1.017c0-0.064-0.001-0.128,0.009-0.188c0.157-0.979-0.029-1.945-0.105-2.913
	c-0.077-0.94-0.206-1.876-0.299-2.814c-0.079-0.782-0.132-1.563-0.209-2.345c-0.035-0.343-0.113-0.682-0.152-1.025
	c-0.032-0.312-0.065-0.627-0.048-0.937c0.021-0.418,0.155-0.556,0.55-0.646c0.278-0.063,0.556-0.113,0.834-0.162
	c0.418-0.072,0.813-0.028,1.201,0.283c0.024,0.526,0.071,1.084,0.06,1.642c-0.005,0.383-0.021,0.751,0.239,1.069
	c0.112,0.135,0.046,0.286,0.045,0.438c-0.004,0.146,0.132,0.28,0.377,0.235c0.084-0.196,0.188-0.416,0.271-0.64
	c0.054-0.146,0.103-0.303,0.112-0.455c0.021-0.36,0.434-0.509,0.419-0.913c-0.01-0.332,0.13-0.676,0.218-1.01
	c0.049-0.18,0.102-0.373,0.208-0.52c0.102-0.146,0.258-0.319,0.417-0.346c0.522-0.095,1.055-0.152,1.586-0.168
	c0.186-0.003,0.377,0.164,0.57,0.256c-0.12,0.682-0.375,1.254-0.604,1.834c-0.369,0.937-0.714,1.879-1.083,2.814
	c-0.198,0.505-0.158,0.955,0.115,1.438c0.774,1.365,1.384,2.82,2.24,4.144c0.237,0.369,0.437,0.765,0.295,1.271
	c-0.697,0.203-1.415,0.209-2.128,0.24c-0.275,0.014-0.487-0.14-0.602-0.385c-0.117-0.255-0.191-0.532-0.305-0.79
	c-0.222-0.483-0.457-0.961-0.686-1.442c-0.028-0.056-0.074-0.102-0.098-0.16c-0.104-0.26-0.182-0.533-0.31-0.777
	c-0.136-0.255-0.556-0.15-0.656-0.475c-0.017,0.023-0.03,0.051-0.054,0.062c-0.013,0.005-0.038-0.028-0.059-0.043
	C3.22,110.825,3.262,110.825,3.3,110.822"/>
<path d="M78.869,70.373c-0.008,0.041-0.015,0.08-0.019,0.121c0.015-0.019,0.043-0.035,0.044-0.055
	C78.895,70.419,78.878,70.395,78.869,70.373 M75.613,69.984c-0.025-0.009-0.049-0.016-0.074-0.023
	c0.016,0.027,0.032,0.055,0.049,0.08C75.599,70.021,75.604,70.005,75.613,69.984 M65.786,69.833
	c-0.013-0.021-0.022-0.05-0.043-0.056c-0.023-0.01-0.053,0.004-0.082,0.006c0.019,0.033,0.035,0.063,0.054,0.096
	C65.738,69.863,65.764,69.849,65.786,69.833 M59.984,69.437c0.02-0.049,0.045-0.098,0.055-0.148
	c0.004-0.019-0.033-0.042-0.048-0.064c-0.03,0.033-0.087,0.065-0.084,0.095C59.909,69.359,59.956,69.398,59.984,69.437
	 M62.406,68.285c-0.058-0.015-0.107-0.031-0.157-0.034c-0.018,0-0.036,0.041-0.053,0.063c0.043,0.026,0.083,0.065,0.13,0.069
	C62.352,68.384,62.379,68.32,62.406,68.285 M79.909,65.617c-0.035-0.039-0.067-0.077-0.104-0.117
	c-0.021,0.022-0.065,0.046-0.063,0.061c0.01,0.05,0.038,0.096,0.058,0.142C79.836,65.675,79.874,65.646,79.909,65.617
	 M80.649,65.822l-0.005,0.041l0.058-0.015L80.649,65.822z M68.105,50.599l-0.034,0.053l0.044,0.012L68.105,50.599z M80.452,67.314
	l-0.005,0.059l0.077-0.022L80.452,67.314z M79.348,49.292c-0.032-0.047-0.063-0.092-0.095-0.138c-0.03,0.046-0.088,0.09-0.09,0.137
	c0,0.049,0.054,0.1,0.084,0.148C79.28,49.391,79.314,49.341,79.348,49.292 M66.639,71.555c0.027,0.049,0.043,0.117,0.086,0.141
	c0.024,0.014,0.089-0.037,0.137-0.061c-0.035-0.061-0.072-0.118-0.107-0.178C66.714,71.488,66.676,71.521,66.639,71.555
	 M53.458,59.479c-0.032,0.04-0.065,0.082-0.096,0.124c0.026,0.014,0.057,0.045,0.074,0.039c0.048-0.013,0.09-0.044,0.133-0.067
	C53.533,59.543,53.494,59.51,53.458,59.479 M80.073,69.896c-0.047-0.017-0.114-0.063-0.135-0.047
	c-0.047,0.033-0.067,0.101-0.097,0.153c0.058,0.018,0.121,0.063,0.166,0.047C80.045,70.035,80.051,69.949,80.073,69.896
	 M65.704,71.164c-0.014-0.055-0.018-0.133-0.053-0.153c-0.035-0.022-0.107,0.019-0.16,0.03c0.021,0.063,0.045,0.124,0.068,0.186
	C65.608,71.206,65.656,71.185,65.704,71.164 M58.457,67.684c-0.049-0.02-0.1-0.041-0.148-0.062
	c-0.006,0.044-0.016,0.089-0.021,0.133c0.053,0.002,0.108,0.004,0.161,0.002C58.455,67.757,58.455,67.709,58.457,67.684
	 M65.267,69.9c-0.025-0.045-0.044-0.121-0.076-0.131c-0.048-0.016-0.113,0.02-0.168,0.033c0.024,0.053,0.04,0.132,0.082,0.148
	C65.145,69.968,65.21,69.92,65.267,69.9 M81.877,65.512c-0.03-0.068-0.055-0.146-0.096-0.205c-0.019-0.021-0.096,0.007-0.144,0.012
	c0.02,0.097,0.04,0.195,0.062,0.293C81.747,65.585,81.796,65.558,81.877,65.512 M69.861,40.294c-0.115,0.048-0.19,0.056-0.214,0.096
	c-0.429,0.737-0.958,1.378-1.634,1.907c-0.374,0.292-0.624,0.701-0.806,1.141c-0.328,0.799,0.027,1.687,0.815,2.044
	c0.831,0.378,1.696,0.126,2.103-0.638c0.286-0.535,0.395-1.078,0.228-1.711C70.111,42.211,69.754,41.302,69.861,40.294
	 M69.043,32.312c-0.541,0.818-1.229,1.452-1.905,2.103c-0.159,0.151-0.324,0.296-0.472,0.458c-0.481,0.533-0.918,1.093-1.189,1.769
	c-0.172,0.425-0.197,0.865-0.063,1.287c0.339,1.042,1.145,1.53,2.172,1.692c0.889,0.139,1.497-0.358,1.959-1.027
	c0.206-0.297,0.326-0.68,0.39-1.041c0.124-0.683,0.052-1.352-0.16-2.034C69.45,34.48,69.096,33.437,69.043,32.312 M59.935,65.218
	c0.191,0.165,0.389,0.322,0.57,0.495c1.31,1.25,2.805,2.222,4.453,2.949c0.599,0.266,1.241,0.524,1.88,0.586
	c1.369,0.127,2.713,0.593,4.108,0.343c0.06-0.011,0.13,0.003,0.187,0.026c0.396,0.168,0.809,0.093,1.214,0.074
	c0.626-0.028,1.269-0.011,1.87-0.152c0.984-0.229,1.929-0.588,2.524-1.504c0.154-0.236,0.349-0.444,0.519-0.672
	c0.745-0.996,1.268-2.087,1.362-3.349c0.06-0.752,0.067-1.508,0.169-2.252c0.103-0.734-0.191-1.514,0.252-2.206
	c-0.274-0.774,0.011-1.558-0.033-2.339c-0.049-0.821-0.262-1.609-0.386-2.412c-0.137-0.882-0.509-1.664-0.94-2.415
	c-0.361-0.072-0.642,0.078-0.933,0.196c-0.258,0.107-0.526,0.201-0.789,0.301c-0.368,0.142-0.734,0.152-1.099-0.008
	c-0.6-0.268-1.218-0.504-1.804-0.803c-0.542-0.274-1.104-0.477-1.703-0.506c-0.799-0.041-1.617-0.217-2.392,0.177
	c-0.162,0.082-0.357,0.103-0.522,0.181c-0.574,0.266-1.17,0.168-1.756,0.102c-0.252-0.029-0.467-0.171-0.604-0.412
	c-0.262-0.468-0.721-0.689-1.194-0.866c-0.952-0.358-1.926-0.573-2.95-0.334c-0.659,0.153-1.264,0.116-1.895-0.246
	c-1.212-0.694-2.499-0.428-3.754-0.077c-0.264,0.074-0.498,0.263-0.74,0.404c-0.183,0.106-0.26,0.288-0.241,0.481
	c0.038,0.437,0.102,0.871,0.17,1.306c0.047,0.279,0.135,0.55,0.177,0.829c0.252,1.677,0.578,3.337,0.963,4.99
	c0.331,1.412,0.711,2.796,1.326,4.117c0.475,1.026,0.891,2.08,1.846,2.786c0.072,0.053,0.113,0.15,0.163,0.221
	c-0.053,0.005-0.103,0.012-0.141,0.015C59.845,65.237,59.89,65.229,59.935,65.218 M87.738,14.8c0.154,0.124,0.28,0.273,0.237,0.48
	c-0.212,0.998-0.623,1.976-1.993,2.21c-0.466,0.078-0.93,0.162-1.397,0.234c-0.833,0.13-1.459,0.576-1.888,1.282
	c-0.271,0.455-0.519,0.935-0.711,1.431c-0.861,2.238-1.434,4.555-1.888,6.906c-0.793,4.107-0.886,8.254-0.693,12.413
	c0.075,1.669,0.438,3.303,0.781,4.933c0.493,2.341,1.04,4.668,1.494,7.015c0.487,2.499,0.967,5.007,1.182,7.546
	c0.124,1.44,0.154,2.894,0.1,4.339c-0.043,1.058-0.282,2.112-0.455,3.165c-0.021,0.133-0.167,0.247-0.254,0.369
	c-0.031,0.049-0.102,0.121-0.089,0.143c0.294,0.485-0.185,0.814-0.274,1.215c-0.082,0.375-0.441,0.68-0.6,1.051
	c-0.351,0.828-0.92,1.488-1.525,2.129c-0.661,0.695-1.428,1.238-2.293,1.632c-1.127,0.507-2.305,0.835-3.536,0.956
	c-0.469,0.048-0.935,0.115-1.403,0.158c-1.743,0.164-3.456-0.111-5.163-0.381c-1.9-0.3-3.739-0.836-5.492-1.649
	c-1.597-0.741-2.971-1.761-4.145-3.065c-0.48-0.535-0.894-1.137-1.485-1.572c-0.074-0.054-0.127-0.138-0.18-0.215
	c-1.04-1.496-2.092-2.983-2.656-4.747c-0.122-0.386-0.336-0.741-0.476-1.123c-0.202-0.561-0.439-1.12-0.551-1.701
	c-0.296-1.576-0.552-3.158-0.783-4.743c-0.081-0.557-0.045-1.13-0.066-1.698c-0.035-1.131-0.112-2.264-0.099-3.394
	c0.035-2.769,0.127-5.534,0.626-8.27c0.169-0.928,0.281-1.866,0.438-2.796c0.149-0.899,0.319-1.795,0.488-2.69
	c0.096-0.527,0.193-1.052,0.307-1.574c0.08-0.366,0.188-0.724,0.285-1.087c0.061-0.213,0.125-0.423,0.172-0.637
	c0.896-4.121,2.046-8.173,3.367-12.175c0.364-1.105,0.776-2.194,1.168-3.289c0.821-2.28,1.539-4.592,2.058-6.961
	c0.192-0.889,0.309-1.797,0.404-2.704c0.049-0.463,0-0.941-0.04-1.41c-0.107-1.224-0.192-2.449-0.091-3.676
	c0.035-0.403,0.111-0.81,0.218-1.203c0.16-0.594,0.493-1.083,1.03-1.416C61.97,0.169,62.057,0.078,62.149,0h0.942
	c0.834,0.45,1.354,1.174,1.797,1.984c0.864,1.577,1.928,3.012,3.168,4.316c2.222,2.336,4.883,3.89,8.016,4.683
	c1.954,0.495,3.936,0.769,5.914,1.118c1.108,0.196,2.206,0.476,3.293,0.781c0.534,0.15,1.042,0.423,1.544,0.677
	c0.397,0.201,0.716,0.515,0.93,0.91c0.048,0.089-0.002,0.229-0.002,0.351c0.013,0.075,0.022,0.144,0.011,0.055
	C87.783,14.951,87.762,14.875,87.738,14.8"/>
<path d="M137.151,114.865c-0.043,0.242-0.097,0.484-0.132,0.728c-0.026,0.187-0.023,0.374-0.041,0.563
	c-0.007,0.059-0.046,0.114-0.069,0.17c-0.209,0.182-0.456,0.237-0.706,0.155c-1.312-0.418-2.686-0.26-4.021-0.442
	c-0.22-0.031-0.439-0.029-0.658-0.057c-0.536-0.074-0.804-0.433-0.729-0.986c0.168-1.246,0.348-2.489,0.512-3.735
	c0.043-0.342,0.048-0.688,0.069-1.035c0.108-1.631,0.216-3.262,0.322-4.894c0.015-0.221,0.023-0.441,0.065-0.656
	c0.092-0.458,0.334-0.673,0.793-0.629c0.619,0.061,1.232,0.182,1.855,0.277c0.19,0.545,0.16,1.047,0.068,1.535
	c-0.247,1.295-0.387,2.605-0.489,3.918c-0.081,1.096-0.17,2.191-0.235,3.289c-0.034,0.606,0.202,0.848,0.818,0.889
	c0.439,0.031,0.88,0.05,1.319,0.052c0.441,0.003,0.868,0.075,1.258,0.293V114.865z"/>
<path d="M121.927,89.447c-1.162-0.082-2.324-0.164-3.484-0.242c-3.139-0.215-6.278-0.425-9.417-0.638
	c-3.642-0.25-7.284-0.501-10.925-0.755c-4.741-0.329-9.485-0.571-14.232-0.775c-6.89-0.295-13.78-0.396-20.673-0.258
	c-3.997,0.08-7.993,0.205-11.985,0.359c-3.993,0.156-7.987,0.367-11.979,0.567c-3.519,0.179-7.038,0.37-10.56,0.558
	c-1.694,0.092-3.393,0.191-5.089,0.279c-0.299,0.017-0.597,0.002-1.07,0.002c1.19-0.382,2.252-0.505,3.301-0.67
	c2.858-0.453,5.719-0.897,8.587-1.279c2.463-0.33,4.933-0.588,7.404-0.834c2.569-0.258,5.143-0.469,7.712-0.684
	c1.098-0.094,2.197-0.154,3.295-0.218c7.421-0.425,14.845-0.53,22.276-0.433c4.029,0.054,8.053,0.218,12.075,0.451
	c3.266,0.191,6.53,0.433,9.788,0.754c3.566,0.35,7.126,0.801,10.686,1.24c4.43,0.549,8.83,1.323,13.22,2.148
	c0.31,0.06,0.618,0.123,0.92,0.208c0.063,0.018,0.092,0.144,0.139,0.221L121.927,89.447z"/>
<path d="M64.178,106.842c-0.016-0.023-0.032-0.066-0.043-0.066c-0.051,0.007-0.1,0.03-0.147,0.046
	c0.019,0.021,0.035,0.062,0.048,0.062C64.084,106.875,64.133,106.856,64.178,106.842 M64.712,107.601
	c-0.053-0.028-0.101-0.074-0.148-0.079c-0.052-0.003-0.102,0.041-0.154,0.063c0.059,0.036,0.113,0.092,0.18,0.104
	C64.621,107.694,64.668,107.631,64.712,107.601 M66.749,105.711c-0.043-0.023-0.087-0.061-0.135-0.065
	c-0.027,0-0.058,0.051-0.088,0.078c0.021,0.012,0.05,0.036,0.073,0.034C66.649,105.75,66.697,105.728,66.749,105.711
	 M65.255,105.899c-0.055-0.028-0.106-0.079-0.159-0.079c-0.05,0-0.103,0.053-0.153,0.083c0.055,0.03,0.105,0.081,0.156,0.081
	C65.148,105.984,65.202,105.931,65.255,105.899 M65.646,106.262c0.125,0.113,0.224,0.082,0.31-0.037
	c0.02-0.024,0.025-0.053,0.039-0.082c-0.045-0.018-0.109-0.067-0.14-0.053C65.778,106.131,65.715,106.201,65.646,106.262
	 M68.256,107.572c-0.06-0.186-0.147-0.32-0.379-0.23c-0.136,0.051-0.183,0.172-0.098,0.287
	C67.941,107.846,68.094,107.707,68.256,107.572 M65.762,107.349c-0.114-0.052-0.226-0.103-0.327-0.148
	c-0.314,0.194-0.426,0.484-0.509,0.79c-0.096,0.35-0.337,0.719-0.267,1.037c0.084,0.375-0.061,0.682-0.088,1.012
	c-0.053,0.624-0.187,1.243-0.269,1.865c-0.05,0.413-0.297,0.627-0.679,0.663c-0.371,0.036-0.754,0.031-1.128,0
	c-0.502-0.043-0.676-0.196-0.769-0.678c-0.129-0.647-0.226-1.3-0.334-1.952c-0.077-0.464-0.149-0.93-0.237-1.395
	c-0.09-0.479-0.097-0.479,0.137-0.953c-0.301-0.045-0.389-0.254-0.431-0.524c-0.112-0.715-0.233-1.429-0.364-2.14
	c-0.188-1.02-0.396-2.035-0.578-3.057c-0.06-0.335-0.061-0.68-0.093-1.037c0.634-0.365,1.247-0.363,1.861-0.185
	c0.354,0.104,0.578,0.376,0.619,0.755c0.132,1.217,0.253,2.434,0.383,3.65c0.015,0.123,0.058,0.242,0.093,0.36
	c0.155,0.517,0.155,0.517-0.082,1.046c0.129,0.157,0.297,0.133,0.404,0.013c0.191-0.204,0.351-0.437,0.51-0.669
	c0.116-0.176,0.216-0.369,0.309-0.561c0.033-0.07,0.04-0.166,0.033-0.247c-0.017-0.12-0.087-0.245-0.075-0.362
	c0.115-1.127,0.235-2.252,0.371-3.377c0.045-0.388,0.276-0.625,0.683-0.649c0.344-0.021,0.692-0.058,1.031-0.031
	c0.473,0.041,0.652,0.232,0.721,0.722c0.091,0.621,0.149,1.246,0.222,1.866c0.031,0.247,0.067,0.492,0.102,0.747
	c-0.137,0.078-0.267,0.151-0.446,0.253c0.177,0.128,0.335,0.236,0.451,0.317c0.092,0.464,0.155,0.893,0.262,1.311
	c0.112,0.436,0.222,0.467,0.766,0.301c0.226-1.555,0.478-3.106,0.661-4.666c0.078-0.666,0.354-0.775,0.92-0.832
	c0.155-0.016,0.313-0.004,0.473,0.012c0.276,0.025,0.552,0.064,0.785,0.09c0.267,0.281,0.231,0.561,0.178,0.843
	c-0.13,0.712-0.255,1.423-0.392,2.134c-0.241,1.232-0.504,2.459-0.729,3.694c-0.274,1.515-0.519,3.033-0.78,4.548
	c-0.067,0.406-0.257,0.601-0.672,0.672c-0.151,0.024-0.313,0.034-0.469,0.029c-1.279-0.058-1.389,0.026-1.541-1.324
	c-0.11-0.969-0.25-1.935-0.409-2.895c-0.06-0.365-0.218-0.714-0.33-1.074c0.083-0.033,0.175-0.053,0.248-0.102
	c0.042-0.025,0.077-0.096,0.072-0.146c-0.001-0.032-0.082-0.081-0.122-0.081c-0.048,0.002-0.117,0.049-0.135,0.09
	C65.771,107.168,65.773,107.26,65.762,107.349"/>
<path d="M95.348,106.885c-0.043-0.025-0.082-0.056-0.128-0.07c-0.012-0.007-0.039,0.031-0.059,0.053
	c0.042,0.029,0.082,0.063,0.129,0.092C95.291,106.961,95.325,106.915,95.348,106.885 M94.661,108.066
	c0,0.025-0.004,0.052-0.007,0.076c0.036-0.02,0.071-0.037,0.104-0.061c0.003-0.002-0.02-0.041-0.033-0.063
	C94.705,108.036,94.682,108.049,94.661,108.066 M95.515,106.129c0.503-0.65,0.385-1.371,0.24-2.077
	c-0.067-0.325-0.338-0.522-0.664-0.603c-0.525-0.127-0.931,0.201-0.933,0.736c0,0.344-0.019,0.688-0.014,1.034
	c0.004,0.218,0.009,0.441,0.054,0.651c0.087,0.383,0.313,0.521,0.692,0.439C95.104,106.265,95.31,106.189,95.515,106.129
	 M94.153,108.457c-0.289,0.976-0.164,1.941-0.192,2.898c-0.015,0.439-0.018,0.881-0.053,1.318c-0.03,0.418-0.281,0.648-0.678,0.592
	c-0.47-0.066-0.929-0.143-1.407-0.1c-0.314,0.027-0.557-0.173-0.593-0.487c-0.063-0.524-0.131-1.06-0.101-1.585
	c0.122-2.07,0.282-4.141,0.431-6.21c0.219-0.421-0.132-0.817-0.044-1.251c0.084-0.395,0.048-0.814,0.067-1.223
	c0.015-0.281,0.035-0.562,0.053-0.813c0.291-0.376,0.681-0.409,1.051-0.39c1.254,0.066,2.511,0.128,3.756,0.259
	c1.06,0.114,1.566,0.606,1.773,1.659c0.122,0.613,0.201,1.246,0.214,1.87c0.014,0.804-0.179,1.563-0.817,2.132
	c-0.252,0.225-0.263,0.48-0.112,0.762c0.016,0.028,0.024,0.062,0.04,0.086c0.591,0.787,0.56,1.711,0.541,2.62
	c-0.013,0.599-0.072,1.193,0.11,1.779c0.02,0.058,0.02,0.123,0.024,0.187c0.066,0.715-0.133,0.909-0.839,0.844
	c-0.311-0.029-0.626-0.024-0.94-0.041c-0.455-0.026-0.732-0.204-0.808-0.644c-0.087-0.524-0.106-1.06-0.12-1.592
	c-0.01-0.378,0.053-0.752,0.067-1.129c0.008-0.188,0.01-0.383-0.025-0.566c-0.068-0.347-0.231-0.646-0.525-0.868
	C94.746,108.35,94.445,108.406,94.153,108.457"/>
<path d="M22.977,124.694c-0.008-0.024-0.013-0.05-0.021-0.076c-0.02,0.007-0.059,0.013-0.061,0.019c0,0.025,0.012,0.051,0.021,0.076
	C22.936,124.709,22.955,124.7,22.977,124.694 M24.996,125.696c-0.021-0.008-0.045-0.022-0.067-0.021
	c-0.009,0-0.017,0.033-0.024,0.054c0.024,0.008,0.044,0.021,0.067,0.019C24.981,125.748,24.989,125.715,24.996,125.696
	 M24.874,127.694c-0.029-0.053-0.058-0.104-0.087-0.158c-0.1,0.052-0.197,0.097-0.293,0.153c-0.005,0.003,0.057,0.135,0.062,0.133
	C24.662,127.786,24.768,127.738,24.874,127.694 M22.186,126.779c0.087-0.087,0.169-0.156,0.232-0.242
	c0.015-0.017-0.035-0.084-0.059-0.127c-0.089,0.066-0.181,0.125-0.262,0.199C22.089,126.617,22.138,126.688,22.186,126.779
	 M22.849,125.357c-0.12-0.037-0.194-0.086-0.257-0.073c-0.067,0.011-0.121,0.081-0.182,0.127c0.065,0.04,0.133,0.12,0.194,0.115
	C22.674,125.519,22.736,125.439,22.849,125.357 M25.211,126.51c0.085,0.021,0.176,0.063,0.258,0.054
	c0.069-0.011,0.132-0.084,0.199-0.133c-0.058-0.058-0.105-0.161-0.173-0.173C25.328,126.225,25.203,126.288,25.211,126.51
	 M23.805,125.325c-0.329-0.235-0.482-0.003-0.651,0.138c-0.043,0.037-0.045,0.127-0.088,0.267
	C23.351,125.572,23.558,125.459,23.805,125.325 M23.709,122.922c-0.089,0.123-0.159,0.219-0.231,0.313
	c0.033,0.058,0.052,0.117,0.09,0.155c0.175,0.176,0.372,0.334,0.533,0.522c0.218,0.261,0.464,0.275,0.779,0.128
	c-0.087-0.85-0.181-1.703-0.261-2.562c-0.039-0.437-0.06-0.877-0.06-1.316c0-0.243,0.178-0.409,0.417-0.433
	c0.405-0.037,0.809-0.071,1.215-0.086c0.409-0.014,0.624,0.217,0.638,0.64c0.072,2.293,0.13,4.587,0.228,6.88
	c0.038,0.941,0.165,1.879,0.247,2.819c0.027,0.313,0.067,0.626,0.05,0.938c-0.012,0.205-0.122,0.403-0.189,0.61
	c-0.539,0.054-1.032,0.12-1.528,0.148c-0.581,0.032-0.809-0.107-0.988-0.663c-0.402-1.248-0.778-2.508-1.165-3.762
	c0.207-0.133,0.38-0.241,0.559-0.355c-0.066-0.08-0.092-0.146-0.135-0.159c-0.053-0.015-0.12,0.013-0.184,0.017
	c-0.779,0.045-0.938,0.168-1.026,0.906c-0.039,0.305-0.047,0.637,0.032,0.933c0.23,0.864,0.187,1.745,0.196,2.62
	c0.009,0.477-0.132,0.606-0.614,0.668c-0.34,0.041-0.688,0.066-1.035,0.061c-0.372-0.005-0.587-0.201-0.657-0.553
	c-0.021-0.122-0.02-0.252-0.024-0.377c-0.06-1.193-0.121-2.385-0.174-3.578c-0.04-0.941-0.046-1.887-0.104-2.823
	c-0.076-1.224-0.184-2.444-0.276-3.665c-0.013-0.158-0.026-0.316-0.01-0.472c0.022-0.263,0.225-0.472,0.486-0.489
	c0.532-0.038,1.067-0.077,1.601-0.079c0.136-0.003,0.32,0.089,0.402,0.196c0.198,0.275,0.392,0.57,0.517,0.885
	C23.278,121.602,23.473,122.233,23.709,122.922"/>
<path d="M43.84,107.233c-0.005-0.017-0.009-0.046-0.02-0.054c-0.022-0.012-0.052-0.012-0.077-0.018
	c0.007,0.036,0.017,0.069,0.025,0.102C43.791,107.254,43.816,107.244,43.84,107.233 M44.502,106.803
	c0.006,0.019,0.002,0.049,0.016,0.056c0.021,0.014,0.051,0.014,0.076,0.016c-0.005-0.03-0.013-0.063-0.021-0.094
	C44.551,106.787,44.524,106.795,44.502,106.803 M43.279,106.641c-0.023-0.008-0.044-0.02-0.067-0.02
	c-0.006,0-0.015,0.031-0.022,0.049c0.022,0.006,0.046,0.019,0.069,0.016C43.267,106.686,43.274,106.657,43.279,106.641
	 M42.843,105.76c-0.015-0.024-0.032-0.049-0.048-0.072c-0.02,0.021-0.062,0.055-0.057,0.062c0.02,0.035,0.052,0.063,0.08,0.093
	C42.828,105.814,42.835,105.787,42.843,105.76 M45.292,106.178c-0.137,0-0.245-0.01-0.349,0.006
	c-0.025,0.003-0.043,0.078-0.063,0.121c0.106,0.019,0.215,0.045,0.324,0.05C45.223,106.355,45.245,106.272,45.292,106.178
	 M45.767,104.883c-0.12-0.03-0.24-0.06-0.406-0.101c0.23-0.799-0.05-1.597-0.025-2.401c0.01-0.314-0.038-0.629-0.013-0.941
	c0.037-0.452,0.212-0.66,0.638-0.672c0.527-0.014,1.061,0.035,1.587,0.084c0.207,0.019,0.322,0.197,0.35,0.395
	c0.031,0.217,0.033,0.438,0.037,0.657c0.006,1.386,0.06,2.772,0.005,4.153c-0.075,1.796,0.063,3.582,0.156,5.369
	c0.021,0.388-0.02,0.746-0.198,1.14c-0.529,0.168-1.099,0.162-1.656,0.211c-0.329,0.028-0.541-0.142-0.622-0.461
	c-0.061-0.242-0.097-0.497-0.099-0.744c-0.009-0.724,0.007-1.448,0.007-2.169c0.003-0.252,0.011-0.505-0.022-0.754
	c-0.062-0.457-0.376-0.74-0.811-0.775c-0.389-0.031-0.675,0.163-0.858,0.594c-0.085,0.201-0.15,0.408-0.227,0.616
	c0,0.021-0.005,0.056,0.006,0.08c0.511,0.97,0.144,2.033,0.304,3.04c0.025,0.163-0.098,0.35-0.163,0.555
	c-0.231,0.031-0.445,0.069-0.66,0.08c-0.344,0.02-0.687,0.018-1.029,0.029c-0.362,0.014-0.629-0.156-0.691-0.499
	c-0.05-0.274-0.058-0.563-0.058-0.846c0.003-0.629,0.037-1.259,0.027-1.886s-0.053-1.256-0.083-1.883
	c-0.023-0.535-0.063-1.068-0.074-1.603c-0.018-1.132-0.021-2.265-0.04-3.397c-0.005-0.215-0.072-0.427-0.095-0.645
	c-0.021-0.184-0.047-0.374-0.031-0.557c0.034-0.379,0.217-0.618,0.57-0.644c0.531-0.038,1.065-0.026,1.599-0.007
	c0.25,0.009,0.41,0.198,0.424,0.436c0.03,0.629,0.122,1.271,0.02,1.879c-0.082,0.5,0.098,0.927,0.153,1.377
	c0.039,0.332,0.351,0.623,0.741,0.612c0.423-0.011,0.842-0.1,1.262-0.155C45.781,104.993,45.774,104.939,45.767,104.883"/>
<path d="M40.977,124.764l-0.005,0.052l0.072-0.019L40.977,124.764z M42.408,124.976c-0.016-0.021-0.027-0.054-0.047-0.062
	c-0.025-0.007-0.056,0.004-0.083,0.008c0.018,0.031,0.034,0.066,0.06,0.092C42.344,125.019,42.381,124.988,42.408,124.976
	 M40.619,125.401l0.005-0.051l-0.054,0.021L40.619,125.401z M41.678,125.381c-0.001-0.021,0.004-0.051-0.008-0.059
	c-0.015-0.016-0.045-0.013-0.068-0.018c0.004,0.031,0.009,0.063,0.011,0.094C41.635,125.394,41.655,125.389,41.678,125.381
	 M40.55,123.981c0.04,0.028,0.082,0.059,0.127,0.077c0.011,0.005,0.035-0.036,0.058-0.057c-0.042-0.031-0.08-0.063-0.124-0.087
	C40.605,123.91,40.572,123.956,40.55,123.981 M42.647,124.412c0.217,0.11,0.217,0.11,0.451,0.003
	C42.878,124.311,42.878,124.311,42.647,124.412 M45.713,130.737c-0.618,0.072-1.113,0.146-1.611,0.181
	c-0.443,0.031-0.61-0.108-0.707-0.576c-0.182-0.871-0.141-1.752-0.113-2.631c0.012-0.314,0.022-0.631-0.012-0.941
	c-0.053-0.424-0.338-0.691-0.727-0.744c-0.355-0.048-0.661,0.118-0.834,0.484c-0.107,0.224-0.181,0.463-0.273,0.711
	c0.082,0.203,0.241,0.421,0.254,0.649c0.048,0.813,0.061,1.632,0.058,2.446c0,0.51-0.194,0.681-0.685,0.691
	c-0.372,0.008-0.747,0.013-1.121,0.027c-0.314,0.016-0.571-0.127-0.64-0.426c-0.065-0.271-0.111-0.561-0.096-0.838
	c0.117-1.985-0.106-3.96-0.141-5.94c-0.022-1.034-0.034-2.071-0.067-3.106c-0.009-0.28-0.105-0.557-0.112-0.836
	c-0.015-0.578,0.195-0.82,0.762-0.855c0.408-0.029,0.817-0.021,1.227,0c0.349,0.016,0.506,0.16,0.542,0.53
	c0.051,0.532,0.171,1.09,0.064,1.594c-0.11,0.522,0.039,0.987,0.082,1.47c0.045,0.479,0.459,0.781,0.938,0.717
	c0.35-0.047,0.737,0.023,1.061-0.181c-0.06-0.254-0.274-0.138-0.339-0.194c-0.04-0.812-0.081-1.584-0.112-2.352
	c-0.019-0.377-0.047-0.754-0.018-1.129c0.029-0.35,0.207-0.55,0.534-0.557c0.558-0.012,1.12,0.031,1.676,0.094
	c0.103,0.01,0.231,0.209,0.267,0.339c0.053,0.211,0.045,0.437,0.048,0.657c0.019,1.383,0.087,2.77,0.035,4.152
	c-0.065,1.826,0.095,3.641,0.174,5.461C45.84,129.971,45.758,130.31,45.713,130.737"/>
<path d="M68.419,128.475c0.489-0.589,0.407-1.229,0.438-1.843c0.016-0.304-0.162-0.617,0.059-0.909
	c0.03-0.044,0.036-0.131,0.017-0.184c-0.254-0.704-0.107-1.433-0.107-2.148c0-1.461,0.064-2.926,0.103-4.354
	c0.846-0.474,1.249-0.49,2.439-0.125c0.022,0.256,0.077,0.533,0.074,0.811c-0.022,2.514-0.047,5.029-0.1,7.541
	c-0.01,0.5-0.107,1.004-0.237,1.486c-0.257,0.971-0.967,1.529-1.888,1.797c-0.967,0.279-1.938,0.156-2.879-0.137
	c-0.813-0.248-1.184-0.908-1.341-1.681c-0.108-0.52-0.153-1.058-0.162-1.59c-0.033-2.17-0.043-4.338-0.065-6.507
	c-0.003-0.249,0-0.512-0.074-0.743c-0.098-0.304,0.018-0.556,0.1-0.824c0.072-0.239,0.256-0.374,0.488-0.377
	c0.531-0.008,1.064-0.006,1.594,0.04c0.235,0.02,0.377,0.215,0.382,0.471c0.01,0.343,0.021,0.69,0.019,1.033
	c-0.011,1.479-0.023,2.954-0.038,4.43c-0.008,0.722-0.021,1.444-0.025,2.166c0,0.22-0.008,0.447,0.038,0.658
	c0.074,0.346,0.227,0.654,0.604,0.776C68.032,128.322,68.205,128.393,68.419,128.475"/>
<path d="M49.686,108.934c-0.021-0.015-0.038-0.041-0.059-0.041c-0.02,0-0.042,0.023-0.062,0.036c0.019,0.015,0.039,0.04,0.057,0.04
	C49.643,108.969,49.665,108.945,49.686,108.934 M50.827,106.137c0.025-0.016,0.052-0.031,0.077-0.048
	c-0.023-0.019-0.054-0.06-0.063-0.056c-0.037,0.019-0.063,0.051-0.096,0.08C50.774,106.12,50.799,106.129,50.827,106.137
	 M54.098,107.629c-0.887,0.081-1.765,0.16-2.696,0.247c0.075,0.349,0.167,0.66,0.068,1.032c-0.104,0.399-0.125,0.914,0.325,1.218
	c0.149,0.103,0.332,0.201,0.504,0.206c0.376,0.016,0.753-0.025,1.127-0.051c0.377-0.022,0.753-0.068,1.131-0.076
	c0.273-0.004,0.523,0.181,0.538,0.431c0.029,0.47,0.042,0.942-0.01,1.409c-0.043,0.413-0.287,0.583-0.723,0.583
	c-0.883,0.003-1.765-0.007-2.645-0.022c-0.629-0.01-1.255-0.082-1.884,0.041c-0.177,0.035-0.376-0.005-0.559-0.043
	c-0.281-0.062-0.418-0.229-0.438-0.531c-0.025-0.373-0.046-0.752-0.041-1.129c0.021-1.511,0.054-3.019,0.075-4.53
	c0.005-0.283-0.019-0.566-0.032-0.849c-0.064-1.289-0.142-2.578-0.194-3.867c-0.029-0.659,0.29-1.004,0.939-1.016
	c0.817-0.017,1.635,0.012,2.457,0.001c0.626-0.008,1.253-0.042,1.883-0.071c0.649-0.03,0.943,0.187,0.993,0.848
	c0.028,0.369-0.035,0.752-0.106,1.119c-0.077,0.386-0.265,0.538-0.65,0.557c-0.438,0.02-0.879,0.002-1.32,0.002
	c-0.313-0.001-0.624,0-0.905,0c-0.353,0.274-0.566,0.586-0.509,0.994c0.055,0.366-0.227,0.549-0.385,0.821
	c0.547,0.29,1.098,0.43,1.702,0.368c0.344-0.034,0.693-0.023,1.04-0.002c0.374,0.022,0.538,0.217,0.561,0.612
	c0.016,0.281,0.025,0.564,0.045,0.845C54.408,107.066,54.379,107.344,54.098,107.629"/>
<path d="M72.843,108.464c-0.007-0.021-0.018-0.041-0.025-0.063c-0.015,0.018-0.039,0.037-0.04,0.057
	c-0.004,0.018,0.016,0.041,0.025,0.061C72.813,108.5,72.831,108.482,72.843,108.464 M73.533,103.223
	c-0.024-0.009-0.052-0.021-0.073-0.021c-0.011,0-0.019,0.033-0.025,0.052c0.022,0.008,0.047,0.021,0.074,0.019
	C73.515,103.271,73.523,103.241,73.533,103.223 M73.218,108.862c0.281,0.016,0.528,0.04,0.774,0.038
	c0.32-0.006,0.472-0.141,0.456-0.451c-0.056-1.116-0.002-2.244-0.349-3.391c-0.132,0.029-0.339,0.019-0.388,0.101
	c-0.141,0.237-0.23,0.509-0.318,0.776c-0.159,0.467,0.01,1.01-0.336,1.436C73.11,107.857,73.16,108.345,73.218,108.862
	 M74.526,111.156c-0.34-0.215-0.646-0.243-0.965-0.187c-0.405,0.071-0.709,0.257-0.806,0.686c-0.215,0.952-0.447,1.043-1.395,0.971
	c-0.185-0.013-0.377-0.003-0.562-0.013c-0.613-0.033-0.785-0.254-0.661-0.833c0.217-1.015,0.479-2.021,0.641-3.043
	c0.344-2.171,0.854-4.313,1.21-6.48c0.056-0.341,0.117-0.682,0.207-1.016c0.108-0.407,0.327-0.574,0.751-0.578
	c0.658-0.008,1.317,0.004,1.976,0.009c0.321,0.002,0.535,0.154,0.634,0.46c0.048,0.148,0.11,0.3,0.125,0.453
	c0.192,1.778,0.589,3.522,0.823,5.295c0.122,0.927,0.342,1.843,0.511,2.765c0.117,0.649,0.223,1.299,0.334,1.949
	c0.025,0.155,0.053,0.312,0.06,0.467c0.021,0.379-0.146,0.588-0.522,0.654c-0.122,0.024-0.26,0.049-0.374,0.016
	c-0.367-0.1-0.721-0.155-1.106-0.052c-0.241,0.069-0.431-0.112-0.513-0.325C74.754,111.975,74.655,111.576,74.526,111.156"/>
<path d="M17.458,107.397c0.004,0.019-0.001,0.054,0.009,0.06c0.017,0.011,0.045,0.006,0.07,0.009
	c-0.004-0.03-0.007-0.062-0.012-0.095C17.502,107.379,17.478,107.39,17.458,107.397 M16.535,110.394
	c-0.021-0.008-0.04-0.015-0.061-0.022c-0.008,0.027-0.013,0.061-0.02,0.092c0.021-0.006,0.05-0.004,0.069-0.014
	C16.535,110.442,16.534,110.414,16.535,110.394 M18.358,104.482c-0.11,0.255-0.253,0.5-0.319,0.764
	c-0.053,0.207,0.029,0.447-0.03,0.648c-0.045,0.152-0.219,0.27-0.344,0.41c0.596,0.316,1.18,0.33,1.776,0.281
	c0.378-0.03,0.755-0.03,1.132-0.022c0.209,0.005,0.366,0.146,0.4,0.343c0.068,0.432,0.122,0.87,0.143,1.307
	c0.008,0.175-0.092,0.354-0.143,0.539c-0.917,0.33-1.887,0.22-2.806,0.49c0.135,0.328,0.233,0.646,0.078,1.021
	c-0.125,0.301,0.14,0.93,0.369,1.146c0.172,0.163,0.361,0.25,0.591,0.232c0.28-0.018,0.561-0.053,0.841-0.084
	c0.469-0.055,0.938-0.12,1.402-0.155c0.284-0.021,0.505,0.142,0.538,0.423c0.052,0.436,0.085,0.877,0.062,1.313
	c-0.02,0.454-0.275,0.682-0.73,0.703c-1.039,0.039-2.075,0.046-3.114,0.084c-0.403,0.015-0.806,0.084-1.21,0.115
	c-0.248,0.017-0.504,0.047-0.746,0.004c-0.257-0.045-0.44-0.211-0.454-0.518c-0.028-0.531-0.082-1.062-0.103-1.595
	c-0.075-1.697-0.119-3.394-0.213-5.089c-0.054-0.973-0.184-1.94-0.278-2.91c-0.027-0.282-0.063-0.564-0.07-0.848
	c-0.019-0.569,0.302-0.931,0.886-1c0.22-0.027,0.439-0.028,0.66-0.034c0.723-0.021,1.445-0.024,2.169-0.062
	c0.47-0.023,0.936-0.089,1.404-0.143c0.813-0.094,1.093,0.119,1.167,0.941c0.025,0.278-0.005,0.564-0.045,0.844
	c-0.075,0.523-0.207,0.66-0.711,0.705c-0.533,0.046-1.068,0.058-1.602,0.089C18.842,104.439,18.625,104.461,18.358,104.482"/>
<path d="M10.341,107.944c0.008,0.021,0.008,0.052,0.021,0.059c0.022,0.014,0.056,0.011,0.082,0.016
	c-0.007-0.036-0.016-0.071-0.024-0.106C10.395,107.925,10.369,107.935,10.341,107.944 M11.429,104.896
	c-0.352,0.326-0.491,0.615-0.488,0.992c0.002,0.478-0.023,0.478-0.332,0.946c0.525,0.207,1.045,0.341,1.613,0.262
	c0.372-0.051,0.751-0.073,1.127-0.088c0.28-0.012,0.548,0.162,0.572,0.389c0.054,0.467,0.097,0.938,0.103,1.407
	c0.003,0.341-0.169,0.504-0.52,0.556c-0.803,0.114-1.605,0.217-2.466,0.331c0.206,0.361,0.399,0.683,0.162,1.052
	c-0.036,0.057,0.132,0.907,0.161,0.943c0.26,0.307,0.58,0.482,0.993,0.426c0.342-0.046,0.683-0.107,1.024-0.15
	s0.687-0.094,1.03-0.109c0.295-0.01,0.499,0.145,0.537,0.423c0.053,0.405,0.112,0.815,0.092,1.218
	c-0.028,0.602-0.327,0.806-0.823,0.813c-1.13,0.015-2.26,0.065-3.39,0.114c-0.281,0.013-0.562,0.076-0.842,0.109
	c-0.213,0.023-0.436,0.067-0.646,0.041c-0.391-0.046-0.54-0.201-0.564-0.613c-0.097-1.568-0.219-3.135-0.253-4.704
	c-0.024-1.169-0.183-2.317-0.284-3.478c-0.063-0.72-0.15-1.437-0.212-2.158c-0.045-0.561,0.294-0.972,0.854-1.012
	c0.878-0.063,1.761-0.087,2.638-0.146c0.595-0.039,1.188-0.11,1.779-0.172c0.554-0.057,0.823,0.123,0.968,0.662
	c0.114,0.437,0.082,0.873-0.015,1.308c-0.08,0.354-0.312,0.534-0.661,0.567c-0.218,0.019-0.439,0.019-0.659,0.025
	C12.426,104.867,11.923,104.881,11.429,104.896"/>
<path d="M126.382,108.877c-0.024-0.007-0.054-0.016-0.081-0.025c-0.003,0.039-0.006,0.08-0.006,0.117
	c0.028-0.011,0.063-0.013,0.085-0.027C126.391,108.934,126.382,108.9,126.382,108.877 M126.643,110.771
	c0.292,0.363,0.209,0.675,0.039,0.996c-0.151,0.279,0.016,0.578-0.012,0.877c-0.016,0.154,0.215,0.396,0.39,0.49
	c0.241,0.129,0.532,0.185,0.808,0.207c0.406,0.033,0.816,0.006,1.224,0.011c0.188,0.005,0.38,0.015,0.566,0.04
	c0.323,0.05,0.509,0.244,0.499,0.58c-0.015,0.404-0.05,0.817-0.132,1.215c-0.107,0.517-0.344,0.667-0.888,0.606
	c-0.748-0.085-1.496-0.198-2.245-0.282c-0.743-0.082-1.478-0.319-2.245-0.199c-0.146,0.022-0.312-0.038-0.458-0.088
	c-0.29-0.099-0.425-0.311-0.4-0.654c0.056-0.752,0.116-1.501,0.193-2.25c0.089-0.876,0.217-1.748,0.294-2.625
	c0.09-1.064,0.15-2.133,0.215-3.2c0.049-0.722,0.072-1.444,0.136-2.165c0.068-0.777,0.391-1.035,1.179-0.961
	c0.655,0.061,1.312,0.159,1.966,0.225c0.688,0.066,1.379,0.112,2.066,0.172c0.155,0.013,0.314,0.02,0.468,0.052
	c0.267,0.056,0.45,0.22,0.523,0.485c0.174,0.612,0.01,1.19-0.248,1.732c-0.139,0.288-0.443,0.327-0.743,0.288
	c-0.624-0.082-1.245-0.167-1.87-0.249c-0.061-0.008-0.122,0-0.183,0c-0.576,0.462-0.576,0.462-0.696,1.33
	c-0.142,0.113-0.285,0.232-0.429,0.347c0.051,0.062,0.08,0.117,0.123,0.146c0.634,0.397,1.36,0.415,2.068,0.505
	c0.221,0.026,0.442,0.036,0.655,0.078c0.207,0.044,0.347,0.212,0.347,0.401c-0.007,0.498-0.04,1-0.1,1.494
	c-0.027,0.256-0.247,0.391-0.563,0.393C128.375,110.776,127.563,110.771,126.643,110.771"/>
<path d="M59.89,127.799c0.214,0.232,0.401,0.439,0.608,0.665c0.341-0.165,0.616-0.3,0.912-0.446c0-0.563,0.003-1.093,0-1.625
	c0-0.372-0.002-0.372,0.263-0.91c0.66-0.14,1.347-0.031,1.968-0.063c0.364,0.247,0.403,0.568,0.404,0.878
	c0.015,0.983-0.142,1.933-0.528,2.85c-0.452,1.067-1.287,1.49-2.373,1.544c-0.314,0.016-0.63-0.039-0.944-0.029
	c-0.741,0.017-1.326-0.329-1.867-0.781c-0.271-0.225-0.479-0.499-0.543-0.858c-0.104-0.586-0.257-1.17-0.299-1.762
	c-0.078-1.19-0.07-2.388-0.15-3.577c-0.021-0.347,0.252-0.62,0.105-0.999c-0.105-0.272-0.035-0.622-0.008-0.933
	c0.027-0.312,0.09-0.621,0.159-0.928c0.135-0.606,0.448-1.104,0.978-1.444c0.467-0.304,0.874-0.668,1.518-0.661
	c0.464,0.005,0.926-0.068,1.398,0.003c0.684,0.103,1.215,0.392,1.636,0.976c0.759,1.056,0.954,2.226,0.869,3.477
	c-0.008,0.089-0.065,0.176-0.118,0.306c-0.426,0.136-0.883,0.214-1.351,0.226c-0.242,0.002-0.494-0.065-0.729-0.142
	c-0.219-0.073-0.341-0.247-0.349-0.505c-0.015-0.561-0.055-1.123-0.087-1.715c-0.292-0.155-0.566-0.3-0.868-0.458
	c-0.41,0.351-0.547,0.792-0.569,1.264c-0.029,0.815-0.029,1.63-0.031,2.446C59.888,125.633,59.89,126.671,59.89,127.799"/>
<path d="M84.086,112.506c0-0.41-0.02-0.851,0.003-1.287c0.089-1.571,0.211-3.14,0.282-4.711c0.039-0.815-0.009-1.637-0.009-2.455
	c-0.002-0.756-0.007-1.51,0.015-2.266c0.015-0.544,0.354-0.878,0.886-0.885c0.409-0.007,0.819,0.036,1.229,0.053
	c1.039,0.043,2.075,0.082,3.112,0.121c0.125,0.005,0.25,0.004,0.375,0.014c0.281,0.018,0.471,0.166,0.565,0.427
	c0.229,0.633,0.097,1.243-0.17,1.825c-0.1,0.219-0.351,0.258-0.576,0.25c-0.565-0.019-1.132-0.058-1.698-0.077
	c-0.729-0.029-0.947,0.157-1.048,0.878c-0.064,0.461-0.064,0.461-0.441,0.874c0.469,0.335,0.996,0.435,1.55,0.45
	c0.381,0.014,0.758,0.03,1.136,0.062c0.412,0.036,0.566,0.202,0.567,0.594c0.004,0.28,0.01,0.562,0.004,0.843
	c-0.005,0.153-0.02,0.314-0.058,0.465c-0.029,0.117-0.104,0.222-0.184,0.38c-0.925,0.049-1.859,0.097-2.844,0.147
	c0.114,0.361,0.222,0.686,0.026,1.058c-0.106,0.204,0.001,0.52,0.017,0.872c0.251,0.51,0.763,0.642,1.374,0.601
	c0.502-0.033,1.007-0.043,1.512-0.033c0.548,0.009,0.723,0.201,0.7,0.755c-0.015,0.344-0.036,0.692-0.089,1.032
	c-0.073,0.461-0.329,0.668-0.783,0.634c-1.098-0.078-2.191-0.183-3.29-0.26c-0.34-0.023-0.687-0.008-1.026,0.031
	C84.791,112.947,84.41,112.887,84.086,112.506"/>
<path d="M110.781,110.517l0.047-0.066l-0.069-0.021L110.781,110.517z M113.532,104.872c-0.302,0.214-0.566,0.429-0.554,0.77
	c0.012,0.444-0.211,0.741-0.541,0.991c0.643,0.41,1.299,0.527,2,0.529c0.312,0,0.627,0.057,0.928,0.139
	c0.122,0.031,0.294,0.207,0.294,0.314c-0.009,0.559-0.059,1.12-0.11,1.674c-0.009,0.077-0.11,0.149-0.197,0.264h-2.705
	c0.058,0.399,0.101,0.729-0.092,1.091c-0.117,0.225-0.087,0.594,0.008,0.849c0.122,0.313,0.374,0.588,0.765,0.624
	c0.28,0.028,0.563,0.041,0.843,0.049c0.44,0.013,0.88,0.027,1.317,0.015c0.353-0.008,0.599,0.22,0.589,0.587
	c-0.01,0.407-0.04,0.817-0.109,1.221c-0.074,0.445-0.356,0.649-0.806,0.599c-1.157-0.127-2.308-0.275-3.464-0.402
	c-0.248-0.029-0.502,0-0.751-0.008c-0.247-0.008-0.502,0.004-0.744-0.049c-0.347-0.074-0.479-0.252-0.469-0.602
	c0.013-0.535,0.025-1.07,0.078-1.6c0.279-2.787,0.522-5.573,0.521-8.377c0-0.127,0.006-0.252,0.013-0.377
	c0.047-0.646,0.385-0.982,1.022-0.946c0.724,0.041,1.442,0.135,2.16,0.192c0.753,0.059,1.504,0.101,2.258,0.148
	c0.581,0.038,0.804,0.222,0.813,0.811c0.009,0.401-0.062,0.812-0.158,1.204c-0.094,0.388-0.281,0.505-0.693,0.493
	c-0.469-0.017-0.939-0.07-1.408-0.113C114.059,104.937,113.782,104.9,113.532,104.872"/>
<path d="M49.497,121.313c-0.515,0.345-0.417,0.88-0.441,1.341c-0.147,0.152-0.274,0.28-0.41,0.42
	c0.64,0.361,1.282,0.383,1.944,0.359c1.277-0.038,1.279-0.023,1.344,1.271c0.005,0.063,0.013,0.128,0.013,0.191
	c0.015,0.725-0.114,0.859-0.856,0.922c-0.685,0.057-1.371,0.125-2.067,0.189c0.115,0.372,0.223,0.688,0.058,1.014
	c-0.155,0.307,0.02,0.614,0.087,0.881c0.078,0.31,0.378,0.582,0.781,0.57c0.344-0.011,0.69-0.039,1.034-0.064
	c0.375-0.025,0.749-0.078,1.127-0.082c0.325-0.004,0.551,0.191,0.565,0.51c0.024,0.439,0.029,0.883-0.018,1.318
	c-0.039,0.402-0.286,0.594-0.711,0.596c-0.849,0.008-1.699,0-2.548-0.012c-0.628-0.011-1.257-0.086-1.885,0.043
	c-0.146,0.03-0.312,0.002-0.466-0.026c-0.329-0.058-0.474-0.226-0.492-0.581c-0.024-0.438-0.035-0.879-0.04-1.317
	c-0.031-2.263,0.078-4.53-0.077-6.792c-0.052-0.754-0.102-1.508-0.125-2.262c-0.017-0.661,0.296-0.971,0.972-0.984
	c0.755-0.015,1.511,0.01,2.266-0.005c0.627-0.01,1.253-0.046,1.881-0.087c0.652-0.043,0.928,0.163,1.025,0.821
	c0.024,0.183,0.036,0.379,0.006,0.563c-0.135,0.89-0.12,1.217-1.288,1.161c-0.503-0.026-1.007-0.013-1.509-0.011
	C49.604,121.262,49.545,121.298,49.497,121.313"/>
<path d="M92.828,127.037c-0.011,0.022-0.029,0.046-0.025,0.066c0.001,0.012,0.048,0.033,0.056,0.027
	c0.018-0.016,0.024-0.042,0.035-0.066C92.871,127.055,92.851,127.048,92.828,127.037 M93.727,121.899
	c-0.024,0.009-0.053,0.013-0.08,0.021c0.01,0.021,0.015,0.056,0.022,0.056c0.027,0.003,0.053-0.01,0.078-0.017
	C93.742,121.94,93.734,121.92,93.727,121.899 M93.253,127.552c0.272,0.026,0.514,0.06,0.761,0.069
	c0.294,0.01,0.449-0.146,0.453-0.459c0-0.657,0.025-1.319-0.037-1.973c-0.045-0.474-0.077-0.971-0.233-1.396
	c-0.264-0.062-0.396,0.033-0.444,0.188c-0.213,0.713-0.41,1.428-0.611,2.145c-0.008,0.025,0.018,0.059,0.021,0.089
	C93.191,126.642,93.22,127.072,93.253,127.552 M94.415,129.762c-0.31-0.036-0.589-0.107-0.861-0.087
	c-0.4,0.024-0.725,0.209-0.817,0.649c-0.01,0.03-0.019,0.062-0.025,0.092c-0.241,0.719-0.284,0.962-1.292,0.875
	c-0.284-0.026-0.571-0.017-0.846-0.063c-0.334-0.053-0.523-0.363-0.444-0.705c0.175-0.765,0.377-1.527,0.545-2.293
	c0.562-2.58,1.109-5.164,1.661-7.746c0.014-0.061,0.024-0.123,0.035-0.186c0.205-0.885,0.342-0.979,1.212-0.928
	c0.469,0.028,0.943,0.009,1.414,0.023c0.497,0.018,0.676,0.163,0.793,0.637c0.03,0.123,0.045,0.248,0.06,0.373
	c0.235,1.9,0.459,3.801,0.701,5.7c0.067,0.527,0.202,1.048,0.279,1.572c0.151,1.058,0.302,2.115,0.42,3.175
	c0.045,0.432-0.178,0.641-0.614,0.65c-0.187,0.005-0.372-0.041-0.561-0.059c-0.183-0.015-0.365-0.046-0.542-0.033
	c-0.528,0.041-0.673-0.039-0.821-0.53c-0.057-0.179-0.072-0.369-0.117-0.552C94.557,130.174,94.502,130.029,94.415,129.762"/>
<path d="M24.436,107.213c-0.016-0.018-0.025-0.047-0.043-0.054c-0.022-0.007-0.054,0.007-0.079,0.009
	c0.019,0.03,0.03,0.061,0.057,0.084C24.375,107.256,24.414,107.227,24.436,107.213 M26.485,103.238l0.06,0.032l0.018-0.041
	L26.485,103.238z M26.301,108.346c-0.043-0.034-0.084-0.088-0.13-0.09c-0.045-0.002-0.093,0.045-0.14,0.074
	c0.043,0.03,0.083,0.084,0.127,0.086C26.205,108.418,26.253,108.37,26.301,108.346 M25.422,103.701
	c-0.165,0.225-0.389,0.387-0.392,0.553c-0.011,0.586,0.046,1.176,0.1,1.762c0.022,0.267,0.198,0.445,0.431,0.584
	c0.204,0.119,0.341,0.017,0.509-0.082c0.111-0.064,0.261-0.057,0.348-0.071c0.056-0.235,0.106-0.414,0.146-0.597
	c0.111-0.535,0.064-1.059-0.105-1.577c-0.074-0.226-0.214-0.39-0.436-0.458C25.847,103.758,25.654,103.744,25.422,103.701
	 M22.762,110.951c-0.025-0.501-0.054-1.004-0.07-1.508c-0.013-0.309-0.082-0.635,0.244-0.857c0.033-0.022,0.003-0.224-0.025-0.229
	c-0.301-0.072-0.271-0.314-0.284-0.527c-0.024-0.503-0.024-1.004-0.06-1.507c-0.085-1.161-0.189-2.317-0.271-3.479
	c-0.067-0.954,0.082-1.139,1.004-1.164c1.132-0.032,2.264-0.055,3.396-0.025c1.078,0.024,1.911,0.713,2.183,1.741
	c0.27,1.014,0.353,2.04,0.205,3.084c-0.158,1.095-1.033,2.022-2.141,2.224c-0.281,0.051-0.566,0.062-0.843,0.11
	c-0.55,0.103-0.841,0.43-0.798,0.985c0.063,0.848,0.175,1.69,0.27,2.533c0.02,0.189,0.066,0.375,0.069,0.564
	c0.005,0.393-0.232,0.632-0.636,0.667c-0.438,0.039-0.876,0.082-1.312,0.121c-0.53,0.048-0.854-0.226-0.846-0.75
	c0.007-0.663-0.042-1.323-0.065-1.983H22.762z"/>
<path d="M75.6,125.475c-0.038,0.028-0.078,0.057-0.117,0.084c0.024,0.019,0.046,0.055,0.064,0.052
	c0.052-0.009,0.097-0.031,0.145-0.048C75.661,125.534,75.632,125.505,75.6,125.475 M75.821,123.877
	c0.058-0.005,0.112-0.003,0.164-0.018c0.03-0.01,0.048-0.051,0.073-0.077c-0.03,0.003-0.063-0.004-0.086,0.008
	c-0.055,0.022-0.103,0.058-0.154,0.084c0.396-0.68,0.492-1.401,0.357-2.176c-0.068-0.39-0.263-0.625-0.637-0.716
	c-0.119-0.028-0.244-0.043-0.395-0.069c-0.136,0.187-0.373,0.365-0.391,0.562c-0.049,0.582-0.035,1.174,0.01,1.759
	c0.017,0.188,0.193,0.377,0.332,0.536c0.151,0.177,0.334,0.09,0.513,0.006C75.653,123.752,75.75,123.839,75.821,123.877
	 M72.504,125.512c-0.223-0.205-0.369-0.406-0.342-0.725c0.044-0.469,0.055-0.939,0.052-1.412c-0.002-1.1-0.021-2.199-0.034-3.3
	c-0.002-0.188-0.012-0.377-0.005-0.565c0.018-0.527,0.231-0.798,0.734-0.765c1.221,0.076,2.448-0.026,3.663,0.204
	c1.055,0.201,1.775,0.836,1.982,1.861c0.208,1.056,0.222,2.113,0,3.177c-0.194,0.935-1.312,2.122-2.417,2.032
	c-0.215-0.015-0.441-0.006-0.658,0.023c-0.519,0.076-0.843,0.436-0.833,0.969c0.014,0.66,0.077,1.32,0.11,1.98
	c0.019,0.374,0.044,0.754,0.028,1.131c-0.015,0.355-0.259,0.589-0.603,0.598c-0.501,0.015-1.006,0.02-1.507-0.006
	c-0.381-0.021-0.576-0.225-0.579-0.609c-0.009-0.629,0.02-1.258,0.03-1.887c0.013-0.629,0.035-1.258,0.025-1.888
	C72.145,125.998,72.243,125.727,72.504,125.512"/>
<path d="M81.622,121.275c-0.013,0.635,0.252,1.143,0.703,1.577c0.329,0.319,0.581,0.681,0.996,0.946
	c0.576,0.361,1.099,0.863,1.519,1.4c0.913,1.159,1.178,2.485,0.66,3.897c-0.206,0.567-0.603,0.991-1.134,1.338
	c-1.402,0.917-2.769,0.586-4.113-0.06c-0.651-0.313-0.938-0.988-1.185-1.646c-0.203-0.543-0.305-1.089,0.005-1.653
	c0.411-0.207,0.856-0.107,1.287-0.113c0.484-0.004,0.838,0.162,0.93,0.724c0.07,0.416,0.345,0.737,0.694,0.979
	c0.324,0.224,1.008,0.1,1.142-0.261c0.16-0.431,0.287-0.917-0.057-1.327c-0.26-0.311-0.576-0.578-0.869-0.861
	c-0.224-0.215-0.505-0.366-0.596-0.705c-0.03-0.126-0.199-0.227-0.324-0.307c-0.596-0.375-1.065-0.885-1.467-1.449
	c-0.711-1.01-0.765-2.121-0.358-3.242c0.316-0.866,1.021-1.371,1.922-1.473c0.682-0.078,1.389-0.08,2.066,0.017
	c1.115,0.161,1.923,0.75,2.148,1.94c0.041,0.213,0.134,0.42,0.163,0.637c0.078,0.535-0.165,0.854-0.711,0.887
	c-0.508,0.033-0.998-0.077-1.501-0.329c-0.035-0.222-0.072-0.464-0.119-0.737c-0.234-0.281-0.611-0.36-0.94-0.49
	c-0.305,0.115-0.591,0.222-0.879,0.33c-0.089-0.108-0.175-0.224-0.276-0.323c-0.016-0.017-0.117,0.014-0.145,0.051
	c-0.018,0.024,0.01,0.128,0.038,0.138C81.353,121.209,81.487,121.239,81.622,121.275"/>
<path d="M120.456,109.578c0.052-0.02,0.104-0.04,0.153-0.061c-0.028-0.037-0.05-0.098-0.081-0.103
	c-0.046-0.005-0.094,0.031-0.142,0.048C120.411,109.502,120.435,109.54,120.456,109.578 M119.298,109.902
	c-0.043-0.033-0.086-0.092-0.136-0.096c-0.048-0.005-0.1,0.047-0.147,0.075c0.046,0.033,0.09,0.095,0.135,0.099
	C119.197,109.982,119.25,109.93,119.298,109.902 M118.356,114.583c-0.089-0.7-0.19-1.414-0.274-2.128
	c-0.135-1.188-0.212-2.382-0.396-3.563c-0.252-1.61-0.479-3.226-0.672-4.844c-0.149-1.258-0.054-1.373,1.213-1.281
	c0.124,0.01,0.252,0.016,0.378,0.035c0.412,0.066,0.689,0.293,0.776,0.713c0.058,0.277,0.12,0.558,0.14,0.836
	c0.077,1.099,0.145,2.196,0.202,3.293c0.01,0.184-0.033,0.371-0.053,0.563c0.574,0.749,0.574,0.749,1.18,0.316
	c-0.08-0.092-0.159-0.185-0.237-0.272c0.273-1.29,0.547-2.581,0.827-3.869c0.054-0.245,0.114-0.489,0.201-0.725
	c0.13-0.365,0.382-0.554,0.793-0.517c0.313,0.025,0.629,0.006,0.946,0.023c0.296,0.015,0.544,0.128,0.737,0.465
	c-0.029,0.128-0.063,0.309-0.111,0.484c-0.395,1.458-0.789,2.914-1.188,4.371c-0.065,0.242-0.123,0.494-0.237,0.715
	c-0.222,0.425-0.369,0.861-0.419,1.34c-0.025,0.271-0.088,0.545-0.297,0.777c-0.102,0.111-0.048,0.352-0.114,0.513
	c-0.089,0.223-0.32,0.428-0.319,0.639c0.004,0.247,0.034,0.489-0.033,0.734c-0.097,0.364-0.18,0.733-0.287,1.095
	c-0.141,0.48-0.388,0.709-0.876,0.692C119.613,114.965,118.983,114.902,118.356,114.583"/>
<path d="M121.201,123.436c-0.021,0.18-0.023,0.334-0.06,0.484c-0.126,0.566-0.32,0.732-0.909,0.76
	c-0.219,0.011-0.443,0.002-0.658-0.039c-0.667-0.127-0.817-0.387-0.639-1.062c0.067-0.245,0.107-0.494,0.197-0.729
	c0.345-0.922,0.935-1.539,1.99-1.605c0.862-0.055,1.687-0.002,2.473,0.414c0.636,0.333,1.015,0.813,1.132,1.521
	c0.202,1.188,0.053,2.306-0.608,3.336c-0.103,0.158-0.173,0.33-0.247,0.479c0.667,1.477,0.667,1.477,0.457,3.201
	c-0.028,0.218-0.054,0.435-0.075,0.654c-0.084,1.012-0.696,1.651-1.497,2.162c-0.029,0.015-0.061,0.026-0.085,0.043
	c-0.708,0.354-2.426,0.174-3.078-0.291c-1.257-0.899-1.504-2.164-1.316-3.582c0.049-0.363,0.307-0.541,0.671-0.521
	c0.313,0.017,0.626,0.046,0.938,0.086c0.495,0.063,0.631,0.222,0.642,0.752c0.011,0.372,0.004,0.744,0.004,1.167
	c0.195,0.069,0.452,0.173,0.717,0.247c0.194,0.056,0.372-0.005,0.499-0.176c0.469-0.617,0.526-1.34,0.461-2.066
	c-0.022-0.261-0.201-0.522-0.477-0.668c-0.222-0.118-0.445-0.233-0.655-0.372c-0.621-0.41-0.642-1.129-0.032-1.555
	c0.257-0.178,0.565-0.277,0.84-0.428c0.724-0.391,0.849-1.426,0.227-1.99c-0.125-0.115-0.336-0.139-0.514-0.184
	C121.479,123.444,121.351,123.449,121.201,123.436"/>
<path d="M38.368,112.927c-1.537,0.196-1.537,0.196-2.284-0.092c-0.032-0.187-0.093-0.397-0.104-0.608
	c-0.053-0.972-0.104-1.942,0.004-2.918c0.055-0.522-0.047-1.063-0.074-1.599c-0.064-1.126-0.123-2.255-0.188-3.384
	c-0.034-0.549-0.197-0.727-0.721-0.78c-0.249-0.024-0.504-0.005-0.754-0.021c-0.565-0.034-0.79-0.248-0.8-0.823
	c-0.008-0.431,0.044-0.867,0.064-1.232c0.372-0.348,0.751-0.35,1.128-0.354c1.038-0.016,2.078-0.016,3.11-0.047
	c0.596-0.019,1.189-0.088,1.783-0.129c0.124-0.008,0.252-0.014,0.374-0.002c0.29,0.03,0.456,0.176,0.526,0.457
	c0.128,0.529,0.07,1.063-0.004,1.59c-0.028,0.203-0.192,0.334-0.396,0.349c-0.249,0.021-0.501-0.004-0.751,0.005
	c-0.482,0.02-0.77,0.24-0.877,0.699c-0.048,0.21-0.063,0.436-0.053,0.652c0.088,1.94,0.184,3.879,0.28,5.821
	c0.02,0.438,0.045,0.88,0.079,1.318C38.742,112.221,38.662,112.575,38.368,112.927"/>
<path d="M79.339,103.22l-0.068,0.028l0.07,0.025L79.339,103.22z M81.092,112.758c-0.746,0.006-1.504,0.207-2.252-0.205
	c-0.026-0.207-0.076-0.422-0.072-0.633c0.019-0.971-0.046-1.949,0.171-2.91c0.015-0.062,0.021-0.125,0.021-0.186v-5.223
	c-0.209-0.301-0.453-0.42-0.752-0.442c-0.219-0.016-0.44-0.015-0.657-0.042c-0.586-0.068-0.811-0.34-0.794-0.945
	c0.001-0.095,0.011-0.189,0.027-0.282c0.048-0.308,0.099-0.615,0.146-0.882c0.244-0.266,0.521-0.299,0.81-0.291
	c0.535,0.019,1.068,0.048,1.601,0.063c1.194,0.033,2.387,0.061,3.581,0.089c0.125,0.003,0.252-0.002,0.374,0.013
	c0.299,0.033,0.467,0.174,0.521,0.455c0.107,0.535,0.052,1.064-0.082,1.586c-0.06,0.24-0.253,0.367-0.489,0.371
	c-0.218,0.002-0.435-0.065-0.651-0.08c-0.489-0.037-0.855,0.227-0.964,0.709c-0.054,0.242-0.075,0.498-0.078,0.746
	c-0.025,2.32-0.043,4.641-0.058,6.961C81.492,112.02,81.431,112.379,81.092,112.758"/>
<path d="M99.399,122.113l-0.059,0.025l0.059,0.023V122.113z M100.863,131.678c-0.763-0.033-1.494,0.17-2.208-0.265
	c-0.022-0.197-0.079-0.41-0.065-0.62c0.061-0.939,0.15-1.878,0.208-2.818c0.045-0.752,0.067-1.506,0.095-2.26
	c0.035-0.974,0.075-1.947,0.101-2.92c0.012-0.498-0.133-0.666-0.629-0.768c-0.243-0.051-0.496-0.069-0.743-0.115
	c-0.589-0.109-0.729-0.283-0.719-0.895c0.005-0.188,0.018-0.38,0.052-0.563c0.045-0.244,0.113-0.486,0.17-0.703
	c0.336-0.249,0.688-0.196,1.027-0.175c1.034,0.063,2.069,0.15,3.105,0.209c0.564,0.029,1.128,0.027,1.692,0.033
	c0.66,0.007,0.9,0.244,0.905,0.912c0.002,0.094,0,0.19-0.021,0.282c-0.08,0.362-0.08,0.785-0.274,1.07
	c-0.245,0.356-0.7,0.112-1.063,0.11c-0.491-0.004-0.767,0.188-0.887,0.67c-0.068,0.27-0.107,0.553-0.117,0.83
	c-0.085,2.324-0.163,4.646-0.23,6.971C101.252,131.033,101.11,131.326,100.863,131.678"/>
<path d="M33.682,122.058c-0.357-0.38-0.771-0.38-1.181-0.354c-0.795,0.047-1.027-0.248-1.002-0.996
	c0.015-0.373,0.039-0.746,0.058-1.05c0.301-0.327,0.624-0.321,0.938-0.334c0.91-0.032,1.825-0.051,2.736-0.087
	c0.753-0.031,1.507,0.028,2.258-0.125c0.556-0.111,0.822,0.141,0.865,0.717c0.027,0.377,0.017,0.756-0.008,1.131
	c-0.025,0.396-0.199,0.537-0.611,0.557c-0.159,0.005-0.317-0.021-0.473-0.02c-0.558,0.02-0.871,0.289-0.953,0.842
	c-0.03,0.217-0.043,0.44-0.025,0.658c0.18,2.285,0.184,4.582,0.369,6.865c0.034,0.414,0.029,0.82-0.315,1.227
	c-0.7,0.06-1.456,0.412-2.255-0.08c-0.233-1.483-0.028-2.994-0.11-4.496C33.894,125.039,33.781,123.568,33.682,122.058"/>
<path d="M106.347,102.018c0.008,0.565,0.077,1.012,0.008,1.433c-0.317,1.899-0.342,3.812-0.385,5.728
	c-0.016,0.655-0.067,1.311-0.103,1.947c0.242,0.431,0.597,0.543,1.045,0.52c0.502-0.025,1.006-0.021,1.506-0.002
	c0.214,0.006,0.436,0.051,0.635,0.131c0.212,0.08,0.35,0.254,0.338,0.511c-0.011,0.375-0.006,0.752-0.024,1.13
	c-0.02,0.453-0.261,0.672-0.727,0.68c-0.125,0-0.257,0.006-0.372-0.033c-0.609-0.209-1.24-0.162-1.868-0.188
	c-0.813-0.031-1.634-0.053-2.448-0.105c-0.793-0.054-1.017-0.32-0.935-1.064c0.354-3.189,0.548-6.385,0.537-9.596
	c0-0.22,0.002-0.441,0.039-0.657c0.072-0.445,0.318-0.669,0.778-0.642C104.996,101.845,105.615,101.938,106.347,102.018"/>
<path d="M95.029,49.312c0.189,0.16,0.304,0.225,0.372,0.324c0.196,0.276,0.176,0.474-0.085,0.639
	c-0.451,0.287-0.916,0.543-1.367,0.828c-0.247,0.157-0.569,0.225-0.788,0.575c0.384,0.145,0.729,0.124,1.058,0.155
	c0.688,0.063,1.379,0.085,2.064,0.159c1.278,0.141,2.553,0.334,3.835,0.462c1.687,0.17,3.379,0.297,5.066,0.45
	c1.284,0.117,2.565,0.243,3.846,0.373c0.147,0.015,0.287,0.083,0.479,0.14c-0.071,0.449-0.275,0.789-0.475,1.179
	c-0.255,0.012-0.502,0.048-0.744,0.026c-1.123-0.1-2.249-0.218-3.372-0.324c-0.405-0.038-0.813-0.058-1.22-0.09
	c-1.754-0.135-3.507-0.241-5.255-0.411c-1.566-0.152-3.12-0.37-4.679-0.558c-0.123-0.014-0.245-0.014-0.383-0.022
	c0.302,0.716,0.56,1.023,1.104,1.447c0.437,0.343,0.604,0.834,0.697,1.332c-0.193,0.191-0.338,0.112-0.46,0.022
	c-0.851-0.636-1.711-1.253-2.458-2.022c-0.61-0.627-1.328-1.151-1.992-1.725c-0.112-0.096-0.207-0.211-0.331-0.341
	c0.886-0.46,1.714-0.889,2.542-1.316C93.316,50.188,94.149,49.761,95.029,49.312"/>
<path d="M112.386,121.407c-0.082,0.816-0.15,1.441-0.2,2.067c-0.146,1.751-0.286,3.501-0.397,5.257
	c-0.061,0.938-0.091,1.876-0.134,2.813c-0.027,0.603-0.284,0.869-0.881,0.847c-0.434-0.019-0.867-0.123-1.292-0.228
	c-0.241-0.056-0.339-0.279-0.339-0.512c0-0.283,0.033-0.564,0.061-0.843c0.103-1.063,0.227-2.123,0.312-3.188
	c0.053-0.688,0.048-1.379,0.06-2.07c0.013-0.438-0.002-0.879,0.013-1.319c0.011-0.359-0.129-0.599-0.475-0.716
	c-0.269-0.092-0.536-0.184-0.793-0.293c-0.327-0.135-0.469-0.319-0.416-0.549c0.069-0.308,0.146-0.654,0.515-0.711
	c0.381-0.061,0.74-0.117,1.043-0.377c0.186-0.166,0.385-0.315,0.572-0.479c0.192-0.161,0.364-0.348,0.566-0.497
	c0.562-0.418,1.006-0.255,1.554,0.108C112.346,120.848,112.394,121.127,112.386,121.407"/>
<path d="M17.187,131.969c0-1.078,0-2.049-0.005-3.022c0-0.313,0-0.628-0.028-0.94c-0.189-2.226-0.383-4.449-0.576-6.675
	c-0.015-0.188-0.034-0.377-0.019-0.565c0.026-0.309,0.222-0.563,0.521-0.586c0.562-0.041,1.129-0.051,1.691-0.033
	c0.313,0.01,0.457,0.169,0.491,0.472c0.026,0.247,0.007,0.502,0.012,0.752c0.01,0.532,0.015,1.067,0.038,1.599
	c0.032,0.787,0.09,1.568,0.12,2.354c0.027,0.66,0.005,1.32,0.059,1.977c0.093,1.193,0.227,2.381,0.343,3.571
	c0.009,0.062,0.021,0.125,0.025,0.187c0.054,0.748-0.146,1-0.866,1.025C18.432,132.102,17.87,132.077,17.187,131.969"/>
<path d="M111.838,133.248c0.164-0.457,0.334-0.854,0.444-1.268c0.073-0.283,0.591-0.328,0.377-0.742
	c0.112-0.254,0.216-0.514,0.341-0.761c0.183-0.362,0.385-0.714,0.579-1.071c0.045-0.08,0.097-0.157,0.135-0.241
	c0.229-0.548,0.437-1.104,0.686-1.642c0.888-1.906,1.787-3.805,2.679-5.705c0.053-0.114,0.09-0.234,0.145-0.35
	c0.25-0.495,0.773-0.657,1.264-0.359c0.101,0.062,0.184,0.278,0.153,0.396c-0.066,0.271-0.198,0.524-0.319,0.78
	c-1.247,2.606-2.501,5.211-3.743,7.822c-0.43,0.907-0.835,1.827-1.243,2.748c-0.146,0.336-0.349,0.596-0.732,0.659
	C112.332,133.559,112.11,133.462,111.838,133.248"/>
<path d="M121.915,89.449c0.146-0.017,0.292-0.032,0.441-0.049v0.068c-0.141-0.009-0.281-0.018-0.425-0.023
	C121.927,89.447,121.915,89.449,121.915,89.449"/>
</svg>
