<?xml version="1.0" encoding="utf-8"?>
<!-- Generator: Adobe Illustrator 12.0.0, SVG Export Plug-In . SVG Version: 6.00 Build 51448)  -->
<!DOCTYPE svg PUBLIC "-//W3C//DTD SVG 1.1//EN" "http://www.w3.org/Graphics/SVG/1.1/DTD/svg11.dtd" [
	<!ENTITY ns_svg "http://www.w3.org/2000/svg">
	<!ENTITY ns_xlink "http://www.w3.org/1999/xlink">
]>
<svg  version="1.1" id="Layer_1" xmlns="&ns_svg;" xmlns:xlink="&ns_xlink;" width="99.303" height="122.737"
	 viewBox="0 0 99.303 122.737" overflow="visible" enable-background="new 0 0 99.303 122.737" xml:space="preserve">
<path d="M61.332,33.897c0.006,0.019,0.008,0.045,0.018,0.052c0.021,0.011,0.047,0.01,0.072,0.014
	c-0.01-0.029-0.016-0.058-0.021-0.089C61.378,33.883,61.355,33.89,61.332,33.897 M54.422,34.167
	c-0.022-0.05-0.045-0.098-0.067-0.146c-0.034,0.028-0.095,0.052-0.099,0.084c-0.006,0.043,0.032,0.09,0.052,0.137
	C54.345,34.217,54.386,34.193,54.422,34.167 M59.403,32.481c-0.019-0.024-0.043-0.071-0.057-0.068
	c-0.056,0.013-0.108,0.039-0.16,0.062c0.021,0.022,0.046,0.064,0.063,0.063C59.303,32.528,59.353,32.501,59.403,32.481
	 M46.304,36.457c0.048-0.02,0.098-0.04,0.147-0.059c-0.013-0.021-0.024-0.054-0.04-0.057c-0.049-0.006-0.097-0.001-0.146,0
	C46.277,36.378,46.288,36.417,46.304,36.457 M41.795,35.901c-0.019-0.021-0.034-0.043-0.051-0.066
	c-0.023,0.047-0.053,0.092-0.065,0.141c-0.002,0.014,0.034,0.039,0.056,0.06C41.756,35.991,41.773,35.947,41.795,35.901
	 M64.414,34.872c-0.016-0.024-0.029-0.046-0.043-0.069c-0.022,0.018-0.04,0.037-0.059,0.057c0.025,0.026,0.052,0.052,0.079,0.08
	C64.398,34.917,64.405,34.894,64.414,34.872 M61.945,19.71c0.02,0.021,0.045,0.063,0.05,0.059c0.043-0.015,0.08-0.043,0.115-0.072
	c0.005-0.004-0.025-0.045-0.036-0.07C62.032,19.655,61.989,19.684,61.945,19.71 M46.859,27.786l0.062,0.005l-0.025-0.082
	L46.859,27.786z M35.932,27.253c-0.021,0.009-0.054,0.012-0.061,0.028c-0.015,0.026-0.011,0.059-0.012,0.089
	c0.035-0.014,0.076-0.025,0.116-0.038C35.958,27.306,35.947,27.28,35.932,27.253 M58.62,27.203l0.054,0.029l0.01-0.044L58.62,27.203
	z M46.859,28.211c-0.009,0.024-0.02,0.047-0.029,0.071c0.042,0.006,0.08,0.011,0.119,0.017c-0.006-0.027-0.003-0.059-0.018-0.075
	C46.917,28.211,46.885,28.216,46.859,28.211 M56.207,29.002c-0.004,0.039-0.01,0.081-0.016,0.122
	c0.017-0.018,0.042-0.035,0.044-0.055C56.239,29.048,56.219,29.025,56.207,29.002 M50.667,34.817
	c-0.053,0.021-0.146,0.036-0.15,0.063c-0.007,0.08,0.02,0.164,0.03,0.246c0.063-0.053,0.139-0.1,0.185-0.165
	C50.745,34.939,50.689,34.866,50.667,34.817 M58.76,18.05c-0.025-0.041-0.05-0.083-0.073-0.126c-0.042,0.027-0.125,0.064-0.12,0.076
	c0.018,0.06,0.058,0.113,0.091,0.169C58.691,18.129,58.726,18.092,58.76,18.05 M46.428,22.033c0.047-0.03,0.117-0.051,0.137-0.092
	c0.016-0.039-0.027-0.104-0.042-0.155c-0.053,0.026-0.134,0.041-0.146,0.079C46.361,21.91,46.407,21.974,46.428,22.033
	 M43.998,30.861c0.079,0.051,0.149,0.098,0.22,0.142c0.018-0.026,0.055-0.063,0.049-0.077c-0.036-0.066-0.082-0.127-0.125-0.188
	C44.102,30.771,44.063,30.805,43.998,30.861 M41.668,31.452c0.049,0.027,0.091,0.06,0.137,0.08c0.013,0.004,0.062-0.05,0.059-0.058
	c-0.025-0.05-0.062-0.092-0.095-0.137C41.737,31.373,41.702,31.412,41.668,31.452 M61.093,32.34
	c-0.026-0.045-0.049-0.118-0.084-0.129c-0.041-0.011-0.099,0.036-0.146,0.056c0.04,0.059,0.081,0.117,0.122,0.177
	C61.022,32.41,61.056,32.375,61.093,32.34 M68.949,13.19c0.372,0.016,0.718,0.028,1.061,0.047c3.553,0.198,6.681,1.429,9.272,3.896
	c1.608,1.531,2.747,3.362,3.243,5.541c0.925,4.073-0.165,7.523-3.282,10.31c-0.49,0.439-1.095,0.759-1.553,1.223
	c-0.439,0.44-0.962,0.695-1.483,0.978c-0.135,0.075-0.283,0.137-0.435,0.177c-0.58,0.151-1.134,0.341-1.667,0.634
	c-0.34,0.19-0.733,0.316-1.172,0.228c-0.606-0.122-1.183,0.137-1.752,0.291c-0.435,0.118-0.858,0.171-1.298,0.179
	c-1.635,0.033-3.267-0.121-4.897,0.03c-1.379,0.127-2.759,0.237-4.139,0.347c-1.064,0.083-2.125,0.098-3.199-0.002
	c-0.836-0.081-1.695,0.068-2.542,0.108c-0.407,0.018-0.813,0.023-1.22,0.037c-0.911,0.033-1.82,0.062-2.731,0.105
	c-0.151,0.007-0.306,0.065-0.449,0.122c-0.604,0.238-1.23,0.265-1.858,0.179c-0.462-0.064-0.917-0.118-1.383-0.043
	c-0.257,0.042-0.5,0.006-0.728-0.205c-0.655,0.385-1.385,0.484-2.145,0.487c-1.354,0.005-2.706,0.041-4.056,0.08
	c-0.313,0.008-0.642,0.023-0.934,0.119c-0.639,0.214-1.296,0.215-1.953,0.257c-0.376,0.022-0.755,0.052-1.128,0.094
	c-0.558,0.066-1.085,0.165-1.671,0.041c-0.565-0.12-1.183,0.015-1.777,0.039c-0.405,0.018-0.807,0.109-1.207-0.077
	c-0.132-0.061-0.31-0.033-0.465-0.03c-1.164,0.022-2.327,0.057-3.489,0.068c-0.561,0.007-1.114,0.094-1.682-0.024
	c-0.323-0.067-0.689,0.024-1.028,0.087c-1.562,0.29-3.129,0.274-4.676-0.021c-0.856-0.163-1.735-0.388-2.499-0.787
	c-1.038-0.541-1.876-1.366-2.361-2.48c-0.05-0.116-0.069-0.249-0.137-0.35c-0.583-0.861-0.583-1.85-0.558-2.816
	c0.031-1.217,0.46-2.339,1.095-3.371c0.624-1.007,1.445-1.819,2.508-2.368c0.251-0.129,0.505-0.256,0.747-0.4
	c0.52-0.309,1.049-0.571,1.668-0.594c0.086-0.003,0.169-0.073,0.297-0.133c-0.019-0.206-0.036-0.416-0.061-0.627
	c-0.36-2.963,0.514-5.534,2.513-7.722c0.396-0.434,0.924-0.754,1.395-1.119c0.173-0.134,0.362-0.252,0.547-0.373
	c0.178-0.121,0.362-0.225,0.224-0.507c-0.028-0.057,0.104-0.219,0.192-0.298c0.338-0.293,0.72-0.493,1.171-0.555
	c0.342-0.048,0.682-0.113,1.015-0.196c0.548-0.137,1.087-0.298,1.666-0.291c0.308,0.005,0.608-0.043,0.868-0.289
	c0.249-0.236,0.598-0.161,0.903-0.104c0.465,0.085,0.928,0.12,1.367,0.1c0.251-0.759,0.471-1.472,0.719-2.174
	c0.284-0.796,0.59-1.587,0.899-2.374c0.269-0.678,0.625-1.316,1.106-1.856c0.479-0.536,1.025-1.005,1.547-1.498
	c0.068-0.066,0.137-0.146,0.223-0.175c1.046-0.351,1.732-1.194,2.545-1.864c0.359-0.298,0.732-0.612,1.15-0.805
	c1.483-0.686,2.988-1.294,4.575-1.722c1.072-0.289,2.142-0.442,3.234-0.519c0.91-0.064,1.816-0.156,2.727-0.223
	c0.183-0.012,0.369,0.046,0.556,0.063c0.217,0.02,0.455,0.095,0.651,0.035c0.542-0.165,1.054-0.045,1.568,0.08
	c0.966,0.235,1.938,0.453,2.887,0.739c0.443,0.133,0.842,0.41,1.261,0.623c0.252,0.127,0.491,0.301,0.76,0.372
	c0.929,0.249,1.717,0.758,2.478,1.313c0.41,0.296,0.809,0.589,1.3,0.748c0.361,0.117,0.636,0.369,0.878,0.682
	c0.497,0.641,1.038,1.249,1.572,1.862c0.229,0.262,0.438,0.515,0.508,0.878c0.042,0.205,0.18,0.402,0.306,0.578
	c1.063,1.474,1.732,3.127,2.267,4.848C68.828,12.911,68.87,12.994,68.949,13.19"/>
<path d="M0.436,80.691c0.078-0.082,0.146-0.219,0.236-0.238c1.938-0.411,3.872-0.828,5.817-1.204
	c2.035-0.394,4.077-0.767,6.122-1.112c1.891-0.318,3.791-0.594,5.688-0.869c1.682-0.242,3.365-0.465,5.049-0.687
	c0.966-0.126,1.934-0.251,2.904-0.347c2.722-0.266,5.447-0.526,8.173-0.768c4.356-0.39,8.723-0.687,13.091-0.812
	c4.026-0.112,8.053-0.158,12.079-0.177c2.8-0.014,5.6,0.035,8.397,0.121c2.547,0.077,5.089,0.229,7.634,0.373
	c2.009,0.115,4.017,0.236,6.022,0.413c2.503,0.22,5.004,0.466,7.504,0.765c3.022,0.363,6.042,0.793,9.063,1.199
	c0.366,0.049,0.728,0.133,1.088,0.243c-0.422,0.132-0.848,0.084-1.269,0.073c-1.575-0.045-3.146-0.09-4.718-0.141
	c-2.23-0.071-4.46-0.148-6.694-0.225c-1.1-0.035-2.2-0.076-3.3-0.104c-3.301-0.087-6.602-0.179-9.904-0.243
	c-4.151-0.079-8.302-0.167-12.456-0.186c-6.261-0.023-12.521,0.146-18.772,0.502c-4.177,0.239-8.352,0.532-12.524,0.84
	c-3.452,0.254-6.899,0.551-10.345,0.855c-2.852,0.251-5.699,0.545-8.549,0.813c-1.63,0.153-3.259,0.294-4.889,0.438
	c-1.817,0.16-3.635,0.319-5.453,0.48L0.436,80.691z"/>
<path d="M48.203,113.426c0.049,0.018,0.096,0.041,0.145,0.052c0.016,0.002,0.053-0.037,0.052-0.057
	c0.002-0.021-0.037-0.062-0.054-0.055C48.298,113.376,48.251,113.403,48.203,113.426 M49.977,113.147
	c-0.025-0.007-0.05-0.019-0.071-0.019c-0.008,0.002-0.014,0.037-0.021,0.056c0.023,0.006,0.05,0.015,0.072,0.014
	C49.963,113.196,49.969,113.164,49.977,113.147 M49.094,113.737c-0.026-0.006-0.056-0.018-0.081-0.015
	c-0.01,0-0.016,0.037-0.025,0.058c0.028,0.007,0.054,0.021,0.082,0.017C49.079,113.794,49.085,113.758,49.094,113.737
	 M47.465,115.137c0.29,0.045,0.369,0.054,0.451,0.067c0.001-0.041,0.005-0.082,0.006-0.127
	C47.84,115.089,47.759,115.099,47.465,115.137 M51.686,114.914c-0.187-0.072-0.288-0.127-0.393-0.139
	c-0.029-0.004-0.072,0.125-0.111,0.192c0.074,0.039,0.146,0.104,0.22,0.106C51.467,115.074,51.534,115.001,51.686,114.914
	 M49.137,114.946c-0.139-0.055-0.275-0.157-0.414-0.153c-0.089,0-0.199,0.14-0.258,0.238c-0.239,0.43-0.309,1.01-0.37,1.752
	c-0.079,1-0.231,1.993-0.349,2.978c-0.7,0.55-1.442,0.475-2.189,0.313c-0.278-0.06-0.404-0.284-0.463-0.542
	c-0.142-0.613-0.28-1.226-0.419-1.84c-0.121-0.52-0.185-1.06-0.38-1.553c-0.136-0.342,0.092-0.701-0.207-1.053
	c-0.217-0.254-0.195-0.713-0.278-1.079c-0.087-0.367-0.174-0.735-0.259-1.102c-0.083-0.366-0.172-0.735-0.255-1.101
	c-0.086-0.367-0.161-0.736-0.258-1.102c-0.084-0.336-0.188-0.664-0.278-1c-0.099-0.36-0.201-0.721-0.08-1.117
	c0.625-0.326,1.277-0.332,1.931-0.203c0.358,0.07,0.598,0.326,0.657,0.71c0.188,1.209,0.357,2.418,0.563,3.624
	c0.047,0.268,0.209,0.517,0.338,0.814c-0.082,0.17-0.175,0.361-0.277,0.574c0.092,0.018,0.222,0.071,0.256,0.036
	c0.21-0.226,0.421-0.455,0.597-0.71c0.104-0.148,0.113-0.363,0.219-0.51c0.11-0.146,0.295-0.221,0.07-0.43
	c-0.066-0.06-0.039-0.238-0.032-0.36c0.057-0.974,0.117-1.944,0.182-2.919c0.021-0.315,0.079-0.621,0.323-0.901
	c0.518-0.155,1.063-0.254,1.641-0.183c0.358,0.046,0.589,0.205,0.658,0.562c0.121,0.615,0.24,1.231,0.346,1.851
	c0.053,0.301,0.078,0.608,0.116,0.918c-0.166,0.064-0.303,0.119-0.463,0.184c0.206,0.114,0.394,0.219,0.62,0.345
	c-0.089,0.539,0.087,1.029,0.333,1.572c0.173,0.004,0.371,0.007,0.551,0.009c0.049-0.107,0.091-0.163,0.096-0.22
	c0.164-1.53,0.32-3.062,0.486-4.592c0.058-0.5,0.215-0.671,0.713-0.714c0.527-0.045,1.061-0.031,1.527-0.039
	c0.298,0.263,0.362,0.513,0.305,0.82c-0.139,0.74-0.249,1.483-0.379,2.229c-0.205,1.204-0.423,2.408-0.617,3.615
	c-0.205,1.268-0.39,2.541-0.576,3.813c-0.035,0.216-0.026,0.437-0.049,0.657c-0.049,0.443-0.246,0.693-0.684,0.783
	c-0.274,0.06-0.563,0.074-0.844,0.064c-0.931-0.029-1.145-0.088-1.309-1.076c-0.222-1.328-0.548-2.642-0.831-3.964
	c0.065-0.147,0.134-0.293,0.202-0.44c-0.182-0.049-0.197,0.048-0.185,0.189C49.169,114.777,49.147,114.861,49.137,114.946"/>
<path d="M52.817,41.595c0.274,0.052,0.431,0.072,0.581,0.112c0.182,0.049,0.229,0.195,0.226,0.362
	c-0.004,0.063-0.008,0.132-0.036,0.185c-0.461,0.82-0.116,1.58,0.213,2.32c0.165,0.373,0.338,0.732,0.389,1.141
	c0.115,0.884,0.412,1.705,0.888,2.455c0.247,0.393,0.322,0.807,0.303,1.255c-0.007,0.25-0.043,0.506-0.013,0.752
	c0.136,1.193-0.105,2.3-0.695,3.343c-0.1,0.178-0.069,0.485-0.207,0.579c-0.529,0.366-0.969,0.878-1.611,1.081
	c-0.179,0.056-0.37,0.101-0.525,0.2c-0.333,0.216-0.653,0.159-0.984,0.023c-0.174-0.068-0.354-0.19-0.522-0.174
	c-0.646,0.066-1.139-0.303-1.668-0.551c-0.31-0.145-0.598-0.348-0.866-0.561c-0.239-0.192-0.482-0.408-0.643-0.665
	c-0.245-0.393-0.455-0.818-0.613-1.253c-0.091-0.251-0.072-0.549-0.065-0.825c0.011-0.401,0.053-0.802,0.079-1.16
	c0.113-0.106,0.278-0.186,0.313-0.304c0.385-1.308,1.209-2.326,2.092-3.315c0.897-1.002,1.775-2.017,2.652-3.036
	c0.288-0.338,0.488-0.719,0.52-1.182C52.638,42.138,52.735,41.903,52.817,41.595"/>
<path d="M39.557,116.428c-0.016-0.016-0.026-0.047-0.042-0.051c-0.026-0.007-0.054,0.007-0.082,0.013
	c0.02,0.027,0.033,0.059,0.06,0.079C39.498,116.474,39.532,116.445,39.557,116.428 M38.346,114.163
	c-0.051-0.024-0.104-0.068-0.154-0.063c-0.057,0.002-0.105,0.051-0.158,0.077c0.065,0.031,0.123,0.082,0.189,0.085
	C38.264,114.264,38.307,114.199,38.346,114.163 M36.895,115.277c-0.055,0.056-0.111,0.111-0.164,0.166
	c0.022,0.021,0.058,0.058,0.067,0.053c0.065-0.044,0.124-0.094,0.188-0.143C36.965,115.333,36.939,115.316,36.895,115.277
	 M40.509,115.221c-0.023-0.022-0.042-0.046-0.068-0.061c-0.141-0.076-0.277-0.099-0.394,0.038c-0.013,0.014-0.006,0.066-0.002,0.066
	c0.134,0.008,0.268,0.018,0.4,0.018C40.465,115.285,40.487,115.246,40.509,115.221 M37.377,114.266
	c-0.001-0.03-0.002-0.061-0.003-0.092c-0.133,0.005-0.266,0.01-0.398,0.017c0.001,0.029,0.003,0.061,0.005,0.09
	C37.112,114.277,37.244,114.271,37.377,114.266 M38.194,115.996c0.127-0.09,0.272-0.189,0.417-0.289
	c-0.015-0.035-0.019-0.065-0.031-0.072c-0.418-0.199-1.025,0.064-1.14,0.498c-0.117,0.463-0.092,0.927,0.013,1.389
	c0.221,0.955,0.275,1.92,0.17,2.879c-0.582,0.443-1.224,0.373-1.844,0.358c-0.324-0.003-0.563-0.267-0.624-0.61
	c-0.049-0.278-0.08-0.563-0.095-0.845c-0.053-1.225-0.078-2.453-0.144-3.676c-0.051-0.88-0.143-1.753-0.226-2.632
	c-0.1-1.094-0.071-2.198-0.309-3.284c-0.11-0.521,0.129-0.769,0.647-0.808c0.503-0.037,1.001-0.096,1.502-0.11
	c0.173-0.004,0.396,0.043,0.508,0.155c0.223,0.214,0.426,0.471,0.555,0.748c0.282,0.63,0.516,1.283,0.769,1.924
	c0.089,0.225-0.039,0.35-0.235,0.498c0.219,0.185,0.473,0.338,0.634,0.556c0.24,0.33,0.511,0.276,0.824,0.207
	c-0.053-0.551-0.093-1.069-0.148-1.584c-0.063-0.53-0.146-1.06-0.211-1.591c-0.022-0.186-0.024-0.376-0.018-0.565
	c0.013-0.349,0.168-0.536,0.498-0.564c0.442-0.037,0.881-0.059,1.321-0.063c0.497-0.004,0.653,0.177,0.674,0.69
	c0.079,2.074,0.141,4.15,0.252,6.223c0.063,1.189,0.212,2.38,0.309,3.569c0.028,0.313,0.025,0.629-0.009,0.94
	c-0.027,0.231-0.178,0.397-0.439,0.412c-0.501,0.031-1.006,0.057-1.506,0.094c-0.398,0.027-0.658-0.155-0.833-0.496
	c-0.044-0.082-0.093-0.166-0.113-0.258c-0.25-1.205-0.878-2.285-1.174-3.471C38.173,116.161,38.188,116.095,38.194,115.996"/>
<path d="M80.307,115.017c-0.006-0.019-0.007-0.047-0.021-0.053c-0.022-0.013-0.053-0.011-0.079-0.015
	c0.009,0.035,0.019,0.067,0.027,0.101C80.26,115.039,80.281,115.028,80.307,115.017 M80.707,113.843
	c0.019,0.02,0.04,0.055,0.055,0.052c0.049-0.009,0.092-0.031,0.137-0.052c-0.019-0.017-0.041-0.055-0.054-0.052
	C80.797,113.802,80.752,113.825,80.707,113.843 M81.003,113.138c0.589-0.586,0.513-1.281,0.388-1.949
	c-0.122-0.648-0.816-0.924-1.391-0.596c-0.115,0.068-0.237,0.233-0.243,0.358c-0.021,0.592-0.026,1.183,0.006,1.774
	c0.021,0.394,0.225,0.531,0.626,0.498C80.608,113.206,80.82,113.164,81.003,113.138 M77.036,108.599
	c0.433-0.467,0.924-0.435,1.389-0.411c1.094,0.056,2.188,0.14,3.281,0.225c1.704,0.129,2.206,0.806,2.377,2.356
	c0.043,0.373,0.101,0.751,0.094,1.126c-0.002,0.876-0.211,1.68-0.934,2.27c-0.069,0.056-0.109,0.15-0.198,0.281
	c0.085,0.2,0.158,0.438,0.283,0.646c0.248,0.41,0.42,0.825,0.391,1.328c-0.03,0.563,0.001,1.129,0.014,1.692
	c0.005,0.25,0.021,0.499,0.048,0.748c0.022,0.251,0.076,0.499,0.086,0.749c0.024,0.602-0.187,0.783-0.79,0.729
	c-0.341-0.033-0.689-0.031-1.03-0.049c-0.503-0.023-0.742-0.197-0.9-0.676c-0.191-0.581-0.163-1.176-0.113-1.775
	c0.035-0.406,0.054-0.812,0.067-1.221c0.013-0.398-0.132-0.738-0.424-1.013c-0.304-0.286-0.667-0.313-1.051-0.228
	c-0.01,0.063-0.018,0.119-0.022,0.176c-0.133,1.205-0.093,2.414-0.118,3.625c-0.002,0.094-0.001,0.188-0.009,0.282
	c-0.048,0.509-0.313,0.774-0.794,0.704c-0.467-0.07-0.926-0.135-1.402-0.074c-0.34,0.041-0.598-0.179-0.664-0.541
	c-0.075-0.423-0.149-0.86-0.117-1.285c0.121-1.726,0.263-3.448,0.448-5.166c0.055-0.515-0.17-1.067,0.166-1.553
	c-0.368-0.441-0.158-0.951-0.157-1.433C76.956,109.609,77.008,109.11,77.036,108.599"/>
<path d="M17.803,117.23l-0.005,0.059l0.08-0.025L17.803,117.23z M18.361,115.169c0.383-0.658,0.13-1.314-0.076-1.958
	c-0.089-0.28-0.354-0.432-0.632-0.513c-0.509-0.146-1.012,0.269-0.952,0.789c0.033,0.31,0.085,0.619,0.136,0.925
	C17.042,115.646,17.171,115.71,18.361,115.169 M13.613,111.383c0.328-0.395,0.71-0.53,1.13-0.536
	c0.976-0.013,1.937-0.164,2.898-0.305c0.435-0.061,0.879-0.047,1.318-0.042c0.723,0.013,1.295,0.334,1.578,0.998
	c0.28,0.662,0.533,1.351,0.671,2.052c0.164,0.814,0.063,1.629-0.512,2.309c-0.059,0.072-0.087,0.164-0.128,0.248
	c-0.014,0.028-0.015,0.062-0.027,0.134c0.058,0.106,0.099,0.276,0.207,0.374c0.615,0.572,0.793,1.346,0.93,2.107
	c0.149,0.836,0.24,1.674,0.537,2.478c0.174,0.472-0.097,0.827-0.596,0.823c-0.38-0.002-0.742,0.039-1.113,0.112
	c-0.484,0.093-0.778-0.079-0.996-0.519c-0.268-0.545-0.338-1.143-0.413-1.733c-0.044-0.342-0.04-0.694-0.1-1.03
	c-0.043-0.244-0.108-0.512-0.251-0.699c-0.161-0.215-0.396-0.417-0.645-0.514c-0.206-0.08-0.475,0-0.729,0.01
	c-0.104,0.99,0.136,1.889,0.277,2.799c0.072,0.466,0.138,0.932,0.174,1.4c0.033,0.438-0.146,0.638-0.57,0.713
	c-0.092,0.014-0.188,0.027-0.281,0.019c-0.377-0.043-0.733-0.015-1.106,0.112c-0.414,0.142-0.757-0.07-0.873-0.488
	c-0.122-0.449-0.233-0.906-0.281-1.366c-0.183-1.718-0.354-3.44-0.497-5.162c-0.08-0.966-0.349-1.896-0.475-2.852
	C13.674,112.328,13.595,111.833,13.613,111.383"/>
<path d="M49.186,99.869c0.406-0.547,0.558-1.104,0.49-1.773c-0.075-0.77-0.27-1.547-0.063-2.324c-0.15-0.336-0.092-0.67-0.016-1.012
	c0.076-0.367-0.193-0.693-0.09-1.102c0.104-0.418-0.294-0.839-0.73-0.943c-0.254-0.06-0.503,0.047-0.63,0.291
	c-0.182,0.338-0.239,0.698-0.219,1.088c0.079,1.496,0.139,2.994,0.18,4.491c0.009,0.375,0.209,0.647,0.373,0.939
	C48.612,99.748,48.828,99.882,49.186,99.869 M44.979,96.241c0.025-1.069-0.065-2.157,0.117-3.196
	c0.209-1.203,0.801-2.234,2.143-2.593c0.961-0.257,1.91-0.307,2.882-0.093c1.191,0.264,1.823,1.083,2.032,2.199
	c0.322,1.733,0.42,3.496,0.385,5.257c-0.017,0.928-0.077,1.868-0.492,2.743c-0.344,0.729-0.864,1.264-1.64,1.439
	c-1.049,0.237-2.113,0.287-3.16-0.072c-0.46-0.158-0.835-0.432-1.127-0.817c-0.503-0.661-0.838-1.39-0.884-2.239
	c-0.047-0.877-0.133-1.754-0.2-2.63C45.018,96.239,44.997,96.24,44.979,96.241"/>
<path d="M65.035,92.531c-0.469,0.313-0.63,0.759-0.502,1.297c-0.185,0.168-0.34,0.309-0.461,0.419
	c0.796,0.515,1.677,0.426,2.549,0.414c0.188-0.002,0.381-0.015,0.563,0.021c0.231,0.049,0.404,0.207,0.424,0.45
	c0.031,0.407,0.044,0.814,0.038,1.224c-0.012,0.481-0.203,0.678-0.686,0.71c-0.661,0.043-1.321,0.059-1.98,0.092
	c-0.184,0.01-0.366,0.038-0.584,0.06c0.153,0.322,0.232,0.656,0.053,0.891c-0.24,0.31,0.25,0.604-0.047,0.865
	c0.32,0.568,0.82,0.707,1.432,0.646c0.563-0.056,1.132-0.073,1.694-0.083c0.673-0.01,0.813,0.139,0.823,0.832
	c0.004,0.283,0.017,0.57-0.023,0.847c-0.074,0.544-0.329,0.771-0.885,0.763c-1.097-0.023-2.197-0.051-3.291-0.127
	c-0.473-0.031-0.937-0.112-1.4,0.03c-0.319,0.099-0.63,0.017-0.92-0.096c-0.24-0.099-0.375-0.279-0.366-0.585
	c0.051-1.695,0.104-3.391,0.104-5.085c-0.002-1.412-0.073-2.827-0.113-4.24c-0.008-0.282-0.02-0.565-0.016-0.848
	c0.011-0.646,0.418-1.067,1.047-1.058c0.975,0.012,1.948,0.053,2.922,0.073c0.595,0.013,1.191,0.006,1.785,0.011
	c0.158,0.002,0.316-0.008,0.472,0.01c0.361,0.035,0.582,0.215,0.662,0.563c0.12,0.536,0.067,1.066-0.14,1.571
	c-0.123,0.305-0.408,0.37-0.707,0.366C66.698,92.556,65.916,92.544,65.035,92.531"/>
<path d="M25.894,117.774c0.256-0.011,0.506-0.002,0.751-0.032c0.299-0.034,0.453-0.229,0.389-0.52
	c-0.229-1.069-0.261-2.183-0.75-3.198c-0.223-0.054-0.339,0.063-0.418,0.256c-0.293,0.677-0.025,1.44-0.338,2.114
	C25.646,116.841,25.764,117.29,25.894,117.774 M27.378,119.837c-0.291-0.002-0.51-0.023-0.729-0.002
	c-0.609,0.064-0.809,0.25-0.948,0.85c-0.217,0.926-0.303,1.001-1.244,1.078c-0.25,0.023-0.502,0.037-0.75,0.065
	c-0.318,0.033-0.546-0.098-0.736-0.394c0.075-0.868,0.158-1.769,0.231-2.672c0.164-2.029,0.324-4.063,0.484-6.096
	c0.049-0.623,0.086-1.253,0.145-1.877c0.08-0.828,0.3-1.018,1.118-1.078c0.466-0.033,0.931-0.099,1.395-0.17
	c0.697-0.108,0.992,0.055,1.215,0.717c0.02,0.061,0.029,0.121,0.043,0.185c0.178,1.021,0.611,1.965,0.853,2.967
	c0.243,1.005,0.528,2.001,0.821,2.994c0.267,0.897,0.578,1.782,0.856,2.673c0.141,0.452,0.266,0.905,0.37,1.363
	c0.092,0.408-0.088,0.673-0.491,0.761c-0.119,0.027-0.247,0.04-0.372,0.035c-0.375-0.015-0.745-0.024-1.116,0.079
	c-0.323,0.092-0.539-0.102-0.675-0.376c-0.086-0.17-0.151-0.347-0.225-0.519C27.55,120.25,27.479,120.078,27.378,119.837"/>
<path d="M57.4,110.389c-0.048,0.003-0.099,0.001-0.146,0.007c-0.003,0,0.001,0.032-0.001,0.051c0.051-0.002,0.102-0.004,0.149-0.006
	C57.402,110.425,57.401,110.408,57.4,110.389 M58.393,115.832c-0.054-0.714-0.089-1.434-0.164-2.152
	c-0.04-0.4-0.133-0.801-0.22-1.197c-0.016-0.076-0.122-0.193-0.178-0.189c-0.104,0.012-0.211,0.085-0.301,0.154
	c-0.042,0.033-0.057,0.109-0.069,0.169c-0.091,0.396-0.172,0.792-0.271,1.186c-0.067,0.269-0.223,0.534-0.215,0.798
	c0.015,0.456,0.127,0.911,0.206,1.418c0.339,0,0.648,0.002,0.955-0.007C58.188,116.008,58.238,115.943,58.393,115.832
	 M58.509,118.206c-0.335-0.021-0.612-0.07-0.886-0.044c-0.438,0.037-0.74,0.232-0.859,0.719c-0.209,0.85-0.269,0.989-1.307,0.975
	c-0.284-0.002-0.568,0.024-0.85,0.014c-0.47-0.021-0.682-0.29-0.603-0.744c0.563-3.311,1.127-6.619,1.689-9.93
	c0.038-0.215,0.08-0.434,0.139-0.645c0.123-0.431,0.36-0.615,0.815-0.639c0.155-0.01,0.316-0.014,0.471,0.017
	c0.344,0.068,0.678,0.06,1.021-0.04c0.176-0.053,0.375-0.043,0.563-0.029c0.342,0.021,0.596,0.188,0.703,0.527
	c0.058,0.176,0.121,0.357,0.149,0.543c0.311,1.98,0.811,3.93,1.086,5.917c0.021,0.155,0.048,0.312,0.1,0.459
	c0.328,0.918,0.42,1.894,0.662,2.832c0.077,0.302,0.116,0.617,0.141,0.931c0.035,0.487-0.144,0.687-0.633,0.736
	c-0.124,0.012-0.26,0.035-0.375-0.001c-0.339-0.104-0.653-0.145-1,0.001c-0.229,0.096-0.436-0.059-0.553-0.256
	c-0.111-0.188-0.181-0.398-0.256-0.607C58.654,118.738,58.604,118.525,58.509,118.206"/>
<path d="M69.999,116.14c-0.023-0.004-0.043-0.011-0.067-0.018c0.014,0.025,0.03,0.048,0.044,0.07
	C69.981,116.174,69.989,116.16,69.999,116.14 M72.097,115.089c-0.203,0.242-0.076,0.548-0.149,0.814
	c-0.074,0.254-0.198,0.467-0.102,0.775c0.06,0.186-0.014,0.434,0.191,0.574c0.2,0.137,0.408,0.303,0.641,0.352
	c0.267,0.062,0.558,0.015,0.841,0.006c0.471-0.014,0.944-0.045,1.413-0.041c0.347,0.002,0.568,0.183,0.575,0.492
	c0.015,0.438,0.017,0.883-0.046,1.315c-0.063,0.444-0.347,0.655-0.793,0.641c-0.875-0.034-1.756-0.059-2.629-0.149
	c-0.66-0.071-1.313-0.116-1.973-0.042c-0.424,0.05-0.817-0.009-1.116-0.458c0.026-0.952,0.013-1.956,0.085-2.956
	c0.162-2.226,0.197-4.456,0.098-6.686c-0.015-0.282-0.016-0.567,0.002-0.849c0.031-0.58,0.362-0.914,0.947-0.945
	c0.313-0.017,0.629-0.014,0.942,0.004c0.941,0.053,1.879,0.129,2.822,0.172c0.372,0.017,0.75-0.039,1.125-0.022
	c0.488,0.019,0.665,0.192,0.748,0.676c0.074,0.441,0.021,0.874-0.104,1.306c-0.105,0.348-0.323,0.529-0.685,0.525
	c-0.47-0.004-0.942-0.017-1.414-0.034c-0.156-0.006-0.31-0.043-0.466-0.055c-0.617-0.048-0.943,0.207-1.031,0.813
	c-0.026,0.184-0.016,0.375-0.021,0.537c-0.155,0.14-0.284,0.254-0.438,0.396c0.79,0.405,1.594,0.424,2.398,0.438
	c0.921,0.017,0.946,0.045,0.967,0.946c0.006,0.282,0.037,0.567,0.016,0.849c-0.026,0.364-0.24,0.588-0.599,0.6
	c-0.751,0.019-1.501,0.003-2.251,0.001c-0.05,0.017-0.102,0.03-0.146,0.052c-0.023,0.012-0.042,0.04-0.061,0.061
	c0.024-0.006,0.056-0.01,0.078-0.022C72.01,115.148,72.052,115.117,72.097,115.089"/>
<path d="M55.972,97.017c-0.113-0.011-0.195-0.023-0.278-0.022c-0.021,0.001-0.04,0.037-0.061,0.058
	c0.068,0.028,0.133,0.072,0.203,0.079C55.866,97.132,55.907,97.073,55.972,97.017 M57.161,96.407
	c-0.022,0.044-0.043,0.091-0.064,0.138c0.039,0.008,0.08,0.027,0.121,0.026c0.013-0.001,0.044-0.058,0.038-0.071
	C57.232,96.465,57.193,96.437,57.161,96.407 M55.444,101.84c-0.083-0.188-0.192-0.35-0.232-0.524
	c-0.353-1.527-0.663-3.065-1.044-4.588c-0.206-0.813-0.414-1.631-0.652-2.439c-0.347-1.169-0.557-2.379-0.818-3.575
	c-0.019-0.086,0.021-0.184,0.042-0.317c0.676-0.426,1.412-0.377,2.155-0.202c0.261,0.064,0.427,0.267,0.516,0.513
	c0.092,0.268,0.184,0.536,0.234,0.814c0.131,0.709,0.24,1.42,0.351,2.133c0.094,0.58,0.177,1.162,0.276,1.813
	c0.266,0.271,0.606,0.556,1.076,0.193c0.124-0.095,0.081-0.213-0.081-0.26c-0.031-0.009-0.055-0.028-0.126-0.064
	c0.192-1.405,0.383-2.823,0.592-4.239c0.033-0.244,0.115-0.496,0.242-0.703c0.086-0.141,0.279-0.285,0.438-0.305
	c0.498-0.058,1.002-0.066,1.505-0.072c0.119-0.002,0.246,0.047,0.355,0.101c0.109,0.055,0.198,0.144,0.334,0.244
	c-0.12,0.647-0.23,1.292-0.358,1.931c-0.192,0.956-0.384,1.91-0.594,2.859c-0.086,0.396-0.229,0.779-0.336,1.173
	c-0.074,0.268-0.154,0.541-0.183,0.817c-0.036,0.377-0.069,0.729-0.281,1.068c-0.12,0.186-0.039,0.489-0.125,0.704
	c-0.094,0.231-0.161,0.431-0.163,0.698c-0.003,0.494-0.123,0.99-0.212,1.486c-0.106,0.58-0.354,0.812-0.933,0.885
	C56.761,102.072,56.115,101.923,55.444,101.84"/>
<path d="M65.631,119.756c-0.775,0.033-1.589,0.281-2.404-0.265c-0.034-0.945-0.067-1.912-0.001-2.881c0.031-0.502,0.078-1,0.071-1.5
	c-0.017-1.473-0.057-2.943-0.087-4.433c-0.243-0.323-0.601-0.362-0.994-0.373c-1.181-0.032-1.35-0.229-1.261-1.413
	c0.012-0.158,0.026-0.315,0.056-0.47c0.069-0.347,0.201-0.499,0.568-0.514c0.69-0.03,1.381-0.021,2.069-0.021
	c1.224-0.002,2.444,0.006,3.668-0.007c0.323-0.002,0.623,0.019,0.896,0.236c0.262,0.567,0.135,1.164,0.084,1.753
	c-0.022,0.271-0.229,0.438-0.52,0.454c-0.247,0.014-0.5-0.02-0.751-0.017c-0.597,0.002-0.858,0.219-0.962,0.805
	c-0.04,0.216-0.069,0.434-0.069,0.647c0.019,2.291,0.039,4.579,0.073,6.869C66.076,119.062,65.976,119.431,65.631,119.756"/>
<path d="M40.125,90.798c0.132,0.616,0.21,1.123,0.184,1.666c-0.063,1.383,0.031,2.764,0.147,4.141
	c0.087,1.059,0.18,2.115,0.267,3.152c0.32,0.377,0.689,0.433,1.125,0.358c0.588-0.099,1.183-0.161,1.776-0.21
	c0.399-0.034,0.4-0.014,0.933,0.323c0.056,0.431,0.115,0.862,0.168,1.293c0.051,0.432-0.17,0.73-0.598,0.804
	c-0.155,0.027-0.314,0.04-0.468,0.029c-1.452-0.104-2.882,0.138-4.322,0.23c-0.124,0.008-0.252,0.002-0.374,0.027
	c-0.435,0.084-0.808,0.004-1.161-0.475c-0.006-0.16-0.021-0.438-0.024-0.719c-0.045-3.082-0.225-6.154-0.574-9.217
	c-0.02-0.186-0.045-0.376-0.047-0.564c-0.005-0.57,0.252-0.861,0.841-0.918c0.31-0.027,0.626-0.02,0.94-0.006
	C39.31,90.73,39.682,90.767,40.125,90.798"/>
<path d="M61.912,48.657c0.013,0.309,0.033,0.521,0.026,0.731c-0.047,1.334,0.159,2.619,0.629,3.873
	c0.293,0.793,0.507,1.615,0.742,2.428c0.163,0.566,0.129,1.113-0.198,1.628c-0.096,0.151-0.152,0.332-0.21,0.506
	c-0.47,1.451-1.859,2.229-3.339,1.866c-0.15-0.037-0.3-0.089-0.454-0.125c-1.673-0.386-2.311-1.968-2.106-3.406
	c0.016-0.121,0.068-0.236,0.115-0.351c0.286-0.702,0.641-1.366,1.111-1.962c0.136-0.171,0.266-0.372,0.448-0.476
	c0.48-0.279,0.741-0.733,1.065-1.153c0.813-1.054,1.407-2.22,1.951-3.42C61.704,48.771,61.745,48.762,61.912,48.657"/>
<path d="M41.805,46.85c0.268,0.159,0.183,0.373,0.179,0.541c-0.027,1.365,0.157,2.688,0.644,3.975
	c0.299,0.792,0.492,1.622,0.738,2.435c0.176,0.571,0.133,1.11-0.186,1.627c-0.097,0.154-0.153,0.334-0.21,0.506
	c-0.495,1.495-1.894,2.244-3.433,1.838c-0.155-0.04-0.303-0.091-0.456-0.125c-1.771-0.372-2.517-2.637-1.786-3.992
	c0.297-0.552,0.62-1.091,0.951-1.625c0.114-0.184,0.255-0.383,0.431-0.494c0.949-0.594,1.383-1.602,1.976-2.468
	c0.39-0.565,0.635-1.228,0.945-1.843C41.662,47.098,41.732,46.976,41.805,46.85"/>
<path d="M28.989,103.093c-0.037-0.931-0.1-1.774-0.093-2.621c0.006-0.566-0.031-1.121-0.103-1.684
	c-0.255-2.088-0.495-4.182-0.74-6.275c-0.012-0.094-0.027-0.188-0.028-0.279c-0.009-0.417,0.232-0.756,0.636-0.801
	c0.748-0.082,1.5-0.172,2.225-0.041c0.316,0.283,0.346,0.635,0.298,0.979c-0.096,0.696,0.023,1.376,0.092,2.062
	c0.07,0.752,0.074,1.506,0.103,2.26c0.015,0.346-0.003,0.693,0.036,1.037c0.157,1.342,0.33,2.684,0.495,4.024
	c0.022,0.156,0.053,0.31,0.064,0.468c0.05,0.609-0.158,0.91-0.744,0.978C30.512,103.279,29.791,103.253,28.989,103.093"/>
<path d="M31.412,120.902c-0.271-0.961-0.258-1.83-0.208-2.703c0.03-0.535-0.011-1.06-0.111-1.59
	c-0.132-0.707-0.186-1.429-0.265-2.146c-0.153-1.434-0.314-2.868-0.445-4.307c-0.068-0.724,0.163-0.987,0.861-1.051
	c0.468-0.041,0.941-0.057,1.411-0.045c0.462,0.012,0.677,0.234,0.715,0.7c0.021,0.218,0.013,0.442-0.025,0.657
	c-0.076,0.441-0.006,0.867,0.042,1.307c0.096,0.87,0.13,1.747,0.181,2.625c0.023,0.438,0.003,0.881,0.054,1.313
	c0.153,1.37,0.331,2.737,0.5,4.108c0.007,0.061,0.021,0.125,0.027,0.185c0.064,0.606-0.148,0.903-0.744,0.962
	C32.751,120.984,32.098,120.958,31.412,120.902"/>
<path d="M0.431,80.696c-0.144,0.007-0.287,0.011-0.43,0.017C0,80.705,0,80.697,0,80.689c0.146,0.001,0.289,0.002,0.436,0.002
	C0.437,80.691,0.431,80.696,0.431,80.696"/>
</svg>
