<?xml version="1.0" encoding="utf-8"?>
<!-- Generator: Adobe Illustrator 12.0.0, SVG Export Plug-In . SVG Version: 6.00 Build 51448)  -->
<!DOCTYPE svg PUBLIC "-//W3C//DTD SVG 1.1//EN" "http://www.w3.org/Graphics/SVG/1.1/DTD/svg11.dtd" [
	<!ENTITY ns_svg "http://www.w3.org/2000/svg">
	<!ENTITY ns_xlink "http://www.w3.org/1999/xlink">
]>
<svg  version="1.1" id="Layer_1" xmlns="&ns_svg;" xmlns:xlink="&ns_xlink;" width="102.422" height="128.344"
	 viewBox="0 0 102.422 128.344" overflow="visible" enable-background="new 0 0 102.422 128.344" xml:space="preserve">
<path d="M40.343,59.249c-0.026,0.072-0.049,0.123-0.06,0.179c-0.002,0.01,0.064,0.047,0.069,0.042
	c0.034-0.031,0.082-0.072,0.083-0.112C40.434,59.323,40.378,59.29,40.343,59.249 M40.669,59.429
	c0.045,0.021,0.088,0.049,0.136,0.066c0.009,0.002,0.053-0.056,0.048-0.061c-0.027-0.035-0.063-0.068-0.097-0.101
	C40.726,59.367,40.697,59.397,40.669,59.429 M37.314,61.486c-0.051,0.001-0.101-0.004-0.153-0.007
	c0.025,0.017,0.048,0.042,0.073,0.045C37.26,61.524,37.286,61.501,37.314,61.486 M37.533,65.381
	c-0.037-0.028-0.074-0.056-0.116-0.074c-0.009-0.002-0.035,0.035-0.054,0.057c0.043,0.031,0.084,0.057,0.126,0.087
	C37.504,65.427,37.519,65.406,37.533,65.381 M33.266,67.317c0.013-0.045,0.054-0.114,0.038-0.135
	c-0.035-0.038-0.099-0.048-0.151-0.073c-0.016,0.049-0.06,0.12-0.042,0.141C33.145,67.288,33.212,67.295,33.266,67.317
	 M67.484,4.438c-0.034-0.012-0.065-0.034-0.092-0.027c-0.151,0.023-0.299,0.052-0.446,0.092c-0.009,0.003-0.009,0.135,0.019,0.151
	c0.162,0.101,0.297,0.015,0.418-0.091C67.424,4.529,67.45,4.481,67.484,4.438 M30.375,65.285c0.939-0.037,0.939-0.037,1.286-0.388
	C31.199,64.836,30.846,65.013,30.375,65.285 M68.049,41.573c-0.361,0.314-0.313,0.646-0.328,0.947
	c-0.008,0.154,0.14,0.299,0.224,0.231c0.063-0.053,0.134-0.142,0.136-0.214C68.085,42.254,68.063,41.967,68.049,41.573
	 M73.411,62.41c-0.728-0.523-1.522-0.771-2.331-0.929c-1.577-0.307-3.134-0.676-4.673-1.129c-0.136-0.039-0.288-0.026-0.465-0.037
	c-0.048,0.478-0.097,0.891-0.128,1.304c-0.034,0.434-0.151,0.87-0.032,1.37C68.365,62.794,70.887,62.602,73.411,62.41
	 M69.278,58.483c-0.009-0.216-0.009-0.432-0.028-0.646c-0.096-1.028-0.217-2.052-0.29-3.078c-0.19-2.669-0.358-5.338-0.538-8.008
	c-0.031-0.449-0.084-0.896-0.135-1.346c-0.023-0.227-0.169-0.341-0.384-0.357c-0.124-0.011-0.252,0.006-0.437,0.013
	c-0.442,4.086-0.84,8.152-1.238,12.215c-0.008,0.089,0.047,0.182,0.086,0.322c0.469,0.149,0.959,0.295,1.439,0.463
	C68.232,58.224,68.655,58.565,69.278,58.483 M66.948,27.386c-3.104,0.554-6.054,1.208-9.026,1.839
	c-0.109,0.522-0.046,0.992,0.03,1.469c0.138,0.854,0.394,1.705,0.129,2.582c-0.043,0.142,0.027,0.316,0.058,0.472
	c0.074,0.377,0.16,0.754,0.23,1.132c0.034,0.187-0.023,0.422,0.073,0.557c0.292,0.405,0.259,0.855,0.257,1.303
	c-0.005,0.935-0.03,1.872-0.033,2.807c-0.002,0.218,0.051,0.431,0.086,0.696c1.549,0.201,3.059-0.087,4.566,0.019
	c1.504,0.102,3.009,0.051,4.57-0.007c-0.138-3.911-0.617-7.753-0.776-11.615C67.096,28.258,67.016,27.881,66.948,27.386
	 M34.567,12.205c-0.256,0.01-0.499,0.081-0.698,0.017c-0.608-0.2-1.193-0.462-1.857-0.381c-0.087,0.011-0.186-0.048-0.276-0.081
	c-0.484-0.178-0.964-0.36-1.449-0.532c-0.299-0.105-0.596-0.264-0.985-0.097c0.006,0.167,0.007,0.355,0.022,0.543
	c0.216,2.735,0.44,5.471,0.651,8.207c0.074,0.964,0.107,1.934,0.178,2.898c0.04,0.544,0.083,1.087,0.239,1.656
	c0.297,0.052,0.579,0.102,0.864,0.146c0.348,0.054,0.71,0.057,1.043,0.155c1.224,0.358,2.475,0.345,3.723,0.276
	c0.616-0.031,1.219-0.052,1.827,0.068c0.407,0.078,0.819,0.168,1.276,0.083c0.077-0.445,0.097-0.902,0.242-1.315
	c0.158-0.454,0.167-0.87,0.033-1.319c-0.112-0.37-0.183-0.752-0.263-1.127c-0.201-0.944-0.498-1.87-0.459-2.855
	c0.012-0.314-0.13-0.627-0.162-0.944c-0.053-0.543-0.15-1.095-0.086-1.625c0.044-0.386,0.039-0.768,0.082-1.148
	c0.043-0.379,0.161-0.744,0.224-1.121c0.022-0.118-0.021-0.25-0.025-0.297c-0.277-0.229-0.486-0.409-0.708-0.579
	c-0.148-0.118-0.301-0.247-0.473-0.307c-0.393-0.131-0.8-0.222-1.178-0.325c-0.079,0.068-0.135,0.105-0.168,0.153
	c-0.297,0.436-0.464,0.519-0.84,0.337C35.087,12.565,34.855,12.388,34.567,12.205 M31.653,42.158
	c1.099-0.219,2.107-0.422,3.117-0.62c0.979-0.194,1.967-0.352,2.936-0.594c0.988-0.243,2.017-0.341,2.986-0.708
	c0.04-0.504-0.012-0.941-0.068-1.393c-0.083-0.666-0.38-1.331-0.222-1.999c0.23-0.963-0.216-1.833-0.263-2.753
	c-0.278-0.399-0.237-0.858-0.24-1.309c-0.004-1.192-0.014-2.389,0.006-3.582c0.009-0.565-0.052-1.082-0.489-1.5
	c-0.086-0.08-0.119-0.215-0.197-0.364c-0.523-0.009-1.053,0.065-1.544-0.038c-1.209-0.259-2.419-0.256-3.641-0.223
	c-0.319,0.01-0.639-0.084-0.961-0.086c-0.705-0.013-1.408-0.013-2.092-0.242c-0.131-0.045-0.297,0.018-0.511,0.037
	c0.318,4.514,0.634,8.98,0.948,13.443c0.023,0.321,0.041,0.645,0.078,0.965C31.53,41.476,31.588,41.76,31.653,42.158 M17.087,7.778
	c-0.02,0.184-0.047,0.28-0.04,0.374c0.128,1.933,0.247,3.864,0.397,5.793c0.112,1.45,0.299,2.892,0.394,4.341
	c0.112,1.705,0.157,3.418,0.236,5.126c0.01,0.211,0.049,0.422,0.07,0.597c0.642,0.009,1.22,0.004,1.797,0.027
	c0.609,0.025,1.218,0.111,1.825,0.114c0.933,0.001,1.866-0.061,2.8-0.064c0.638-0.003,1.288-0.085,1.911,0.15
	c0.117,0.048,0.256,0.066,0.377,0.051c0.531-0.059,1.06-0.135,1.637,0.01c-0.133-2.32-0.2-4.576-0.407-6.816
	c-0.212-2.278-0.041-4.565-0.174-6.819c-1.232-0.414-2.388-0.803-3.547-1.19c-0.244-0.084-0.491-0.226-0.736-0.227
	c-0.863,0.006-1.611-0.404-2.413-0.616c-0.285-0.075-0.548-0.147-0.849-0.093c-0.515,0.093-1.015,0.022-1.516-0.157
	c-0.478-0.172-0.989-0.251-1.422-0.546C17.358,7.786,17.246,7.804,17.087,7.778 M70.094,45.328c0.012,0.278,0.017,0.532,0.031,0.783
	c0.124,2.063,0.229,4.124,0.387,6.182c0.101,1.289,0.162,2.574,0.119,3.865c-0.031,0.897,0.004,1.8,0.008,2.685
	c0.697,0.256,1.316,0.547,1.969,0.701c0.998,0.237,1.902,0.823,2.974,0.773c0.118-0.005,0.239,0.088,0.363,0.128
	c0.55,0.18,1.098,0.365,1.651,0.535c0.147,0.044,0.323,0.074,0.469,0.038c0.482-0.124,0.964-0.151,1.412,0.075
	c0.434,0.219,0.955,0.125,1.363,0.452c0.293,0.235,0.659,0.376,1.049,0.38c0.037-0.1,0.084-0.161,0.076-0.216
	c-0.281-2.102-0.242-4.241-0.699-6.326c-0.047-0.215-0.028-0.449-0.035-0.673c-0.014-0.45-0.02-0.899-0.037-1.35
	c-0.029-0.738-0.063-1.479-0.1-2.218c-0.01-0.194,0.016-0.411-0.063-0.574c-0.305-0.641-0.248-1.319-0.266-1.991
	c-0.02-0.808-0.022-1.612-0.047-2.418c-0.006-0.25-0.06-0.496-0.096-0.788c-0.681,0.206-1.318,0.215-1.953,0.152
	c-1.508-0.146-3.012-0.231-4.527-0.11c-0.573,0.047-1.17,0.06-1.729-0.043c-0.389-0.074-0.764-0.086-1.146-0.088
	C70.917,45.285,70.568,45.309,70.094,45.328 M29.795,42.432c-0.026-2.333-0.961-14.638-1.189-15.642
	c-0.388-0.22-0.794-0.405-1.268-0.305c-0.611,0.126-1.22,0.065-1.832,0.019c-0.351-0.029-0.704-0.008-1.057-0.028
	c-1.67-0.086-3.354,0.121-5.012-0.269c-0.393-0.091-0.828-0.115-1.18,0.155c-0.042,1.458,1.014,17.325,1.208,18.186
	c0.284,0.143,0.566,0.044,0.84-0.033c0.463-0.133,0.912-0.324,1.382-0.414c1.582-0.311,3.171-0.591,4.758-0.876
	c0.667-0.117,1.338-0.212,2.005-0.327C28.927,42.817,29.384,42.671,29.795,42.432 M69.852,42.667
	c0.584,0.358,1.093,0.464,1.664,0.334c0.308-0.072,0.652-0.088,0.961-0.026c1.218,0.235,2.443,0.02,3.664,0.12
	c0.994,0.079,1.996-0.019,2.979,0.241c0.478,0.125,0.952,0.086,1.453-0.167c-0.013-0.316-0.013-0.636-0.04-0.953
	c-0.064-0.706-0.167-1.409-0.215-2.116c-0.23-3.349-0.447-6.699-0.672-10.049c-0.018-0.256-0.004-0.534-0.104-0.76
	c-0.163-0.368-0.173-0.75-0.207-1.133c-0.082-0.899-0.157-1.801-0.241-2.701c-0.019-0.182-0.082-0.356-0.142-0.608
	c-0.574,0.167-1.095,0.321-1.617,0.473c-0.185,0.053-0.364,0.119-0.552,0.151c-1.745,0.313-3.491,0.615-5.239,0.918
	c-0.317,0.057-0.64,0.089-0.954,0.156c-0.623,0.134-1.267,0.219-1.852,0.575C69.109,32.305,69.48,37.477,69.852,42.667
	 M77.684,3.825c-0.351-0.112-0.701-0.019-1.049-0.008c-0.16,0.006-0.33,0.019-0.475,0.079c-1.098,0.456-2.186,0.935-3.284,1.387
	c-0.767,0.313-1.606,0.429-2.334,0.853c-0.052,0.028-0.128,0.015-0.192,0.017c-0.465,0.003-0.877,0.184-1.287,0.376
	c-0.633,0.3-1.27,0.594-1.957,0.914c-0.031,0.579,0.066,1.179,0.104,1.783c0.083,1.318,0.141,2.634,0.225,3.949
	c0.041,0.642,0.061,1.292,0.197,1.917c0.096,0.449,0.133,0.882,0.111,1.335c-0.016,0.35,0.032,0.703,0.066,1.056
	c0.147,1.533,0.369,3.066,0.383,4.608c0.005,0.521,0.129,1.007,0.17,1.549c1.766-0.306,3.471-0.595,5.174-0.901
	c1.736-0.306,3.471-0.628,5.178-0.934c0.047-0.104,0.098-0.166,0.094-0.224c-0.334-5.824-0.674-11.649-1.017-17.475
	C77.786,4.015,77.727,3.931,77.684,3.825 M19.619,47.765c0.077,1.078,0.15,2.072,0.219,3.065c0.246,3.536,0.494,7.077,0.733,10.618
	c0.032,0.48-0.065,0.986,0.044,1.444c0.183,0.762,0.163,1.532,0.223,2.299c0.018,0.214,0.084,0.425,0.128,0.631
	c0.895,0.066,1.619-0.286,2.362-0.593c1.126-0.461,2.231-0.977,3.414-1.306c0.769-0.214,1.489-0.587,2.289-0.717
	c0.216-0.033,0.415-0.171,0.619-0.267c0.607-0.283,1.214-0.566,1.799-0.839c-0.047-1.194-0.091-2.374-0.14-3.553
	c-0.017-0.387-0.052-0.77-0.07-1.154c-0.082-1.602-0.475-3.18-0.389-4.798c0.004-0.094-0.017-0.189-0.03-0.286
	c-0.212-1.692-0.415-3.383-0.421-5.091c-0.002-0.441-0.098-0.876-0.26-1.315C26.64,46.524,23.187,47.136,19.619,47.765
	 M25.282,7.265c0.733,0.398,1.497,0.634,2.284,0.802c0.755,0.159,1.517,0.291,2.262,0.485c1.03,0.268,2.046,0.583,3.069,0.876
	c0.184,0.056,0.372,0.158,0.554,0.148c0.405-0.018,0.754,0.14,1.12,0.26c0.644,0.207,1.293,0.404,1.945,0.588
	c1.084,0.308,2.178,0.594,3.261,0.907c0.618,0.178,0.68,0.243,0.712,0.864c0.046,0.935,0.058,1.871,0.083,2.809
	c0.007,0.222-0.047,0.47,0.027,0.669c0.198,0.525,0.205,1.066,0.243,1.611c0.124,1.838,0.277,3.67,0.391,5.508
	c0.137,2.189,0.249,4.382,0.358,6.576c0.018,0.35-0.027,0.704-0.051,1.052c-0.068,0.932-0.115,1.85,0.137,2.776
	c0.209,0.768,0.472,1.556,0.185,2.375c-0.027,0.08-0.001,0.199,0.038,0.279c0.129,0.251,0.071,0.496,0.04,0.756
	c-0.035,0.288-0.052,0.581-0.029,0.868c0.191,2.512,0.397,5.021,0.592,7.532c0.017,0.222,0.006,0.445-0.015,0.667
	c-0.096,0.997-0.105,1.991,0.044,2.988c0.087,0.575,0.155,1.153,0.166,1.732c0.019,0.967-0.016,1.936-0.028,2.903
	c-0.001,0.161,0.015,0.325-0.01,0.481c-0.053,0.328-0.473,0.493-0.754,0.307c-0.283-0.188-0.502-0.414-0.429-0.794
	c0.062-0.33,0.03-0.652-0.143-0.938c-0.349-0.563-0.302-1.156-0.203-1.77c0.127-0.797,0.124-1.611-0.015-2.4
	c-0.124-0.707-0.199-1.4-0.109-2.112c0.02-0.158,0.071-0.349,0.007-0.472c-0.238-0.458-0.142-0.948-0.19-1.426
	c-0.021-0.217-0.059-0.43-0.09-0.648c-0.176,0.036-0.301,0.077-0.429,0.086c-0.55,0.028-1.085,0.071-1.577,0.385
	c-0.173,0.11-0.435,0.089-0.657,0.112c-0.255,0.032-0.516,0.032-0.767,0.078c-0.761,0.138-1.528,0.26-2.28,0.446
	c-1.056,0.262-2.101,0.576-3.157,0.869c-0.069,1.833,0.206,3.594,0.29,5.361c0.083,1.771,0.193,3.539,0.284,5.312
	c0.09,1.763,0.193,3.521,0.344,5.32c0.193-0.04,0.318-0.059,0.438-0.093c1.148-0.324,2.195-0.895,3.29-1.351
	c0.948-0.394,1.841-0.917,2.868-1.103c0.252-0.049,0.494-0.152,0.747-0.203c0.175-0.036,0.368-0.161,0.54,0.033
	c0.026,0.03,0.152,0.023,0.155,0.01c0.135-0.457,0.686-0.29,0.96-0.683c-0.024-0.604-0.063-1.28-0.071-1.959
	c-0.005-0.25,0.031-0.513,0.097-0.756c0.117-0.424,0.326-0.631,0.543-0.567c0.33,0.097,0.556,0.313,0.642,0.654
	c0.023,0.092,0.028,0.191,0.026,0.289c-0.014,0.508,0.108,1.021-0.181,1.511c-0.096,0.167-0.01,0.439-0.007,0.666
	c0.005,0.514,0.026,1.028,0.014,1.544c-0.007,0.26-0.084,0.521-0.36,0.636c-0.255,0.105-0.416-0.111-0.611-0.204
	c-0.027-0.014-0.065-0.003-0.137-0.005c-0.07,0.064-0.196,0.133-0.249,0.237c-0.192,0.376-0.521,0.527-0.896,0.672
	c-0.384,0.145-0.733,0.381-1.094,0.586c-0.252,0.138-0.483,0.346-0.753,0.422c-0.971,0.28-1.844,0.758-2.72,1.242
	c-0.348,0.193-0.691,0.536-1.153,0.224c-0.03-0.021-0.153,0.021-0.164,0.053c-0.116,0.387-0.47,0.256-0.722,0.357
	c-0.322,0.131-0.661,0.228-0.926,0.498c-0.241,0.245-0.262,0.467-0.137,0.798c0.192-0.007,0.35-0.012,0.508-0.023
	c1.801-0.123,3.604-0.243,5.406-0.372c1.9-0.135,3.8-0.269,5.7-0.409c1.191-0.086,2.38-0.171,3.571-0.269
	c0.178-0.015,0.351-0.094,0.496-0.137c0.019-0.098,0.032-0.13,0.031-0.158c-0.162-3.196-0.592-6.362-0.903-9.542
	c-0.233-2.376-0.688-4.727-0.858-7.108c-0.005-0.064-0.013-0.13-0.02-0.192c-0.142-1.149-0.288-2.301-0.424-3.451
	c-0.076-0.667-0.074-1.322-0.498-1.927c-0.36-0.518,0.036-1.104,0.687-1.145c0.255-0.017,0.514,0.011,0.771,0.024
	c0.385,0.019,0.772,0.063,1.156,0.063c1.13,0.001,2.26-0.01,3.39-0.02c1.42-0.017,2.84-0.031,4.26-0.058
	c0.245-0.005,0.488-0.065,0.689-0.096c0.053-0.396,0.103-0.712,0.14-1.029c0.103-0.868,0.103-1.737-0.058-2.6
	c-0.113-0.602-0.342-1.2-0.338-1.796c0.004-0.603-0.011-1.206,0.004-1.808c0.01-0.354,0.033-0.711,0.008-1.063
	c-0.178-2.447-0.368-4.893-0.549-7.342c-0.019-0.252,0.014-0.511,0.014-0.768c-0.002-0.901,0.021-1.804-0.016-2.703
	c-0.027-0.644-0.188-1.278-0.203-1.918c-0.023-1.066,0.021-2.131,0.043-3.196c0.002-0.128-0.002-0.285,0.067-0.371
	c0.091-0.111,0.254-0.228,0.386-0.228c0.334,0,0.754,0.359,0.719,0.662c-0.068,0.609,0.09,1.139,0.365,1.662
	c0.082,0.157,0.035,0.382,0.047,0.573c0.01,0.219,0.017,0.442,0.025,0.678c0.146,0.035,0.27,0.056,0.385,0.099
	c0.197,0.074,0.327,0.217,0.299,0.44c-0.028,0.21-0.162,0.34-0.381,0.371c-0.123,0.02-0.248,0.044-0.391,0.068
	c-0.052,0.468-0.161,0.915-0.029,1.359c0.217,0.726,0.217,1.462,0.149,2.205c-0.015,0.156-0.065,0.343-0.005,0.468
	c0.222,0.465,0.121,0.953,0.17,1.43c0.021,0.208,0.061,0.414,0.098,0.652c0.188-0.054,0.309-0.111,0.432-0.121
	c0.609-0.057,1.223-0.09,1.754-0.456c0.072-0.046,0.188-0.062,0.281-0.055c0.819,0.058,1.594-0.21,2.391-0.334
	c1.367-0.204,2.654-0.714,4.02-1.031c0.006-0.235,0.028-0.427,0.018-0.614c-0.079-1.385-0.162-2.77-0.247-4.154
	c-0.072-1.191-0.15-2.381-0.222-3.574c-0.14-2.316-0.272-4.638-0.416-6.955c-0.012-0.219-0.071-0.431-0.112-0.67
	c-0.205,0.036-0.368,0.048-0.519,0.095c-1.103,0.358-2.13,0.895-3.195,1.345c-0.883,0.375-1.728,0.847-2.686,1.037
	c-0.505,0.099-0.998,0.262-1.492,0.407c-0.334,0.096-0.664,0.209-0.935,0.296c-0.052,0.109-0.077,0.139-0.076,0.165
	c0.007,0.645,0.015,1.292,0.03,1.937c0.009,0.323-0.001,0.636-0.139,0.945c-0.205,0.455-0.554,0.536-0.889,0.168
	c-0.105-0.117-0.242-0.26-0.25-0.399c-0.029-0.479-0.135-1.012,0.025-1.431c0.174-0.46,0.14-0.872,0.135-1.319
	c-0.006-0.512-0.004-1.031,0.041-1.54c0.025-0.283,0.289-0.411,0.589-0.34c0.177,0.043,0.343,0.115,0.519,0.179
	c0.15-0.197,0.257-0.361,0.389-0.496c0.107-0.115,0.232-0.252,0.371-0.287c0.607-0.147,1.122-0.452,1.604-0.84
	c0.172-0.138,0.396-0.222,0.607-0.288c0.928-0.298,1.79-0.727,2.631-1.215c0.585-0.343,1.195-0.62,1.898-0.656
	c0.461-0.023,0.873-0.233,1.183-0.585c0.173-0.195,0.271-0.434,0.044-0.763C52.186,5.19,38.743,6.307,25.282,7.265 M65.404,65.732
	c-0.148,1.327-0.227,2.577-0.491,3.832c-0.885,0.155-1.755,0.069-2.616,0.109c-0.838,0.042-1.679,0.02-2.517,0.023
	c-0.871,0.004-1.743-0.01-2.614,0.011c-0.871,0.019-1.742,0.086-2.613,0.096c-0.836,0.012-1.679,0.008-2.515-0.042
	c-0.858-0.055-1.734,0.135-2.598-0.114c-0.173-0.868-0.16-1.746-0.41-2.606c-0.417-0.063-0.797,0.013-1.178,0.037
	c-0.579,0.043-1.163,0.139-1.737,0.102c-0.294-0.021-0.568-0.204-0.836,0.058c-0.019,0.021-0.067,0.027-0.092,0.019
	c-0.578-0.219-1.114,0.133-1.68,0.12c-0.579-0.012-1.159,0.067-1.74,0.112c-0.546,0.042-1.093,0.09-1.641,0.127
	c-0.579,0.038-1.16,0.062-1.74,0.101c-0.322,0.02-0.626-0.06-0.937-0.105c-0.294-0.043-0.613,0.161-0.926,0.185
	c-1.06,0.081-2.125,0.108-3.185,0.197c-0.674,0.059-1.339,0.201-2.012,0.284c-0.415,0.05-0.834,0.068-1.253,0.08
	c-0.708,0.015-1.426-0.058-2.124,0.03c-2.31,0.295-4.637,0.324-6.956,0.465c-0.225,0.014-0.458-0.001-0.674,0.052
	c-0.309,0.072-0.61,0.189-0.908,0.304c-0.147,0.056-0.276,0.177-0.427,0.212c-0.788,0.179-1.05,0.179-1.105-0.761
	c-0.093-1.611-0.255-3.216-0.385-4.824c-0.026-0.321-0.038-0.644-0.048-0.965c-0.012-0.448,0.028-0.896-0.189-1.323
	c-0.095-0.188-0.069-0.442-0.073-0.664c-0.008-0.518-0.001-1.033-0.001-1.554c0.001-0.158,0.029-0.329-0.014-0.479
	c-0.297-1.066-0.276-2.163-0.349-3.252c-0.071-1.061-0.076-2.128-0.117-3.194c-0.065-1.708-0.121-3.419-0.207-5.127
	c-0.032-0.61-0.16-1.216-0.209-1.825c-0.065-0.836-0.09-1.676-0.148-2.511c-0.029-0.417-0.095-0.831-0.148-1.246
	c-0.007-0.063-0.04-0.125-0.037-0.188c0.081-1.875-0.451-3.694-0.443-5.574c0.004-1.868-0.186-3.738-0.299-5.606
	c-0.115-1.899-0.242-3.803-0.363-5.701c-0.01-0.163-0.034-0.326-0.012-0.485c0.188-1.46-0.067-2.886-0.305-4.319
	c-0.047-0.285-0.083-0.573-0.09-0.863c-0.029-1.192-0.035-2.386-0.07-3.576c-0.011-0.419-0.101-0.831-0.118-1.249
	c-0.079-1.836-0.146-3.675-0.218-5.511c-0.008-0.193,0.016-0.398-0.041-0.579c-0.24-0.757-0.055-1.53-0.124-2.294
	c-0.013-0.157,0.017-0.326,0.057-0.479c0.082-0.324,0.389-0.569,0.718-0.505c0.561,0.117,1.087-0.023,1.628-0.104
	c0.508-0.079,1.024-0.115,1.539-0.142c0.612-0.035,1.229-0.004,1.836-0.073c0.539-0.06,1.066-0.222,1.602-0.324
	c0.347-0.067,0.699-0.124,1.053-0.144c0.933-0.052,1.866-0.096,2.802-0.104c0.375-0.005,0.749,0.122,1.128,0.146
	c0.38,0.027,0.726-0.185,1.139-0.128c0.732,0.107,1.473,0.041,2.204-0.092c0.126-0.024,0.261-0.057,0.382-0.034
	c0.716,0.143,1.413-0.039,2.118-0.093c1.417-0.104,2.834-0.177,4.252-0.262c0.87-0.052,1.741-0.073,2.607-0.159
	c1.091-0.108,2.179-0.128,3.274-0.108c0.705,0.014,1.414-0.1,2.118-0.178c0.188-0.02,0.387-0.083,0.548-0.178
	c0.816-0.484,1.697-0.517,2.609-0.448c0.312,0.025,0.635-0.045,0.948-0.102c0.319-0.055,0.62-0.129,0.923,0.092
	c0.311,0.228,0.686,0.135,1.036,0.1c0.834-0.08,1.667-0.201,2.504-0.258c0.707-0.046,1.418-0.021,2.127-0.023
	c0.191,0.001,0.389,0.042,0.578,0.016c0.799-0.096,1.593-0.219,2.391-0.318c0.352-0.043,0.708-0.052,1.063-0.068
	c1.063-0.05,2.121-0.102,3.176-0.295c0.787-0.144,1.603-0.134,2.408-0.166c2.031-0.084,4.064-0.135,6.096-0.234
	c2.255-0.107,4.508-0.247,6.762-0.378c0.643-0.038,1.283-0.061,1.844-0.478c0.191-0.143,0.483-0.165,0.735-0.214
	c0.291-0.059,0.508,0.1,0.565,0.385c0.02,0.094,0.026,0.193,0.033,0.287c0.086,1.192,0.168,2.384,0.258,3.573
	c0.031,0.386,0.095,0.768,0.127,1.152c0.039,0.416,0.084,0.836,0.084,1.252c0.006,0.481-0.094,0.959,0.215,1.404
	c0.093,0.135,0.05,0.375,0.049,0.566c-0.002,0.484-0.023,0.969-0.025,1.453c0,0.351-0.037,0.708,0.154,1.04
	c0.061,0.102,0.063,0.246,0.068,0.374c0.088,1.838,0.181,3.674,0.252,5.512c0.063,1.615,0.09,3.228,0.166,4.841
	c0.033,0.674,0.176,1.343,0.221,2.018c0.052,0.771,0.077,1.547,0.063,2.316c-0.004,0.427,0.002,0.834,0.155,1.234
	c0.14,0.367,0.208,0.73,0.14,1.135c-0.053,0.308-0.016,0.651,0.062,0.957c0.226,0.885,0.282,1.784,0.325,2.687
	c0.07,1.452,0.148,2.9,0.211,4.354c0.021,0.483-0.008,0.968,0.02,1.452c0.033,0.606,0.129,1.216,0.15,1.824
	c0.021,0.712-0.006,1.42-0.018,2.13c-0.006,0.413-0.119,0.833,0.191,1.208c0.09,0.107,0.084,0.306,0.087,0.466
	c0.021,0.833,0.113,1.653,0.003,2.503c-0.123,0.918,0.008,1.867,0.035,2.803c0.003,0.096,0.021,0.217,0.082,0.271
	c0.385,0.347,0.346,0.815,0.368,1.261c0.071,1.352,0.178,2.703,0.041,4.057c-0.015,0.158,0.01,0.322,0.024,0.481
	c0.053,0.602,0.221,1.218,0.143,1.802c-0.229,1.681,0.127,3.343,0.064,5.014c-0.018,0.443,0.131,0.892,0.144,1.341
	c0.011,0.443-0.031,0.893-0.092,1.333c-0.03,0.215-0.245,0.317-0.445,0.28c-0.38-0.07-0.756-0.169-1.123-0.288
	c-0.662-0.214-1.312-0.26-1.994-0.06c-0.524,0.154-1.071,0.24-1.612,0.32c-0.508,0.074-1.023,0.1-1.533,0.141
	c-0.516,0.04-1.031,0.076-1.547,0.115c-1.607,0.127-3.215,0.252-4.823,0.378c-1.007-0.19-1.985,0.094-2.978,0.167
	c-0.74,0.053-1.483,0.072-2.225,0.111C65.938,65.672,65.717,65.703,65.404,65.732"/>
<path d="M0.462,85.4c0.022-0.201,0.171-0.242,0.336-0.277c1.763-0.389,3.522-0.803,5.294-1.159c2.465-0.498,4.936-0.981,7.414-1.414
	c2.383-0.419,4.777-0.782,7.171-1.135c2.396-0.352,4.797-0.661,7.196-0.979c0.991-0.133,1.986-0.253,2.982-0.345
	c3.022-0.282,6.046-0.541,9.068-0.818c4.053-0.373,8.12-0.532,12.184-0.702c4.518-0.187,9.039-0.285,13.561-0.225
	c3.451,0.048,6.906,0.152,10.357,0.294c2.934,0.118,5.867,0.271,8.795,0.499c3.119,0.244,6.234,0.567,9.345,0.908
	c2.404,0.262,4.8,0.601,7.198,0.918c0.361,0.046,0.715,0.144,1.059,0.286c-0.965-0.01-1.933-0.012-2.9-0.03
	c-2.71-0.056-5.422-0.118-8.133-0.179c-1.162-0.025-2.324-0.056-3.486-0.078c-2.744-0.048-5.488-0.089-8.23-0.13
	c-3.101-0.05-6.199-0.098-9.299-0.132c-1.742-0.02-3.488-0.021-5.23-0.007c-6.395,0.053-12.788,0.167-19.171,0.557
	c-4.061,0.248-8.12,0.54-12.174,0.868c-3.67,0.295-7.332,0.657-10.996,1.01c-3.086,0.298-6.168,0.619-9.252,0.943
	c-3.5,0.361-6.997,0.738-10.498,1.102c-0.866,0.089-1.738,0.148-2.606,0.218L0.462,85.4z"/>
<path d="M71.74,100.043l-0.008,0.057l0.076-0.023L71.74,100.043z M71.502,100.662c0.055,0.02,0.107,0.045,0.162,0.055
	c0.014,0.005,0.053-0.045,0.053-0.069c-0.002-0.021-0.047-0.063-0.06-0.059C71.603,100.602,71.553,100.637,71.502,100.662
	 M70.242,101.142c0.023-0.016,0.045-0.029,0.067-0.047c-0.021-0.016-0.054-0.055-0.06-0.049c-0.031,0.018-0.057,0.048-0.084,0.077
	C70.19,101.129,70.217,101.136,70.242,101.142 M72.279,102.775l-0.068-0.032l-0.008,0.055L72.279,102.775z M71.492,102.597
	c-0.162-0.04-0.223-0.077-0.275-0.063c-0.086,0.017-0.164,0.063-0.246,0.095c0.099,0.036,0.195,0.085,0.298,0.098
	C71.314,102.733,71.371,102.671,71.492,102.597 M72.383,101.425c-0.188-0.207-0.375-0.205-0.563-0.004
	C72.006,101.613,72.19,101.641,72.383,101.425 M68.557,101.606c0.088-0.084,0.173-0.157,0.244-0.243
	c0.009-0.011-0.051-0.077-0.078-0.117c-0.092,0.06-0.184,0.117-0.268,0.188C68.448,101.435,68.504,101.517,68.557,101.606
	 M69.323,99.57c0.011,0.028,0.021,0.054,0.031,0.082c0.092-0.027,0.185-0.052,0.272-0.086c0.016-0.01,0.028-0.074,0.021-0.08
	c-0.031-0.022-0.081-0.048-0.108-0.036C69.463,99.478,69.396,99.527,69.323,99.57 M69.4,100.147c-0.2-0.018-0.299-0.048-0.384-0.023
	c-0.069,0.016-0.12,0.099-0.179,0.153c0.076,0.043,0.166,0.127,0.227,0.111C69.161,100.365,69.24,100.266,69.4,100.147
	 M69.565,100.555c0.226-0.197,0.667-0.038,0.821-0.514C69.986,100.097,69.725,100.238,69.565,100.555 M69.922,102.102
	c0.256-0.112,0.451-0.198,0.697-0.305c-0.938-0.415-1.609,0-1.636,0.949c-0.008,0.252-0.002,0.512,0.058,0.756
	c0.201,0.862,0.146,1.729,0.062,2.592c-0.04,0.426-0.168,0.546-0.618,0.588c-0.352,0.031-0.71,0.043-1.063,0.032
	c-0.457-0.02-0.793-0.315-0.846-0.774c-0.048-0.413-0.054-0.834-0.05-1.253c0.007-0.773-0.008-1.553,0.063-2.324
	c0.166-1.77-0.055-3.538,0.021-5.311c0.021-0.513-0.082-1.03-0.1-1.545c-0.02-0.551,0.193-0.749,0.744-0.766
	c0.578-0.018,1.158-0.045,1.666-0.065c0.478,0.313,0.725,0.683,0.865,1.121c0.217,0.675,0.422,1.352,0.635,2.043
	c-0.09,0.113-0.185,0.231-0.272,0.34c0.205,0.211,0.425,0.399,0.601,0.622c0.262,0.336,0.565,0.365,0.987,0.223
	c-0.069-0.2-0.153-0.361-0.174-0.531c-0.019-0.156,0.052-0.321,0.045-0.48c-0.026-0.58-0.073-1.159-0.099-1.739
	c-0.016-0.352-0.025-0.71,0-1.062c0.021-0.301,0.201-0.475,0.504-0.479c0.481-0.009,0.968-0.016,1.447,0.023
	c0.418,0.034,0.662,0.362,0.527,0.744c-0.266,0.761-0.184,1.526-0.158,2.302c0.035,1.032,0.02,2.064,0.029,3.097
	c0.02,1.484,0.045,2.97,0.057,4.453c0.002,0.32-0.02,0.646-0.074,0.96c-0.034,0.193-0.181,0.344-0.406,0.351
	c-0.516,0.012-1.031,0.041-1.544,0.021c-0.537-0.02-0.775-0.218-0.91-0.708C70.629,104.707,70.284,103.429,69.922,102.102"/>
<path d="M23.988,124.85c0.023,0.007,0.048,0.02,0.071,0.019c0.007-0.001,0.014-0.035,0.021-0.053
	c-0.024-0.006-0.048-0.017-0.071-0.015C24,124.801,23.996,124.834,23.988,124.85 M24.952,120.72c0.266,0.021,0.348,0.026,0.43,0.031
	c-0.001-0.044-0.005-0.087-0.007-0.131C25.293,120.638,25.212,120.66,24.952,120.72 M25.745,118.796
	c-0.061-0.245-0.106-0.597-0.235-0.92c-0.241-0.602-0.868-0.779-1.427-0.43c-0.202,0.124-0.313,0.297-0.263,0.562
	c0.078,0.408,0.111,0.821,0.19,1.23c0.049,0.244,0.129,0.491,0.234,0.717c0.048,0.099,0.191,0.186,0.303,0.211
	c0.414,0.076,1.083-0.377,1.169-0.788C25.747,119.224,25.732,119.06,25.745,118.796 M27.59,120.884
	c0.078,0.146,0.116,0.28,0.2,0.366c0.755,0.799,0.943,1.801,1.02,2.838c0.033,0.453,0.088,0.896,0.266,1.321
	c0.074,0.177,0.132,0.363,0.171,0.552c0.096,0.474-0.107,0.712-0.609,0.752c-0.352,0.026-0.704,0.058-1.054,0.099
	c-0.536,0.059-0.809-0.058-1.002-0.543c-0.141-0.352-0.225-0.735-0.286-1.111c-0.069-0.414-0.076-0.837-0.12-1.253
	c-0.024-0.223-0.06-0.448-0.108-0.669c-0.083-0.396-0.299-0.7-0.643-0.924c-0.344-0.228-0.671-0.12-1.065,0.037
	c0.145,1.056,0.296,2.118,0.436,3.186c0.043,0.316,0.069,0.642,0.08,0.964c0.017,0.456-0.161,0.678-0.585,0.723
	c-0.51,0.054-1.022,0.091-1.535,0.121c-0.265,0.016-0.517-0.139-0.585-0.413c-0.127-0.492-0.261-0.994-0.306-1.502
	c-0.151-1.67-0.285-3.339-0.374-5.016c-0.026-0.498-0.319-0.992-0.078-1.503c-0.52-0.771-0.356-1.679-0.487-2.525
	c-0.082-0.526,0.05-0.707,0.554-0.852c0.336-0.101,0.693-0.144,1.043-0.179c0.672-0.066,1.345-0.123,2.02-0.164
	c0.577-0.033,1.157-0.071,1.735-0.05c0.545,0.021,1.019,0.275,1.266,0.767c0.508,1.013,0.917,2.061,0.767,3.238
	C28.224,119.841,28.228,119.843,27.59,120.884"/>
<path d="M14.788,121.68l-0.071,0.032l0.075,0.023L14.788,121.68z M15.103,119.959c-0.022-0.014-0.042-0.037-0.065-0.04
	c-0.019,0.001-0.041,0.023-0.061,0.037c0.019,0.015,0.04,0.038,0.059,0.04C15.059,119.996,15.081,119.972,15.103,119.959
	 M15.725,120.303c0.332,0.369,0.332,0.369,0.291,0.799c0.249-0.075,0.495-0.13,0.721-0.232c0.562-0.261,0.838-0.934,0.673-1.531
	c-0.16-0.585-0.528-1.001-1.015-1.34c-0.39,0.1-0.537,0.414-0.681,0.745c-0.14,0.318-0.121,0.592,0.04,0.913
	C15.837,119.822,15.741,120.076,15.725,120.303 M17.218,126.191c0.596-0.303,0.901-0.741,0.974-1.302
	c0.08-0.607,0.064-1.205-0.458-1.68c-0.443-0.4-0.564-0.439-1.164-0.105c-0.049,0.028-0.079,0.089-0.116,0.13
	c-0.193,0.779,0.122,1.562-0.051,2.338C16.657,125.763,16.91,125.958,17.218,126.191 M19.241,121.453
	c0.716,0.274,0.978,0.819,1.176,1.409c0.32,0.958,0.513,1.931,0.374,2.945c-0.131,0.981-0.718,1.636-1.703,1.84
	c-0.503,0.104-1.017,0.163-1.525,0.247c-0.825,0.133-1.654,0.248-2.474,0.414c-0.309,0.063-0.565,0.061-0.816-0.146
	c-0.183-1.299-0.356-2.604-0.548-3.908c-0.333-2.264-0.673-4.522-1.015-6.783c-0.094-0.622,0.117-0.962,0.705-1.025
	c1.088-0.117,2.178-0.235,3.272-0.303c0.477-0.028,0.97,0.021,1.439,0.113c0.753,0.154,1.262,0.641,1.484,1.376
	c0.129,0.428,0.203,0.878,0.263,1.326c0.088,0.686-0.002,1.35-0.37,1.956C19.421,121.047,19.363,121.2,19.241,121.453"/>
<path d="M44.091,120.372c-0.014-0.018-0.024-0.045-0.041-0.05c-0.022-0.008-0.049,0.007-0.074,0.01
	c0.018,0.025,0.032,0.057,0.055,0.077C44.036,120.413,44.068,120.386,44.091,120.372 M44.889,119.375
	c-0.018-0.022-0.04-0.067-0.054-0.067c-0.053,0.012-0.103,0.034-0.155,0.052c0.019,0.02,0.042,0.062,0.059,0.061
	C44.789,119.414,44.837,119.39,44.889,119.375 M42.985,118.457c0.047,0.025,0.091,0.059,0.14,0.075
	c0.014,0.005,0.059-0.037,0.059-0.062c0.002-0.02-0.035-0.068-0.049-0.063C43.084,118.414,43.037,118.438,42.985,118.457
	 M46.458,121.835c-0.006-0.018-0.013-0.054-0.02-0.054c-0.023,0.001-0.047,0.013-0.073,0.019c0.007,0.018,0.014,0.049,0.023,0.051
	C46.412,121.854,46.436,121.841,46.458,121.835 M43.813,119.388c-0.058-0.013-0.114-0.029-0.172-0.037
	c-0.01,0-0.026,0.041-0.039,0.062c0.057,0.011,0.114,0.03,0.17,0.036C43.785,119.448,43.8,119.41,43.813,119.388 M44.652,118.351
	c0.063,0.039,0.101,0.063,0.14,0.092c0.031-0.048,0.066-0.092,0.089-0.144c0.008-0.021-0.012-0.054-0.018-0.08
	C44.799,118.258,44.733,118.3,44.652,118.351 M45.222,118.941c0.021,0.02,0.043,0.059,0.061,0.056
	c0.116-0.01,0.231-0.033,0.347-0.048c-0.02-0.078-0.038-0.156-0.057-0.234c-0.108,0.047-0.219,0.088-0.324,0.142
	C45.229,118.866,45.23,118.915,45.222,118.941 M46.26,117.599c-0.25-0.106-0.38-0.162-0.572-0.242
	c0.081-0.414,0.195-0.861-0.046-1.278c0.145-0.583-0.011-1.143-0.121-1.709c-0.03-0.153,0.002-0.324,0.036-0.479
	c0.06-0.27,0.206-0.482,0.515-0.491c0.546-0.02,1.094-0.032,1.641-0.025c0.248,0.001,0.422,0.174,0.461,0.414
	c0.032,0.192,0.04,0.385,0.045,0.577c0.045,1.745,0.057,3.486,0.138,5.224c0.067,1.418,0.206,2.833,0.328,4.247
	c0.035,0.391,0.065,0.772-0.1,1.2c-0.571,0.226-1.224,0.18-1.846,0.292c-0.229,0.04-0.43-0.138-0.503-0.378
	c-0.063-0.215-0.122-0.438-0.133-0.663c-0.041-0.739-0.058-1.48-0.086-2.222c-0.01-0.255-0.004-0.517-0.038-0.771
	c-0.065-0.479-0.348-0.745-0.819-0.806c-0.37-0.047-0.723,0.181-0.891,0.599c-0.082,0.207-0.133,0.425-0.186,0.594
	c0.091,0.3,0.189,0.564,0.244,0.836c0.052,0.25,0.058,0.51,0.078,0.767c0.035,0.412,0.074,0.827,0.093,1.243
	c0.008,0.188-0.007,0.387-0.047,0.572c-0.041,0.201-0.175,0.359-0.392,0.375c-0.545,0.039-1.091,0.066-1.639,0.084
	c-0.218,0.01-0.36-0.14-0.444-0.317c-0.067-0.142-0.114-0.303-0.128-0.46c-0.032-0.354-0.047-0.709-0.053-1.063
	c-0.025-1.291-0.065-2.578-0.25-3.861c-0.092-0.638-0.086-1.285-0.13-1.93c-0.078-1.089-0.042-2.177-0.289-3.257
	c-0.145-0.633,0.065-0.96,0.793-1.059c0.414-0.06,0.838-0.054,1.257-0.048c0.35,0.009,0.588,0.189,0.599,0.512
	c0.021,0.665,0.293,1.326,0.058,2c0.11,0.459,0.159,0.943,0.347,1.366c0.147,0.328,0.508,0.479,0.907,0.396
	C45.43,117.765,45.774,117.698,46.26,117.599"/>
<path d="M23.913,97.21c0.387-0.089,0.692-0.188,1.005-0.224c0.383-0.048,0.77-0.056,1.157-0.061c0.313-0.003,0.478,0.14,0.524,0.451
	c0.052,0.351,0.086,0.706,0.119,1.058c0.055,0.575,0.105,1.15,0.158,1.728c0.142,1.54,0.286,3.08,0.427,4.622
	c0.11,1.18,0.292,1.369,1.513,1.575c0.396-0.339,0.329-0.822,0.337-1.249c0.01-0.499-0.26-0.993-0.021-1.504
	c0.013-0.022,0.007-0.064-0.004-0.091c-0.55-1.349-0.348-2.798-0.549-4.189c-0.097-0.668-0.123-1.345-0.174-2.019
	c-0.008-0.125,0.02-0.251,0.034-0.389c0.799-0.54,1.668-0.405,2.542-0.384c0.21,0.339,0.248,0.688,0.277,1.038
	c0.201,2.443,0.409,4.886,0.587,7.332c0.037,0.509-0.012,1.031-0.088,1.537c-0.074,0.489-0.343,0.912-0.722,1.229
	c-0.471,0.396-0.988,0.715-1.609,0.851c-0.8,0.175-1.599,0.175-2.406,0.092c-0.99-0.101-1.566-0.697-1.905-1.566
	c-0.128-0.329-0.206-0.684-0.252-1.034c-0.218-1.631-0.437-3.262-0.615-4.897c-0.107-0.993-0.171-1.981-0.439-2.953
	C23.738,97.912,23.864,97.605,23.913,97.21"/>
<path d="M81.075,122.615c0.571-0.962,0.571-0.962,0.579-1.45c0.016-1.024,0.028-2.046,0.051-3.065
	c0.016-0.603,0.045-1.203,0.08-1.803c0.025-0.442-0.201-0.73-0.553-0.939c-0.225-0.135-0.545-0.079-0.686,0.156
	c-0.146,0.241-0.265,0.516-0.324,0.789c-0.059,0.277-0.038,0.571-0.039,0.857c-0.004,0.709,0.01,1.415-0.004,2.121
	c-0.014,0.671-0.113,1.345-0.061,2.007C80.164,121.854,80.297,122.455,81.075,122.615 M77.327,119.993
	c0.081-1.353,0.187-2.702,0.233-4.056c0.033-0.936,0.583-1.617,1.05-2.342c0.082-0.127,0.237-0.223,0.38-0.289
	c1.33-0.638,2.661-0.657,4.01-0.03c0.688,0.321,0.918,0.951,1.157,1.579c0.08,0.208,0.126,0.439,0.134,0.663
	c0.041,1.159,0.098,2.317,0.086,3.479c-0.008,0.929-0.074,1.864-0.166,2.791c-0.084,0.85-0.433,1.616-0.97,2.279
	c-0.313,0.386-0.751,0.621-1.241,0.695c-0.803,0.118-1.605,0.127-2.399-0.1c-0.72-0.207-1.267-0.621-1.614-1.287
	c-0.333-0.638-0.563-1.301-0.578-2.026c-0.01-0.453-0.033-0.905-0.052-1.354C77.348,119.994,77.338,119.993,77.327,119.993"/>
<path d="M35.415,122.227c-0.125-0.005-0.231-0.021-0.335-0.007c-0.022,0.001-0.035,0.092-0.051,0.142
	c0.102,0.029,0.201,0.062,0.304,0.076C35.345,122.439,35.373,122.337,35.415,122.227 M38.354,122.126
	c-0.61-0.16-0.846-0.678-1.142-1.116c-0.269-0.397-0.219-0.862-0.117-1.3c0.029-0.125,0.214-0.226,0.345-0.31
	c0.075-0.048,0.188-0.044,0.283-0.047c0.801-0.035,1.602-0.066,2.396-0.098c0.31,0.318,0.318,0.702,0.338,1.089
	c0.052,1.031,0.105,2.062,0.178,3.092c0.024,0.352,0.107,0.702,0.156,1.053c0.023,0.16,0.05,0.324,0.034,0.48
	c-0.041,0.427-0.39,0.709-0.805,0.635c-0.285-0.051-0.56-0.146-0.84-0.227c-0.332-0.098-0.651-0.097-0.885,0.191
	c-0.253,0.313-0.593,0.363-0.952,0.395c-0.193,0.014-0.386,0.02-0.58,0.034c-1.185,0.102-1.963-0.448-2.454-1.497
	c-0.404-0.864-0.545-1.787-0.667-2.716c-0.131-0.989-0.244-1.987-0.303-2.984c-0.041-0.699-0.021-1.413,0.044-2.111
	c0.115-1.205,0.778-2.013,1.909-2.451c1.123-0.438,2.218-0.259,3.31,0.105c0.091,0.029,0.17,0.092,0.251,0.144
	c0.671,0.432,1.373,1.889,1.292,2.682c-0.028,0.282-0.193,0.487-0.491,0.51c-0.639,0.046-1.279,0.056-1.893,0.08
	c-0.606-1.496-0.782-1.371-1.365-1.412c-0.391,0.552-0.483,1.142-0.395,1.824c0.154,1.179,0.209,2.365,0.286,3.554
	c0.025,0.381-0.005,0.765-0.011,1.189c0.317,0.399,0.714,0.771,1.284,0.886c0.086,0.014,0.207,0.027,0.231-0.191
	c0.05-0.434,0.192-0.861,0.316-1.284C38.126,122.253,38.243,122.214,38.354,122.126"/>
<path d="M82.471,102.763l0.006-0.053l-0.055,0.023L82.471,102.763z M85.068,102.878l0.002-0.063l-0.078,0.03L85.068,102.878z
	 M83.479,97.487c-0.012-0.02-0.022-0.058-0.035-0.057c-0.057-0.003-0.112,0.003-0.168,0.005c0.015,0.032,0.031,0.093,0.043,0.092
	C83.373,97.522,83.424,97.501,83.479,97.487 M82.963,103.106c0.342,0.016,0.626,0.05,0.911,0.038
	c0.213-0.005,0.378-0.155,0.373-0.364c-0.032-1.145-0.019-2.293-0.246-3.39c-0.319-0.174-0.485-0.042-0.565,0.199
	c-0.223,0.662-0.494,1.317-0.613,2.001C82.745,102.041,82.9,102.535,82.963,103.106 M84.275,105.248
	c-0.385-0.023-0.704-0.082-1.016-0.054c-0.406,0.035-0.74,0.219-0.849,0.665c-0.21,0.852-0.435,1.044-1.479,0.951
	c-0.225-0.018-0.453-0.011-0.677-0.008c-0.325,0.003-0.55-0.148-0.713-0.45c0.209-0.887,0.437-1.79,0.634-2.699
	c0.551-2.515,1.104-5.028,1.624-7.55c0.199-0.962,0.361-1.393,1.652-1.148c0.216,0.041,0.446,0.024,0.671,0.021
	c0.16-0.001,0.318-0.033,0.48-0.034c0.74,0.008,0.973,0.21,1.086,0.939c0.006,0.033,0.009,0.064,0.009,0.096
	c0.009,1.07,0.347,2.087,0.485,3.133c0.143,1.054,0.221,2.121,0.438,3.158c0.191,0.911,0.369,1.826,0.527,2.74
	c0.082,0.475,0.134,0.957,0.164,1.438c0.021,0.313-0.144,0.479-0.453,0.514c-0.191,0.023-0.397,0.056-0.575,0.009
	c-0.349-0.089-0.673-0.132-1.035-0.028c-0.274,0.081-0.528-0.132-0.64-0.47C84.491,106.108,84.407,105.73,84.275,105.248"/>
<path d="M18.328,103.275c-0.022,0.013-0.043,0.026-0.065,0.042c0.013,0.015,0.037,0.05,0.039,0.048
	c0.032-0.021,0.063-0.045,0.094-0.067C18.373,103.288,18.351,103.281,18.328,103.275 M20.322,99.208l0.003-0.046l-0.064,0.023
	L20.322,99.208z M20.347,104.334c0.049-0.028,0.097-0.059,0.146-0.09c-0.046-0.029-0.093-0.082-0.14-0.08
	c-0.05,0-0.1,0.052-0.149,0.076C20.252,104.274,20.299,104.306,20.347,104.334 M20.386,102.406c0.043,0.037,0.08,0.094,0.13,0.107
	c0.036,0.011,0.088-0.032,0.132-0.053c-0.04-0.024-0.079-0.067-0.119-0.067c-0.055-0.003-0.111,0.024-0.165,0.038
	c0.192-0.481,0.294-0.98,0.221-1.504c-0.138-0.998-0.433-1.171-1.203-1.185c-0.062,0.001-0.122,0.025-0.108,0.022
	c-0.173,0.176-0.357,0.283-0.414,0.438c-0.058,0.158-0.004,0.363,0.022,0.546c0.07,0.466,0.111,0.945,0.24,1.397
	c0.126,0.441,0.49,0.53,0.98,0.325C20.19,102.433,20.289,102.427,20.386,102.406 M17.003,104.744
	c-0.206-0.24-0.376-0.354-0.419-0.505c-0.089-0.306-0.14-0.631-0.152-0.95c-0.047-1.262-0.297-2.495-0.502-3.732
	c-0.048-0.285-0.104-0.571-0.125-0.86c-0.028-0.372,0.149-0.612,0.499-0.724c0.092-0.029,0.188-0.052,0.282-0.056
	c1.32-0.048,2.613-0.373,3.945-0.325c1.424,0.058,2.101,0.747,2.398,1.69c0.444,1.408,0.452,1.408,0.406,2.739
	c-0.047,1.317-0.973,2.4-2.265,2.633c-0.254,0.05-0.518,0.048-0.763,0.118c-0.636,0.175-0.873,0.56-0.762,1.227
	c0.128,0.765,0.282,1.523,0.422,2.283c0.04,0.222,0.095,0.444,0.101,0.666c0.012,0.354-0.226,0.604-0.572,0.653
	c-0.477,0.063-0.956,0.127-1.433,0.191c-0.589,0.081-0.846-0.095-0.922-0.678c-0.159-1.216-0.295-2.432-0.45-3.648
	C16.652,105.159,16.687,104.89,17.003,104.744"/>
<path d="M64.139,115.039c0.078,0.096,0.217,0.189,0.226,0.291c0.069,0.875,0.882,1.231,1.282,1.871
	c0.033,0.053,0.086,0.108,0.141,0.121c0.65,0.189,1.043,0.744,1.576,1.092c0.563,0.37,0.855,0.95,1.236,1.462
	c0.02,0.024,0.035,0.055,0.045,0.087c0.338,1.244,0.545,2.502-0.398,3.572c-0.553,0.627-1.257,1.104-2.146,1.178
	c-0.881,0.079-1.733-0.072-2.564-0.363c-0.342-0.121-0.617-0.336-0.857-0.608c-0.41-0.474-0.68-1.018-0.865-1.608
	c-0.123-0.392-0.078-0.765,0.137-1.158c0.535-0.172,1.111-0.162,1.688-0.118c0.312,0.026,0.549,0.172,0.618,0.512
	c0.013,0.063,0.034,0.126,0.06,0.185c0.35,0.828,0.695,1.017,1.621,0.896c0.461-0.275,0.392-0.719,0.391-1.127
	c-0.002-0.359-0.264-0.577-0.514-0.782c-0.198-0.162-0.422-0.295-0.631-0.445c-0.158-0.112-0.389-0.202-0.447-0.358
	c-0.188-0.494-0.637-0.665-1.004-0.959c-0.475-0.376-0.916-0.821-1.283-1.305c-0.727-0.957-0.746-2.048-0.354-3.132
	c0.269-0.744,0.891-1.207,1.637-1.39c1.01-0.249,2.045-0.273,3.065-0.006c0.841,0.225,1.425,0.725,1.683,1.576
	c0.084,0.279,0.201,0.545,0.262,0.829c0.092,0.42-0.155,0.767-0.585,0.844c-0.589,0.107-1.147-0.029-1.74-0.24
	c-0.053-0.241-0.106-0.485-0.16-0.738c-0.196-0.28-1.034-0.555-1.282-0.332c-0.277,0.246-0.52,0.159-0.797,0.106
	c-0.074-0.188-0.188-0.207-0.392-0.036C63.932,114.986,64.034,115.01,64.139,115.039"/>
<path d="M73.575,119.462c-0.014-0.024-0.028-0.045-0.044-0.069c-0.016,0.024-0.042,0.046-0.042,0.067
	c-0.001,0.023,0.026,0.047,0.04,0.068C73.545,119.507,73.561,119.483,73.575,119.462 M73.08,114.853
	c-0.21,0.209-0.365,0.361-0.57,0.559c0.021,0.539,0.022,1.111,0.071,1.684c0.048,0.545,0.373,0.738,0.923,0.599
	c0.123-0.032,0.246-0.059,0.35-0.085c0.052-0.203,0.084-0.393,0.152-0.57c0.187-0.468,0.133-0.943,0.068-1.421
	c-0.041-0.311-0.193-0.539-0.51-0.628C73.411,114.948,73.258,114.904,73.08,114.853 M69.881,122.225
	c0.017-0.647,0.032-1.29,0.051-1.936c0.007-0.255-0.022-0.52,0.233-0.699c0.044-0.03,0.046-0.22,0.019-0.23
	c-0.31-0.14-0.262-0.42-0.262-0.668c0-0.449,0.035-0.901,0.026-1.353c-0.019-1.19-0.053-2.381-0.08-3.569
	c-0.019-0.879,0.125-1.05,0.976-1.022c1.224,0.032,2.451-0.068,3.67,0.131c1.246,0.205,1.851,0.935,2.031,1.883
	c0.072,0.38,0.187,0.757,0.198,1.139c0.039,1.236,0.022,2.466-1.014,3.386c-0.425,0.375-0.898,0.618-1.476,0.64
	c-0.289,0.011-0.582,0.018-0.867,0.072c-0.619,0.119-0.867,0.438-0.844,1.082c0.028,0.741,0.081,1.479,0.123,2.222
	c0.012,0.192,0.033,0.389,0.032,0.58c-0.001,0.604-0.203,0.778-0.819,0.764c-0.451-0.008-0.904,0.022-1.354,0.012
	c-0.403-0.01-0.594-0.194-0.617-0.593c-0.037-0.612-0.052-1.225-0.076-1.837C69.848,122.226,69.865,122.226,69.881,122.225"/>
<path d="M35.337,107.833c-0.225-1.026-0.269-1.968-0.251-2.896c0.017-0.78-0.058-1.543-0.131-2.313
	c-0.119-1.22-0.254-2.436-0.388-3.707c-0.2-0.273-0.531-0.35-0.902-0.334c-0.291,0.011-0.583,0.03-0.872,0.018
	c-0.359-0.013-0.599-0.229-0.676-0.574c-0.023-0.094-0.03-0.192-0.031-0.289c-0.015-1.286-0.066-1.44,1.33-1.524
	c1.738-0.105,3.474-0.268,5.212-0.399c0.159-0.013,0.321-0.007,0.482,0.005c0.216,0.017,0.388,0.14,0.412,0.346
	c0.059,0.511,0.102,1.024,0.107,1.537c0.004,0.281-0.201,0.44-0.517,0.472c-0.256,0.023-0.515,0.017-0.773,0.017
	c-0.548,0.006-0.877,0.482-0.921,0.948c-0.014,0.156-0.022,0.321,0.011,0.474c0.228,1.047,0.17,2.113,0.272,3.168
	c0.123,1.254,0.252,2.506,0.371,3.758c0.023,0.223,0.039,0.455,0.008,0.672c-0.063,0.423-0.264,0.61-0.701,0.667
	c-0.447,0.054-0.898,0.095-1.349,0.103C35.817,107.981,35.603,107.89,35.337,107.833"/>
<path d="M53.286,96.916l0.053,0.026l0.009-0.045L53.286,96.916z M54.436,106.864c-0.771,0.054-1.559,0.35-2.396-0.05
	c-0.039-0.163-0.116-0.345-0.121-0.527c-0.02-0.968-0.014-1.937-0.035-2.899c-0.017-0.709-0.064-1.418-0.104-2.126
	c-0.063-1.125-0.129-2.246-0.194-3.359c-0.231-0.275-0.521-0.389-0.862-0.385c-0.226,0.004-0.453-0.007-0.678,0.013
	c-0.612,0.06-0.969-0.388-0.919-0.962c0.033-0.384,0.073-0.764,0.108-1.137c0.356-0.299,0.752-0.268,1.132-0.28
	c1.161-0.038,2.321-0.06,3.481-0.1c0.613-0.023,1.223-0.079,1.836-0.104c0.252-0.01,0.506,0.02,0.769,0.031
	c0.351,0.636,0.284,1.276,0.215,1.912c-0.028,0.252-0.218,0.394-0.47,0.408c-0.256,0.021-0.514,0.003-0.772,0.015
	c-0.661,0.029-0.995,0.352-1.008,1.028c-0.01,0.576,0.017,1.156,0.049,1.733c0.104,1.836,0.209,3.67,0.333,5.502
	C54.832,106.048,54.795,106.475,54.436,106.864"/>
<path d="M87.727,115.566c-0.008-0.019-0.012-0.055-0.02-0.054c-0.027-0.003-0.052,0.013-0.076,0.019
	c0.008,0.017,0.014,0.049,0.022,0.051C87.678,115.583,87.702,115.573,87.727,115.566 M88.924,115.097l0.051,0.029l0.01-0.041
	L88.924,115.097z M85.219,113.287c0.437-0.324,0.795-0.283,1.148-0.26c1.413,0.091,2.827,0.188,4.241,0.277
	c0.225,0.012,0.45-0.018,0.675-0.013c0.285,0.004,0.568,0.024,0.775,0.035c0.332,0.271,0.341,0.568,0.332,0.856
	c-0.008,0.322-0.045,0.644-0.092,0.961c-0.062,0.4-0.246,0.553-0.662,0.542c-0.224-0.005-0.446-0.063-0.67-0.07
	c-0.508-0.017-0.861,0.265-0.97,0.761c-0.039,0.187-0.065,0.381-0.067,0.573c-0.029,2.278-0.182,4.557-0.193,6.834
	c-0.003,0.465-0.021,0.907-0.43,1.272c-0.444,0.018-0.926,0.053-1.406,0.045c-0.219-0.002-0.441-0.082-0.654-0.153
	c-0.199-0.066-0.314-0.229-0.304-0.441c0.044-0.933,0.094-1.866,0.149-2.8c0.035-0.577,0.11-1.151,0.129-1.729
	c0.037-1.221,0.059-2.441,0.074-3.663c0.008-0.586-0.134-0.75-0.685-0.838c-0.319-0.053-0.644-0.063-0.959-0.122
	c-0.384-0.071-0.577-0.268-0.567-0.663C85.094,114.214,85.172,113.741,85.219,113.287"/>
<path d="M51.793,115.609c-0.009-0.019-0.015-0.049-0.023-0.048c-0.025-0.001-0.047,0.012-0.071,0.018
	c0.008,0.019,0.017,0.052,0.022,0.052C51.745,115.629,51.768,115.619,51.793,115.609 M51.822,124.816
	c-0.029-0.155-0.08-0.311-0.083-0.464c-0.03-1.031-0.179-2.061-0.009-3.089c0.025-0.159,0.002-0.323-0.01-0.485
	c-0.099-1.479-0.196-2.958-0.301-4.435c-0.037-0.539-0.238-0.75-0.764-0.783c-0.289-0.021-0.582,0.017-0.871,0.003
	c-0.453-0.03-0.709-0.274-0.739-0.735c-0.032-0.48-0.029-0.964,0.143-1.413c0.33-0.235,0.688-0.22,1.041-0.229
	c1.161-0.035,2.323-0.061,3.483-0.102c0.516-0.017,1.029-0.074,1.543-0.1c0.252-0.01,0.508,0.009,0.775,0.018
	c0.396,0.616,0.311,1.265,0.249,1.897c-0.027,0.279-0.231,0.427-0.544,0.45c-0.258,0.015-0.518-0.01-0.773,0.01
	c-0.462,0.037-0.773,0.323-0.835,0.786c-0.03,0.221-0.026,0.449-0.015,0.674c0.122,2.285,0.24,4.568,0.377,6.855
	c0.025,0.432,0,0.83-0.316,1.217C53.414,124.942,52.628,125.251,51.822,124.816"/>
<path d="M45.961,107.142c-0.26-1.095-0.241-2.079-0.081-3.07c0.04-0.25,0.012-0.513-0.011-0.766
	c-0.115-1.286-0.237-2.57-0.363-3.854c-0.044-0.447-0.117-0.894-0.159-1.345c-0.057-0.64-0.13-1.282-0.136-1.927
	c-0.003-0.487,0.292-0.793,0.767-0.83c0.577-0.044,1.158-0.05,1.738-0.032c0.351,0.007,0.528,0.188,0.557,0.547
	c0.022,0.283-0.026,0.574-0.028,0.862c-0.003,0.416-0.037,0.839,0.022,1.248c0.136,0.965,0.147,1.922,0.067,2.894
	c-0.051,0.605,0.003,1.222,0.051,1.832c0.067,0.865,0.17,1.73,0.264,2.594c0.039,0.354,0.11,0.703,0.141,1.055
	c0.041,0.466-0.151,0.736-0.603,0.854c-0.154,0.04-0.317,0.071-0.476,0.064C47.138,107.236,46.565,107.187,45.961,107.142"/>
<path d="M62.59,106.539c-0.015-0.347,0.027-0.587-0.043-0.785c-0.147-0.419-0.11-0.823-0.031-1.239
	c0.176-0.888,0.205-1.775,0.123-2.686c-0.151-1.668-0.234-3.344-0.338-5.019c-0.024-0.386-0.045-0.773-0.011-1.156
	c0.052-0.633,0.354-0.909,0.999-0.943c0.643-0.032,1.284-0.031,1.883,0.184c0.262,0.332,0.246,0.69,0.176,1.039
	c-0.141,0.673-0.084,1.341-0.037,2.019c0.06,0.867,0.041,1.733-0.104,2.602c-0.078,0.468-0.031,0.964-0.001,1.444
	c0.082,1.251,0.191,2.503,0.28,3.759c0.046,0.606-0.203,0.902-0.823,0.939C63.987,106.736,63.322,106.644,62.59,106.539"/>
<path d="M31.8,114.595c0.249,0.319,0.269,0.637,0.238,0.964c-0.069,0.714,0.03,1.409,0.143,2.116
	c0.107,0.665,0.184,1.357,0.115,2.021c-0.096,0.923,0.078,1.797,0.215,2.689c0.153,1.02,0.308,2.042,0.44,3.064
	c0.08,0.62-0.143,0.901-0.797,0.948c-0.605,0.046-1.216,0.013-1.793,0.015c-0.409-0.987-0.413-1.941-0.287-2.904
	c0.052-0.389,0.002-0.759-0.069-1.145c-0.154-0.823-0.237-1.66-0.355-2.493c-0.144-1.022-0.302-2.041-0.442-3.063
	c-0.057-0.416-0.107-0.834-0.114-1.252c-0.006-0.615,0.238-0.888,0.833-0.971C30.534,114.501,31.145,114.419,31.8,114.595"/>
<path d="M0.445,85.393c-0.146,0.025-0.292,0.051-0.439,0.072C0.005,85.441,0.003,85.417,0,85.392
	c0.152,0.002,0.304,0.003,0.46,0.006C0.462,85.399,0.445,85.393,0.445,85.393"/>
</svg>
