<?xml version="1.0" encoding="utf-8"?>
<!-- Generator: Adobe Illustrator 12.0.0, SVG Export Plug-In . SVG Version: 6.00 Build 51448)  -->
<!DOCTYPE svg PUBLIC "-//W3C//DTD SVG 1.1//EN" "http://www.w3.org/Graphics/SVG/1.1/DTD/svg11.dtd" [
	<!ENTITY ns_svg "http://www.w3.org/2000/svg">
	<!ENTITY ns_xlink "http://www.w3.org/1999/xlink">
]>
<svg  version="1.1" id="Layer_1" xmlns="&ns_svg;" xmlns:xlink="&ns_xlink;" width="98.351" height="132.838"
	 viewBox="0 0 98.351 132.838" overflow="visible" enable-background="new 0 0 98.351 132.838" xml:space="preserve">
<path d="M40.647,62.263c-0.012-0.02-0.019-0.049-0.036-0.055c-0.02-0.009-0.049-0.002-0.074-0.002
	c0.014,0.029,0.026,0.06,0.045,0.085C40.586,62.296,40.625,62.272,40.647,62.263 M40.372,64.472c-0.019-0.051-0.04-0.101-0.06-0.15
	c-0.026,0.015-0.069,0.025-0.074,0.045c-0.012,0.047-0.005,0.096-0.004,0.144C40.279,64.497,40.326,64.484,40.372,64.472
	 M57.058,67.953c-0.025,0.001-0.06-0.007-0.07,0.003c-0.016,0.017-0.016,0.05-0.02,0.075c0.035-0.002,0.071-0.004,0.106-0.006
	C57.068,68.001,57.063,67.977,57.058,67.953 M46.917,52.296c0.006-0.028,0.014-0.055,0.022-0.083
	c-0.037,0.005-0.074,0.011-0.11,0.016c0.008,0.025,0.011,0.057,0.026,0.077C46.86,52.312,46.895,52.3,46.917,52.296 M56.55,54.438
	l0.01-0.045l-0.064,0.009L56.55,54.438z M58.317,56.977l-0.073,0.028l0.073,0.037V56.977z M44.62,56.432
	c0.022-0.012,0.055-0.021,0.062-0.04c0.01-0.021,0.001-0.055-0.002-0.083c-0.03,0.018-0.067,0.028-0.092,0.052
	C44.583,56.367,44.608,56.409,44.62,56.432 M44.188,56.752c-0.019,0.055-0.041,0.097-0.048,0.145
	c-0.001,0.02,0.03,0.046,0.047,0.071c0.032-0.044,0.075-0.083,0.091-0.129C44.283,56.823,44.221,56.785,44.188,56.752
	 M44.548,56.861c-0.018,0.059-0.042,0.109-0.047,0.16c-0.002,0.021,0.037,0.043,0.058,0.065c0.029-0.045,0.073-0.086,0.081-0.133
	C44.644,56.927,44.583,56.895,44.548,56.861 M44.336,61.321c0.019,0.007,0.038,0.015,0.058,0.024
	c-0.009-0.024-0.019-0.05-0.028-0.075C44.356,61.286,44.346,61.303,44.336,61.321 M41.135,59.422
	c-0.05,0.116-0.083,0.191-0.117,0.267c0.077,0.031,0.151,0.073,0.23,0.086c0.018,0.005,0.088-0.102,0.076-0.128
	C41.286,59.577,41.218,59.518,41.135,59.422 M58.615,63.209c-0.023-0.054-0.036-0.126-0.077-0.159
	c-0.03-0.019-0.101,0.018-0.153,0.027c0.028,0.068,0.057,0.136,0.084,0.202C58.515,63.257,58.565,63.234,58.615,63.209
	 M58.261,67.463c-0.049,0.072-0.096,0.135-0.129,0.203c-0.008,0.014,0.03,0.049,0.047,0.076c0.072-0.05,0.143-0.098,0.213-0.147
	C58.357,67.558,58.322,67.525,58.261,67.463 M43.072,66.143c-0.066,0.042-0.112,0.07-0.158,0.1c0.049,0.03,0.094,0.087,0.147,0.094
	c0.05,0.008,0.108-0.03,0.163-0.048C43.171,66.24,43.119,66.187,43.072,66.143 M43.57,67.628c-0.031-0.076-0.052-0.172-0.074-0.175
	c-0.067-0.003-0.141,0.024-0.197,0.061c-0.014,0.009,0.019,0.142,0.037,0.144C43.41,67.665,43.487,67.643,43.57,67.628
	 M32.122,54.677c-0.024-0.054-0.049-0.105-0.074-0.16c-0.038,0.045-0.1,0.085-0.107,0.135c-0.007,0.047,0.043,0.104,0.067,0.153
	C32.046,54.763,32.083,54.721,32.122,54.677 M54.873,47.831c-0.004-0.03-0.008-0.06-0.013-0.089
	c-0.042,0.021-0.086,0.045-0.129,0.066c0.032,0.031,0.065,0.066,0.097,0.1C54.843,47.88,54.858,47.854,54.873,47.831 M63.033,48.867
	c0.021-0.1,0.05-0.178,0.051-0.258c0-0.025-0.068-0.053-0.105-0.079c-0.026,0.079-0.063,0.152-0.073,0.231
	C62.901,48.787,62.97,48.818,63.033,48.867 M44.947,49.595c-0.034-0.072-0.056-0.119-0.078-0.169
	c-0.073,0.038-0.152,0.065-0.209,0.116c-0.018,0.016,0.033,0.104,0.054,0.159C44.791,49.667,44.869,49.63,44.947,49.595
	 M59.248,46.604c0.1-0.097,0.172-0.146,0.209-0.212c0.018-0.029-0.035-0.098-0.057-0.149c-0.067,0.027-0.165,0.044-0.191,0.093
	C59.181,46.39,59.226,46.477,59.248,46.604 M55.259,59.16c0.021-0.057,0.055-0.111,0.061-0.171c0.003-0.043-0.031-0.091-0.051-0.136
	c-0.026,0.047-0.08,0.09-0.077,0.131c0.005,0.057,0.052,0.109,0.083,0.162c0.038,0.037,0.076,0.08,0.123,0.104
	c0.015,0.01,0.056-0.035,0.086-0.055c-0.026-0.008-0.051-0.019-0.077-0.021C55.357,59.169,55.304,59.169,55.259,59.16
	 M72.621,57.495c0.199,0.524,0.17,1.057-0.017,1.635c0.252,0.009,0.427,0.016,0.597,0.022c0.375,0.267,0.124,0.709,0.303,1.03
	c0.176,0.313,0.35,0.627,0.557,0.998c0.15-0.309,0.281-0.58,0.429-0.887c0.379,0.138,0.485,0.554,0.786,0.754
	c0.283,0.188,0.234,0.675,0.764,0.711c0.213-0.171,0.491-0.397,0.754-0.612c0.399,0.115,0.451,0.457,0.586,0.724
	c0.137,0.276,0.256,0.56,0.365,0.8c0.229,0.103,0.502-0.003,0.538,0.325c0.013,0.106,0.11,0.278,0.188,0.293
	c0.6,0.105,0.688,0.665,0.978,1.036c-0.076,0.228-0.454,0.444-0.003,0.676c0.057,0.029,0.1,0.169,0.082,0.24
	c-0.119,0.473,0.096,0.819,0.469,1.02c0.503,0.266,0.663,0.718,0.784,1.201c0.151,0.604,0.323,1.196,0.688,1.712
	c0.072,0.098,0.115,0.218,0.193,0.31c0.363,0.428,0.426,0.644,0.364,1.105c-0.032,0.242-0.042,0.496-0.009,0.735
	c0.074,0.554,0.183,1.103,0.275,1.639c-0.144,0.242-0.346,0.154-0.5,0.088c-0.313-0.133-0.711-0.233-0.888-0.479
	c-0.222-0.311-0.532-0.109-0.735-0.286c-0.246-0.211-0.468,0.046-0.69,0.041c-0.181-0.222-0.356-0.427-0.523-0.637
	c-0.146-0.188-0.282-0.383-0.448-0.612c-0.256-0.025-0.555-0.054-0.879-0.085c-0.143-0.323-0.279-0.671-0.445-1.001
	c-0.243-0.487-0.569-0.853-1.146-1.008c-0.572-0.152-1.041-0.539-1.468-0.949c-0.336-0.324-0.649-0.672-0.989-0.989
	c-0.293-0.273-0.611-0.519-0.984-0.829c-0.094,0.261-0.16,0.441-0.244,0.679c-0.18-0.096-0.35-0.161-0.485-0.268
	c-1.054-0.823-2.114-1.633-3.14-2.491c-0.35-0.292-0.621-0.691-0.879-1.072c-0.406-0.601-0.896-1.119-1.451-1.571
	c-0.553-0.456-1.124-0.884-1.692-1.317c-0.797-0.609-1.498-1.293-2.075-2.126c-0.387-0.553-0.918-1.007-1.391-1.498
	c-0.033-0.033-0.111-0.021-0.232-0.041c-0.024,0.17-0.07,0.341-0.068,0.507c0.007,0.596-0.065,1.171-0.208,1.752
	c-0.147,0.602-0.191,1.23-0.298,1.842c-0.359,2.113-0.791,4.213-1.531,6.232c-0.333,0.905-0.704,1.796-1.243,2.596
	c-0.239,0.355-0.549,0.683-0.886,0.946c-0.473,0.372-1.111,0.313-1.526-0.122c-0.254-0.265-0.483-0.581-0.63-0.915
	c-0.209-0.479-0.404-0.987-0.479-1.499c-0.19-1.383-0.295-2.776-0.474-4.162c-0.069-0.531,0.224-1.033,0.063-1.562
	c-0.157-0.522-0.043-1.052-0.006-1.575c0.135-1.987,0.34-3.964,0.699-5.925c0.194-1.067,0.33-2.149,0.5-3.289
	c-0.177-0.153-0.382-0.337-0.595-0.512c-0.431-0.358-0.862-0.714-1.298-1.065c-0.537-0.431-1.016-0.906-1.368-1.51
	c-0.285-0.484-0.649-0.898-1.17-1.172c-0.291-0.156-0.524-0.419-0.796-0.643c-0.2,0.133-0.379,0.25-0.564,0.373
	c-0.175-0.055-0.345-0.105-0.532-0.162c-0.251,0.662-0.851,0.933-1.351,1.303c-0.174,0.335-0.1,0.683-0.089,1.016
	c0.055,1.555,0.177,3.107,0.177,4.658c0.003,1.859,0.062,3.728-0.351,5.572c-0.292,1.304-0.446,2.635-0.687,3.95
	c-0.185,1.013-0.491,1.992-0.916,2.931c-0.318,0.703-0.663,1.399-1.038,2.076c-0.179,0.319-0.435,0.605-0.69,0.875
	c-0.543,0.576-1.595,0.821-2.38-0.082c-0.456-0.523-0.748-1.141-0.976-1.788c-0.386-1.094-0.603-2.224-0.745-3.364
	c-0.185-1.452-0.277-2.908-0.22-4.373c0.031-0.776,0.038-1.554,0.041-2.331c0.005-1.462,0.103-2.916,0.381-4.337
	c-0.237-0.208-0.447-0.104-0.624-0.002c-0.317,0.182-0.568,0.488-0.982,0.496c-0.064-0.001-0.122,0.122-0.188,0.184
	c-0.156,0.145-0.295,0.315-0.472,0.42c-1.396,0.818-2.799,1.624-4.201,2.426c-0.069,0.038-0.173,0.014-0.261,0.02
	c-0.026,0.013-0.055,0.036-0.08,0.034c-0.023-0.002-0.041-0.037-0.062-0.057c0.05,0.013,0.099,0.023,0.148,0.036
	c-0.899,0.625-1.867,1.108-2.897,1.473c-0.264,0.093-0.554,0.139-0.65,0.461c-0.593,0.335-1.176,0.687-1.781,0.999
	c-0.636,0.327-1.363,0.37-2.032,0.588c-0.752,0.241-1.511,0.359-2.282,0.377c-0.632,0.01-1.189,0.184-1.741,0.446
	c-0.209,0.102-0.435,0.299-0.685,0.061c-0.255,0.105-0.511,0.21-0.798,0.326c-0.228-0.124-0.466-0.257-0.751-0.413
	c-0.12,0.185-0.214,0.377-0.355,0.521c-0.065,0.07-0.223,0.085-0.329,0.065c-0.063-0.011-0.152-0.136-0.152-0.21
	c0.003-0.401-0.014-0.814,0.262-1.149c0.376-0.454,0.714-0.956,1.151-1.341c0.863-0.761,1.751-1.497,2.685-2.167
	c2.507-1.797,5.178-3.332,7.898-4.786c0.213-0.116,0.455-0.196,0.694-0.244c0.4-0.081,0.741-0.232,1.083-0.473
	c0.853-0.599,1.746-1.137,2.624-1.697c0.053-0.032,0.114-0.06,0.157-0.104c0.584-0.589,1.377-0.806,2.1-1.14
	c0.486-0.223,0.948-0.434,1.251-0.906c0.155-0.242,0.375-0.402,0.7-0.375c0.103,0.01,0.247-0.059,0.315-0.14
	c0.418-0.497,1.016-0.699,1.612-0.988c0.627-1.88,0.76-3.87,1.159-5.856c-0.276-0.232-0.528-0.46-0.794-0.668
	c-1.347-1.055-2.698-2.103-4.047-3.156c-0.246-0.19-0.491-0.384-0.731-0.583c-0.332-0.271-0.736-0.489-0.626-1.041
	c-0.256,0.038-0.402,0.061-0.581,0.086c-0.455-0.704-1.119-1.215-1.801-1.708c-0.685-0.494-1.336-1.028-1.603-1.852
	c-0.352-0.054-0.669-0.044-0.938-0.156c-0.25-0.102-0.448-0.329-0.665-0.507c-1.568-1.277-3.132-2.559-4.705-3.828
	c-0.368-0.299-0.689-0.623-0.94-1.026c-0.214-0.343-0.477-0.656-0.678-1.006c-0.473-0.835-1.141-1.455-1.949-1.957
	c-0.527-0.328-1.029-0.699-1.536-1.061c-0.2-0.14-0.386-0.306-0.56-0.439c0.076-0.789,0.131-1.533,0.229-2.272
	c0.03-0.238,0.151-0.471,0.27-0.685c0.271-0.491,0.574-0.962,0.849-1.45c0.146-0.259,0.332-0.428,0.633-0.496
	c0.728-0.155,1.454-0.33,2.211-0.505c0.372,0.379,0.756,0.731,1.247,0.942c0.263,0.114,0.487,0.323,0.537,0.614
	c0.065,0.373,0.317,0.506,0.627,0.599c0.339,0.104,0.628,0.243,0.721,0.642c0.052,0.229,0.268,0.334,0.489,0.386
	c0.209,0.048,0.424,0.071,0.626,0.103c0.114,0.201,0.179,0.43,0.33,0.551c0.124,0.097,0.349,0.074,0.532,0.091
	c0.183,0.018,0.367,0.023,0.586,0.034c0.271,0.593,0.69,1.024,1.325,1.221c0.11,0.034,0.195,0.148,0.289,0.228
	c0.666,0.561,1.326,1.127,1.997,1.684c0.6,0.499,1.2,0.995,1.636,1.65c0.356,0.539,0.822,0.82,1.479,0.755
	c0.087-0.007,0.182,0.03,0.271,0.053c0.029,0.007,0.055,0.03,0.117,0.063c0.052,0.232,0.045,0.543,0.193,0.735
	c0.154,0.202,0.455,0.299,0.7,0.427c0.396,0.209,0.724,0.504,0.95,0.877c0.483,0.791,1.236,1.213,2.053,1.527
	c0.288,0.111,0.648,0.034,0.92,0.354c-0.027,0.111-0.082,0.252-0.089,0.399c-0.013,0.231,0.106,0.343,0.324,0.349
	c0.43,0.002,0.43,0.002,0.798,0.375c0.027-0.15,0.07-0.258,0.06-0.357c-0.118-1.17-0.475-2.244-1.252-3.156
	c-0.443-0.521-0.881-1.049-1.285-1.601c-1.423-1.931-1.69-4.096-1.267-6.396c0.077-0.425,0.115-0.859,0.172-1.29
	c0.067-0.521,0.131-1.047,0.204-1.569c0.46-3.326,0.922-6.656,1.387-9.985c0.206-1.475,0.412-2.954,0.642-4.424
	c0.047-0.3,0.164-0.608,0.323-0.863c0.303-0.484,1.022-0.441,1.326,0.049c0.19,0.311,0.195,0.647,0.164,0.993
	c-0.113,1.209-0.231,2.417-0.332,3.625C42.97,6.653,42.859,8.3,42.711,9.941c-0.138,1.517-0.309,3.032-0.464,4.548
	c-0.032,0.308-0.063,0.619-0.083,0.929c-0.079,1.179-0.155,2.359-0.228,3.541c-0.01,0.153-0.025,0.311-0.01,0.462
	c0.022,0.217,0.176,0.318,0.376,0.347c0.199,0.029,0.413-0.013,0.47-0.21c0.102-0.356,0.169-0.728,0.21-1.096
	c0.314-2.814,0.618-5.629,0.925-8.444c0.136-1.268,0.252-2.537,0.408-3.805c0.11-0.893,0.283-1.777,0.401-2.672
	c0.089-0.678,0.124-1.362,0.203-2.041c0.027-0.245,0.075-0.499,0.178-0.716c0.154-0.332,0.442-0.527,0.819-0.524
	c0.342,0.005,0.687,0.327,0.754,0.723c0.046,0.272,0.057,0.557,0.038,0.836c-0.137,1.892-0.288,3.784-0.43,5.676
	c-0.042,0.56-0.078,1.119-0.103,1.678c-0.024,0.496-0.02,0.996-0.05,1.491c-0.14,2.33-0.282,4.657-0.433,6.986
	c-0.029,0.465-0.095,0.927-0.153,1.39c-0.036,0.282-0.043,0.558,0.092,0.818c0.111,0.214,0.275,0.339,0.52,0.323
	c0.239-0.013,0.428-0.136,0.499-0.356c0.066-0.204,0.087-0.428,0.102-0.64c0.051-0.714,0.082-1.43,0.138-2.144
	c0.099-1.24,0.172-2.484,0.327-3.718c0.273-2.158,0.369-4.335,0.603-6.497c0.189-1.73,0.319-3.469,0.47-5.206
	c0.027-0.319,0.107-0.61,0.343-0.843c0.404-0.396,1.011-0.285,1.216,0.244c0.078,0.197,0.117,0.421,0.117,0.636
	c-0.004,0.871-0.023,1.739-0.051,2.609c-0.049,1.585-0.101,3.173-0.166,4.758c-0.043,1.023-0.113,2.047-0.173,3.068
	c-0.007,0.126-0.026,0.251-0.019,0.373c0.125,1.652-0.077,3.293-0.152,4.935c-0.034,0.779-0.023,1.557-0.042,2.332
	c-0.007,0.283,0.101,0.477,0.36,0.59s0.533-0.001,0.568-0.276c0.094-0.741,0.231-1.482,0.236-2.225c0.007-1.341,0.171-2.669,0.285-4
	c0.052-0.617,0.056-1.241,0.103-1.859c0.114-1.521,0.243-3.04,0.354-4.557c0.035-0.465,0.015-0.933,0.045-1.396
	c0.089-1.398,0.186-2.793,0.288-4.191c0.014-0.183,0.056-0.374,0.129-0.538c0.252-0.574,1.005-0.64,1.366-0.13
	c0.188,0.266,0.25,0.566,0.242,0.886c-0.021,0.714-0.037,1.43-0.056,2.144c-0.044,1.709-0.099,3.419-0.128,5.13
	c-0.042,2.486-0.07,4.977-0.092,7.464c-0.01,1.027,0.043,2.054,0.015,3.079c-0.063,2.435-0.856,4.563-2.726,6.212
	c-0.211,0.185-0.389,0.412-0.618,0.568c-1.065,0.719-1.627,1.772-1.997,2.953c-0.356,1.135-0.546,2.302-0.623,3.486
	c-0.012,0.183,0.013,0.367,0.024,0.596c0.628,0.332,1.251,0.681,1.891,0.993c0.543,0.264,0.979,0.652,1.394,1.077
	c0.198,0.2,0.364,0.431,0.375,0.73c0.02,0.55,0.381,0.825,0.828,1.023c0.256,0.113,0.519,0.204,0.782,0.3
	c0.251,0.091,0.272,0.313,0.308,0.531c0.304-0.039,0.523-0.216,0.676-0.451c0.16-0.25,0.375-0.411,0.628-0.541
	c0.882-0.456,1.762-0.906,2.723-1.402c0.146-0.42,0.101-0.952,0.108-1.475c0.018-1.213,0.017-2.425,0.041-3.641
	c0.041-2.081,0.08-4.163,0.154-6.245c0.078-2.269,0.084-4.537,0.397-6.795c0.157-1.136,0.215-2.29,0.317-3.434
	c0.121-1.398,0.424-2.766,0.664-4.145c0.24-1.381,0.492-2.761,0.892-4.1c0.437-1.459,0.989-2.893,1.946-4.105
	c1.216-1.54,2.856-2.159,4.787-1.907c1.738,0.223,2.613,1.567,2.252,3.296c-0.101,0.487-0.142,0.986-0.213,1.476
	c-0.185,1.292-0.363,2.586-0.559,3.879c-0.154,1.009-0.34,2.014-0.484,3.026c-0.148,1.012-0.246,2.036-0.397,3.051
	c-0.17,1.135-0.379,2.261-0.57,3.396c-0.052,0.306-0.097,0.613-0.146,0.92c-0.144,0.89-0.289,1.779-0.434,2.666
	c-0.015,0.092-0.037,0.184-0.05,0.275c-0.198,1.513-0.377,3.024-0.604,4.53c-0.188,1.257-0.436,2.511-0.657,3.767
	c-0.063,0.359-0.165,0.72-0.068,1.142c0.359-0.028,0.698-0.047,1.035-0.087c0.115-0.014,0.26-0.057,0.332-0.137
	c0.394-0.452,0.997-0.562,1.453-0.908c0.466-0.358,0.956-0.682,1.438-1.02c0.049-0.035,0.111-0.09,0.161-0.085
	c0.851,0.078,1.345-0.59,1.933-0.991c0.522-0.354,1.033-0.662,1.638-0.831c0.356-0.101,0.719-0.201,0.851-0.639
	c0.034-0.111,0.219-0.214,0.355-0.255c1.023-0.329,2.055-0.646,2.982-1.209c0.683-0.071,1.137-0.597,1.715-0.878
	c0.31-0.149,0.5-0.537,0.943-0.408c0.066,0.02,0.17-0.062,0.244-0.112c0.453-0.32,0.901-0.647,1.354-0.972
	c0.049-0.035,0.113-0.095,0.156-0.086c0.45,0.103,0.725-0.244,1.079-0.381c0.353-0.136,0.669-0.308,0.956-0.526
	c0.389-0.291,0.876-0.371,1.27-0.685c0.25-0.199,0.686-0.185,1.035-0.217c0.266-0.025,0.461-0.087,0.664-0.25
	c0.26-0.205,0.539-0.398,0.834-0.549c0.186-0.097,0.41-0.132,0.621-0.151c0.305-0.029,0.613-0.02,0.939-0.028
	c0.102-0.183,0.204-0.37,0.302-0.548c0.08,0,0.147-0.021,0.191,0.003c0.42,0.238,0.797,0.246,1.18-0.105
	c0.171-0.156,0.435-0.252,0.677-0.067c-0.002,0.44-0.705,0.337-0.625,0.831c-0.236,0.243-0.748,0.074-0.707,0.673
	c-0.236-0.234-0.354-0.353-0.507-0.504c-0.269,0.602-0.692,0.915-1.239,1.113c-0.432,0.154-0.832,0.397-1.259,0.566
	c-0.35,0.142-0.385,0.358-0.255,0.666c0.018,0.04-0.033,0.108-0.063,0.197c-0.438-0.212-0.863,0.084-1.189-0.023
	c-0.498,0.289-0.154,0.884-0.65,1.099c-0.16-0.226-0.317-0.448-0.504-0.711c-0.172,0.11-0.32,0.205-0.467,0.297
	c0.035,0.175,0.064,0.325,0.094,0.472c-0.121,0.205-0.436,0.16-0.502,0.479c-0.123,0.586-0.578,0.754-1.133,0.718
	c-0.063-0.004-0.124-0.001-0.214-0.005c-0.088,0.098-0.194,0.206-0.288,0.324c-0.199,0.252-0.527,0.162-0.761,0.299
	c-0.229,0.134-0.319,0.462-0.659,0.471c-0.329,0.006-0.624,0.18-0.807,0.416c-0.293,0.376-0.668,0.532-1.139,0.608
	c-0.006,0.153,0.045,0.346-0.025,0.415c-0.088,0.088-0.275,0.093-0.42,0.099c-0.113,0.003-0.229-0.047-0.352-0.073
	c-0.292,0.439-0.541,0.856-0.501,1.39c0.015,0.189-0.173,0.349-0.347,0.313c-0.118-0.026-0.223-0.113-0.34-0.133
	c-0.352-0.06-0.656-0.151-1.022,0.154c-0.337,0.276-0.854,0.334-1.071,0.807c-0.023,0.049-0.186,0.015-0.258,0.06
	c-0.121,0.076-0.301,0.174-0.318,0.282c-0.07,0.47-0.428,0.354-0.709,0.395c-0.314,0.748-0.814,1.223-1.713,1.172
	c-0.095,0.134-0.207,0.278-0.304,0.436c-0.382,0.618-1.022,0.849-1.659,1.05c-0.16,0.052-0.252,0.11-0.356,0.219
	c-0.054,0.06-0.199,0.115-0.236,0.087c-0.298-0.236-0.569-0.166-0.84,0.038c-0.205,0.154-0.347,0.351-0.371,0.681
	c-0.134-0.153-0.226-0.256-0.364-0.41c-0.059,0.273-0.109,0.505-0.173,0.8c-0.375,0.208-0.805,0.447-1.228,0.681
	c-0.004,0.147-0.006,0.267-0.01,0.43c-0.429,0.181-0.873,0.368-1.381,0.583c-0.306,0.38-0.531,0.887-0.613,1.442
	c-0.066,0.447-0.438,0.571-0.766,0.789c-0.191,0.553-0.195,1.149-0.238,1.731c-0.157,2.079-0.284,4.157-0.422,6.236
	c-0.01,0.156-0.02,0.313-0.004,0.465c0.027,0.281,0.406,0.482,0.639,0.325c0.283-0.19,0.545-0.413,0.813-0.625
	c0.229-0.182,0.467-0.284,0.756-0.143c-0.076,0.237-0.242,0.48,0.15,0.602c-0.014,0.081-0.018,0.172-0.045,0.254
	c-0.223,0.677-0.174,0.782,0.5,1.002c0.09,0.03,0.183,0.04,0.27,0.074c0.338,0.128,0.418,0.27,0.355,0.642
	c-0.02,0.122-0.063,0.239-0.113,0.423c0.317,0.093,0.66-0.026,0.945,0.198c0.133,0.104,0.307,0.148,0.415,0.318
	c0.159,0.249,0.452,0.449,0.698,0.377c0.385-0.112,0.431,0.302,0.692,0.324c0.349,0.031,0.275,0.365,0.397,0.56
	c0.271,0.416,0.533,0.836,0.803,1.251c0.173,0.273,0.236,0.653,0.677,0.666c0.068,0.001,0.15,0.107,0.195,0.186
	c0.425,0.742,1.021,1.32,1.705,1.783c-0.021,0.199-0.034,0.348-0.052,0.524c-0.394,0.03-0.564-0.386-0.896-0.409
	c-0.246,0.347-0.227,0.598,0.066,0.616c0.25,0.012,0.384,0.059,0.509,0.284c0.25,0.453,0.737,0.643,1.142,0.971
	c0.17-0.083,0.323-0.16,0.475-0.236L72.621,57.495z"/>
<path d="M0.019,82.284c0.956-0.092,1.91-0.209,2.868-0.272c3.102-0.205,6.204-0.436,9.308-0.572
	c2.827-0.124,5.658-0.178,8.488-0.195c3.235-0.02,6.47,0.031,9.705,0.064c1.025,0.011,2.053,0.058,3.077,0.099
	c8.183,0.325,16.335,1.024,24.464,1.991c2.873,0.343,5.74,0.738,8.597,1.2c3.563,0.576,7.11,1.237,10.66,1.882
	c3.825,0.695,7.619,1.551,11.394,2.485c2.926,0.724,5.83,1.539,8.744,2.321c0.295,0.078,0.575,0.211,1.027,0.385
	c-0.296-0.016-0.417-0.011-0.531-0.028c-2.49-0.392-4.979-0.783-7.468-1.177c-1.169-0.188-2.336-0.372-3.503-0.553
	c-3.752-0.576-7.507-1.136-11.257-1.727c-7.654-1.205-15.333-2.228-23.036-3.069c-5.322-0.579-10.661-0.965-16.004-1.262
	c-2.02-0.112-4.04-0.24-6.059-0.333c-2.953-0.132-5.907-0.238-8.859-0.353c-1.089-0.04-2.177-0.072-3.266-0.11
	c-2.456-0.088-4.912-0.183-7.368-0.262c-3.389-0.111-6.78-0.211-10.168-0.32C0.554,82.47,0.277,82.428,0,82.402
	C0.007,82.361,0.013,82.323,0.019,82.284"/>
<path d="M46.485,121.901l-0.066,0.021l0.063,0.025L46.485,121.901z M48.366,121.518c-0.045-0.026-0.086-0.058-0.132-0.074
	c-0.016-0.005-0.045,0.029-0.068,0.043c0.027,0.036,0.053,0.097,0.083,0.1C48.285,121.59,48.326,121.544,48.366,121.518
	 M44.811,121.321c-0.023-0.024-0.042-0.047-0.063-0.069c-0.033,0.043-0.068,0.082-0.101,0.121c0.052,0.011,0.104,0.021,0.156,0.03
	C44.805,121.376,44.808,121.346,44.811,121.321 M44.152,120.532c-0.022-0.011-0.045-0.019-0.069-0.032
	c-0.005,0.035-0.009,0.069-0.014,0.107c0.026-0.004,0.055-0.005,0.075-0.018C44.156,120.585,44.15,120.552,44.152,120.532
	 M46.751,123.396c-0.047,0.014-0.095,0.029-0.144,0.044c0.019,0.021,0.038,0.06,0.054,0.057c0.048-0.007,0.096-0.023,0.144-0.038
	C46.788,123.435,46.771,123.416,46.751,123.396 M44.83,119.026c-0.018-0.04-0.033-0.085-0.056-0.122
	c-0.002-0.003-0.047,0.018-0.072,0.028c0.02,0.045,0.039,0.09,0.059,0.135C44.784,119.054,44.805,119.041,44.83,119.026
	 M43.764,121.186c-0.017-0.048-0.025-0.127-0.054-0.135c-0.045-0.015-0.103,0.02-0.158,0.032c0.019,0.053,0.039,0.107,0.058,0.16
	C43.661,121.224,43.711,121.207,43.764,121.186 M47.439,119.385c0.013,0.019,0.022,0.048,0.041,0.058
	c0.024,0.014,0.057,0.007,0.086,0.01c-0.015-0.028-0.024-0.067-0.048-0.086C47.505,119.356,47.466,119.376,47.439,119.385
	 M44.742,120.355c0.027-0.007,0.053-0.015,0.078-0.021c-0.006-0.024-0.015-0.051-0.022-0.074c-0.038,0.015-0.076,0.028-0.115,0.042
	C44.703,120.32,44.723,120.337,44.742,120.355 M45.549,122.626c-0.046-0.026-0.091-0.053-0.134-0.079
	c-0.006,0.039-0.028,0.103-0.011,0.113c0.035,0.027,0.09,0.029,0.138,0.042C45.544,122.678,45.547,122.652,45.549,122.626
	 M47.266,120.601c-0.038-0.061-0.06-0.127-0.087-0.129c-0.048-0.003-0.118,0.021-0.141,0.059c-0.021,0.036,0.008,0.103,0.015,0.154
	C47.121,120.659,47.188,120.632,47.266,120.601 M45.436,121.396c-0.051,0.07-0.103,0.135-0.153,0.201
	c0.05,0.029,0.121,0.098,0.145,0.082c0.068-0.038,0.116-0.11,0.172-0.171C45.553,121.476,45.506,121.445,45.436,121.396
	 M45.239,120.666c0.164,0.166,0.297,0.109,0.427,0.004c0.02-0.015,0.042-0.069,0.034-0.078c-0.039-0.038-0.1-0.107-0.129-0.096
	C45.458,120.537,45.355,120.601,45.239,120.666 M47.949,122.333c-0.529,0.421-0.553,1.08-0.733,1.654
	c-0.229,0.732-0.371,1.493-0.578,2.232c-0.065,0.23-0.183,0.473-0.345,0.643c-0.135,0.142-0.382,0.273-0.563,0.254
	c-0.281-0.029-0.486-0.254-0.561-0.553c-0.016-0.059-0.028-0.122-0.032-0.182c-0.066-0.994-0.183-1.985-0.182-2.976
	c0.002-0.565-0.203-1.002-0.497-1.428c-0.143-0.21-0.163-0.197-0.724-0.131c0.152,0.183,0.277,0.338,0.428,0.521
	c-0.101,0.172-0.287,0.343-0.301,0.528c-0.045,0.616-0.055,1.238-0.031,1.856c0.021,0.549-0.148,1.08-0.096,1.63
	c0.009,0.106-0.084,0.226-0.145,0.375c-0.696-0.015-1.404,0.298-2.037-0.187c-0.137-1.029-0.001-2.009,0.162-2.988
	c0.083-0.486,0.155-0.98,0.21-1.475c0.106-0.921,0.04-1.855,0.276-2.772c0.111-0.442,0.043-0.928,0.06-1.394
	c0.025-0.652,0.04-1.308,0.085-1.956c0.029-0.437,0.232-0.686,0.621-0.663c0.712,0.04,1.422,0.143,2.126,0.248
	c0.121,0.019,0.238,0.183,0.322,0.303c0.066,0.098,0.094,0.229,0.111,0.351c0.149,1.07,0.302,2.139,0.43,3.211
	c0.028,0.239-0.039,0.491-0.066,0.772c0.157,0.098,0.305,0.19,0.41,0.257c0.097-0.017,0.144-0.012,0.154-0.03
	c0.165-0.276,0.485-0.457,0.527-0.809c0.042-0.342,0.098-0.696,0.386-0.896c0.276-0.194-0.074-0.509,0.189-0.661
	c0.237-0.137,0.198-0.338,0.182-0.564c-0.039-0.524,0.243-0.958,0.493-1.379c0.079-0.133,0.318-0.248,0.474-0.238
	c0.678,0.045,1.362,0.105,2.03,0.231c0.472,0.091,0.6,0.328,0.539,0.821c-0.045,0.37-0.121,0.734-0.207,1.1
	c-0.191,0.818-0.275,1.641-0.168,2.478c0.021,0.181-0.01,0.374-0.03,0.556c-0.165,1.546-0.325,3.092-0.503,4.637
	c-0.049,0.431-0.143,0.856-0.225,1.282c-0.058,0.288-0.211,0.447-0.498,0.469c-0.592,0.04-1.172,0.003-1.67-0.32
	c0.059-0.969,0.119-1.89,0.174-2.813c0.017-0.319,0.091-0.614,0.397-0.804c-0.083-0.343-0.159-0.667-0.243-0.991
	c-0.051-0.192-0.206-0.203-0.369-0.182c0.002-0.031,0.013-0.065,0.006-0.091c-0.099-0.322-0.185-0.391-0.493-0.319
	c-0.083,0.021-0.209,0.172-0.195,0.233c0.054,0.219,0.261,0.195,0.436,0.192C47.771,122.369,47.861,122.344,47.949,122.333"/>
<path d="M66.563,106.984c-0.019-0.021-0.039-0.062-0.054-0.059c-0.051,0.003-0.1,0.024-0.148,0.039
	c0.018,0.021,0.035,0.066,0.046,0.066C66.46,107.021,66.509,107.001,66.563,106.984 M66.95,105.857
	c-0.003,0.024-0.005,0.05-0.008,0.075c0.101,0.011,0.201,0.021,0.301,0.029c0.002-0.026,0.005-0.051,0.007-0.075
	C67.15,105.876,67.05,105.867,66.95,105.857 M67.515,105.212c0.104-0.209,0.285-0.44,0.332-0.696
	c0.074-0.391,0.093-0.798,0.058-1.194c-0.017-0.189-0.173-0.398-0.326-0.535c-0.305-0.267-0.675-0.27-1.042-0.112
	c-0.281,0.119-0.267,0.381-0.283,0.628c-0.016,0.247-0.045,0.491-0.067,0.737c-0.021,0.216-0.058,0.431-0.06,0.644
	c-0.002,0.481,0.217,0.678,0.686,0.628C67.026,105.292,67.239,105.251,67.515,105.212 M63.921,100.443
	c0.5-0.301,0.991-0.312,1.483-0.172c0.752,0.218,1.522,0.276,2.296,0.359c0.521,0.055,1.04,0.181,1.543,0.336
	c0.639,0.195,1.057,0.64,1.188,1.311c0.143,0.734,0.199,1.479,0.084,2.223c-0.116,0.753-0.357,1.451-1.039,1.9
	c-0.072,0.05-0.117,0.146-0.17,0.218c-0.019,0.026-0.025,0.056-0.051,0.116c0.02,0.094,0.018,0.23,0.076,0.332
	c0.535,0.947,0.473,1.95,0.307,2.973c-0.055,0.334-0.039,0.679-0.045,1.018c0,0.216,0.037,0.436,0.031,0.651
	c-0.023,0.607-0.211,0.746-0.828,0.655c-0.338-0.052-0.678-0.088-1.014-0.14c-0.488-0.075-0.705-0.285-0.813-0.76
	c-0.135-0.591-0.025-1.171,0.076-1.753c0.073-0.425,0.121-0.859,0.131-1.29c0.004-0.205-0.072-0.43-0.166-0.621
	c-0.258-0.516-0.705-0.649-1.278-0.544c-0.129,1.211-0.256,2.43-0.386,3.651c-0.018,0.151-0.037,0.308-0.076,0.458
	c-0.081,0.318-0.273,0.455-0.614,0.441c-0.122-0.004-0.245-0.034-0.366-0.049c-0.369-0.05-0.736-0.1-1.104-0.144
	c-0.421-0.052-0.661-0.24-0.653-0.641c0.01-0.52-0.038-1.038,0.057-1.567c0.34-1.894,0.633-3.793,0.916-5.695
	c0.026-0.186,0.332-0.28,0.116-0.566c-0.116-0.154-0.032-0.474-0.021-0.714c0.01-0.218,0.048-0.435,0.076-0.648
	c0.026-0.216,0.051-0.431,0.093-0.646C63.814,100.895,63.873,100.66,63.921,100.443"/>
<path d="M22.451,100.868l0.009-0.042l-0.059,0.012L22.451,100.868z M22.901,101.279c-0.015-0.021-0.033-0.066-0.044-0.065
	c-0.05,0.009-0.099,0.025-0.148,0.042c0.044,0.026,0.087,0.057,0.133,0.076C22.854,101.334,22.88,101.296,22.901,101.279
	 M24.772,102.365c0.001,0.023-0.009,0.055,0.002,0.066c0.015,0.017,0.046,0.022,0.072,0.029c0-0.035,0-0.072,0-0.11
	C24.821,102.354,24.797,102.361,24.772,102.365 M24.12,104.336c0.004,0.041,0.009,0.083,0.013,0.123
	c0.108-0.005,0.217-0.013,0.324-0.017c-0.01-0.051-0.024-0.152-0.032-0.149C24.322,104.3,24.22,104.319,24.12,104.336
	 M25.326,103.026c-0.093,0.059-0.175,0.113-0.255,0.165c0.056,0.053,0.116,0.152,0.17,0.15c0.093-0.01,0.182-0.078,0.273-0.123
	C25.462,103.165,25.41,103.112,25.326,103.026 M22.087,102.037c0.217-0.003,0.369-0.006,0.522-0.01
	C22.456,101.871,22.302,101.789,22.087,102.037 M22.276,102.807c-0.216,0.073-0.304,0.084-0.366,0.128
	c-0.057,0.042-0.086,0.124-0.127,0.185c0.079,0.01,0.176,0.054,0.229,0.021C22.092,103.091,22.137,102.993,22.276,102.807
	 M23.186,102.162c0.164-0.063,0.327-0.127,0.545-0.211C23.423,101.739,23.275,101.897,23.186,102.162 M24.87,101.839
	c-0.004,0.043-0.012,0.084-0.016,0.123c-0.028-0.007-0.055-0.015-0.082-0.022c0.028-0.022,0.055-0.047,0.081-0.065
	c0.073-0.046,0.145-0.089,0.109,0.062C24.931,101.904,24.9,101.873,24.87,101.839 M23.191,103.769
	c0.242-0.102,0.436-0.181,0.798-0.331c-0.514-0.117-0.856-0.13-1.188-0.04c-0.129,0.036-0.25,0.17-0.33,0.29
	c-0.277,0.413-0.288,0.896-0.209,1.349c0.17,0.973-0.023,1.911-0.081,2.872c-0.661,0.392-1.309,0.245-1.932,0.101
	c-0.275-0.063-0.429-0.361-0.444-0.659c-0.018-0.341-0.009-0.685,0.008-1.024c0.039-0.808,0.083-1.616,0.135-2.422
	c0.019-0.278,0.07-0.553,0.104-0.832c0.023-0.182,0.054-0.364,0.06-0.548c0.02-1.087,0.034-2.173,0.048-3.261
	c0.008-0.528,0.01-1.054,0.013-1.581c0.002-0.188-0.02-0.375-0.005-0.562c0.028-0.309,0.254-0.538,0.544-0.534
	c0.56,0.002,1.121,0.012,1.677,0.058c0.162,0.013,0.365,0.124,0.461,0.251c0.18,0.248,0.34,0.526,0.429,0.816
	c0.2,0.651,0.355,1.314,0.53,1.987c-0.085,0.088-0.17,0.173-0.258,0.264c0.014,0.047,0.016,0.108,0.046,0.146
	c0.182,0.208,0.375,0.406,0.559,0.614c0.233,0.26,0.26,0.266,0.792,0.119c-0.016-1.144-0.031-2.278-0.045-3.418
	c0.001-0.063,0.015-0.123,0.029-0.183c0.067-0.323,0.264-0.501,0.582-0.489c0.465,0.025,0.932,0.058,1.393,0.118
	c0.308,0.036,0.522,0.32,0.422,0.604c-0.337,0.972-0.214,1.967-0.234,2.96c-0.016,0.87-0.119,1.734-0.148,2.608
	c-0.038,1.212-0.037,2.424-0.067,3.637c-0.008,0.402-0.034,0.809-0.094,1.203c-0.046,0.303-0.226,0.404-0.533,0.403
	c-0.433-0.004-0.867,0.008-1.301-0.009c-0.565-0.022-0.849-0.198-0.922-0.732C23.861,106.275,23.323,105.098,23.191,103.769"/>
<path d="M80.603,124.869c-0.002-0.022,0.002-0.054-0.012-0.063c-0.021-0.018-0.054-0.019-0.084-0.023
	c0.006,0.034,0.01,0.069,0.016,0.104C80.55,124.882,80.578,124.875,80.603,124.869 M81.42,128.048
	c-0.003,0.027-0.005,0.055-0.008,0.082c0.122,0.013,0.245,0.024,0.367,0.036c0.003-0.027,0.005-0.056,0.008-0.084
	C81.666,128.071,81.542,128.059,81.42,128.048 M82.476,125.775c-0.017-0.016-0.032-0.037-0.051-0.043
	c-0.021-0.003-0.048,0.009-0.07,0.015c0.017,0.013,0.031,0.038,0.051,0.043C82.427,125.793,82.452,125.781,82.476,125.775
	 M81.787,127.007c0.027,0.009,0.055,0.027,0.077,0.023c0.021-0.006,0.036-0.035,0.052-0.056c-0.025-0.009-0.052-0.025-0.072-0.021
	C81.822,126.96,81.806,126.989,81.787,127.007 M79.841,125.517c0.022,0.02,0.051,0.056,0.071,0.055
	c0.103-0.012,0.207-0.035,0.31-0.053c-0.006-0.029-0.01-0.079-0.018-0.08c-0.107-0.005-0.214-0.006-0.32,0.001
	C79.868,125.441,79.855,125.49,79.841,125.517 M79.726,126.403c-0.023-0.019-0.045-0.051-0.069-0.054
	c-0.16-0.022-0.295,0.015-0.36,0.181c-0.008,0.019,0.014,0.069,0.016,0.07c0.106-0.016,0.214-0.024,0.313-0.062
	C79.67,126.523,79.694,126.449,79.726,126.403 M82.875,127.14c-0.003-0.03,0.008-0.082-0.008-0.09
	c-0.104-0.051-0.211-0.101-0.323-0.127c-0.022-0.005-0.069,0.081-0.104,0.127c0.092,0.055,0.182,0.118,0.281,0.154
	C82.759,127.218,82.823,127.163,82.875,127.14 M80.638,125.832c0.2-0.062,0.402-0.123,0.67-0.204
	C80.963,125.436,80.759,125.529,80.638,125.832 M80.589,127.399c0.18-0.072,0.372-0.146,0.576-0.226
	c-0.035-0.067-0.053-0.137-0.084-0.148c-0.088-0.021-0.188-0.004-0.275-0.028c-0.242-0.064-0.518-0.188-0.711,0
	c-0.213,0.209-0.395,0.484-0.498,0.765c-0.093,0.25-0.1,0.547-0.074,0.817c0.084,0.893-0.248,1.715-0.398,2.566
	c-0.043,0.243-0.253,0.354-0.494,0.337c-0.371-0.031-0.744-0.059-1.109-0.135c-0.432-0.086-0.695-0.429-0.637-0.888
	c0.107-0.831,0.238-1.659,0.412-2.479c0.514-2.4,0.932-4.817,1.217-7.256c0.008-0.092,0.01-0.188,0.029-0.277
	c0.083-0.39,0.346-0.572,0.749-0.496c0.55,0.098,1.099,0.213,1.685,0.327c0.299,0.298,0.437,0.696,0.485,1.141
	c0.071,0.65,0.157,1.298,0.237,1.944c-0.098,0.109-0.191,0.217-0.282,0.32c0.16,0.247,0.329,0.469,0.449,0.713
	c0.173,0.353,0.44,0.383,0.764,0.322c0.116-1.035,0.226-2.041,0.345-3.048c0.021-0.185,0.071-0.367,0.125-0.545
	c0.104-0.345,0.279-0.469,0.617-0.418c0.399,0.06,0.797,0.13,1.189,0.227c0.415,0.099,0.605,0.403,0.422,0.768
	c-0.387,0.775-0.421,1.615-0.551,2.443c-0.19,1.196-0.415,2.389-0.608,3.589c-0.177,1.103-0.334,2.212-0.493,3.321
	c-0.061,0.431-0.096,0.87-0.496,1.191c-0.504-0.073-1.021-0.14-1.539-0.229c-0.529-0.094-0.768-0.291-0.756-0.787
	C80.917,129.953,80.511,128.712,80.589,127.399"/>
<path d="M23.33,119.713c-0.05-0.008-0.098-0.018-0.147-0.028c0.02,0.019,0.041,0.049,0.065,0.054
	C23.271,119.743,23.302,119.725,23.33,119.713 M21.368,118.549c-0.024-0.009-0.05-0.019-0.072-0.029
	c-0.009,0.032-0.016,0.064-0.023,0.098c0.027-0.003,0.057,0.002,0.081-0.008C21.365,118.603,21.363,118.57,21.368,118.549
	 M22.911,120.511c-0.007-0.022-0.014-0.047-0.02-0.07c-0.016,0.017-0.041,0.034-0.046,0.053c-0.004,0.02,0.011,0.048,0.018,0.069
	C22.878,120.545,22.895,120.527,22.911,120.511 M22.444,121.661c0.189,0.062,0.265,0.097,0.343,0.106
	c0.026,0.003,0.062-0.065,0.085-0.106c0.003-0.005-0.039-0.054-0.06-0.051C22.729,121.616,22.645,121.631,22.444,121.661
	 M21.165,119.335c-0.207-0.22-0.356-0.219-0.575,0.008C20.809,119.338,20.958,119.337,21.165,119.335 M21.626,119.364
	c0.021,0.021,0.042,0.054,0.068,0.058c0.154,0.03,0.299,0.017,0.378-0.146c0.008-0.019-0.002-0.058-0.018-0.072
	c-0.163-0.123-0.272,0.006-0.389,0.091C21.647,119.306,21.64,119.34,21.626,119.364 M20.735,120.131
	c-0.158,0.057-0.226,0.065-0.27,0.1c-0.064,0.052-0.112,0.12-0.162,0.186c-0.002,0.002,0.042,0.062,0.06,0.056
	c0.082-0.017,0.172-0.032,0.243-0.074C20.648,120.373,20.66,120.296,20.735,120.131 M23.279,120.381
	c0.346,0.337,0.508,0.347,0.698,0.067C23.762,120.429,23.603,120.413,23.279,120.381 M21.976,117.257
	c0.229,0.287,0.428,0.515,0.603,0.762c0.2,0.277,0.452,0.278,0.773,0.188c-0.012-0.317-0.032-0.637-0.033-0.958
	c-0.001-0.338,0.028-0.681,0.026-1.021c-0.003-0.342-0.044-0.683-0.043-1.024c-0.001-0.34-0.002-0.683,0.158-1.004
	c0.128-0.049,0.242-0.134,0.356-0.132c0.465,0.015,0.93,0.04,1.392,0.091c0.313,0.034,0.532,0.305,0.434,0.598
	c-0.397,1.187-0.164,2.407-0.24,3.61c-0.075,1.209-0.13,2.419-0.176,3.63c-0.025,0.652-0.004,1.306-0.013,1.958
	c-0.004,0.341-0.006,0.684-0.048,1.023c-0.063,0.513-0.189,0.589-0.734,0.578c-0.34-0.004-0.682,0.031-1.023,0.026
	c-0.595-0.012-0.9-0.216-0.96-0.802c-0.125-1.244-0.697-2.384-0.771-3.708c0.055-0.226,0.548,0.015,0.568-0.429
	c-0.181,0.019-0.352,0.046-0.525,0.051c-0.61,0.012-0.749,0.066-0.864,0.584c-0.085,0.383-0.101,0.8-0.057,1.189
	c0.101,0.937-0.02,1.852-0.143,2.786c-0.582,0.341-1.172,0.196-1.74,0.104c-0.291-0.048-0.46-0.316-0.487-0.615
	c-0.033-0.37-0.062-0.745-0.034-1.114c0.081-1.146,0.217-2.288,0.282-3.436c0.058-1.052,0.056-2.108,0.068-3.164
	c0.009-0.808-0.002-1.612-0.001-2.419c-0.002-0.532,0.196-0.707,0.742-0.688c0.434,0.015,0.868,0.021,1.303,0.014
	c0.241-0.001,0.435,0.077,0.553,0.276c0.157,0.267,0.323,0.537,0.414,0.827c0.177,0.562,0.295,1.142,0.456,1.707
	C22.285,116.996,22.203,117.165,21.976,117.257"/>
<path d="M31.671,106.457c0.49-0.574,0.711-1.221,0.595-1.97c-0.019-0.121,0.003-0.248,0.01-0.372
	c0.086-1.197,0.156-2.394,0.268-3.588c0.035-0.381-0.063-0.664-0.332-0.91c-0.334-0.307-0.704-0.28-0.953,0.086
	c-0.193,0.284-0.281,0.601-0.297,0.957c-0.065,1.48-0.159,2.959-0.251,4.438c-0.026,0.396,0.156,0.721,0.339,1.033
	C31.175,106.344,31.396,106.484,31.671,106.457 M28.13,102.263c0.081-0.838,0.16-1.672,0.242-2.51
	c0.085-0.857,0.665-1.447,1.149-2.087c0.088-0.114,0.246-0.194,0.388-0.251c1.272-0.504,2.536-0.512,3.802,0.053
	c0.834,0.373,1.153,1.096,1.297,1.902c0.103,0.576,0.097,1.176,0.096,1.764c-0.002,0.842-0.025,1.683-0.074,2.52
	c-0.044,0.736-0.092,1.479-0.222,2.207c-0.139,0.771-0.488,1.476-1.016,2.066c-0.345,0.389-0.808,0.607-1.312,0.654
	c-0.9,0.083-1.797,0.031-2.662-0.299c-0.552-0.211-0.951-0.577-1.231-1.087c-0.348-0.636-0.57-1.31-0.559-2.044
	c0.018-0.965,0.045-1.928,0.069-2.892C28.108,102.261,28.118,102.262,28.13,102.263"/>
<path d="M56.601,108.444c-0.01-0.019-0.018-0.044-0.033-0.054c-0.019-0.009-0.045-0.001-0.069-0.002
	c0.015,0.031,0.028,0.061,0.044,0.094C56.562,108.467,56.583,108.458,56.601,108.444 M58.48,108.891
	c0.553-0.547,0.75-1.135,0.75-1.821c0-0.522,0.014-1.061,0.137-1.563c0.213-0.871,0.232-1.761,0.385-2.636
	c0.052-0.304-0.057-0.545-0.253-0.762c-0.354-0.39-0.799-0.359-1.072,0.104c-0.123,0.208-0.209,0.455-0.239,0.692
	c-0.192,1.525-0.402,3.052-0.523,4.583C57.619,108.058,57.754,108.672,58.48,108.891 M55.199,105.125
	c0.074-1.118,0.224-2.224,0.478-3.317c0.181-0.771,0.749-1.27,1.216-1.839c0.09-0.111,0.258-0.173,0.402-0.222
	c1.3-0.455,2.563-0.361,3.79,0.266c0.776,0.396,1.033,1.112,1.185,1.883c0.065,0.331,0.063,0.684,0.037,1.022
	c-0.115,1.425-0.195,2.857-0.398,4.27c-0.127,0.873-0.26,1.765-0.771,2.556c-0.578,0.894-1.324,1.37-2.396,1.293
	c-0.715-0.052-1.422-0.106-2.092-0.406c-0.569-0.255-0.985-0.65-1.244-1.204c-0.293-0.624-0.491-1.278-0.428-1.982
	C55.045,106.672,55.125,105.897,55.199,105.125"/>
<path d="M73.099,128.431c0.564-0.502,0.791-1.072,0.846-1.762c0.051-0.674,0.201-1.342,0.305-2.013
	c0.113-0.727,0.214-1.46,0.336-2.187c0.063-0.379-0.061-0.672-0.34-0.909c-0.236-0.2-0.54-0.187-0.756,0.032
	c-0.247,0.252-0.381,0.559-0.426,0.906c-0.062,0.46-0.125,0.924-0.193,1.379c-0.152,1.011-0.29,2.024-0.465,3.03
	c-0.074,0.429,0.019,0.81,0.22,1.159C72.721,128.231,72.945,128.317,73.099,128.431 M76.933,124.262
	c-0.231,1.281-0.424,2.571-0.705,3.841c-0.166,0.732-0.588,1.367-1.113,1.912c-0.362,0.373-0.83,0.564-1.338,0.585
	c-0.91,0.034-1.793-0.108-2.609-0.557c-0.396-0.217-0.706-0.507-0.906-0.908c-0.309-0.62-0.52-1.272-0.469-1.973
	c0.145-1.984,0.406-3.95,0.915-5.884c0.201-0.765,0.761-1.265,1.261-1.805c0.172-0.187,0.492-0.258,0.76-0.321
	c0.899-0.217,1.785-0.147,2.651,0.192c1.117,0.437,1.64,1.042,1.676,2.491c0.022,0.804-0.135,1.607-0.213,2.411
	C76.873,124.255,76.902,124.257,76.933,124.262"/>
<path d="M14.507,123.031c0.482-0.888,0.501-0.89,0.474-1.599c-0.043-1.113,0.003-2.221,0.116-3.332
	c0.044-0.423,0.003-0.859-0.024-1.286c-0.022-0.365-0.375-0.707-0.723-0.746c-0.267-0.031-0.532,0.16-0.653,0.561
	c-0.085,0.29-0.113,0.604-0.121,0.908c-0.036,1.392-0.042,2.783-0.09,4.175c-0.014,0.44,0.163,0.78,0.386,1.115
	C13.998,123.014,14.198,123.107,14.507,123.031 M10.915,117.904c0.039-0.409,0.095-0.718,0.094-1.027
	c-0.004-0.925,0.492-1.646,0.971-2.37c0.114-0.171,0.315-0.309,0.506-0.396c1.257-0.575,2.521-0.592,3.779,0.008
	c0.72,0.341,1.003,1.006,1.146,1.701c0.136,0.663,0.144,1.356,0.17,2.038c0.053,1.334,0.073,2.666-0.149,3.99
	c0.135,0.791-0.221,1.454-0.548,2.124c-0.352,0.726-0.945,1.132-1.744,1.238c-0.778,0.104-1.541,0.077-2.298-0.178
	c-0.629-0.21-1.072-0.607-1.387-1.171c-0.405-0.724-0.577-1.506-0.572-2.327C10.89,120.293,10.905,119.051,10.915,117.904"/>
<path d="M37.617,124.295c0.313-0.269,0.406-0.576,0.484-0.915c0.132-0.564-0.082-1.186,0.286-1.708
	c-0.031-0.339-0.103-0.681-0.085-1.017c0.06-1.047,0.151-2.091,0.237-3.135c0.05-0.615,0.108-1.232,0.172-1.848
	c0.016-0.151,0.07-0.298,0.109-0.451c0.819-0.371,1.587-0.191,2.4,0.079c0.016,0.225,0.058,0.437,0.041,0.642
	c-0.163,2.139-0.327,4.275-0.517,6.414c-0.057,0.646-0.093,1.292-0.283,1.929c-0.39,1.316-1.332,2.095-2.71,2.12
	c-0.687,0.017-1.355-0.1-2.023-0.276c-0.895-0.237-1.345-0.849-1.527-1.697c-0.07-0.33-0.088-0.678-0.077-1.017
	c0.062-1.71,0.119-3.42,0.225-5.125c0.051-0.866,0.136-1.721,0.067-2.591c-0.021-0.253,0.132-0.528,0.246-0.776
	c0.041-0.087,0.201-0.181,0.303-0.176c0.616,0.036,1.235,0.084,1.847,0.168c0.1,0.013,0.242,0.219,0.249,0.34
	c0.022,0.369,0.002,0.742-0.028,1.113c-0.171,2.072-0.361,4.145-0.522,6.216C36.43,123.634,36.548,123.793,37.617,124.295"/>
<path d="M9.881,118.325c-0.844,0.046-1.641,0.382-2.406-0.186c-0.029-0.343-0.093-0.681-0.077-1.012
	c0.019-0.354-0.017-0.678-0.188-1.023c-0.229-0.112-0.478-0.23-0.731-0.354c-0.404,0.192-0.456,0.583-0.559,0.928
	c-0.06,0.205-0.066,0.431-0.069,0.65c-0.01,0.741-0.012,1.484-0.01,2.226c0.001,0.902,0.008,1.798,0.012,2.836
	c0.142,0.144,0.376,0.381,0.609,0.621c0.298-0.141,0.549-0.261,0.838-0.396c0.02-0.518,0.035-1.033,0.057-1.55
	c0.009-0.187,0.015-0.375,0.052-0.554c0.05-0.234,0.203-0.395,0.453-0.396c0.558-0.004,1.118-0.004,1.675,0.031
	c0.121,0.006,0.265,0.153,0.34,0.271c0.077,0.124,0.117,0.293,0.116,0.441c-0.014,1-0.119,1.979-0.576,2.897
	c-0.488,0.981-1.306,1.365-2.338,1.396c-0.342,0.01-0.684-0.062-1.024-0.049c-0.74,0.025-1.31-0.328-1.855-0.76
	c-0.249-0.196-0.421-0.447-0.511-0.759c-0.18-0.629-0.324-1.263-0.337-1.922c-0.019-0.991-0.049-1.987-0.083-2.982
	c-0.01-0.312,0.07-0.598,0.14-0.897c0.064-0.284-0.069-0.607-0.076-0.912c-0.006-0.213,0.063-0.431,0.079-0.646
	c0.098-1.238,0.878-1.961,1.922-2.422c0.379-0.168,0.847-0.186,1.273-0.181c0.58,0.011,1.155,0.04,1.714,0.312
	c0.667,0.322,1.072,0.88,1.341,1.481c0.315,0.7,0.408,1.496,0.377,2.28C10.031,117.876,9.951,118.054,9.881,118.325"/>
<path d="M26.505,121.969c0.501,0.026,0.995,0.038,1.486,0.093c0.331,0.041,0.583,0.212,0.611,0.591
	c0.002,0.03,0.005,0.064,0.015,0.093c0.268,0.82,0.589,1.036,1.48,1.017c0.506-0.2,0.435-0.649,0.485-1.032
	c0.043-0.344-0.174-0.586-0.406-0.799c-0.205-0.189-0.436-0.351-0.648-0.53c-0.144-0.119-0.358-0.229-0.398-0.379
	c-0.125-0.474-0.535-0.637-0.842-0.93c-0.446-0.424-0.866-0.896-1.203-1.409c-0.591-0.904-0.518-1.9-0.157-2.866
	c0.269-0.722,0.863-1.146,1.588-1.316c1.083-0.252,2.162-0.152,3.208,0.222c0.724,0.259,1.178,0.787,1.366,1.531
	c0.076,0.3,0.153,0.605,0.177,0.911c0.031,0.411-0.19,0.666-0.578,0.702c-0.504,0.044-0.99-0.053-1.459-0.24
	c-0.197-0.076-0.275-0.235-0.28-0.438c-0.002-0.123-0.001-0.247-0.001-0.365c-0.894-0.613-0.894-0.613-1.599-0.229
	c-0.084-0.046-0.189-0.101-0.293-0.158c-0.099-0.056-0.196-0.11-0.318-0.179c-0.011,0.117-0.04,0.205-0.019,0.22
	c0.234,0.162,0.435,0.313,0.451,0.651c0.01,0.198,0.144,0.405,0.267,0.577c0.232,0.328,0.496,0.636,0.75,0.949
	c0.038,0.047,0.075,0.113,0.126,0.135c0.582,0.207,0.903,0.742,1.369,1.093c0.539,0.409,0.83,0.99,1.162,1.547
	c0.032,0.055,0.07,0.107,0.081,0.169c0.184,1.085,0.287,2.162-0.441,3.122c-0.47,0.621-1.548,1.183-2.321,1.21
	c-0.757,0.022-1.475-0.15-2.184-0.401c-0.56-0.193-0.99-0.536-1.256-1.047c-0.213-0.41-0.382-0.85-0.52-1.29
	C26.079,122.79,26.128,122.392,26.505,121.969"/>
<path d="M55.303,123.125c-0.021-0.022-0.042-0.061-0.056-0.059c-0.051,0.008-0.098,0.028-0.145,0.044
	c0.018,0.021,0.037,0.061,0.053,0.058C55.204,123.162,55.249,123.142,55.303,123.125 M53.745,121.721
	c0-0.024,0.008-0.054-0.003-0.067c-0.021-0.013-0.051-0.015-0.077-0.019c0.002,0.032,0.003,0.067,0.004,0.102
	C53.695,121.731,53.72,121.727,53.745,121.721 M55.607,121.492c0.045-0.007,0.088-0.013,0.133-0.021
	c-0.004,0.013-0.008,0.034-0.01,0.034c-0.045-0.007-0.086-0.016-0.129-0.022c0.262-0.523,0.596-1.025,0.582-1.64
	c-0.021-0.917-0.132-1.002-0.85-1.216c-0.055-0.016-0.121,0.005-0.186,0.006c-0.135,0.141-0.347,0.265-0.396,0.436
	c-0.163,0.557-0.157,1.141-0.158,1.715c0.001,0.185,0.165,0.387,0.294,0.547c0.136,0.168,0.324,0.127,0.511,0.05
	C55.445,121.361,55.537,121.454,55.607,121.492 M51.548,125.171c0.045-0.463,0.089-0.929,0.135-1.392
	c0.014-0.123,0.084-0.275,0.034-0.362c-0.207-0.379,0.754-0.548,0.162-0.97c0.024-0.4,0.043-0.803,0.082-1.206
	c0.036-0.369,0.099-0.735,0.138-1.106c0.045-0.4,0.074-0.806,0.105-1.207c0.05-0.651,0.081-1.304,0.146-1.953
	c0.053-0.53,0.272-0.735,0.803-0.665c1.293,0.164,2.593,0.313,3.865,0.586c0.838,0.18,1.424,0.8,1.543,1.678
	c0.146,1.077,0.176,2.157-0.211,3.219c-0.375,1.026-1.281,1.756-2.369,1.791c-0.31,0.014-0.621-0.031-0.931-0.021
	c-0.556,0.018-0.871,0.299-0.915,0.852c-0.046,0.617-0.045,1.242-0.072,1.863c-0.013,0.34-0.018,0.685-0.063,1.023
	c-0.06,0.443-0.335,0.641-0.774,0.594c-0.369-0.038-0.74-0.077-1.109-0.114c-0.713-0.073-0.874-0.256-0.814-0.946
	c0.049-0.558,0.107-1.113,0.161-1.671C51.492,125.166,51.519,125.167,51.548,125.171"/>
<path d="M50.468,107.947c-0.051,0.521-0.07,1.051-0.16,1.569c-0.078,0.448-0.267,0.604-0.709,0.562
	c-0.552-0.052-1.103-0.164-1.646-0.279c-0.235-0.051-0.341-0.259-0.315-0.505c0.016-0.151,0.037-0.313,0.096-0.452
	c0.228-0.527,0.246-1.086,0.285-1.641c0.184-2.575,0.369-5.145,0.555-7.716c0.014-0.187,0.022-0.376,0.061-0.556
	c0.066-0.315,0.228-0.425,0.586-0.481c0.78-0.125,1.535-0.031,2.301,0.14c0.755,0.17,1.533,0.238,2.301,0.338
	c0.215,0.029,0.436,0.013,0.65,0.041c0.471,0.061,0.604,0.236,0.604,0.752c-0.002,0.248,0.014,0.496-0.012,0.742
	c-0.066,0.647-0.449,0.928-1.082,0.814c-0.522-0.09-1.04-0.182-1.561-0.259c-0.216-0.031-0.439-0.05-0.65-0.017
	c-0.451,0.072-0.688,0.352-0.748,0.813c-0.053,0.411-0.047,0.807,0.176,1.174c0.136,0.228,0.322,0.377,0.6,0.376
	c0.217,0.001,0.436-0.021,0.652-0.01c0.246,0.01,0.501,0.013,0.734,0.074c0.478,0.132,0.643,0.393,0.594,0.901
	c-0.029,0.308-0.078,0.618-0.145,0.92c-0.096,0.446-0.24,0.552-0.723,0.521c-0.279-0.018-0.554-0.075-0.831-0.112
	c-0.215-0.027-0.429-0.074-0.646-0.072c-0.5,0-0.74,0.194-0.812,0.696c-0.077,0.55-0.112,1.109-0.165,1.665
	C50.464,107.947,50.466,107.947,50.468,107.947"/>
<path d="M39.814,109.091c-1.376,0.084-1.72,0.031-2.34-0.389c-0.034-0.915,0.099-1.838,0.192-2.766
	c0.071-0.709,0.161-1.418,0.21-2.13c0.073-1.084,0.118-2.17,0.173-3.255c0.006-0.122,0.003-0.244,0.004-0.343
	c-0.199-0.318-0.478-0.425-0.802-0.46c-0.247-0.026-0.496-0.039-0.741-0.086c-0.451-0.085-0.649-0.315-0.614-0.779
	c0.031-0.431,0.125-0.857,0.182-1.228c0.345-0.317,0.695-0.25,1.029-0.218c1.21,0.103,2.416,0.228,3.627,0.326
	c0.463,0.04,0.93,0.027,1.393,0.051c0.218,0.008,0.437,0.016,0.648,0.059c0.193,0.042,0.32,0.18,0.357,0.385
	c0.097,0.533,0.018,1.055-0.12,1.568c-0.066,0.24-0.28,0.334-0.507,0.337c-0.183,0.006-0.367-0.048-0.549-0.075
	c-0.789-0.116-1.131,0.14-1.231,0.976c-0.071,0.578-0.094,1.162-0.131,1.746c-0.107,1.737-0.217,3.477-0.311,5.213
	C40.26,108.448,40.154,108.817,39.814,109.091"/>
<path d="M62.492,129.001c-0.666-0.114-1.438,0.047-2.125-0.447c-0.002-0.215-0.037-0.431-0.004-0.641
	c0.127-0.858,0.273-1.715,0.414-2.572c0.039-0.244,0.092-0.489,0.118-0.736c0.164-1.537,0.321-3.074,0.484-4.648
	c-0.123-0.231-0.372-0.356-0.647-0.428c-0.18-0.05-0.367-0.069-0.549-0.108c-0.755-0.151-0.895-0.338-0.788-1.072
	c0.027-0.185,0.064-0.369,0.113-0.55c0.048-0.174,0.118-0.348,0.157-0.465c0.264-0.232,0.517-0.201,0.76-0.173
	c0.557,0.063,1.111,0.139,1.666,0.212c1.23,0.158,2.462,0.318,3.693,0.484c0.149,0.021,0.297,0.077,0.455,0.117
	c0.352,0.664,0.082,1.286-0.068,1.905c-0.049,0.194-0.246,0.289-0.444,0.276c-0.243-0.015-0.487-0.076-0.733-0.105
	c-0.568-0.069-0.955,0.197-1.094,0.755c-0.043,0.182-0.074,0.366-0.095,0.548c-0.237,2.131-0.472,4.26-0.709,6.389
	C63.047,128.174,63.017,128.617,62.492,129.001"/>
<path d="M65.757,129.301c0.009-0.409-0.006-0.718,0.029-1.018c0.035-0.306,0.088-0.614,0.185-0.903
	c0.263-0.801,0.431-1.606,0.489-2.45c0.128-1.734,0.32-3.462,0.494-5.191c0.035-0.337,0.086-0.68,0.187-1.002
	c0.14-0.45,0.455-0.657,0.923-0.595c0.49,0.064,0.977,0.175,1.457,0.294c0.318,0.08,0.458,0.296,0.436,0.622
	c-0.012,0.181-0.069,0.363-0.125,0.54c-0.18,0.564-0.26,1.139-0.314,1.731c-0.072,0.77-0.193,1.544-0.396,2.288
	c-0.146,0.544-0.26,1.082-0.308,1.64c-0.104,1.234-0.212,2.473-0.327,3.71c-0.061,0.644-0.349,0.89-0.99,0.784
	C66.919,129.658,66.345,129.525,65.757,129.301"/>
<path d="M86.654,128.652c-0.477-0.065-0.676-0.345-0.719-0.759c-0.014-0.125-0.021-0.25-0.015-0.374
	c0.075-1.427,0.142-2.855,0.238-4.283c0.028-0.431,0.123-0.861,0.231-1.282c0.104-0.411,0.412-0.663,0.814-0.619
	c0.428,0.046,0.854,0.166,1.262,0.302c0.293,0.096,0.407,0.353,0.387,0.672c-0.051,0.782-0.209,1.546-0.478,2.276
	c-0.472,1.281-0.987,2.551-1.493,3.819C86.841,128.506,86.722,128.582,86.654,128.652"/>
<path d="M87.247,130.251c-0.067,0.584-0.112,1.012-0.168,1.436c-0.034,0.244-0.06,0.497-0.152,0.718
	c-0.112,0.269-0.339,0.468-0.651,0.429c-0.397-0.049-0.799-0.117-1.176-0.239c-0.365-0.12-0.602-0.423-0.51-0.868
	c0.074-0.361,0.061-0.742,0.153-1.098c0.075-0.291,0.229-0.571,0.392-0.826c0.071-0.109,0.264-0.217,0.389-0.202
	c0.365,0.04,0.737,0.104,1.082,0.228C86.853,129.919,87.058,130.122,87.247,130.251"/>
<path d="M72.643,57.47c-0.261,0.167-0.376-0.033-0.503-0.203c-0.008-0.014,0.009-0.063,0.023-0.069
	c0.053-0.02,0.135-0.059,0.155-0.039c0.107,0.106,0.2,0.227,0.3,0.337C72.621,57.494,72.643,57.47,72.643,57.47"/>
<path d="M72.198,56.878c-0.021,0.018-0.054,0.053-0.063,0.049c-0.048-0.024-0.088-0.059-0.13-0.091
	c0.023-0.013,0.054-0.048,0.067-0.041C72.117,56.815,72.154,56.849,72.198,56.878"/>
</svg>
