<?xml version="1.0" encoding="utf-8"?>
<!-- Generator: Adobe Illustrator 12.0.0, SVG Export Plug-In . SVG Version: 6.00 Build 51448)  -->
<!DOCTYPE svg PUBLIC "-//W3C//DTD SVG 1.1//EN" "http://www.w3.org/Graphics/SVG/1.1/DTD/svg11.dtd" [
	<!ENTITY ns_svg "http://www.w3.org/2000/svg">
	<!ENTITY ns_xlink "http://www.w3.org/1999/xlink">
]>
<svg  version="1.1" id="Layer_1" xmlns="&ns_svg;" xmlns:xlink="&ns_xlink;" width="100.416" height="124.75"
	 viewBox="0 0 100.416 124.75" overflow="visible" enable-background="new 0 0 100.416 124.75" xml:space="preserve">
<path d="M10.03,124.245c-0.071-0.24-0.176-0.477-0.203-0.722c-0.072-0.695-0.177-1.394-0.153-2.089
	c0.046-1.344-0.213-2.654-0.334-3.978c-0.054-0.598-0.087-1.198-0.136-1.799c-0.04-0.474-0.236-0.702-0.688-0.747
	c-0.251-0.024-0.507,0.019-0.76,0.024c-0.739,0.015-0.951-0.191-0.979-0.947c-0.007-0.19-0.003-0.381,0.005-0.572
	c0.007-0.159,0.024-0.315,0.038-0.471c0.31-0.363,0.729-0.354,1.14-0.382c1.331-0.081,2.662-0.169,3.991-0.268
	c0.347-0.027,0.689-0.106,1.033-0.152c0.521-0.065,0.799,0.129,0.859,0.639c0.051,0.411,0.063,0.824,0.052,1.234
	c-0.006,0.272-0.212,0.474-0.485,0.505c-0.221,0.026-0.443,0.002-0.665,0.013c-0.593,0.032-0.923,0.37-0.912,0.98
	c0.012,0.564,0.055,1.132,0.107,1.697c0.131,1.357,0.274,2.711,0.412,4.066c0.045,0.443,0.101,0.884,0.144,1.325
	c0.021,0.223,0.057,0.45,0.025,0.665c-0.056,0.389-0.182,0.744-0.656,0.822c-0.109,0.015-0.206,0.118-0.309,0.182
	C11.049,124.264,10.539,124.255,10.03,124.245"/>
<path d="M36.124,60.973c-0.024,0.005-0.049,0.01-0.071,0.015c0.029,0.016,0.058,0.029,0.085,0.046
	C36.133,61.014,36.128,60.994,36.124,60.973 M20.093,65.339c-0.075-0.03-0.122-0.053-0.172-0.066
	c-0.012-0.001-0.05,0.061-0.045,0.066c0.027,0.032,0.063,0.08,0.099,0.081C20.011,65.417,20.046,65.372,20.093,65.339
	 M27.893,65.831c-0.021-0.01-0.043-0.021-0.063-0.021c-0.008,0-0.017,0.03-0.024,0.045c0.021,0.01,0.044,0.021,0.066,0.02
	C27.877,65.875,27.888,65.846,27.893,65.831 M21.564,66.684c-0.022-0.009-0.047-0.021-0.07-0.021c-0.007,0-0.017,0.031-0.022,0.05
	c0.021,0.006,0.045,0.02,0.067,0.017C21.549,66.729,21.556,66.698,21.564,66.684 M13.381,60.455c0.027,0.009,0.053,0.023,0.08,0.024
	c0.009-0.003,0.018-0.039,0.028-0.059c-0.027-0.009-0.055-0.021-0.08-0.021C13.399,60.4,13.391,60.435,13.381,60.455 M16.228,63.833
	c0.058-0.021,0.141-0.025,0.16-0.063c0.021-0.042-0.021-0.11-0.036-0.169c-0.071,0.036-0.146,0.072-0.219,0.109
	C16.164,63.751,16.197,63.79,16.228,63.833 M13.821,59.157c-0.064,0.053-0.104,0.082-0.143,0.115
	c0.052,0.054,0.098,0.118,0.158,0.154c0.019,0.012,0.081-0.054,0.124-0.087C13.914,59.28,13.867,59.217,13.821,59.157
	 M35.046,60.728c0.074,0.039,0.144,0.084,0.217,0.109c0.011,0.003,0.087-0.125,0.075-0.137c-0.051-0.056-0.122-0.091-0.188-0.134
	C35.12,60.612,35.091,60.657,35.046,60.728 M19.333,65.242c-0.069,0.038-0.116,0.063-0.163,0.089
	c0.056,0.062,0.102,0.153,0.17,0.172c0.041,0.011,0.114-0.088,0.172-0.139C19.45,65.323,19.386,65.278,19.333,65.242 M16.27,41.78
	c-0.069-0.972-0.14-1.951-0.214-2.935c-0.01-0.16-0.058-0.317-0.045-0.474c0.081-1.021-0.095-2.028-0.187-3.04
	c-0.138-1.52-0.268-3.037-0.401-4.559c-0.077-0.887-0.169-1.773-0.233-2.661c-0.103-1.429-0.197-2.854-0.277-4.281
	c-0.052-0.921-0.068-1.844-0.108-2.765c-0.016-0.381-0.05-0.76-0.082-1.136c-0.154-1.808-0.337-3.611-0.464-5.419
	c-0.208-2.981-0.385-5.966-0.57-8.949c-0.073-1.207-0.139-2.413-0.202-3.622c-0.013-0.218,0.006-0.437,0.01-0.697
	c0.304-0.204,0.663-0.172,0.998-0.189c1.334-0.072,2.668-0.144,4.003-0.172c0.888-0.015,1.771-0.126,2.667-0.036
	c0.462,0.047,0.944-0.11,1.42-0.138c1.364-0.081,2.731-0.134,4.094-0.217c0.539-0.028,1.076-0.099,1.612-0.149
	c0.031-0.004,0.064-0.012,0.096-0.011C30.705,0.38,33.008,0.003,35.326,0c0.148,0,0.304,0.023,0.512,0.04
	c0.002,0.293,0.024,0.538,0.009,0.785c-0.118,1.744-0.241,3.49-0.363,5.235c-0.015,0.19-0.038,0.38-0.052,0.571
	c-0.203,2.787-0.391,5.578-0.604,8.366c-0.283,3.711-0.588,7.42-0.879,11.131c-0.201,2.535-0.388,5.074-0.598,7.609
	c-0.07,0.854-0.204,1.701-0.307,2.555c-0.037,0.313-0.091,0.631-0.088,0.947c0.004,0.924-0.058,1.842-0.198,2.748
	c-0.104,0.693-0.335,1.359-0.714,1.954c-0.32,0.499-0.808,0.587-1.32,0.262c-0.411-0.26-0.718-0.63-0.968-1.036
	c-0.081-0.128-0.093-0.295-0.119-0.449c-0.013-0.093,0.001-0.192,0.021-0.285c0.482-2.09,0.412-4.236,0.616-6.354
	c0.27-2.753,0.469-5.514,0.675-8.272c0.138-1.874,0.244-3.746,0.345-5.62c0.064-1.142,0.131-2.286,0.135-3.433
	c0.003-1.081,0.025-2.152,0.175-3.229c0.136-0.974,0.136-1.966,0.206-2.951c0.158-2.253,0.326-4.503,0.484-6.757
	c0.006-0.059-0.024-0.121-0.05-0.243c-0.157-0.02-0.336-0.075-0.513-0.065c-3.272,0.162-6.541,0.326-9.813,0.498
	c-1.524,0.081-3.047,0.179-4.571,0.273c-0.09,0.003-0.178,0.043-0.251,0.063c-0.035,0.076-0.083,0.133-0.081,0.187
	c0.024,0.731,0.045,1.463,0.088,2.192c0.138,2.287,0.271,4.571,0.427,6.855c0.245,3.619,0.495,7.235,0.764,10.851
	c0.082,1.108,0.231,2.213,0.348,3.317c0.029,0.287,0.063,0.57,0.08,0.856c0.11,1.937,0.206,3.874,0.332,5.811
	c0.113,1.746,0.261,3.488,0.385,5.231c0.092,1.238,0.169,2.474,0.25,3.704c-0.323,0.406-0.749,0.633-1.137,0.899
	c-0.871,0.597-1.651,1.287-2.355,2.076c-3.161,3.541-3.885,9.492-0.476,14.012c0.237,0.316,0.643,0.553,0.596,1.041
	c-0.005,0.032,0.081,0.103,0.111,0.095c0.356-0.081,0.486,0.238,0.696,0.402c0.578,0.444,1.093,0.997,1.725,1.346
	c1.024,0.562,2.115,1.01,3.271,1.271c5.113,1.174,9.95-1.138,12.406-5.213c0.497-0.83,0.751-1.733,1.063-2.619
	c0.316-0.898,0.438-1.845,0.386-2.813c-0.129-2.45,0.08-2.493-1.323-5.389c-0.279-0.575-0.603-1.109-1.023-1.587
	c-0.442-0.496-0.866-1.009-1.298-1.516c-0.145-0.171-0.279-0.349-0.438-0.5c-0.134-0.126-0.299-0.221-0.429-0.319
	c0.017-0.251,0.19-0.276,0.337-0.282c1.213-0.048,2.415,0.029,3.589,0.371c0.297,0.086,0.505,0.24,0.692,0.469
	c0.73,0.89,1.311,1.877,1.773,2.927c0.269,0.611,0.513,1.236,0.707,1.872c1.059,3.429,0.558,6.725-0.915,9.921
	c-0.111,0.244-0.371,0.417-0.506,0.657c-0.138,0.239-0.163,0.549-0.312,0.777c-0.291,0.44-0.404,1.023-0.97,1.25
	c-0.072,0.605-0.805,0.801-0.88,1.406c-0.006,0.058-0.054,0.131-0.101,0.158c-0.66,0.38-1.084,1.06-1.821,1.364
	c-0.7,0.286-1.344,0.715-2.024,1.059c-1.286,0.652-2.656,1.077-4.083,1.253c-1.861,0.228-3.724,0.249-5.563-0.268
	c-0.048-0.134-0.089-0.251-0.15-0.427c-0.394,0.237-0.805,0.319-1.205,0.007c-0.029-0.143-0.062-0.288-0.093-0.436
	c-0.666,0.184-0.671,0.193-1.237-0.069c-3.081-1.439-5.375-3.689-6.888-6.733c-0.107-0.216-0.124-0.479-0.193-0.717
	c-0.056-0.179-0.115-0.358-0.19-0.529c-0.092-0.203-0.215-0.39-0.299-0.593c-0.097-0.236-0.2-0.477-0.237-0.724
	c-0.087-0.622-0.355-1.199-0.419-1.829c-0.232-2.304-0.12-4.567,0.688-6.767c0.895-2.428,2.226-4.562,4.229-6.242
	C15.653,42.188,15.951,42.007,16.27,41.78"/>
<path d="M29.541,48.993c-0.01,0.026-0.021,0.052-0.032,0.081c0.041,0,0.08,0.001,0.119,0.004c-0.008-0.029-0.01-0.061-0.024-0.08
	C29.599,48.987,29.563,48.994,29.541,48.993 M17.249,52.987c-0.009,0.023-0.019,0.046-0.027,0.068
	c0.032,0.004,0.067,0.005,0.102,0.005c-0.005-0.022-0.006-0.052-0.019-0.07C17.298,52.982,17.269,52.987,17.249,52.987
	 M20.126,54.753c-0.023,0.015-0.065,0.029-0.064,0.039c0.004,0.05,0.021,0.099,0.035,0.146c0.021-0.013,0.064-0.03,0.063-0.043
	C20.157,54.848,20.141,54.802,20.126,54.753 M28.301,55.714c0.047,0.021,0.093,0.054,0.145,0.066
	c0.015,0.004,0.041-0.034,0.062-0.053c-0.046-0.022-0.094-0.053-0.143-0.068C28.35,55.653,28.322,55.694,28.301,55.714
	 M31.535,56.522c-0.059-0.015-0.11-0.032-0.162-0.037c-0.021,0-0.044,0.043-0.065,0.062c0.049,0.027,0.089,0.069,0.141,0.072
	C31.472,56.623,31.503,56.558,31.535,56.522 M31.743,56.948c-0.001-0.025,0.009-0.062-0.006-0.074
	c-0.015-0.014-0.049-0.008-0.074-0.012c0.002,0.035,0.006,0.074,0.01,0.113C31.694,56.966,31.721,56.956,31.743,56.948
	 M20.205,60.021l0.026,0.067l0.032-0.063L20.205,60.021z M24.65,55.083c0.046,0.024,0.092,0.049,0.132,0.074
	c0.017-0.042,0.036-0.082,0.039-0.125c0-0.012-0.056-0.047-0.066-0.041C24.716,55.015,24.685,55.052,24.65,55.083 M17.129,54.672
	c0.02,0.049,0.027,0.108,0.062,0.145c0.014,0.014,0.119-0.024,0.12-0.04c0.003-0.053-0.027-0.105-0.043-0.159
	C17.221,54.638,17.175,54.653,17.129,54.672 M21.991,50.438c0.026-0.049,0.053-0.095,0.069-0.144
	c0.003-0.005-0.055-0.05-0.067-0.042c-0.042,0.021-0.075,0.058-0.112,0.091C21.917,50.375,21.955,50.403,21.991,50.438
	 M20.137,55.634c-0.089-0.327-0.106-0.334-0.623-0.171C19.737,55.523,19.936,55.578,20.137,55.634 M18.178,50.094
	c0.088,0.001,0.211,0.039,0.259-0.004c0.146-0.136,0.287-0.661,0.286-1.032c-0.12,0.126-0.224,0.193-0.264,0.288
	c-0.103,0.252-0.176,0.51-0.262,0.765c-0.016,0.039-0.032,0.08-0.05,0.119C18.157,50.183,18.167,50.139,18.178,50.094
	 M19.943,47.753c-0.124,0.414-0.567,0.397-0.504,0.846c0.574-0.382,1.096-0.711,1.399-1.288c0.242-0.03,0.49-0.035,0.719-0.1
	c0.239-0.07,0.46-0.203,0.707-0.317c0.006-0.365,0.022-0.716,0.014-1.063c-0.013-0.436-0.052-0.871,0.084-1.295
	c-0.327-0.418-0.185-0.916-0.231-1.377c-0.041-0.443-0.05-0.891-0.074-1.337c-0.025-0.476-0.068-0.95-0.072-1.428
	c-0.021-2.163-0.247-4.313-0.395-6.468c-0.015-0.221-0.017-0.445-0.028-0.667c-0.054-0.952-0.105-1.902-0.163-2.855
	c-0.046-0.789-0.099-1.582-0.153-2.373c-0.084-1.204-0.18-2.405-0.256-3.613c-0.057-0.92-0.081-1.841-0.133-2.762
	c-0.1-1.774-0.22-3.548-0.312-5.324c-0.078-1.484,0.796-2.577,2.248-2.86c0.881-0.173,1.772-0.144,2.639,0.154
	c0.984,0.342,1.481,1.054,1.564,2.064c0.03,0.347,0.034,0.706-0.038,1.046c-0.203,0.975-0.184,1.959-0.176,2.941
	c0.03,2.607,0.131,5.213,0.081,7.815c-0.038,1.847,0.017,3.686,0.026,5.527c0.011,1.746-0.059,3.496,0.002,5.243
	c0.089,2.538-0.084,5.077,0.016,7.613c0.012,0.253-0.004,0.507-0.009,0.83c0.286,0.094,0.525,0.401,0.912,0.118
	c0.076-0.057,0.251-0.032,0.357,0.013c0.398,0.174,0.794,0.341,1.148,0.631c0.689,0.565,1.334,1.167,1.919,1.843
	c0.556,0.642,0.868,1.386,1.063,2.195c0.104,0.427,0.191,0.856,0.287,1.285c0.024,0.093,0.049,0.185,0.065,0.275
	c0.088,0.533,0.045,1.071,0.107,1.608c0.054,0.48-0.07,1.011-0.236,1.479c-0.292,0.832-0.611,1.675-1.415,2.307
	c0.058,0.467-0.18,0.839-0.608,1.191c-0.664,0.548-1.39,0.99-2.117,1.432c-0.399,0.236-0.881,0.337-1.325,0.494
	c-0.719,0.253-1.475,0.332-2.209,0.51c-0.32,0.079-0.605,0.013-0.888-0.198c-0.219-0.164-0.5-0.305-0.764-0.333
	c-0.608-0.064-1.157-0.306-1.733-0.461c-0.177-0.047-0.339-0.154-0.506-0.243c-0.054-0.027-0.094-0.109-0.146-0.116
	c-1.187-0.107-1.604-1.139-2.196-1.906c-0.433-0.562-0.852-1.178-1.044-1.892c-0.56-0.622-0.621-1.438-0.745-2.191
	c-0.126-0.765-0.043-1.566-0.125-2.351c-0.023-0.229,0.114-0.492,0.227-0.718c0.428-0.846,0.864-1.692,1.323-2.522
	c0.102-0.184,0.278-0.371,0.465-0.45c0.313-0.141,0.503-0.329,0.643-0.641C19.413,47.936,19.661,47.895,19.943,47.753"/>
<path d="M0,81.259c0.963-0.358,1.966-0.497,2.96-0.651c3.296-0.52,6.592-1.038,9.895-1.499c2.141-0.297,4.292-0.518,6.442-0.732
	c2.688-0.269,5.378-0.523,8.071-0.74c1.965-0.156,3.934-0.259,5.903-0.349c2.793-0.135,5.592-0.284,8.389-0.341
	c3.402-0.072,6.805-0.073,10.209-0.07c4.612,0.005,9.222,0.195,13.826,0.454c2.89,0.164,5.774,0.411,8.657,0.647
	c1.965,0.16,3.93,0.34,5.889,0.557c2.116,0.236,4.229,0.509,6.338,0.795c2.174,0.296,4.348,0.597,6.511,0.951
	c2.382,0.388,4.756,0.843,7.13,1.272c0.052,0.009,0.093,0.072,0.196,0.155c-0.267,0.009-0.483,0.034-0.691,0.021
	c-2.349-0.146-4.698-0.293-7.047-0.446c-1.429-0.093-2.855-0.2-4.286-0.295c-1.87-0.12-3.742-0.232-5.614-0.353
	c-2.002-0.131-4.001-0.273-6-0.397C75,80.124,73.223,80,71.445,79.924c-4.575-0.196-9.153-0.418-13.73-0.537
	c-4.26-0.109-8.523-0.151-12.787-0.122c-3.719,0.025-7.437,0.175-11.155,0.291c-2.639,0.086-5.277,0.195-7.914,0.317
	c-2.225,0.103-4.444,0.248-6.666,0.372c-2.097,0.115-4.191,0.22-6.287,0.337c-2.128,0.123-4.253,0.253-6.38,0.379
	c-1.08,0.063-2.158,0.125-3.238,0.185c-0.794,0.044-1.586,0.091-2.381,0.125C0.604,81.285,0.302,81.264,0,81.259"/>
<path d="M88.927,98.502c-0.023-0.046-0.046-0.094-0.067-0.14c-0.029,0.015-0.083,0.038-0.08,0.039
	c0.02,0.055,0.045,0.109,0.073,0.162C88.877,98.543,88.9,98.521,88.927,98.502 M92.088,99.421c-0.023-0.009-0.047-0.024-0.068-0.023
	c-0.012,0-0.019,0.034-0.03,0.049c0.023,0.014,0.047,0.023,0.07,0.035C92.07,99.461,92.08,99.441,92.088,99.421 M87.88,100.686
	c-0.051-0.028-0.098-0.081-0.147-0.084c-0.046-0.004-0.096,0.049-0.143,0.077c0.046,0.028,0.093,0.084,0.138,0.085
	C87.779,100.765,87.828,100.716,87.88,100.686 M90.661,100.937l-0.066-0.044l-0.015,0.059L90.661,100.937z M90.63,101.532
	c0.021-0.009,0.044-0.018,0.065-0.027c-0.042-0.004-0.081-0.01-0.12-0.016C90.595,101.503,90.61,101.519,90.63,101.532
	 M90.689,102.416c-0.03,0.011-0.058,0.021-0.085,0.03c0.008,0.021,0.016,0.059,0.026,0.06c0.024,0.003,0.054-0.013,0.08-0.019
	C90.702,102.463,90.695,102.439,90.689,102.416 M90.882,103.043c0.053,0.021,0.1,0.046,0.146,0.054
	c0.021,0.004,0.043-0.031,0.063-0.054c-0.037-0.025-0.071-0.069-0.11-0.073C90.953,102.968,90.916,103.016,90.882,103.043
	 M89.464,101.078c0.112,0.178,0.236,0.14,0.368,0.022C89.717,100.935,89.596,100.949,89.464,101.078 M88.268,100.082
	c-0.006-0.022-0.009-0.057-0.026-0.066c-0.011-0.01-0.042,0.012-0.065,0.019c0.015,0.034,0.031,0.068,0.047,0.098
	C88.236,100.117,88.253,100.1,88.268,100.082 M88.952,99.877c-0.025-0.038-0.054-0.077-0.086-0.116
	c-0.017,0.016-0.056,0.039-0.056,0.044c0.025,0.04,0.053,0.075,0.084,0.113C88.896,99.92,88.936,99.891,88.952,99.877
	 M89.548,100.081c0.011,0.055,0.023,0.112,0.036,0.166c0.114-0.024,0.233-0.048,0.351-0.07c-0.005-0.029-0.008-0.06-0.011-0.089
	C89.798,100.086,89.671,100.083,89.548,100.081 M87.634,98.904c-0.025,0.015-0.052,0.028-0.078,0.043
	c0.041,0.029,0.079,0.079,0.12,0.079c0.04,0.001,0.083-0.047,0.126-0.072C87.744,98.937,87.69,98.92,87.634,98.904 M89.02,100.873
	c-0.08-0.064-0.146-0.12-0.214-0.177c-0.02,0.026-0.058,0.061-0.051,0.075c0.032,0.063,0.071,0.129,0.124,0.182
	C88.887,100.96,88.957,100.908,89.02,100.873 M89.713,102.332c0.048-0.019,0.099-0.04,0.149-0.056
	c-0.037-0.039-0.071-0.112-0.101-0.111c-0.066,0.006-0.123,0.05-0.187,0.079C89.622,102.274,89.666,102.304,89.713,102.332
	 M92.45,100.896c-0.011,0.039-0.023,0.077-0.036,0.119c0.091,0.031,0.182,0.079,0.275,0.094c0.027,0.006,0.069-0.081,0.104-0.126
	C92.679,100.954,92.566,100.925,92.45,100.896 M91.537,100.129c-0.041-0.075-0.061-0.153-0.09-0.155
	c-0.05-0.011-0.127,0.021-0.152,0.059c-0.021,0.03,0.012,0.1,0.018,0.153C91.386,100.167,91.457,100.148,91.537,100.129
	 M92.147,101.999c-0.433,0.38-0.445,0.957-0.589,1.447c-0.222,0.782-0.378,1.584-0.598,2.375c-0.091,0.32-0.227,0.593-0.483,0.798
	c-0.374,0.302-0.943,0.122-1.066-0.349c-0.079-0.31-0.141-0.625-0.148-0.943c-0.021-0.854-0.19-1.695-0.151-2.563
	c0.022-0.504-0.203-1.057-0.688-1.373c-0.13-0.09-0.349-0.043-0.683-0.074c0.237,0.271,0.371,0.423,0.505,0.575
	c-0.15,0.319-0.208,0.681-0.24,1.14c-0.074,0.938-0.106,1.882-0.138,2.824c-0.005,0.179-0.089,0.354-0.149,0.575
	c-0.773,0.016-1.522,0.23-2.228-0.216c-0.046-1.185,0.059-2.311,0.256-3.433c0.067-0.375,0.095-0.756,0.129-1.136
	c0.083-0.918,0.117-1.834,0.264-2.75c0.136-0.841,0.085-1.713,0.116-2.569c0.01-0.319,0-0.639,0.025-0.954
	c0.031-0.413,0.247-0.632,0.656-0.677c0.188-0.022,0.384-0.013,0.57,0.01c0.505,0.062,1.008,0.145,1.515,0.207
	c0.326,0.041,0.51,0.226,0.591,0.533c0.032,0.122,0.073,0.243,0.091,0.369c0.148,1,0.301,2.001,0.43,3.004
	c0.037,0.274-0.002,0.561-0.008,0.915c0.132,0.066,0.317,0.156,0.552,0.268c0.217-0.435,0.62-0.691,0.629-1.225
	c0.003-0.204,0.093-0.493,0.357-0.635c0.069-0.038,0.107-0.219,0.08-0.316c-0.085-0.313,0.311-0.381,0.301-0.656
	c-0.008-0.25,0.026-0.504,0.045-0.756c0.003-0.029,0.018-0.059,0.031-0.088c0.406-0.853,0.349-1.191,1.617-1.021
	c0.502,0.067,1.007,0.119,1.497,0.239c0.484,0.113,0.622,0.355,0.552,0.833c-0.053,0.349-0.14,0.689-0.192,1.032
	c-0.107,0.72-0.204,1.442-0.304,2.164c0.293,0.984-0.066,1.942-0.119,2.913c-0.058,0.982-0.183,1.964-0.291,2.943
	c-0.04,0.378-0.117,0.752-0.181,1.127c-0.061,0.359-0.272,0.591-0.639,0.57c-0.503-0.024-1.006-0.114-1.502-0.222
	c-0.103-0.022-0.254-0.255-0.228-0.351c0.223-0.814,0.086-1.65,0.171-2.471c0.062-0.554,0.057-0.554,0.433-1.02
	c-0.084-0.323-0.171-0.654-0.256-0.984c-0.048-0.187-0.192-0.236-0.357-0.254c-0.025-0.254-0.147-0.402-0.418-0.394
	c-0.154,0.003-0.327-0.002-0.375,0.193c-0.047,0.199,0.09,0.275,0.251,0.313C91.898,101.97,92.026,101.982,92.147,101.999"/>
<path d="M25.273,117.369c0.051,0.023,0.094,0.051,0.143,0.065c0.019,0.006,0.047-0.034,0.069-0.057
	c-0.036-0.033-0.072-0.082-0.115-0.096C25.351,117.276,25.308,117.338,25.273,117.369 M25.215,115.06
	c-0.014-0.025-0.037-0.075-0.05-0.073c-0.056,0.009-0.113,0.031-0.168,0.051c0.021,0.024,0.043,0.07,0.058,0.068
	C25.109,115.099,25.164,115.073,25.215,115.06 M28.017,115.11c-0.018-0.019-0.04-0.057-0.056-0.057
	c-0.049,0.009-0.099,0.031-0.145,0.048c0.017,0.021,0.04,0.063,0.055,0.062C27.923,115.152,27.97,115.127,28.017,115.11
	 M24.416,117.329c-0.049-0.021-0.097-0.061-0.143-0.056c-0.033,0.002-0.063,0.061-0.095,0.096c0.049,0.024,0.1,0.064,0.151,0.065
	C24.357,117.435,24.387,117.367,24.416,117.329 M27.688,119.235c-0.024,0.013-0.049,0.027-0.076,0.042
	c0.013,0.023,0.041,0.064,0.043,0.063c0.042-0.02,0.078-0.048,0.115-0.072C27.743,119.258,27.718,119.246,27.688,119.235
	 M26.315,117.568c-0.032-0.07-0.055-0.116-0.08-0.163c-0.067,0.037-0.141,0.075-0.207,0.109c0.019,0.043,0.049,0.121,0.066,0.12
	C26.17,117.624,26.242,117.595,26.315,117.568 M24.069,115.582c-0.024,0.005-0.05,0.013-0.073,0.02
	c0.03,0.019,0.061,0.04,0.097,0.051c0.011,0.003,0.031-0.028,0.048-0.043C24.117,115.603,24.094,115.591,24.069,115.582
	 M27.924,116.29c-0.082-0.057-0.116-0.105-0.157-0.109c-0.053-0.007-0.109,0.022-0.166,0.039c0.015,0.049,0.036,0.144,0.049,0.141
	C27.723,116.354,27.794,116.327,27.924,116.29 M25.473,116.438c0-0.027,0-0.054,0.002-0.078c-0.104-0.002-0.206-0.004-0.313-0.005
	c-0.001,0.024-0.001,0.05-0.002,0.076C25.267,116.434,25.369,116.436,25.473,116.438 M24.656,116.581
	c-0.013,0.019-0.024,0.038-0.035,0.059c0.02,0.009,0.041,0.027,0.057,0.022c0.016-0.008,0.026-0.036,0.036-0.053
	C24.694,116.599,24.673,116.59,24.656,116.581 M28.998,117.146c0.055-0.026,0.107-0.058,0.159-0.085
	c-0.04-0.036-0.088-0.105-0.122-0.098c-0.067,0.014-0.13,0.066-0.195,0.101C28.894,117.093,28.944,117.12,28.998,117.146
	 M25.79,116.663c0.152,0.173,0.257,0.04,0.358,0.011c0.047-0.012,0.068-0.115,0.103-0.183c-0.056-0.006-0.125-0.038-0.169-0.02
	C25.983,116.523,25.893,116.597,25.79,116.663 M28.696,118.065c-0.338,0.524-0.329,1.143-0.406,1.727
	c-0.095,0.747-0.135,1.504-0.24,2.254c-0.041,0.29-0.112,0.558-0.299,0.788c-0.329,0.399-0.855,0.343-1.096-0.117
	c-0.058-0.11-0.106-0.232-0.13-0.357c-0.204-0.992-0.398-1.989-0.603-2.985c-0.113-0.531-0.335-1.009-0.773-1.361
	c-0.13-0.102-0.238-0.098-0.604,0.032c-0.062,0.313,0.353,0.212,0.397,0.575c0.001-0.007-0.019,0.115-0.056,0.229
	c-0.035,0.109-0.138,0.222-0.13,0.322c0.069,0.629,0.159,1.257,0.241,1.888c0.071,0.523,0.043,1.053,0.116,1.576
	c0.046,0.33-0.095,0.465-0.421,0.513c-0.439,0.064-0.878,0.138-1.321,0.155c-0.34,0.015-0.476-0.174-0.542-0.526
	c-0.151-0.819-0.141-1.642-0.147-2.467c-0.01-0.921-0.071-1.841-0.096-2.764c-0.017-0.505,0.019-1.014-0.015-1.52
	c-0.059-0.825-0.149-1.646-0.229-2.469c-0.036-0.378-0.087-0.758-0.108-1.138c-0.032-0.631,0.173-0.861,0.808-0.924
	c0.154-0.014,0.314-0.011,0.475-0.008c0.54,0.006,1.075,0.019,1.593,0.028c0.64,0.642,0.553,1.511,0.854,2.23
	c0.299,0.717,0.364,1.53,0.551,2.385c0.078,0.035,0.242,0.109,0.465,0.208c0.195-0.436,0.551-0.738,0.455-1.267
	c-0.033-0.193,0.06-0.508,0.203-0.612c0.331-0.233-0.028-0.568,0.182-0.775c0.229-0.229,0.045-0.478,0.074-0.707
	c0.06-0.469,0.171-0.936,0.338-1.372c0.064-0.161,0.346-0.322,0.531-0.33c0.695-0.04,1.396-0.033,2.094-0.006
	c0.315,0.014,0.525,0.252,0.549,0.563c0.02,0.317,0.007,0.638-0.013,0.956c-0.067,1.011-0.074,2.004,0.139,3.016
	c0.162,0.767,0.106,1.582,0.119,2.379c0.022,1.333,0.036,2.666,0.033,4.003c0,0.55-0.12,0.685-0.645,0.734
	c-0.503,0.048-1.014,0.122-1.54-0.122c-0.014-0.136-0.025-0.289-0.034-0.438c-0.023-0.408-0.05-0.822-0.07-1.231
	c-0.028-0.601-0.213-1.22,0-1.794c0.217-0.592-0.081-0.981-0.37-1.399c-0.022-0.034-0.12-0.013-0.182-0.021
	c-0.068-0.227-0.179-0.41-0.455-0.368c-0.258,0.037-0.371,0.195-0.33,0.506C28.27,118.059,28.483,118.062,28.696,118.065"/>
<path d="M87.901,15.561c-0.487,0.063-0.894,0.144-1.302,0.158c-0.314,0.012-0.631-0.03-0.937-0.103
	c-0.3-0.072-0.459-0.271-0.468-0.621c-0.019-0.624,0.015-1.259-0.199-1.935c-0.278-0.134-0.587-0.278-0.876-0.412
	c-0.379,0.228-0.51,0.558-0.581,0.897c-0.079,0.368-0.188,0.761-0.136,1.125c0.138,0.98-0.041,1.959,0.041,2.942
	c0.07,0.849-0.012,1.708-0.027,2.599c0.237,0.238,0.474,0.48,0.733,0.743c0.356-0.18,0.659-0.335,0.96-0.483
	c0.011-0.672,0.017-1.303,0.036-1.934c0.006-0.188,0.03-0.381,0.081-0.563c0.053-0.194,0.198-0.34,0.404-0.347
	c0.634-0.026,1.272-0.035,1.905-0.036c0.259-0.005,0.411,0.176,0.477,0.396c0.07,0.24,0.15,0.502,0.132,0.746
	c-0.069,0.98-0.166,1.952-0.563,2.879c-0.53,1.246-1.499,1.762-2.777,1.779c-0.568,0.005-1.153-0.03-1.708-0.157
	c-1.068-0.239-1.93-0.752-2.201-1.951c-0.133-0.593-0.243-1.176-0.265-1.784c-0.037-1.271-0.081-2.538-0.127-3.809
	c-0.008-0.221-0.038-0.438,0.15-0.621c0.05-0.048,0.057-0.176,0.036-0.257c-0.216-0.83-0.039-1.633,0.177-2.431
	c0.155-0.57,0.491-1.023,0.983-1.36c0.234-0.161,0.477-0.311,0.713-0.471c0.298-0.202,0.611-0.309,0.982-0.295
	c0.442,0.018,0.885-0.031,1.327-0.029c0.985,0.008,1.74,0.41,2.305,1.246c0.771,1.134,1.011,2.369,0.881,3.701
	C88.047,15.292,87.968,15.404,87.901,15.561"/>
<path d="M86.518,39.714c0.013-0.681,0.024-1.377,0.036-2.034c-0.308-0.337-0.649-0.483-1.009-0.626
	c-0.402,0.352-0.583,0.78-0.667,1.258c-0.038,0.221-0.067,0.443-0.078,0.663c-0.063,1.3-0.116,2.599-0.183,3.898
	c-0.026,0.571-0.077,1.14-0.114,1.725c0.217,0.239,0.427,0.476,0.658,0.735c0.335-0.13,0.653-0.253,1.018-0.396
	c0.036-0.604,0.07-1.195,0.11-1.788c0.01-0.19,0.023-0.382,0.069-0.563c0.085-0.335,0.26-0.468,0.624-0.462
	c0.572,0.011,1.146,0.044,1.716,0.069c0.256,0.013,0.426,0.141,0.485,0.381c0.057,0.246,0.146,0.505,0.115,0.748
	c-0.117,1.01-0.281,2.006-0.761,2.936c-0.589,1.14-1.502,1.645-3,1.557c-0.507-0.029-1.01-0.119-1.513-0.202
	c-0.945-0.155-1.874-1.046-2.088-1.986c-0.135-0.591-0.216-1.183-0.192-1.795c0.051-1.303,0.071-2.607,0.1-3.909
	c0.006-0.225-0.002-0.436,0.163-0.627c0.057-0.068,0.031-0.221,0.023-0.332c-0.096-0.941,0.108-1.828,0.502-2.68
	c0.165-0.352,0.411-0.644,0.74-0.854c0.348-0.224,0.703-0.434,1.068-0.63c0.134-0.072,0.296-0.135,0.447-0.135
	c0.601-0.003,1.203-0.003,1.803,0.041c0.95,0.066,1.645,0.522,2.152,1.357c0.652,1.068,0.933,2.789,0.529,4.054
	c-0.623,0.207-1.287,0.167-1.946,0.116C87.032,40.206,86.787,40.056,86.518,39.714"/>
<path d="M66.834,98.99c-0.015-0.016-0.024-0.045-0.043-0.053c-0.021-0.007-0.051,0.002-0.08,0.003
	c0.021,0.033,0.035,0.063,0.057,0.089C66.772,99.032,66.812,99.005,66.834,98.99 M65.167,100.104
	c-0.021-0.024-0.043-0.068-0.061-0.063c-0.054,0.007-0.106,0.032-0.161,0.052c0.02,0.023,0.043,0.067,0.061,0.063
	C65.062,100.148,65.112,100.124,65.167,100.104 M62.509,101.023c0.022,0.009,0.047,0.016,0.068,0.024
	c-0.014-0.025-0.029-0.053-0.045-0.074C62.524,100.989,62.518,101.005,62.509,101.023 M65.587,99.037
	c0.05-0.022,0.102-0.047,0.153-0.069c-0.041-0.031-0.086-0.092-0.119-0.086c-0.068,0.009-0.128,0.057-0.189,0.089
	C65.483,98.991,65.533,99.017,65.587,99.037 M65.877,98.212c0.53-0.615,0.44-1.293,0.333-1.937
	c-0.114-0.677-0.883-0.962-1.491-0.593c-0.112,0.066-0.21,0.246-0.219,0.379c-0.023,0.41-0.006,0.82-0.003,1.232
	c0.003,0.155-0.008,0.313,0.01,0.47c0.044,0.439,0.263,0.624,0.686,0.573C65.412,98.311,65.627,98.261,65.877,98.212
	 M64.363,100.409c0.028,0.171,0.1,0.334,0.067,0.476c-0.191,0.866-0.077,1.735-0.064,2.606c0.005,0.413-0.025,0.824-0.071,1.235
	c-0.026,0.243-0.202,0.393-0.449,0.417c-0.157,0.018-0.317,0.008-0.477,0.002c-0.379-0.012-0.756-0.033-1.135-0.037
	c-0.471-0.008-0.718-0.188-0.771-0.656c-0.053-0.466-0.099-0.94-0.069-1.408c0.104-1.715,0.22-3.425,0.381-5.129
	c0.038-0.425-0.18-0.882,0.133-1.277c-0.417-0.772-0.111-1.597-0.151-2.396c-0.028-0.591,0.11-0.742,0.665-0.847
	c0.336-0.063,0.703-0.092,1.037-0.029c0.725,0.132,1.447,0.139,2.178,0.137c0.475-0.006,0.955,0.021,1.424,0.099
	c0.902,0.144,1.507,0.657,1.669,1.586c0.106,0.623,0.22,1.255,0.222,1.885c0.002,0.77-0.18,1.506-0.816,2.058
	c-0.298,0.261-0.287,0.41-0.118,0.759c0.015,0.026,0.031,0.054,0.05,0.081c0.584,0.754,0.57,1.652,0.574,2.529
	c0.003,0.606-0.072,1.207,0.121,1.797c0.028,0.088,0.023,0.187,0.03,0.282c0.03,0.607-0.187,0.8-0.793,0.731
	c-0.345-0.04-0.691-0.051-1.039-0.071c-0.568-0.026-0.813-0.19-0.93-0.757c-0.083-0.396-0.086-0.816-0.089-1.229
	c-0.003-0.41,0.051-0.821,0.055-1.234c0.005-0.251-0.004-0.514-0.063-0.755c-0.143-0.579-0.56-0.875-1.178-0.876
	C64.629,100.389,64.502,100.401,64.363,100.409"/>
<path d="M69.412,39.865c-0.013-0.021-0.022-0.05-0.041-0.059c-0.021-0.007-0.054,0.004-0.08,0.007
	c0.019,0.031,0.03,0.063,0.057,0.086C69.353,39.905,69.389,39.878,69.412,39.865 M68.814,41.026c-0.082-0.034-0.15-0.09-0.185-0.073
	c-0.071,0.041-0.128,0.114-0.193,0.176c0.073,0.028,0.155,0.097,0.213,0.079C68.714,41.188,68.757,41.097,68.814,41.026
	 M70.592,41.567c-0.238-0.313-0.513-0.556-0.918-0.655c-0.486,0.464-0.829,0.941-0.801,1.648c0.024,0.634,0.167,1.224,0.381,1.873
	c0.314-0.077,0.611-0.149,0.862-0.213C70.649,43.353,70.543,42.446,70.592,41.567 M69.038,38.705
	c0.379,0.104,0.683,0.188,1.03,0.286c0.249-0.414,0.657-0.413,1.079-0.328c0.216,0.04,0.428,0.117,0.644,0.163
	c0.588,0.118,0.926,0.524,1.161,1.031c0.08,0.171,0.136,0.36,0.159,0.546c0.181,1.523,0.229,3.037-0.255,4.528
	c-0.242,0.745-0.711,1.236-1.415,1.569c-1.21,0.568-2.403,0.491-3.592-0.024c-0.813-0.354-1.313-0.976-1.437-1.874
	c-0.128-0.944-0.211-1.894-0.137-2.851c0.067-0.915,0.142-1.831,0.194-2.746c0.025-0.443-0.019-0.889,0.02-1.332
	c0.045-0.473,0.131-0.942,0.232-1.407c0.328-1.561,1.436-2.445,3.212-2.602c0.676-0.058,1.334,0.029,1.877,0.512
	c0.116,0.102,0.262,0.177,0.404,0.248c0.985,0.505,1.2,1.418,1.262,2.401c0.023,0.381-0.173,0.618-0.55,0.643
	c-0.407,0.03-0.824,0.028-1.233-0.011c-0.357-0.034-0.666-0.189-0.815-0.565c-0.046-0.116-0.126-0.221-0.207-0.316
	c-0.384-0.459-1.074-0.405-1.356,0.118c-0.104,0.19-0.149,0.416-0.201,0.629c-0.037,0.154-0.05,0.315-0.058,0.473
	C69.044,38.079,69.044,38.362,69.038,38.705"/>
<path d="M50.115,112.029l-0.007,0.052l0.067-0.02L50.115,112.029z M51.513,116.324c0.028,0.011,0.054,0.026,0.079,0.024
	c0.014,0.001,0.02-0.037,0.03-0.061c-0.026-0.009-0.052-0.025-0.077-0.022C51.532,116.266,51.524,116.304,51.513,116.324
	 M51.755,115.595c0.488-0.685,0.329-1.349,0.224-1.992c-0.048-0.286-0.285-0.483-0.563-0.595c-0.544-0.223-1.097,0.157-1.081,0.736
	c0.009,0.345,0.016,0.689,0.033,1.036c0.01,0.187,0.021,0.378,0.062,0.562c0.081,0.373,0.309,0.52,0.696,0.439
	C51.34,115.739,51.545,115.657,51.755,115.595 M50.363,117.885c0.013,0.136,0.024,0.189,0.021,0.245
	c-0.056,1.168,0.027,2.333,0.031,3.501c0.002,0.097,0.001,0.19-0.007,0.285c-0.039,0.623-0.198,0.757-0.839,0.736
	c-0.409-0.017-0.821-0.016-1.233-0.025c-0.361-0.007-0.604-0.186-0.652-0.557c-0.067-0.532-0.139-1.068-0.121-1.6
	c0.046-1.618,0.117-3.237,0.216-4.855c0.026-0.465-0.134-0.947,0.097-1.398c-0.412-0.739-0.138-1.541-0.21-2.312
	c-0.019-0.219,0.006-0.44,0.009-0.629c0.443-0.433,0.948-0.501,1.457-0.431c0.822,0.112,1.636,0.127,2.466,0.058
	c0.493-0.04,1.012,0.07,1.507,0.175c0.484,0.101,0.892,0.383,1.076,0.854c0.41,1.049,0.651,2.129,0.417,3.262
	c-0.105,0.499-0.271,0.979-0.694,1.32c-0.092,0.076-0.139,0.206-0.217,0.323c0.049,0.131,0.067,0.265,0.141,0.359
	c0.674,0.892,0.687,1.934,0.707,2.983c0.008,0.44,0.075,0.883,0.119,1.319c0.004,0.063,0.033,0.123,0.045,0.187
	c0.138,0.814-0.079,1.045-0.893,0.967c-0.249-0.025-0.502,0-0.752,0.002c-0.554,0.014-0.842-0.168-0.976-0.704
	c-0.092-0.366-0.132-0.749-0.151-1.126c-0.017-0.348,0.025-0.698,0.034-1.046c0.004-0.224-0.011-0.448-0.014-0.669
	c-0.011-0.436-0.175-0.797-0.507-1.088C51.13,117.75,50.783,117.877,50.363,117.885"/>
<path d="M81.753,118.665c-0.053,0.021-0.103,0.043-0.151,0.063c0.021,0.021,0.042,0.063,0.058,0.06
	c0.055-0.01,0.105-0.037,0.156-0.061C81.796,118.706,81.772,118.687,81.753,118.665 M79.411,118.097l0.059,0.04l0.013-0.052
	L79.411,118.097z M81.907,117.586c0.274,0.052,0.355,0.064,0.437,0.079c0.004-0.043,0.006-0.088,0.01-0.128
	C82.271,117.547,82.187,117.555,81.907,117.586 M82.566,116.874c0.47-0.493,0.384-1.108,0.377-1.701
	c-0.008-0.416-0.195-0.756-0.588-0.895c-0.405-0.14-0.805-0.093-1.123,0.346c-0.009,0.504-0.021,1.039-0.027,1.574
	c0.002,0.126,0.003,0.255,0.031,0.377c0.072,0.353,0.329,0.519,0.693,0.452C82.146,116.987,82.359,116.924,82.566,116.874
	 M78.775,112.26c0.586-0.386,1.098-0.397,1.596-0.276c0.661,0.157,1.324,0.157,1.99,0.195c0.536,0.029,1.074,0.095,1.603,0.21
	c0.706,0.153,1.208,0.58,1.354,1.313c0.187,0.934,0.399,1.864,0.13,2.828c-0.158,0.564-0.36,1.083-0.851,1.448
	c-0.07,0.052-0.11,0.15-0.157,0.211c-0.067,0.333,0.134,0.566,0.261,0.813c0.18,0.344,0.26,0.687,0.294,1.084
	c0.053,0.637,0.059,1.258-0.032,1.892c-0.04,0.272,0.048,0.563,0.064,0.847c0.019,0.285,0.044,0.572,0.032,0.855
	c-0.011,0.262-0.254,0.456-0.524,0.437c-0.411-0.034-0.82-0.082-1.229-0.12c-0.5-0.045-0.79-0.248-0.855-0.732
	c-0.064-0.469-0.052-0.949-0.043-1.423c0.009-0.509,0.071-1.017,0.075-1.524c0.004-0.215-0.05-0.445-0.134-0.643
	c-0.071-0.168-0.212-0.316-0.343-0.446c-0.089-0.089-0.209-0.174-0.324-0.191c-0.213-0.032-0.438-0.016-0.683-0.021
	c-0.002,0.12-0.001,0.201-0.005,0.284c-0.057,1.196-0.09,2.396-0.176,3.589c-0.063,0.87-0.229,0.968-1.095,0.857
	c-0.308-0.039-0.625-0.051-0.938-0.056c-0.449-0.01-0.718-0.224-0.746-0.683c-0.03-0.472-0.045-0.95-0.004-1.424
	c0.165-1.741,0.332-3.481,0.555-5.213c0.045-0.356-0.177-0.769,0.166-1.084c0.021-0.021,0.007-0.126-0.023-0.151
	c-0.24-0.208-0.144-0.476-0.129-0.716C78.65,113.694,78.72,112.971,78.775,112.26"/>
<path d="M81.305,103.899c0.571-0.631,0.722-1.31,0.682-2.07c-0.026-0.534,0.005-1.078,0.069-1.61
	c0.107-0.838,0.152-1.679,0.229-2.519c0.034-0.398-0.13-0.672-0.43-0.893c-0.301-0.216-0.63-0.195-0.83,0.112
	c-0.151,0.231-0.294,0.51-0.317,0.777c-0.142,1.632-0.295,3.268-0.337,4.904C80.354,103.138,80.572,103.742,81.305,103.899
	 M84.916,98.621c-0.044,1.634-0.101,2.869-0.365,4.086c0.096,0.74-0.229,1.362-0.554,1.985c-0.466,0.893-1.193,1.377-2.219,1.386
	c-0.798,0.004-1.588-0.025-2.342-0.335c-0.517-0.215-0.929-0.546-1.203-1.038c-0.362-0.646-0.615-1.326-0.61-2.079
	c0.015-1.877,0.122-3.744,0.402-5.606c0.134-0.883,0.699-1.472,1.176-2.136c0.084-0.119,0.25-0.196,0.395-0.256
	c1.34-0.53,2.659-0.512,3.97,0.113c0.801,0.385,1.126,1.101,1.24,1.897C84.917,97.42,84.898,98.221,84.916,98.621"/>
<path d="M71.396,103.035c-0.025-0.009-0.051-0.016-0.077-0.026c-0.005,0.031-0.011,0.068-0.017,0.103
	c0.029-0.003,0.059,0.001,0.083-0.012C71.398,103.092,71.394,103.06,71.396,103.035 M73.363,103.359
	c0.484-0.56,0.67-1.191,0.616-1.925c-0.036-0.472,0.001-0.95,0.018-1.427c0.018-0.438-0.033-0.908,0.105-1.312
	c0.162-0.476-0.072-0.93,0.081-1.392c0.152-0.471-0.113-0.787-0.48-1.033c-0.241-0.163-0.507-0.156-0.684,0.069
	c-0.152,0.191-0.298,0.416-0.361,0.65c-0.08,0.302-0.089,0.624-0.099,0.939c-0.053,1.297-0.058,2.597-0.163,3.889
	c-0.036,0.45,0.084,0.805,0.273,1.157C72.807,103.232,73.033,103.415,73.363,103.359 M76.854,99.372
	c-0.065,0.663-0.222,1.674-0.25,2.685c-0.023,0.757-0.229,1.427-0.562,2.082c-0.438,0.866-1.113,1.354-2.094,1.435
	c-0.836,0.069-1.645-0.017-2.438-0.296c-0.569-0.196-0.984-0.568-1.279-1.083c-0.385-0.673-0.617-1.391-0.613-2.174
	c0.006-1.783,0.079-3.557,0.288-5.328c0.109-0.911,0.651-1.568,1.155-2.252c0.105-0.142,0.302-0.234,0.477-0.306
	c1.269-0.511,2.539-0.498,3.798,0.033c0.962,0.405,1.325,1.24,1.42,2.188C76.842,97.238,76.818,98.134,76.854,99.372"/>
<path d="M69.756,12.737c0.021,0.008,0.041,0.017,0.065,0.024c-0.014-0.023-0.028-0.047-0.04-0.072
	C69.771,12.706,69.764,12.723,69.756,12.737 M69.887,14.442c-0.025-0.008-0.055-0.023-0.08-0.024
	c-0.01,0.003-0.021,0.036-0.031,0.056c0.028,0.011,0.054,0.027,0.081,0.027C69.867,14.501,69.875,14.463,69.887,14.442
	 M70.131,17.729c-0.008-0.022-0.015-0.058-0.025-0.058c-0.025-0.004-0.055,0.009-0.08,0.017c0.008,0.021,0.015,0.062,0.022,0.062
	C70.076,17.749,70.102,17.734,70.131,17.729 M69.607,19.034c-0.059-0.021-0.109-0.049-0.164-0.057
	c-0.015-0.003-0.041,0.04-0.06,0.061c0.038,0.028,0.076,0.082,0.114,0.082C69.532,19.122,69.568,19.067,69.607,19.034
	 M69.096,13.878c-0.046-0.024-0.09-0.054-0.136-0.067c-0.023-0.008-0.054,0.015-0.081,0.022c0.021,0.031,0.043,0.086,0.062,0.086
	C68.994,13.92,69.044,13.892,69.096,13.878 M68.882,19.163c-0.022,0.084-0.062,0.151-0.044,0.188
	c0.025,0.044,0.093,0.079,0.148,0.088c0.022,0.002,0.092-0.096,0.082-0.104C69.019,19.275,68.956,19.226,68.882,19.163
	 M68.201,18.181c0.135-0.18,0.314-0.319,0.344-0.485c0.086-0.489,0.323-0.959,0.18-1.48c-0.037-0.129,0.041-0.293,0.074-0.438
	c0.02-0.079,0.102-0.175,0.077-0.224c-0.147-0.3-0.313-0.585-0.462-0.854c-0.377,0.054-0.58,0.188-0.689,0.507
	c-0.176,0.504-0.391,0.998-0.612,1.485c-0.128,0.283-0.301,0.545-0.454,0.817c-0.027,0.049-0.058,0.097-0.08,0.134
	c0.144,0.17,0.279,0.334,0.431,0.517C67.368,18.165,67.743,18.173,68.201,18.181 M64.349,20.533c-0.27-0.314-0.232-0.67-0.217-1.018
	c0.024-0.507,0.036-1.014,0.096-1.519c0.033-0.276,0.126-0.559,0.249-0.808c0.488-0.997,1.002-1.981,1.501-2.975
	c0.198-0.396,0.378-0.8,0.568-1.2c0.354-0.744,0.703-1.489,1.071-2.228c0.213-0.431,0.523-0.663,1.063-0.594
	c0.498,0.066,1.013,0,1.517,0.009c0.219,0.003,0.445,0.025,0.655,0.086c0.226,0.063,0.391,0.22,0.38,0.482
	c-0.017,0.381,0.028,0.784-0.084,1.135c-0.154,0.479-0.099,0.938-0.073,1.41c0.072,1.428,0.141,2.854,0.211,4.317
	c0.135,0.11,0.295,0.215,0.411,0.352c0.141,0.166,0.315,0.35,0.351,0.547c0.148,0.823,0.17,1.645-0.429,2.326
	c-0.314,0.354-0.485,0.733-0.442,1.21c0.021,0.219,0.024,0.447,0.001,0.668c-0.033,0.349-0.288,0.612-0.62,0.595
	c-0.442-0.026-0.88-0.05-1.323-0.003c-0.313,0.033-0.644-0.329-0.676-0.685c-0.019-0.218,0.021-0.442,0.021-0.664
	c0.002-0.221,0.013-0.447-0.034-0.659c-0.093-0.43-0.354-0.649-0.808-0.662c-0.823-0.021-1.65-0.012-2.478-0.021
	C64.95,20.631,64.627,20.681,64.349,20.533"/>
<path d="M9.354,100.805c-0.059-0.016-0.107-0.032-0.157-0.038c-0.019,0-0.039,0.038-0.06,0.059c0.044,0.025,0.085,0.066,0.132,0.07
	C9.293,100.897,9.323,100.839,9.354,100.805 M8.169,101.449c0.001-0.033,0.001-0.066,0.002-0.099
	c-0.16-0.002-0.32-0.005-0.479-0.008c-0.001,0.032-0.001,0.064-0.002,0.099C7.85,101.444,8.01,101.446,8.169,101.449 M8.474,99.694
	c-0.091-0.026-0.159-0.055-0.229-0.056c-0.022-0.004-0.046,0.068-0.066,0.107c0.046,0.022,0.098,0.071,0.144,0.063
	C8.365,99.805,8.405,99.75,8.474,99.694 M8.842,102.716c-0.283-0.11-0.578-0.226-0.883-0.343c0.077,0.692,0.152,1.376,0.233,2.057
	c0.057,0.49,0.031,0.989,0.176,1.474c0.069,0.229-0.028,0.478-0.267,0.547c-0.637,0.184-1.271,0.396-1.957,0.21
	c-0.325-0.088-0.5-0.282-0.518-0.593c-0.02-0.381,0.012-0.761,0.004-1.143c-0.013-0.599-0.007-1.204-0.065-1.802
	c-0.148-1.516-0.32-3.027-0.498-4.54c-0.085-0.725-0.191-1.447-0.316-2.166C4.68,95.999,4.68,95.603,4.91,95.163
	c0.79-0.173,1.601-0.505,2.495-0.088c0.023,0.179,0.064,0.361,0.069,0.546c0.014,0.5,0.002,0.995,0.02,1.495
	c0.005,0.15,0.039,0.318,0.115,0.443c0.151,0.247,0.268,0.49,0.241,0.795c-0.005,0.057,0.125,0.123,0.207,0.196
	c0.08-0.058,0.182-0.095,0.217-0.166c0.259-0.532,0.294-1.146,0.696-1.636c0.179-0.217,0.143-0.603,0.21-0.911
	c0.042-0.186,0.091-0.371,0.152-0.551c0.134-0.394,0.394-0.639,0.829-0.673c0.441-0.036,0.883-0.093,1.324-0.119
	c0.261-0.016,0.507,0.044,0.708,0.326c-0.073,0.497-0.331,0.971-0.534,1.462c-0.398,0.969-0.797,1.936-1.209,2.896
	c-0.242,0.567-0.219,1.067,0.116,1.619c0.805,1.327,1.554,2.688,2.314,4.04c0.138,0.247,0.247,0.514,0.322,0.785
	c0.087,0.305-0.062,0.498-0.37,0.527c-0.599,0.057-1.197,0.105-1.798,0.144c-0.354,0.022-0.612-0.142-0.753-0.469
	c-0.101-0.234-0.194-0.47-0.285-0.705c-0.192-0.506-0.4-0.998-0.718-1.444C9.102,103.426,9.017,103.107,8.842,102.716"/>
<path d="M59.862,20.285c0.063,0.089,0.11,0.25,0.206,0.28c0.43,0.136,0.812,0.375,1.338,0.211c0.466-0.145,1.006-0.063,1.51-0.049
	c0.229,0.004,0.403,0.229,0.409,0.451c0.015,0.475,0.033,0.947,0.026,1.42c-0.008,0.454-0.201,0.641-0.634,0.654
	c-0.032,0.003-0.064,0.002-0.096-0.002c-1.718-0.148-3.432-0.006-5.147,0.071c-0.19,0.01-0.384,0.018-0.57-0.005
	c-0.321-0.039-0.566-0.327-0.573-0.656c-0.002-0.189,0.042-0.379,0.017-0.563c-0.162-1.171,0.306-2.101,1.088-2.924
	c0.304-0.322,0.605-0.654,0.854-1.017c0.629-0.914,1.342-1.771,1.806-2.789c0.117-0.258,0.216-0.53,0.344-0.782
	c0.079-0.164,0.204-0.306,0.321-0.476c-0.043-0.212-0.074-0.464-0.149-0.698c-0.043-0.146-0.126-0.314-0.242-0.399
	c-0.484-0.35-1.084-0.495-1.209,0.324c-0.142,0.907-0.746,1.079-1.455,1.201c-0.762,0.131-1.342-0.027-1.279-1.124
	c0.003-0.032,0.002-0.063,0.002-0.096c0.023-1.918,1.136-3.075,3.073-3.16c0.724-0.031,1.447-0.011,2.143,0.308
	c0.302,0.138,0.552,0.3,0.764,0.538c0.743,0.822,1.029,1.821,1.054,2.895c0.017,0.834-0.149,1.651-0.608,2.369
	c-0.511,0.806-1.041,1.598-1.578,2.387c-0.106,0.15-0.258,0.278-0.406,0.394c-0.172,0.139-0.41,0.219-0.54,0.387
	C60.14,19.678,60.027,19.978,59.862,20.285"/>
<path d="M70.863,111.602c0.473-0.197,0.907-0.168,1.349-0.049c0.3,0.079,0.66-0.092,0.91,0.163c0.284,0.285,0.129,0.672,0.122,1.004
	c-0.013,0.729-0.093,1.455-0.131,2.185c-0.091,1.678-0.164,3.354-0.261,5.031c-0.028,0.473,0.18,0.792,0.562,1.016
	c0.184,0.107,0.399,0.169,0.66,0.274c0.128-0.24,0.291-0.441,0.342-0.668c0.092-0.397,0.141-0.805,0.157-1.215
	c0.013-0.244-0.112-0.496,0.118-0.715c0.05-0.041,0.037-0.178,0.021-0.264c-0.185-0.953,0-1.899,0.036-2.846
	c0.037-0.978,0.13-1.953,0.203-2.93c0.018-0.217,0.057-0.434,0.086-0.629c0.965-0.375,1.063-0.373,2.434-0.012
	c0.188,0.252,0.14,0.549,0.122,0.824c-0.109,1.84-0.234,3.677-0.358,5.516c-0.032,0.475-0.063,0.949-0.118,1.424
	c-0.057,0.501-0.131,1.003-0.222,1.5c-0.225,1.229-1.07,1.83-2.202,2.089c-1.023,0.235-2.024,0.027-2.989-0.31
	c-0.544-0.188-0.886-0.639-1.06-1.164c-0.134-0.414-0.224-0.869-0.214-1.305c0.044-2.063,0.137-4.123,0.201-6.187
	c0.014-0.537,0.021-1.08-0.041-1.612C70.543,112.317,70.607,111.974,70.863,111.602"/>
<path d="M23.746,98.943c-0.042,0.019-0.083,0.044-0.13,0.064c0.021,0.018,0.045,0.057,0.055,0.053
	c0.047-0.012,0.089-0.039,0.133-0.063C23.787,98.979,23.766,98.962,23.746,98.943 M24.733,96.079
	c-0.481,0.584-0.481,0.584-0.505,1.417c-0.125,0.134-0.245,0.267-0.377,0.406c0.561,0.342,1.132,0.378,1.735,0.319
	c0.41-0.04,0.825-0.029,1.239-0.021c0.26,0.005,0.448,0.16,0.475,0.38c0.055,0.407,0.114,0.817,0.117,1.224
	c0.003,0.205-0.112,0.409-0.18,0.628c-1.015,0.118-1.987,0.232-3.021,0.35c0.258,0.317,0.433,0.627,0.213,0.947
	c-0.216,0.317,0.24,0.584,0.021,0.879c0.229,0.257,0.436,0.559,0.835,0.543c0.41-0.018,0.822-0.061,1.232-0.092
	c0.409-0.031,0.823-0.077,1.235-0.085c0.294-0.006,0.514,0.166,0.533,0.438c0.034,0.441,0.046,0.888,0.012,1.328
	c-0.025,0.371-0.246,0.551-0.627,0.6c-0.125,0.017-0.254,0.015-0.379,0.018c-1.113,0.011-2.223,0.018-3.336,0.039
	c-0.283,0.005-0.563,0.069-0.847,0.093c-0.252,0.024-0.511,0.069-0.752,0.031c-0.293-0.044-0.491-0.196-0.558-0.548
	c-0.34-1.79-0.435-3.582-0.229-5.4c0.068-0.619-0.04-1.264-0.092-1.896c-0.07-0.919-0.182-1.835-0.237-2.755
	c-0.051-0.821,0.264-1.136,1.112-1.168c0.412-0.015,0.826-0.003,1.239-0.019c0.984-0.04,1.97-0.067,2.953-0.145
	c0.955-0.076,1.254,0.03,1.292,1.234c0.006,0.157-0.038,0.314-0.07,0.471c-0.112,0.588-0.27,0.74-0.894,0.764
	C26.18,96.081,25.48,96.074,24.733,96.079"/>
<path d="M14.92,102.394l-0.054-0.011l0.017,0.073L14.92,102.394z M16.082,99.417c-0.058-0.001-0.115-0.002-0.174-0.003
	c0.001,0.026,0.002,0.054,0.002,0.081c0.055-0.004,0.111-0.007,0.165-0.014C16.082,99.479,16.081,99.435,16.082,99.417
	 M16.974,96.481c-0.496,0.672-0.496,0.672-0.475,1.484c-0.133,0.12-0.267,0.239-0.459,0.411c0.575,0.158,1.043,0.367,1.6,0.284
	c0.468-0.071,0.952-0.053,1.428-0.049c0.365,0.003,0.518,0.166,0.554,0.517c0.03,0.281,0.041,0.568,0.091,0.845
	c0.056,0.308,0,0.567-0.239,0.865c-0.915,0.12-1.883,0.25-2.896,0.381c0.13,0.333,0.407,0.602,0.178,1.014
	c-0.145,0.263,0.021,0.651,0.15,0.911c0.127,0.255,0.414,0.482,0.787,0.444c0.314-0.033,0.631-0.043,0.947-0.074
	c0.474-0.048,0.943-0.122,1.418-0.153c0.345-0.026,0.578,0.154,0.604,0.465c0.033,0.413,0.051,0.828,0.027,1.239
	c-0.025,0.43-0.243,0.64-0.662,0.661c-1.016,0.048-2.032,0.089-3.049,0.115c-0.539,0.019-1.074-0.028-1.608,0.129
	c-0.229,0.068-0.506,0.028-0.752-0.015c-0.228-0.039-0.38-0.197-0.429-0.451c-0.334-1.787-0.535-3.575-0.313-5.398
	c0.046-0.371,0.012-0.761-0.027-1.138c-0.12-1.172-0.265-2.339-0.39-3.51c-0.086-0.818,0.201-1.172,1.049-1.228
	c1.11-0.07,2.223-0.096,3.336-0.153c0.41-0.021,0.82-0.088,1.232-0.12c0.559-0.039,0.828,0.165,0.94,0.72
	c0.044,0.215,0.051,0.444,0.04,0.662c-0.042,0.868-0.231,1.063-1.074,1.123c-0.35,0.024-0.699,0.032-1.05,0.036
	C17.616,96.5,17.301,96.488,16.974,96.481"/>
<path d="M44.326,100.735l-0.039,0.071l0.06,0.007L44.326,100.735z M45.122,95.577c-0.01-0.021-0.021-0.057-0.029-0.057
	c-0.053,0.004-0.104,0.019-0.155,0.027c0.011,0.021,0.022,0.058,0.03,0.058C45.022,95.599,45.071,95.586,45.122,95.577
	 M44.797,101.185c0.317,0.005,0.599,0.024,0.88,0.01c0.252-0.011,0.406-0.185,0.375-0.439c-0.121-1.004-0.049-2.029-0.313-3.019
	c-0.044-0.161-0.092-0.327-0.28-0.315c-0.103,0.009-0.231,0.107-0.287,0.199c-0.388,0.664-0.219,1.498-0.638,2.156
	c-0.006,0.014,0.043,0.049,0.047,0.078C44.651,100.287,44.722,100.716,44.797,101.185 M46.167,103.318
	c-0.27-0.032-0.457-0.074-0.646-0.073c-0.792,0.005-0.949,0.125-1.227,0.897c-0.254,0.704-0.381,0.803-1.095,0.808
	c-0.316,0.005-0.636-0.008-0.953-0.007c-0.316,0-0.544-0.132-0.682-0.435c0.195-1.016,0.401-2.039,0.586-3.065
	c0.419-2.339,0.829-4.682,1.243-7.019c0.046-0.252,0.096-0.501,0.165-0.744c0.099-0.345,0.331-0.531,0.693-0.537
	c0.698-0.014,1.395-0.027,2.093-0.036c0.398-0.003,0.649,0.207,0.777,0.577c0.03,0.092,0.069,0.186,0.069,0.275
	c0.011,1.056,0.419,2.036,0.57,3.065c0.147,1.003,0.325,2.005,0.53,2.997c0.221,1.083,0.495,2.158,0.729,3.238
	c0.081,0.369,0.126,0.749,0.153,1.128c0.017,0.239-0.155,0.427-0.39,0.467c-0.186,0.03-0.379,0.034-0.566,0.035
	c-0.346,0.003-0.693-0.012-1.038-0.009c-0.361,0.004-0.527-0.082-0.655-0.423C46.396,104.105,46.297,103.737,46.167,103.318"/>
<path d="M17.191,117.214c-0.015-0.024-0.036-0.065-0.048-0.063c-0.05,0.01-0.098,0.034-0.146,0.053
	c0.019,0.02,0.04,0.059,0.056,0.056C17.102,117.254,17.146,117.23,17.191,117.214 M18.075,114.267
	c-0.354,0.284-0.517,0.624-0.435,1.026c0.072,0.349-0.176,0.512-0.364,0.768c0.49,0.226,0.966,0.375,1.503,0.318
	c0.377-0.042,0.762-0.05,1.142-0.062c0.553-0.015,0.673,0.101,0.719,0.635c0.022,0.252,0.08,0.504,0.086,0.757
	c0.004,0.24-0.038,0.487-0.063,0.771c-0.972,0.258-1.927,0.275-2.892,0.437c0.131,0.37,0.326,0.749,0.034,1.129
	c0.209,0.272,0.039,0.661,0.318,0.933c0.276,0.266,0.574,0.388,0.944,0.344c0.599-0.078,1.194-0.17,1.794-0.234
	c0.57-0.061,0.783,0.105,0.818,0.638c0.023,0.378,0.033,0.763-0.002,1.14c-0.032,0.361-0.271,0.558-0.631,0.597
	c-0.096,0.012-0.191,0.007-0.289,0.009c-1.109,0.027-2.223,0.049-3.333,0.087c-0.283,0.01-0.57,0.054-0.845,0.123
	c-0.401,0.104-0.75,0.046-1.061-0.219c-0.424-1.488-0.487-3.009-0.502-4.531c-0.003-0.283,0.045-0.568,0.051-0.854
	c0.014-0.476,0.049-0.951,0.008-1.424c-0.108-1.203-0.26-2.399-0.385-3.601c-0.07-0.681,0.271-1.07,0.971-1.107
	c1.048-0.054,2.097-0.084,3.143-0.141c0.41-0.023,0.817-0.099,1.226-0.14c0.565-0.062,0.817,0.123,0.969,0.678
	c0.11,0.412,0.084,0.817-0.021,1.226c-0.104,0.396-0.243,0.536-0.652,0.567c-0.602,0.047-1.206,0.064-1.809,0.1
	C18.359,114.241,18.203,114.257,18.075,114.267"/>
<path d="M90.053,115.209c-0.572,0.475-0.572,0.475-0.703,1.341c-0.146,0.11-0.292,0.217-0.447,0.331
	c0.625,0.462,1.292,0.577,1.994,0.578c0.219,0.002,0.444,0.029,0.661,0.067c0.507,0.085,0.597,0.228,0.554,0.77
	c-0.021,0.253,0.001,0.508-0.014,0.762c-0.031,0.565-0.21,0.804-0.824,0.774c-0.756-0.034-1.512-0.03-2.269-0.045
	c0.043,0.357,0.249,0.735-0.115,1.047c0.017,0.291-0.036,0.601,0.054,0.863c0.09,0.255,0.28,0.511,0.601,0.559
	c0.313,0.044,0.627,0.087,0.941,0.104c0.477,0.028,0.953,0.022,1.426,0.058c0.312,0.021,0.514,0.196,0.499,0.461
	c-0.026,0.474-0.073,0.95-0.169,1.412c-0.066,0.323-0.306,0.452-0.643,0.46c-0.061-0.001-0.125-0.006-0.187-0.014
	c-0.947-0.109-1.891-0.224-2.837-0.331c-0.471-0.05-0.945-0.087-1.415-0.129c-0.19-0.018-0.384,0-0.569-0.034
	c-0.372-0.07-0.535-0.269-0.557-0.651c-0.082-1.527,0.019-3.046,0.276-4.552c0.012-0.063,0.013-0.132,0.04-0.185
	c0.392-0.839,0.329-1.735,0.37-2.62c0.047-0.952,0.08-1.905,0.157-2.857c0.044-0.561,0.403-0.838,0.958-0.819
	c0.126,0.003,0.252,0.024,0.378,0.039c0.915,0.097,1.829,0.196,2.748,0.285c0.408,0.037,0.821,0.051,1.232,0.065
	c0.793,0.029,1.084,0.353,1.018,1.147c-0.003,0.064-0.008,0.131-0.023,0.19c-0.235,0.88-0.181,1.323-1.438,1.111
	C91.19,115.3,90.619,115.269,90.053,115.209"/>
<path d="M58.268,118.653c-0.024-0.007-0.051-0.016-0.076-0.025c-0.003,0.035-0.006,0.068-0.01,0.105
	c0.026-0.008,0.055-0.011,0.078-0.021C58.27,118.706,58.266,118.675,58.268,118.653 M59.081,113.538
	c-0.022-0.014-0.048-0.029-0.071-0.045c0,0.028-0.001,0.058-0.001,0.084C59.032,113.566,59.056,113.554,59.081,113.538
	 M58.681,119.092c0.312,0.005,0.532,0.017,0.751,0.011c0.369-0.012,0.5-0.148,0.489-0.54c-0.022-0.665-0.049-1.33-0.103-1.993
	c-0.028-0.377-0.109-0.748-0.178-1.119c-0.01-0.049-0.086-0.113-0.132-0.117c-0.088-0.004-0.181,0.02-0.262,0.058
	c-0.049,0.026-0.086,0.091-0.115,0.144c-0.349,0.649-0.239,1.434-0.621,2.071c-0.01,0.019,0.024,0.056,0.026,0.088
	C58.585,118.13,58.628,118.563,58.681,119.092 M59.9,121.176c-0.262-0.023-0.511-0.071-0.759-0.064
	c-0.485,0.008-0.842,0.198-0.976,0.725c-0.199,0.783-0.38,1.005-1.378,0.918c-0.252-0.023-0.511,0-0.759-0.033
	c-0.406-0.054-0.587-0.341-0.497-0.746c0.234-1.053,0.513-2.099,0.698-3.161c0.396-2.251,0.927-4.472,1.35-6.715
	c0.029-0.156,0.048-0.316,0.095-0.467c0.147-0.49,0.393-0.659,0.91-0.654c0.538,0.01,1.076,0.02,1.613,0.027
	c0.674,0.008,0.969,0.201,0.995,0.874c0.041,1.051,0.353,2.054,0.487,3.085c0.136,1.038,0.231,2.086,0.431,3.11
	c0.192,0.996,0.384,1.987,0.555,2.984c0.075,0.436,0.116,0.881,0.137,1.325c0.011,0.24-0.168,0.424-0.402,0.458
	c-0.186,0.025-0.39,0.053-0.566,0.009c-0.313-0.078-0.608-0.098-0.928-0.033c-0.304,0.066-0.494-0.063-0.601-0.341
	c-0.091-0.236-0.138-0.488-0.214-0.731C60.038,121.567,59.975,121.393,59.9,121.176"/>
<path d="M42.484,115.135c0.49,0.224,0.975,0.38,1.521,0.347c0.442-0.023,0.888-0.001,1.333,0.019
	c0.236,0.013,0.432,0.202,0.445,0.418c0.027,0.377,0.041,0.753,0.056,1.129c0.008,0.265-0.067,0.499-0.314,0.7
	c-0.882,0.071-1.795,0.146-2.718,0.222c0.16,0.336,0.257,0.668,0.051,0.983c-0.178,0.274,0.25,0.536-0.009,0.796
	c0.115,0.145,0.213,0.32,0.357,0.433c0.145,0.11,0.334,0.21,0.507,0.223c0.313,0.021,0.631-0.033,0.944-0.047
	c0.476-0.025,0.949-0.056,1.427-0.055c0.236-0.003,0.429,0.185,0.439,0.421c0.017,0.444,0.028,0.893-0.015,1.332
	c-0.043,0.411-0.288,0.582-0.725,0.604c-0.064,0.002-0.129-0.002-0.189-0.005c-1.082-0.036-2.16-0.075-3.239-0.1
	c-0.282-0.005-0.563,0.054-0.848,0.069c-0.252,0.014-0.511,0.05-0.755,0.006c-0.292-0.059-0.467-0.238-0.523-0.585
	c-0.243-1.516-0.232-3.035-0.144-4.559c0.011-0.19,0.012-0.391,0.077-0.563c0.164-0.437,0.107-0.875,0.082-1.318
	c-0.076-1.236-0.148-2.475-0.19-3.714c-0.025-0.65,0.326-0.993,0.971-1.024c0.16-0.007,0.319,0.004,0.479,0.008
	c0.442,0.008,0.888,0.021,1.333,0.02c0.889-0.003,1.779-0.02,2.669-0.025c0.592-0.003,0.826,0.178,0.87,0.766
	c0.029,0.373-0.017,0.762-0.077,1.134c-0.055,0.365-0.28,0.539-0.649,0.58c-0.157,0.018-0.315,0.003-0.476,0
	c-0.477-0.008-0.952-0.028-1.432-0.028c-0.513-0.001-0.798,0.265-0.873,0.791C42.789,114.673,42.739,114.802,42.484,115.135"/>
<path d="M31.107,98.865c0,0.021,0,0.044-0.001,0.068c0.036-0.019,0.069-0.031,0.104-0.048c-0.01-0.019-0.024-0.054-0.035-0.055
	C31.154,98.832,31.133,98.853,31.107,98.865 M32.911,99.983c0.046,0.02,0.084,0.046,0.128,0.057c0.015,0.003,0.059-0.043,0.057-0.05
	c-0.02-0.034-0.05-0.063-0.074-0.094C32.984,99.922,32.947,99.954,32.911,99.983 M33.212,98.104c0.048,0.055,0.097,0.106,0.145,0.16
	c0.02-0.022,0.042-0.042,0.064-0.059c-0.049-0.035-0.092-0.074-0.143-0.099c-0.021-0.01-0.058,0.009-0.085,0.017
	c0.106-0.33,0.259-0.654,0.313-0.995c0.069-0.439,0.005-0.89-0.225-1.284c-0.183-0.308-0.539-0.299-0.841-0.373
	c-0.057-0.015-0.124,0.013-0.187,0.021c-0.132,0.159-0.368,0.315-0.377,0.478c-0.015,0.594,0.027,1.192,0.088,1.782
	c0.027,0.261,0.209,0.452,0.462,0.568c0.206,0.095,0.357-0.005,0.521-0.107C33.028,98.162,33.123,98.141,33.212,98.104
	 M29.71,100.118c-0.162-0.165-0.33-0.259-0.356-0.379c-0.064-0.308-0.083-0.632-0.078-0.948c0.017-1.141-0.038-2.278-0.167-3.413
	c-0.04-0.38-0.06-0.762-0.065-1.143c-0.004-0.5,0.187-0.756,0.649-0.757c1.422,0,2.849-0.21,4.27,0.004
	c0.868,0.133,1.556,0.569,1.845,1.44c0.188,0.566,0.341,1.161,0.407,1.754c0.049,0.432-0.088,0.884-0.105,1.326
	c-0.027,0.682-0.347,1.207-0.813,1.666c-0.469,0.465-1.012,0.75-1.691,0.762c-0.281,0.006-0.568,0.053-0.846,0.106
	c-0.429,0.087-0.8,0.559-0.706,1.083c0.118,0.653,0.168,1.32,0.238,1.984c0.031,0.313,0.062,0.632,0.053,0.949
	c-0.012,0.378-0.232,0.588-0.595,0.604c-0.505,0.024-1.013,0.054-1.52,0.06c-0.489,0.006-0.762-0.214-0.771-0.741
	c-0.013-1.175-0.057-2.35-0.114-3.523C29.33,100.611,29.439,100.349,29.71,100.118"/>
<path d="M36.197,117.68c0.005,0.025-0.001,0.062,0.011,0.071c0.02,0.017,0.055,0.011,0.08,0.015
	c-0.004-0.038-0.008-0.077-0.013-0.116C36.249,117.659,36.224,117.67,36.197,117.68 M36.523,115.81
	c0.071-0.242,0.146-0.449,0.187-0.666c0.043-0.216,0.074-0.436,0.073-0.654c0.002-0.967-0.175-1.167-1.161-1.355
	c-0.375,0.268-0.413,0.676-0.428,1.074c-0.014,0.345,0.027,0.694,0.067,1.037c0.052,0.412,0.26,0.703,0.66,0.784
	C36.127,115.958,36.301,115.894,36.523,115.81 M33.116,117.729c-0.203-0.168-0.428-0.25-0.402-0.533
	c0.016-0.157-0.018-0.318-0.011-0.475c0.076-1.556-0.102-3.104-0.204-4.654c-0.003-0.095-0.027-0.188-0.025-0.283
	c0.01-0.389,0.242-0.672,0.647-0.674c1.394-0.001,2.792-0.152,4.176,0.048c0.846,0.122,1.48,0.626,1.72,1.453
	c0.309,1.097,0.509,2.214,0.233,3.373c-0.266,1.12-1.146,1.97-2.29,2.087c-0.28,0.031-0.569,0.044-0.847,0.111
	c-0.54,0.127-0.791,0.484-0.744,1.039c0.059,0.664,0.134,1.327,0.2,1.989c0.02,0.19,0.049,0.377,0.062,0.568
	c0.058,0.859-0.074,0.996-0.929,1.004c-0.314,0.005-0.629,0.052-0.947,0.067c-0.656,0.041-0.885-0.143-0.904-0.787
	c-0.033-1.203-0.032-2.411-0.071-3.616C32.77,118.158,32.901,117.975,33.116,117.729"/>
<path d="M50.934,104.655c-0.072-1.067-0.039-2.047,0.027-3.027c0.034-0.474,0.101-0.947,0.1-1.417
	c-0.006-1.301-0.038-2.602-0.063-3.9c-0.012-0.551-0.165-0.728-0.715-0.79c-0.316-0.04-0.639-0.023-0.949-0.071
	c-0.464-0.072-0.665-0.3-0.656-0.784c0.008-0.439,0.075-0.877,0.109-1.251c0.38-0.334,0.763-0.319,1.142-0.311
	c1.081,0.026,2.16,0.065,3.238,0.084c0.633,0.011,1.267-0.018,1.9-0.023c0.191-0.002,0.384,0,0.568,0.032
	c0.2,0.034,0.335,0.163,0.385,0.369c0.137,0.537,0.079,1.072-0.023,1.604c-0.052,0.264-0.271,0.358-0.491,0.378
	c-0.217,0.017-0.438-0.047-0.659-0.057c-0.681-0.036-1.045,0.292-1.112,0.997c-0.012,0.123-0.051,0.251-0.04,0.372
	c0.089,0.881,0.048,1.756-0.002,2.637c-0.028,0.506,0.031,1.013,0.036,1.524c0.015,0.919,0.008,1.84,0.026,2.76
	c0.008,0.4-0.07,0.756-0.411,1.088C52.583,104.903,51.768,105.122,50.934,104.655"/>
<path d="M66.485,113.102l0.052,0.03l0.011-0.044L66.485,113.102z M65.151,113.645l0.065,0.037l0.013-0.052L65.151,113.645z
	 M62.776,111.339c0.494-0.28,0.908-0.225,1.319-0.203c1.238,0.071,2.476,0.144,3.716,0.202c0.443,0.02,0.888-0.012,1.333,0.007
	c0.402,0.019,0.604,0.188,0.619,0.577c0.018,0.44-0.011,0.889-0.065,1.328c-0.038,0.309-0.297,0.482-0.619,0.468
	c-0.223-0.009-0.443-0.074-0.663-0.08c-0.497-0.015-0.854,0.269-0.954,0.753c-0.044,0.216-0.087,0.441-0.073,0.655
	c0.063,0.856-0.015,1.704-0.089,2.557c-0.049,0.598-0.019,1.207-0.026,1.809c-0.011,0.793-0.022,1.589-0.033,2.385
	c-0.01,0.551-0.01,0.551-0.414,1.153c-0.575,0.024-1.172,0.132-1.771-0.004c-0.47-0.109-0.578-0.228-0.568-0.718
	c0.021-0.953-0.005-1.91,0.2-2.848c0.027-0.126,0.04-0.253,0.042-0.381c0.031-1.587,0.061-3.175,0.086-4.764
	c0.004-0.376-0.169-0.608-0.526-0.673c-0.311-0.061-0.633-0.05-0.945-0.097c-0.553-0.084-0.783-0.351-0.742-0.908
	C62.629,112.148,62.716,111.745,62.776,111.339"/>
<path d="M65.592,34.885c-0.139,1.649-0.287,3.291-0.421,4.937c-0.036,0.444-0.028,0.891-0.054,1.336
	c-0.045,0.789-0.01,1.582-0.173,2.371c-0.096,0.457-0.009,0.951-0.015,1.428c-0.006,0.315-0.035,0.633-0.038,0.949
	c-0.003,0.303-0.191,0.484-0.439,0.553c-0.735,0.204-1.456,0.049-2.145-0.204c-0.255-0.095-0.314-0.39-0.293-0.656
	c0.03-0.317,0.09-0.629,0.118-0.946c0.109-1.137,0.253-2.273,0.313-3.417c0.06-1.234,0.041-2.477,0.062-3.718
	c0.006-0.334-0.158-0.541-0.452-0.65c-0.328-0.127-0.664-0.22-0.99-0.339c-0.248-0.088-0.47-0.224-0.476-0.527
	c-0.013-0.438,0.22-0.787,0.572-0.89c0.062-0.017,0.127-0.035,0.188-0.034c0.631,0.016,1.042-0.404,1.486-0.753
	c0.271-0.214,0.495-0.498,0.774-0.701c0.54-0.391,1.25-0.348,1.758,0.1c0.108,0.095,0.188,0.262,0.211,0.405
	c0.045,0.249,0.035,0.505,0.049,0.759C65.615,34.885,65.605,34.885,65.592,34.885"/>
<path d="M77.595,16.454c0.451-0.275,0.432-0.701,0.438-1.1c0.02-0.914,0.022-1.828,0.022-2.742c0.001-0.219,0.003-0.448-0.063-0.652
	c-0.041-0.125-0.192-0.259-0.321-0.297c-0.202-0.06-0.393,0.08-0.447,0.262c-0.074,0.236-0.089,0.494-0.093,0.743
	c-0.015,0.912-0.022,1.823-0.006,2.732C77.13,15.802,77.19,16.207,77.595,16.454 M75.521,13.804c0.01-0.603-0.007-1.207,0.037-1.807
	c0.088-1.178,0.71-1.78,1.889-1.837c0.312-0.015,0.634,0.037,0.938,0.106c0.657,0.151,1.082,0.588,1.149,1.245
	c0.184,1.733,0.331,3.475-0.05,5.205c-0.111,0.515-0.434,0.861-0.898,1.025c-0.641,0.229-1.302,0.249-1.959,0.004
	c-0.376-0.14-0.685-0.369-0.793-0.757c-0.134-0.484-0.256-0.983-0.296-1.482c-0.044-0.563,0.009-1.135,0.019-1.7
	C75.546,13.804,75.531,13.804,75.521,13.804"/>
<path d="M37.955,38.247c-0.218-0.652-0.218-0.652,0.012-1.317c2.801,0.104,5.617,0.267,8.432,0.299
	c3.505,0.037,7.609,0.183,8.471,0.421c0.06,0.43-0.182,0.766-0.358,1.169c-0.192,0.021-0.376,0.059-0.559,0.056
	c-0.89-0.018-1.78-0.009-2.662-0.082c-1.458-0.123-2.916,0.042-4.372-0.029c-1.143-0.057-2.283-0.111-3.422-0.161
	c-0.984-0.043-1.967-0.068-2.949-0.129C39.695,38.419,38.844,38.324,37.955,38.247"/>
<path d="M78.871,40.535c0.137-0.124,0.254-0.188,0.305-0.285c0.084-0.167,0.171-0.354,0.185-0.533
	c0.081-1.138,0.142-2.276,0.208-3.414c0.005-0.093-0.02-0.188-0.038-0.281c-0.033-0.174-0.137-0.312-0.309-0.297
	c-0.141,0.014-0.352,0.085-0.393,0.185c-0.104,0.258-0.164,0.544-0.185,0.82c-0.067,0.886-0.103,1.773-0.154,2.658
	C78.468,39.779,78.516,40.146,78.871,40.535 M81.17,37.515c0.028,1.089-0.125,2.152-0.381,3.203
	c-0.166,0.692-0.598,1.068-1.307,1.182c-0.481,0.074-0.951,0.032-1.413-0.094c-0.53-0.146-0.898-0.48-1.022-1.021
	c-0.093-0.4-0.184-0.815-0.172-1.22c0.026-1.043,0.099-2.086,0.173-3.127c0.026-0.342,0.084-0.69,0.184-1.021
	c0.224-0.754,0.767-1.161,1.537-1.201c0.401-0.021,0.825,0.024,1.216,0.129c0.677,0.182,1.078,0.648,1.12,1.367
	C81.141,36.312,81.149,36.916,81.17,37.515"/>
<path d="M50.196,17.519c-0.008,0.136-0.005,0.23-0.023,0.322c-0.051,0.245-0.109,0.488-0.165,0.726
	c-0.394,0.291-0.824,0.147-1.221,0.159c-1.778,0.056-3.553,0.128-5.33,0.117c-1.559-0.012-3.112-0.118-4.668-0.194
	c-0.25-0.013-0.496-0.076-0.717-0.108c-0.292-0.372-0.229-0.75-0.166-1.125c0.031-0.027,0.052-0.048,0.076-0.069
	c0.023-0.017,0.055-0.049,0.08-0.049c3.876,0.01,7.754,0.026,11.633,0.043c0.095,0,0.189,0.012,0.281,0.038
	C50.034,17.393,50.082,17.442,50.196,17.519"/>
</svg>
