<?xml version="1.0" encoding="utf-8"?>
<!-- Generator: Adobe Illustrator 12.0.0, SVG Export Plug-In . SVG Version: 6.00 Build 51448)  -->
<!DOCTYPE svg PUBLIC "-//W3C//DTD SVG 1.1//EN" "http://www.w3.org/Graphics/SVG/1.1/DTD/svg11.dtd" [
	<!ENTITY ns_svg "http://www.w3.org/2000/svg">
	<!ENTITY ns_xlink "http://www.w3.org/1999/xlink">
]>
<svg  version="1.1" id="Layer_1" xmlns="&ns_svg;" xmlns:xlink="&ns_xlink;" width="100.258" height="131.289"
	 viewBox="0 0 100.258 131.289" overflow="visible" enable-background="new 0 0 100.258 131.289" xml:space="preserve">
<path d="M63.732,34.292c0.063,0.285,0.202,0.568,0.172,0.832c-0.059,0.505-0.214,0.993-0.193,1.521
	c0.012,0.272-0.223,0.479-0.502,0.509c-0.28,0.031-0.587,0.042-0.855-0.037c-0.761-0.216-1.534-0.195-2.304-0.143
	c-0.707,0.053-1.407,0.17-2.111,0.23c-0.607,0.057-1.222,0.106-1.827,0.101c-0.656-0.004-1.269-0.253-1.842-0.528
	c-0.723-0.348-1.398-0.786-1.953-1.393c-0.453-0.5-0.97-0.944-1.425-1.443c-0.469-0.512-1.065-0.838-1.66-1.148
	c-0.512-0.273-1.088-0.324-1.689-0.258c0.101,0.403,0.403,0.56,0.629,0.775c1.284,1.221,2.528,2.48,3.648,3.862
	c0.468,0.569,1.011,1.087,1.445,1.68c0.551,0.748,1.051,1.539,1.539,2.332c0.44,0.711,0.843,1.44,1.188,2.203
	c0.637,1.398,0.935,2.876,1.131,4.383c0.019,0.122-0.019,0.252-0.036,0.378c-0.062,0.438-0.129,0.877-0.204,1.377
	c-0.151,0.177-0.376,0.403-0.56,0.661c-0.348,0.488-0.863,0.768-1.338,1.095c-0.149,0.106-0.355,0.159-0.543,0.184
	c-0.381,0.048-0.769,0.072-1.154,0.088c-0.866,0.031-1.71,0.035-2.571-0.217c-1.171-0.344-2.392-0.509-3.585-0.786
	c-1.285-0.298-2.568-0.611-3.838-0.966c-0.617-0.173-1.204-0.451-1.859-0.701c-0.082,0.164-0.166,0.292-0.209,0.431
	c-0.253,0.831-0.511,1.662-0.74,2.5c-0.302,1.094-0.887,2.069-1.275,3.123c-0.222,0.604-0.491,1.195-0.674,1.811
	c-0.261,0.874-0.632,1.688-1.119,2.455c-0.223,0.354-0.434,0.716-0.657,1.071c-1.148,1.825-3.396,2.34-5.235,1.186
	c-1.425-0.893-2.475-2.144-3.313-3.582c-0.635-1.086-1.126-2.232-1.557-3.421c-0.441-1.213-0.837-2.436-1.157-3.686
	c-0.265-1.029-0.535-2.055-0.663-3.116c-0.089-0.766-0.279-1.52-0.435-2.279c-0.011-0.052-0.069-0.092-0.105-0.14
	c-0.168-0.048-0.233,0.083-0.282,0.193c-0.268,0.623-0.488,1.264-0.446,1.957c0.038,0.641,0.1,1.28,0.175,1.92
	c0.047,0.384,0.109,0.77,0.211,1.14c0.367,1.362,0.003,2.614-0.563,3.833c-0.163,0.344-0.393,0.669-0.63,0.968
	c-0.422,0.528-0.861,1.045-1.316,1.547c-0.826,0.909-1.567,1.878-2.153,2.962c-0.217,0.405-0.368,0.493-0.752,0.392
	c-0.436-0.115-0.867-0.252-1.28-0.432c-0.392-0.167-0.549-0.454-0.426-0.862c0.149-0.487,0.343-0.976,0.604-1.411
	c0.267-0.436,0.623-0.819,0.971-1.202c0.602-0.67,1.244-1.304,1.834-1.984c0.355-0.411,0.673-0.86,0.957-1.324
	c0.31-0.508,0.431-1.075,0.308-1.675c-0.173-0.851-0.361-1.702-0.513-2.558c-0.129-0.696-0.252-1.398-0.31-2.101
	c-0.104-1.322,0.214-2.522,0.948-3.662c0.544-0.846,1.126-1.641,1.801-2.371c0.236-0.255,0.334-0.533,0.305-0.877
	c-0.101-1.124-0.188-2.248-0.286-3.371c-0.014-0.12-0.073-0.235-0.131-0.424c-0.309,0.208-0.575,0.383-0.833,0.564
	c-0.711,0.502-1.397,1.043-2.132,1.502c-0.567,0.355-1.183,0.648-1.806,0.906c-0.806,0.338-1.641,0.298-2.456-0.004
	c-0.391-0.145-0.782-0.307-1.14-0.519c-0.662-0.399-1.328-0.78-1.985-1.185c-0.978-0.604-2.02-0.737-3.09-0.035
	c-1.65,1.084-3.186,2.298-4.552,3.724c-0.223,0.231-0.441,0.468-0.676,0.689c-0.215,0.207-0.401,0.236-0.598,0.072
	c-0.346-0.287-0.696-0.578-1.003-0.906c-0.313-0.327-0.301-0.586,0.015-0.932c0.237-0.262,0.497-0.511,0.777-0.723
	c0.748-0.563,1.492-1.132,2.271-1.639c1.053-0.688,2.144-1.31,3.205-1.978c1.484-0.938,2.986-0.852,4.509-0.125
	c0.467,0.223,0.926,0.457,1.385,0.688c0.908,0.455,1.79,0.415,2.68-0.069c1.051-0.573,2.043-1.229,2.988-1.956
	c0.766-0.589,1.5-1.215,2.28-1.852c-0.045-0.214-0.074-0.399-0.123-0.579c-0.212-0.742-0.436-1.48-0.637-2.228
	c-0.063-0.23-0.169-0.416-0.362-0.547c-0.188-0.127-0.369-0.259-0.565-0.369c-1.253-0.699-2.318-1.62-3.208-2.749
	c-0.952-1.216-1.887-2.45-2.866-3.644c-0.531-0.645-1.121-1.245-1.724-1.824c-0.511-0.494-1.115-0.864-1.775-1.149
	c-0.594-0.252-1.14-0.616-1.745-0.826c-1.275-0.444-2.575-0.821-3.869-1.221c-0.183-0.057-0.377-0.081-0.56-0.141
	c-0.471-0.15-0.713-0.592-0.568-1.055c0.098-0.306,0.204-0.615,0.349-0.901c0.288-0.566,0.713-0.714,1.28-0.448
	c0.379,0.181,0.73,0.415,1.105,0.599c0.487,0.238,0.982,0.477,1.49,0.674c0.753,0.288,1.515,0.558,2.282,0.795
	c1.579,0.483,2.927,1.358,4.108,2.47c1.077,1.014,2.067,2.121,3.085,3.195c0.553,0.584,1.081,1.194,1.631,1.781
	c0.146,0.158,0.338,0.281,0.515,0.428c0.091-0.232-0.095-0.315-0.188-0.426c-0.693-0.821-0.758-1.748-0.443-2.729
	c0.178-0.561,0.487-1.045,0.884-1.484c0.257-0.287,0.47-0.606,0.714-0.906c0.422-0.521,0.854-1.042,1.325-1.61
	c-0.75-1.636-1.828-3.117-2.884-4.624c0.016-0.161,0.044-0.318,0.049-0.48c0.009-0.295,0.179-0.478,0.424-0.589
	c0.204-0.091,0.422-0.159,0.64-0.213c0.53-0.134,0.957,0.031,1.257,0.485c0.705,1.075,1.404,2.153,2.108,3.23
	c0.226,0.347,0.457,0.693,0.69,1.051c1.763-0.233,3.484-0.434,5.331-0.127c0.436,0.398,0.95,0.867,1.465,1.334
	c0.01-0.026,0.059-0.082,0.05-0.125c-0.293-1.253-0.617-2.499-0.885-3.761c-0.301-1.411-0.703-2.804-0.657-4.283
	c0.032-1.042,0.145-2.054,0.456-3.042c0.105-0.34,0.23-0.671,0.338-1.009c0.311-1.018,0.594-2.039,0.552-3.123
	c-0.017-0.445,0.057-0.896,0.086-1.331c0.279-0.423,0.648-0.644,1.141-0.614c0.582,0.034,1.161,0.087,1.611,0.533
	c0.176,0.171,0.257,0.38,0.193,0.613c-0.066,0.245-0.15,0.493-0.267,0.721c-0.341,0.662-0.602,1.341-0.724,2.085
	c-0.165,1.016-0.405,2.017-0.616,3.025c-0.169,0.826-0.225,1.657-0.152,2.498c0.035,0.385,0.025,0.771,0.041,1.154
	c0.007,0.129,0,0.262,0.036,0.382c0.452,1.542,0.853,3.103,1.382,4.618c0.439,1.259,0.673,2.554,0.894,3.853
	c0.097,0.568,0.131,1.153,0.138,1.732c0.004,0.34,0.068,0.618,0.297,0.881c0.483,0.559,0.943,1.141,1.438,1.74
	c0.505,0.063,0.994-0.125,1.474-0.281c1.47-0.481,2.938-0.952,4.334-1.642c0.622-0.31,1.062-0.707,1.214-1.394
	c0.089-0.409,0.17-0.818,0.262-1.225c0.148-0.659,0.269-1.328,0.47-1.974c0.355-1.165,1.118-2.007,2.2-2.566
	c0.826-0.429,1.646-0.864,2.498-1.235c1.419-0.614,2.866-1.159,4.358-1.569c0.367-0.102,0.759-0.145,1.143-0.173
	c0.373-0.029,0.629,0.146,0.729,0.504c0.137,0.493,0.263,0.997,0.337,1.504c0.094,0.613-0.19,0.971-0.815,1.079
	c-0.825,0.141-1.673,0.185-2.469,0.419c-0.921,0.27-1.88,0.445-2.746,0.903c-0.454,0.241-0.942,0.412-1.412,0.623
	c-0.902,0.41-1.365,1.086-1.4,2.112c-0.029,0.962-0.117,1.929-0.296,2.873c-0.236,1.244-0.881,2.271-1.975,2.974
	c-0.955,0.614-1.993,1.048-3.055,1.437c-0.479,0.175-0.955,0.361-1.419,0.536c0.007,0.079-0.004,0.123,0.015,0.142
	c0.844,0.884,1.746,1.704,2.742,2.42c0.208,0.147,0.419,0.139,0.643,0.117c0.929-0.088,1.86-0.164,2.789-0.267
	c0.659-0.071,1.279,0.032,1.888,0.278c0.848,0.341,1.618,0.796,2.301,1.406c0.767,0.684,1.553,1.353,2.159,2.204
	c0.224,0.309,0.489,0.606,0.796,0.839c0.44,0.333,0.834,0.849,1.515,0.615c0.919,0.348,1.805,0.098,2.721-0.09
	C60.331,34.079,61.96,33.815,63.732,34.292"/>
<path d="M0,91.456c1.497-0.585,2.987-1.191,4.489-1.755c1.993-0.746,3.985-1.483,5.992-2.189c1.824-0.639,3.658-1.253,5.499-1.842
	c2.425-0.774,4.86-1.518,7.294-2.265c0.985-0.303,1.979-0.584,2.972-0.86c7.648-2.103,15.349-3.998,23.142-5.49
	c3.577-0.684,7.164-1.327,10.759-1.905c3.183-0.512,6.382-0.918,9.577-1.34c2.3-0.3,4.605-0.578,6.913-0.8
	c2.79-0.268,5.583-0.503,8.38-0.687c2.989-0.195,5.981-0.332,8.973-0.459c1.772-0.078,3.544-0.089,5.314-0.118
	c0.252-0.006,0.51,0.04,0.954,0.081c-0.405,0.086-0.623,0.144-0.847,0.176c-1.119,0.152-2.238,0.292-3.355,0.444
	c-2.97,0.408-5.94,0.821-8.909,1.221c-3.768,0.507-7.543,0.99-11.308,1.511c-2.554,0.353-5.104,0.742-7.651,1.131
	c-2.964,0.452-5.933,0.881-8.884,1.392c-3.525,0.613-7.05,1.255-10.551,1.973c-4.487,0.921-8.964,1.876-13.421,2.916
	c-4.424,1.035-8.821,2.193-13.23,3.304c-1.874,0.474-3.747,0.959-5.618,1.447c-3.461,0.907-6.918,1.825-10.38,2.734
	c-1.747,0.456-3.495,0.907-5.242,1.356c-0.278,0.07-0.563,0.12-0.848,0.181C0.012,91.56,0.006,91.507,0,91.456"/>
<path d="M67.974,94.654c0.01,0.025,0.01,0.063,0.026,0.072c0.022,0.011,0.058,0.002,0.086,0.002
	c-0.013-0.037-0.025-0.076-0.039-0.114C68.021,94.63,68,94.641,67.974,94.654 M64.941,95.979c0.05-0.028,0.096-0.057,0.145-0.084
	c-0.024-0.019-0.055-0.054-0.071-0.049c-0.05,0.019-0.095,0.05-0.139,0.078C64.896,95.943,64.918,95.96,64.941,95.979
	 M64.362,96.245c-0.058-0.01-0.112-0.024-0.168-0.023c-0.015,0-0.041,0.051-0.036,0.075c0.004,0.02,0.052,0.05,0.067,0.043
	C64.274,96.316,64.316,96.278,64.362,96.245 M67.292,97.024c-0.021-0.011-0.044-0.031-0.065-0.027c-0.022,0-0.045,0.024-0.065,0.039
	c0.024,0.012,0.046,0.03,0.068,0.029C67.251,97.063,67.271,97.04,67.292,97.024 M64.644,94.49c-0.03-0.039-0.061-0.105-0.093-0.108
	c-0.049-0.002-0.101,0.04-0.151,0.064c0.034,0.038,0.063,0.101,0.104,0.109C64.546,94.563,64.596,94.513,64.644,94.49
	 M67.693,94.103c-0.048,0.03-0.095,0.056-0.139,0.084c0.019,0.018,0.041,0.049,0.06,0.045c0.055-0.012,0.106-0.035,0.162-0.052
	C67.749,94.152,67.721,94.131,67.693,94.103 M63.382,95.329c0.039-0.026,0.075-0.053,0.113-0.08
	c-0.026-0.006-0.056-0.025-0.078-0.019c-0.041,0.017-0.076,0.049-0.112,0.076C63.328,95.313,63.358,95.321,63.382,95.329
	 M67.971,98.502c-0.019-0.018-0.038-0.037-0.059-0.057c-0.03,0.038-0.063,0.075-0.089,0.117c-0.004,0.012,0.034,0.044,0.055,0.067
	C67.908,98.585,67.94,98.544,67.971,98.502 M67.468,98.142c-0.054,0.001-0.104-0.003-0.156-0.001
	c-0.01,0.002-0.013,0.041-0.022,0.063c0.052,0.004,0.105,0.008,0.155,0.002C67.453,98.204,67.46,98.167,67.468,98.142
	 M66.207,96.894c-0.022-0.036-0.044-0.075-0.063-0.111c-0.094,0.045-0.19,0.092-0.281,0.14c0.029,0.049,0.057,0.096,0.088,0.143
	C66.034,97.009,66.121,96.951,66.207,96.894 M66.18,98.1c0.102,0.031,0.189,0.058,0.275,0.085c-0.003-0.056,0.013-0.129-0.015-0.16
	c-0.037-0.035-0.111-0.048-0.17-0.044C66.242,97.985,66.218,98.046,66.18,98.1 M63.943,97.169c0.043-0.034,0.119-0.066,0.123-0.104
	c0.003-0.05-0.052-0.099-0.084-0.15c-0.056,0.049-0.111,0.098-0.164,0.144C63.858,97.096,63.9,97.132,63.943,97.169 M69.217,95.971
	c-0.095,0.006-0.182,0.005-0.264,0.03c-0.023,0.006-0.025,0.089-0.037,0.14c0.084,0.007,0.17,0.024,0.25,0.01
	C69.188,96.146,69.197,96.05,69.217,95.971 M67.354,95.408c0.075,0.093,0.129,0.182,0.143,0.175
	c0.075-0.028,0.147-0.076,0.201-0.134c0.02-0.02-0.014-0.088-0.025-0.133C67.575,95.347,67.479,95.374,67.354,95.408 M65.633,96.079
	c0.18,0.018,0.332-0.01,0.489-0.315c-0.271,0.097-0.475,0.034-0.467,0.328c-0.049,0.021-0.101,0.041-0.149,0.06
	c0.031,0.024,0.063,0.049,0.096,0.072C65.612,96.175,65.623,96.127,65.633,96.079 M68.872,97.158
	c-0.369,0.511-0.184,1.114-0.263,1.671c-0.061,0.434,0.061,0.889,0.063,1.336c0,0.541-0.041,1.082-0.063,1.619
	c-0.003,0.062-0.033,0.124-0.052,0.185c-0.134,0.399-0.45,0.721-0.72,0.694c-0.378-0.033-0.652-0.219-0.787-0.604
	c-0.353-1-0.745-1.989-1.072-2.998c-0.2-0.616-0.504-1.166-0.983-1.427c-0.151-0.081-0.359-0.08-0.542-0.078
	c-0.056,0.001-0.126,0.123-0.16,0.201c-0.013,0.037,0.043,0.144,0.077,0.149c0.455,0.062,0.508,0.309,0.355,0.686
	c-0.04,0.104-0.039,0.241-0.014,0.349c0.183,0.714,0.489,1.42,0.527,2.14c0.03,0.596,0.42,1.146,0.184,1.807
	c-0.563,0.249-1.167,0.443-1.809,0.49c-0.174,0.012-0.354-0.099-0.503-0.146c-0.448-1.24-0.521-2.499-0.674-3.737
	c-0.038-0.287-0.052-0.578-0.111-0.862c-0.409-1.949-0.601-3.944-1.141-5.867c-0.068-0.249-0.122-0.502-0.163-0.755
	c-0.068-0.432,0.065-0.692,0.489-0.809c0.497-0.136,1.007-0.223,1.515-0.292c1.277-0.179,1.314-0.151,1.797,1.021
	c0.167,0.41,0.325,0.817,0.559,1.202c0.213,0.35,0.316,0.768,0.445,1.164c0.119,0.361,0.212,0.733,0.333,1.163
	c0.177,0.024,0.387,0.059,0.602,0.095c0.121-0.254,0.236-0.471,0.324-0.698c0.042-0.104,0.063-0.235,0.043-0.346
	c-0.066-0.392-0.039-0.761,0.187-1.099c0.031-0.053,0.091-0.146,0.078-0.159c-0.336-0.364,0.192-0.709,0.006-1.091
	c-0.229-0.462-0.055-0.944,0.034-1.418c0.066-0.364,0.274-0.611,0.61-0.668c0.792-0.123,1.591-0.221,2.39-0.279
	c0.353-0.025,0.59,0.233,0.644,0.598c0.04,0.285,0.065,0.577,0.063,0.866c-0.011,0.843,0.106,1.671,0.309,2.481
	c0.12,0.488,0.313,0.954,0.383,1.463c0.212,1.532,0.468,3.058,0.695,4.586c0.07,0.472,0.098,0.955,0.137,1.435
	c0.026,0.337-0.114,0.547-0.418,0.679c-0.395,0.168-1.268,0.226-1.889,0.119c-0.037-0.052-0.104-0.1-0.108-0.154
	c-0.039-0.68-0.161-1.337-0.356-1.988c-0.11-0.367-0.155-0.76-0.163-1.143c-0.009-0.235,0.108-0.475,0.177-0.73
	c-0.155-0.268-0.326-0.574-0.508-0.874c-0.1-0.162-0.245-0.187-0.413-0.111c-0.295-0.369-0.369-0.406-0.666-0.299
	c-0.203,0.073-0.22,0.158-0.077,0.537C68.445,97.229,68.659,97.193,68.872,97.158"/>
<path d="M39.77,118.719c-0.05-0.021-0.099-0.046-0.147-0.056c-0.015-0.003-0.036,0.047-0.051,0.074
	c0.052,0.021,0.105,0.047,0.161,0.064C39.737,118.804,39.757,118.749,39.77,118.719 M39.656,120.495
	c-0.022-0.017-0.055-0.049-0.068-0.043c-0.047,0.017-0.087,0.054-0.132,0.081c0.021,0.018,0.054,0.053,0.068,0.045
	C39.57,120.557,39.613,120.523,39.656,120.495 M42.193,120.573l-0.006-0.051l-0.06,0.034L42.193,120.573z M42.483,121.108
	l-0.002-0.052l-0.068,0.032L42.483,121.108z M41.638,122.255c0.062,0.008,0.115,0.023,0.167,0.02
	c0.018-0.002,0.031-0.045,0.049-0.065c-0.045-0.021-0.091-0.058-0.132-0.052C41.693,122.159,41.669,122.219,41.638,122.255
	 M42.768,122.217c-0.007-0.014-0.013-0.042-0.026-0.044c-0.023-0.009-0.048-0.001-0.073,0.001c0.012,0.027,0.023,0.054,0.038,0.083
	C42.728,122.243,42.746,122.231,42.768,122.217 M43.219,122.473c-0.016,0.023-0.044,0.042-0.044,0.063
	c0,0.02,0.031,0.039,0.048,0.056c0.023-0.034,0.047-0.069,0.069-0.102C43.267,122.485,43.244,122.478,43.219,122.473
	 M40.162,120.028c-0.025,0.005-0.05,0.011-0.077,0.016c0.019,0.047,0.032,0.095,0.057,0.138c0.003,0.007,0.046-0.008,0.072-0.013
	C40.196,120.122,40.178,120.079,40.162,120.028 M39.318,121.205c-0.039,0.036-0.105,0.065-0.113,0.107
	c-0.006,0.033,0.06,0.078,0.093,0.118c0.056-0.048,0.108-0.098,0.166-0.146C39.415,121.258,39.368,121.232,39.318,121.205
	 M40.586,121.121c-0.039-0.043-0.074-0.109-0.122-0.121c-0.039-0.011-0.093,0.046-0.138,0.071c0.033,0.047,0.063,0.128,0.101,0.131
	C40.479,121.206,40.534,121.148,40.586,121.121 M41.302,120.938c-0.054,0.063-0.116,0.12-0.157,0.188
	c-0.005,0.01,0.088,0.105,0.1,0.098c0.064-0.039,0.123-0.095,0.184-0.147C41.39,121.037,41.355,120.997,41.302,120.938
	 M42.592,118.339c0.038-0.033,0.076-0.067,0.115-0.1c-0.03-0.01-0.067-0.036-0.086-0.027c-0.044,0.023-0.078,0.064-0.115,0.096
	C42.533,118.317,42.561,118.328,42.592,118.339 M43.982,120.086c0.086,0.046,0.137,0.072,0.188,0.098
	c0.033-0.075,0.068-0.148,0.104-0.226c-0.054-0.019-0.125-0.068-0.156-0.047C44.06,119.946,44.029,120.02,43.982,120.086
	 M42.849,119.467c-0.019-0.038-0.036-0.074-0.057-0.11c-0.099,0.042-0.196,0.086-0.294,0.127c0.031,0.05,0.064,0.099,0.093,0.152
	C42.679,119.579,42.765,119.523,42.849,119.467 M41.204,120.009c-0.267-0.123-0.318,0.097-0.406,0.256
	C41.034,120.344,41.158,120.241,41.204,120.009 M44.055,121.022c-0.329,0.604-0.092,1.26-0.147,1.885
	c-0.024,0.28,0.064,0.57,0.091,0.858c0.055,0.604,0.135,1.205,0.15,1.811c0.006,0.243-0.091,0.51-0.202,0.731
	c-0.235,0.462-0.794,0.497-1.112,0.075c-0.135-0.179-0.239-0.384-0.324-0.592c-0.394-0.943-0.923-1.837-1.12-2.86
	c-0.339-0.455-0.612-0.986-1.206-1.178c-0.196-0.063-0.384-0.03-0.452,0.21c-0.011,0.182,0.126,0.19,0.244,0.226
	c0.184,0.056,0.288,0.213,0.24,0.365c-0.104,0.335,0.05,0.598,0.12,0.9c0.173,0.779,0.533,1.507,0.596,2.316
	c0.021,0.273,0.223,0.527,0.287,0.803c0.089,0.368-0.016,0.53-0.377,0.657c-0.363,0.128-0.729,0.263-1.1,0.36
	c-0.543,0.138-0.718,0.002-0.91-0.541c-0.37-1.036-0.526-2.121-0.749-3.194c-0.116-0.565-0.245-1.132-0.401-1.689
	c-0.183-0.648-0.355-1.287-0.446-1.967c-0.107-0.788-0.44-1.543-0.677-2.313c-0.148-0.494-0.3-0.986-0.437-1.482
	c-0.092-0.325,0.053-0.573,0.326-0.732c0.164-0.096,0.348-0.172,0.533-0.215c0.535-0.119,1.075-0.199,1.609-0.319
	c0.376-0.089,0.62,0.064,0.818,0.354c0.036,0.053,0.075,0.105,0.101,0.165c0.188,0.405,0.319,0.85,0.572,1.209
	c0.247,0.351,0.428,0.709,0.573,1.103c0.188,0.507,0.602,0.925,0.532,1.512c0.11,0.067,0.184,0.14,0.271,0.155
	c0.153,0.029,0.309,0.024,0.475,0.034c0.135-0.516,0.31-0.971,0.176-1.479c-0.036-0.145-0.025-0.357,0.058-0.469
	c0.223-0.306-0.05-0.637,0.063-0.894c0.144-0.324-0.013-0.557-0.07-0.83c-0.033-0.156-0.058-0.319-0.061-0.479
	c-0.02-1.089,0.191-1.362,1.26-1.575c0.501-0.101,1.01-0.188,1.519-0.223c0.469-0.033,0.631,0.109,0.729,0.586
	c0.1,0.505,0.147,1.021,0.234,1.526c0.074,0.413,0.131,0.829,0.266,1.223c0.119,0.351,0.046,0.761,0.377,1.056
	c0.119,0.107,0.121,0.359,0.162,0.548c0.363,1.635,0.728,3.271,1.084,4.906c0.104,0.474,0.173,0.951,0.253,1.426
	c0.042,0.247-0.042,0.479-0.26,0.575c-0.617,0.273-1.257,0.465-1.938,0.317c-0.264-1.025-0.527-2.012-0.771-3.007
	c-0.049-0.208-0.053-0.445-0.012-0.656c0.026-0.142,0.163-0.238,0.001-0.408c-0.254-0.267-0.278-0.73-0.699-0.855
	c-0.071-0.019-0.176,0.06-0.264,0.091c0.012-0.272-0.106-0.418-0.389-0.353c-0.171,0.043-0.374,0.084-0.367,0.334
	c0.004,0.162,0.188,0.238,0.439,0.16C43.84,121.153,43.945,121.081,44.055,121.022"/>
<path d="M50.412,102.15c0.039,0.042,0.072,0.106,0.119,0.114c0.042,0.01,0.095-0.041,0.145-0.064
	c-0.03-0.041-0.063-0.117-0.102-0.119C50.523,102.077,50.467,102.125,50.412,102.15 M52.681,97.628
	c-0.062-0.287-0.094-0.445-0.127-0.601c-0.039-0.188-0.081-0.378-0.111-0.568c-0.053-0.339-0.241-0.593-0.506-0.787
	c-0.305-0.228-0.708-0.238-0.991-0.031c-0.274,0.2-0.289,0.497-0.226,0.782c0.119,0.562,0.279,1.111,0.414,1.67
	c0.045,0.187,0.068,0.372,0.095,0.562c0.033,0.221,0.038,0.444,0.093,0.66c0.146,0.586,0.314,1.167,0.466,1.75
	c0.023,0.091,0.036,0.2,0.009,0.284c-0.216,0.63,0.188,1.098,0.441,1.586c0.167,0.325,0.561,0.356,0.826,0.111
	c0.164-0.15,0.359-0.333,0.398-0.529c0.068-0.364,0.154-0.8,0.022-1.116c-0.315-0.747-0.25-1.571-0.572-2.307
	C53.015,98.53,52.692,98.036,52.681,97.628 M49.696,105.702c-0.077-0.271-0.172-0.545-0.231-0.825
	c-0.688-3.209-1.369-6.418-2.056-9.629c-0.046-0.22-0.106-0.438-0.135-0.661c-0.04-0.285,0.087-0.51,0.349-0.621
	c0.203-0.092,0.424-0.15,0.645-0.191c1.105-0.211,2.216-0.41,3.322-0.611c1.267-0.231,2.23,0.189,3.017,1.228
	c0.423,0.562,0.688,1.137,0.814,1.804c0.003,0.034,0.01,0.064,0.02,0.098c0.422,1.385,0.692,2.801,0.883,4.242
	c0.076,0.573,0.184,1.134,0.095,1.709c-0.1,0.639-0.256,1.259-0.676,1.772c-0.121,0.148-0.239,0.325-0.399,0.412
	c-0.699,0.386-1.396,0.798-2.193,0.947c-0.533,0.097-1.059,0.174-1.579,0.364C51.005,105.946,50.393,106.11,49.696,105.702"/>
<path d="M61.729,114.001c0.012,0.016,0.023,0.034,0.036,0.055c0.034-0.027,0.071-0.05,0.108-0.077
	c-0.024-0.011-0.052-0.033-0.074-0.028C61.772,113.955,61.75,113.983,61.729,114.001 M61.5,115.864
	c0.022,0.002,0.048,0.007,0.069,0.003c0.008-0.002,0.01-0.034,0.015-0.05c-0.025,0-0.05-0.009-0.07-0.005
	C61.506,115.814,61.504,115.847,61.5,115.864 M64.332,116.266c-0.006-0.023-0.007-0.061-0.021-0.071
	c-0.021-0.011-0.054-0.002-0.084-0.001c0.013,0.037,0.028,0.071,0.038,0.112C64.287,116.292,64.31,116.28,64.332,116.266
	 M62.938,115.046c0.17-0.063,0.389-0.12,0.582-0.221c0.594-0.305,0.846-0.979,0.652-1.619c-0.189-0.612-0.604-1.016-1.11-1.351
	c-0.537,0.385-0.53,0.391-0.689,0.869c-0.092,0.281-0.151,0.54,0.058,0.812c0.083,0.108,0.114,0.32,0.066,0.451
	c-0.103,0.28,0.059,0.384,0.228,0.546C62.836,114.639,62.856,114.839,62.938,115.046 M63.448,117.179
	c-0.179,0.662-0.014,1.256,0.063,1.855c0.024,0.201-0.033,0.413-0.057,0.635c0.201,0.146,0.397,0.307,0.612,0.451
	c0.261,0.18,0.469,0.154,0.681-0.083c0.398-0.444,0.613-0.946,0.559-1.572c-0.072-0.9-0.397-1.335-1.335-1.632
	C63.812,116.938,63.65,117.044,63.448,117.179 M66.195,115.287c0.776,0.24,1.035,0.823,1.295,1.421
	c0.396,0.904,0.58,1.841,0.563,2.82c-0.022,1.129-0.588,1.854-1.697,2.168c-0.371,0.105-0.752,0.172-1.129,0.255
	c-1.003,0.222-2.006,0.451-3.012,0.66c-0.241,0.048-0.497,0.021-0.75,0.03c-0.068-0.172-0.134-0.286-0.155-0.407
	c-0.672-3.476-1.341-6.959-2.008-10.435c-0.048-0.252-0.112-0.503-0.115-0.756c-0.005-0.283,0.17-0.477,0.435-0.576
	c0.06-0.023,0.123-0.038,0.188-0.047c1.34-0.177,2.681-0.362,4.021-0.515c0.344-0.038,0.71,0.005,1.052,0.081
	c0.705,0.163,1.224,0.585,1.442,1.287c0.163,0.52,0.286,1.057,0.385,1.59c0.118,0.653,0.03,1.283-0.297,1.872
	C66.334,114.874,66.294,115.03,66.195,115.287"/>
<path d="M34.251,126.626c0.159-0.635,0.282-1.197,0.091-1.832c-0.46-1.518-0.854-3.06-1.248-4.601
	c-0.116-0.459-0.379-0.722-0.824-0.828c-0.278-0.064-0.506,0.046-0.632,0.31c-0.178,0.362-0.178,0.742-0.072,1.121
	c0.125,0.463,0.264,0.92,0.391,1.38c0.306,1.108,0.624,2.218,0.892,3.335c0.092,0.376,0.345,0.606,0.56,0.87
	C33.599,126.614,33.884,126.69,34.251,126.626 M29.077,122.408c-0.067-0.315-0.108-0.641-0.206-0.943
	c-0.322-0.972-0.147-1.91,0.174-2.832c0.081-0.236,0.216-0.481,0.396-0.647c1.136-1.044,2.474-1.457,4.008-1.203
	c0.854,0.139,1.335,0.756,1.688,1.438c0.342,0.65,0.573,1.365,0.795,2.069c0.311,0.982,0.583,1.979,0.846,2.975
	c0.153,0.586,0.316,1.18,0.376,1.782c0.082,0.801-0.005,1.609-0.324,2.365c-0.195,0.463-0.533,0.816-0.97,1.045
	c-0.903,0.469-1.862,0.719-2.891,0.625c-0.571-0.053-1.05-0.287-1.465-0.671c-0.626-0.582-1.094-1.271-1.336-2.092
	c-0.388-1.298-0.756-2.599-1.133-3.897C29.049,122.414,29.061,122.411,29.077,122.408"/>
<path d="M73.12,118.384c0.335-0.445,0.233-0.944,0.208-1.446c-0.023-0.465-0.363-0.904-0.112-1.39
	c0.024-0.045-0.006-0.127-0.03-0.184c-0.426-1.024-0.51-2.111-0.627-3.195c-0.057-0.543-0.203-1.072-0.297-1.609
	c-0.104-0.632-0.223-1.266-0.195-1.941c0.743-0.605,1.61-0.572,2.463-0.542c0.297,0.246,0.303,0.586,0.352,0.894
	c0.234,1.43,0.453,2.861,0.667,4.295c0.153,1.018,0.299,2.039,0.425,3.061c0.056,0.448,0.051,0.899,0.078,1.346
	c0.079,1.351-0.666,2.178-1.784,2.72c-0.428,0.206-0.917,0.314-1.39,0.386c-0.44,0.064-0.897,0.013-1.348,0.02
	c-0.83,0.019-1.417-0.403-1.823-1.068c-0.214-0.354-0.379-0.758-0.459-1.159c-0.416-2.087-0.787-4.178-1.189-6.268
	c-0.126-0.658-0.271-1.321-0.468-1.964c-0.069-0.228-0.086-0.427-0.067-0.65c0.029-0.368,0.19-0.612,0.566-0.676
	c0.537-0.09,1.073-0.187,1.615-0.251c0.297-0.033,0.479,0.125,0.544,0.429c0.084,0.378,0.154,0.758,0.216,1.139
	c0.213,1.33,0.422,2.666,0.632,3.999c0.139,0.891,0.302,1.776,0.406,2.669c0.095,0.826,0.521,1.284,1.335,1.391
	c0.065,0.009,0.128,0.019,0.192,0.019C73.059,118.406,73.09,118.392,73.12,118.384"/>
<path d="M78.977,115.85c-0.208-0.05-0.301-0.1-0.383-0.087c-0.071,0.012-0.127,0.094-0.189,0.144
	c0.061,0.05,0.122,0.134,0.185,0.137C78.66,116.047,78.736,115.978,78.977,115.85 M79.712,116.438
	c0.423,0.446,0.891,0.818,1.543,0.855c0.161-0.626,0.164-1.254,0.479-1.823c-0.605-0.109-0.877-0.668-1.201-1.122
	c-0.259-0.364-0.223-0.859-0.144-1.305c0.017-0.104,0.151-0.207,0.254-0.272c0.104-0.064,0.239-0.094,0.363-0.108
	c0.797-0.098,1.597-0.184,2.438-0.281c0.285,0.198,0.398,0.519,0.43,0.887c0.03,0.384,0.081,0.765,0.093,1.151
	c0.039,1.105,0.279,2.174,0.503,3.245c0.245,1.168-0.069,1.467-1.268,1.228c-0.096-0.021-0.188-0.045-0.282-0.067
	c-0.37-0.089-0.712-0.061-0.952,0.274c-0.167,0.232-0.396,0.328-0.656,0.362c-0.507,0.066-1.019,0.14-1.529,0.148
	c-0.738,0.019-1.275-0.354-1.693-0.948c-0.453-0.643-0.729-1.361-0.923-2.113c-0.13-0.496-0.219-1.007-0.302-1.515
	c-0.137-0.794-0.284-1.588-0.376-2.388c-0.087-0.76-0.167-1.53-0.153-2.293c0.024-1.576,0.86-2.577,2.367-3.017
	c0.973-0.284,1.922-0.185,2.856,0.087c0.532,0.152,0.972,0.497,1.208,1.039c0.169,0.383,0.35,0.758,0.517,1.143
	c0.039,0.084,0.056,0.182,0.068,0.274c0.089,0.675-0.051,0.882-0.729,0.964c-0.545,0.067-1.09,0.099-1.667,0.149
	c-0.074-0.086-0.216-0.173-0.227-0.272c-0.077-0.793-0.569-1.065-1.284-1.108c-0.344,0.599-0.419,1.177-0.293,1.86
	c0.246,1.355,0.375,2.734,0.544,4.104C79.724,115.826,79.707,116.083,79.712,116.438"/>
<path d="M74.283,97.694c0.012,0.02,0.022,0.037,0.032,0.057c0.035-0.025,0.073-0.053,0.106-0.075
	c-0.023-0.011-0.052-0.031-0.073-0.03C74.324,97.651,74.305,97.676,74.283,97.694 M75.388,93.415
	c0.531,0.252,1.092,0.254,1.659,0.177c0.477-0.068,0.952-0.152,1.432-0.201c0.33-0.036,0.545,0.156,0.609,0.487
	c0.071,0.375,0.148,0.753,0.2,1.132c0.063,0.483-0.094,0.705-0.591,0.816c-0.869,0.197-1.743,0.374-2.653,0.568
	c0.224,0.321,0.495,0.66,0.211,1.089c0.189,0.278,0.083,0.665,0.32,0.916c0.251,0.266,0.554,0.438,0.946,0.352
	c0.314-0.067,0.631-0.12,0.945-0.181c0.505-0.09,1.008-0.191,1.517-0.263c0.271-0.039,0.542,0.133,0.585,0.393
	c0.076,0.475,0.133,0.957,0.146,1.438c0.011,0.35-0.237,0.602-0.576,0.678c-0.095,0.021-0.19,0.013-0.289,0.023
	c-1.248,0.127-2.497,0.247-3.742,0.388c-0.287,0.032-0.563,0.132-0.847,0.187c-0.251,0.053-0.505,0.107-0.757,0.105
	c-0.4-0.002-0.521-0.143-0.651-0.563c-0.438-1.424-0.646-2.884-0.775-4.36c-0.019-0.191-0.053-0.392-0.017-0.575
	c0.151-0.787-0.048-1.535-0.193-2.294c-0.21-1.073-0.429-2.147-0.602-3.229c-0.131-0.809,0.188-1.182,1.015-1.284
	c1.182-0.145,2.366-0.281,3.546-0.439c0.446-0.06,0.884-0.188,1.327-0.249c0.549-0.074,0.886,0.128,1.004,0.666
	c0.09,0.4,0.078,0.827,0.071,1.245c-0.004,0.366-0.243,0.593-0.589,0.666c-0.28,0.063-0.573,0.065-0.863,0.098
	c-0.445,0.056-0.895,0.105-1.339,0.173c-0.514,0.078-0.771,0.387-0.786,0.912c0,0.031,0.008,0.064,0.006,0.097
	C75.662,92.95,75.662,92.95,75.388,93.415"/>
<path d="M34.656,102.568c-0.024-0.012-0.056-0.044-0.069-0.037c-0.047,0.021-0.084,0.058-0.126,0.088
	c0.022,0.015,0.055,0.049,0.068,0.041C34.574,102.637,34.614,102.603,34.656,102.568 M35.543,104.268
	c0.241,0.263,0.465,0.56,0.351,0.838c-0.143,0.353,0.104,0.531,0.189,0.774c0.169,0.496,0.52,0.728,0.999,0.64
	c0.442-0.083,0.87-0.228,1.303-0.35c0.402-0.114,0.797-0.255,1.202-0.346c0.314-0.072,0.598,0.091,0.682,0.388
	c0.116,0.404,0.217,0.812,0.27,1.225c0.067,0.503-0.148,0.775-0.666,0.889c-1.066,0.234-2.137,0.456-3.21,0.674
	c-0.506,0.103-1.006,0.18-1.481,0.413c-0.243,0.121-0.556,0.138-0.84,0.136c-0.226,0.002-0.42-0.121-0.516-0.366
	c-0.591-1.531-1.138-3.095-1.251-4.734c-0.091-1.31-0.51-2.513-0.853-3.743c-0.189-0.683-0.395-1.359-0.562-2.047
	c-0.145-0.587,0.105-1.007,0.703-1.155c1.029-0.254,2.073-0.463,3.105-0.711c0.592-0.143,1.173-0.335,1.765-0.489
	c0.699-0.185,1.038-0.004,1.229,0.687c0.093,0.339,0.127,0.697,0.145,1.048c0.022,0.406-0.203,0.676-0.586,0.782
	c-0.402,0.111-0.816,0.185-1.225,0.275c-0.284,0.061-0.568,0.11-0.852,0.173c-0.489,0.106-0.766,0.465-0.735,0.956
	c0.006,0.095,0.021,0.196,0.059,0.28c0.168,0.354-0.082,0.594-0.254,0.854c0.897,0.229,0.897,0.229,1.557,0.076
	c0.439-0.101,0.877-0.214,1.317-0.303c0.665-0.135,0.784-0.054,0.956,0.584c0.091,0.34,0.213,0.674,0.278,1.02
	c0.074,0.398-0.059,0.604-0.453,0.729C37.314,103.735,36.452,103.988,35.543,104.268"/>
<path d="M42.632,100.685c-0.022-0.02-0.051-0.059-0.062-0.054c-0.049,0.022-0.094,0.056-0.139,0.083
	c0.02,0.014,0.051,0.05,0.065,0.047C42.544,100.744,42.587,100.71,42.632,100.685 M41.922,103.895
	c-0.009-0.019-0.017-0.041-0.026-0.063c-0.019,0.009-0.048,0.021-0.048,0.028c0.002,0.021,0.017,0.042,0.026,0.065
	C41.893,103.916,41.909,103.907,41.922,103.895 M42.491,99.509c0.762,0.208,1.476,0.139,2.192-0.055
	c0.34-0.094,0.69-0.151,1.043-0.206c0.246-0.042,0.474,0.06,0.553,0.291c0.146,0.417,0.268,0.85,0.345,1.286
	c0.037,0.199-0.056,0.428-0.095,0.664c-1.016,0.306-1.996,0.605-3.009,0.911c0.229,0.33,0.43,0.645,0.279,1.054
	c-0.025,0.068,0.301,0.871,0.351,0.915c0.284,0.234,0.591,0.39,0.973,0.289c0.28-0.073,0.563-0.145,0.839-0.216
	c0.501-0.131,0.996-0.275,1.497-0.386c0.404-0.091,0.642,0.04,0.745,0.413c0.103,0.371,0.19,0.753,0.231,1.134
	c0.056,0.547-0.182,0.861-0.718,0.963c-1.104,0.207-2.217,0.387-3.322,0.601c-0.44,0.085-0.876,0.202-1.295,0.354
	c-0.411,0.148-0.804,0.226-1.298-0.02c-0.182-0.501-0.431-1.057-0.58-1.639c-0.253-0.962-0.448-1.941-0.657-2.92
	c-0.054-0.251-0.123-0.512-0.101-0.763c0.084-0.864-0.215-1.647-0.437-2.452c-0.26-0.963-0.528-1.927-0.768-2.895
	c-0.189-0.762,0.049-1.139,0.837-1.312c1.1-0.241,2.209-0.448,3.311-0.685c0.406-0.086,0.805-0.216,1.209-0.328
	c0.124-0.035,0.243-0.085,0.369-0.109c0.491-0.09,0.828,0.081,1.004,0.533c0.165,0.425,0.226,0.868,0.191,1.326
	c-0.028,0.371-0.22,0.597-0.563,0.696c-0.185,0.055-0.378,0.086-0.567,0.126c-0.505,0.099-1.01,0.194-1.516,0.301
	c-0.575,0.122-0.813,0.439-0.76,1.018c0.019,0.188,0.076,0.375,0.118,0.574C42.758,99.155,42.629,99.328,42.491,99.509"/>
<path d="M49.379,121.355c-0.022-0.006-0.047-0.008-0.07-0.015c0.001,0.035-0.001,0.07,0.002,0.105
	c0.022-0.01,0.053-0.013,0.069-0.029C49.39,121.407,49.381,121.376,49.379,121.355 M49.984,118.105
	c-0.028,0.003-0.063-0.005-0.086,0.009c-0.021,0.017-0.023,0.052-0.033,0.082c0.039-0.004,0.079-0.006,0.117-0.019
	C49.988,118.177,49.984,118.132,49.984,118.105 M50.755,119.896c0.346,0.248,0.513,0.531,0.434,0.787
	c-0.099,0.314,0.061,0.519,0.104,0.773c0.05,0.307,0.192,0.442,0.4,0.593c0.224,0.164,0.464,0.224,0.729,0.158
	c0.341-0.089,0.68-0.196,1.02-0.291c0.374-0.101,0.74-0.218,1.117-0.293c0.465-0.093,0.686,0.04,0.79,0.47
	c0.097,0.407,0.185,0.817,0.222,1.234c0.036,0.407-0.175,0.673-0.586,0.753c-1.105,0.223-2.213,0.432-3.326,0.62
	c-0.382,0.062-0.755,0.101-1.118,0.259c-0.261,0.11-0.56,0.157-0.843,0.168c-0.27,0.01-0.477-0.133-0.574-0.421
	c-0.633-1.83-1.171-3.674-1.185-5.635c0-0.313-0.092-0.634-0.174-0.944c-0.296-1.153-0.606-2.304-0.911-3.456
	c-0.057-0.219-0.111-0.438-0.146-0.66c-0.063-0.413,0.194-0.842,0.597-0.98c0.182-0.065,0.374-0.091,0.565-0.132
	c1.416-0.301,2.834-0.602,4.25-0.902c0.652-0.14,0.978,0.022,1.159,0.672c0.101,0.364,0.113,0.763,0.115,1.143
	c0.004,0.398-0.155,0.58-0.549,0.681c-0.409,0.101-0.825,0.156-1.236,0.238c-0.377,0.075-0.754,0.161-1.152,0.246
	c-0.223,0.312-0.399,0.623-0.323,1.052c0.085,0.492,0.06,0.498-0.193,0.992c0.528,0.132,1.038,0.213,1.579,0.063
	c0.464-0.127,0.943-0.208,1.418-0.283c0.294-0.046,0.503,0.105,0.582,0.387c0.103,0.37,0.2,0.744,0.277,1.121
	c0.114,0.543-0.008,0.751-0.573,0.916C52.453,119.451,51.673,119.646,50.755,119.896"/>
<path d="M89.281,109.345c-0.095-0.296-0.169-0.532-0.262-0.834c-0.333-0.102-0.696-0.211-1.082-0.329
	c-0.208,0.165-0.403,0.317-0.605,0.476c-0.243-0.083-0.48-0.16-0.729-0.243c-0.001,0.103-0.02,0.187,0.002,0.2
	c0.304,0.175,0.62,0.311,0.677,0.739c0.022,0.166,0.2,0.325,0.34,0.454c0.327,0.309,0.674,0.598,1.017,0.891
	c0.069,0.059,0.154,0.122,0.24,0.143c0.896,0.24,1.605,0.83,2.29,1.384c0.631,0.513,1.168,1.185,1.24,2.103
	c0.035,0.445,0.188,0.881,0.112,1.335c-0.123,0.753-0.461,1.349-1.042,1.89c-1.318,1.232-2.826,1.088-4.35,0.696
	c-0.9-0.229-1.37-1.01-1.789-1.797c-0.222-0.423-0.291-0.845-0.159-1.299c0.021-0.062,0.066-0.11,0.146-0.237
	c0.497-0.137,1.06-0.23,1.641-0.22c0.35,0.005,0.627,0.138,0.73,0.509c0.089,0.327,0.298,0.562,0.558,0.764
	c0.33,0.264,0.67,0.304,1.081,0.195c0.314-0.083,0.476-0.334,0.494-0.53c0.043-0.502,0.059-1.051-0.459-1.377
	c-0.299-0.189-0.612-0.355-0.918-0.529c-0.279-0.158-0.56-0.296-0.706-0.624c-0.066-0.147-0.277-0.256-0.443-0.322
	c-0.796-0.326-1.43-0.869-1.994-1.493c-0.806-0.89-0.916-1.971-0.674-3.081c0.176-0.806,0.744-1.353,1.504-1.646
	c0.943-0.361,1.931-0.516,2.939-0.417c1.04,0.099,1.84,0.548,2.228,1.578c0.092,0.242,0.228,0.467,0.304,0.71
	c0.143,0.473-0.048,0.821-0.526,0.97c-0.182,0.058-0.381,0.064-0.571,0.074c-0.188,0.009-0.387-0.003-0.578-0.024
	C89.745,109.433,89.558,109.391,89.281,109.345"/>
<path d="M25.031,121.329c-0.188-0.047-0.309-0.084-0.434-0.103c-0.762-0.109-0.762-0.109-1.334,0.464
	c-0.235-0.027-0.479-0.056-0.75-0.086c0.045,0.112,0.055,0.195,0.086,0.204c0.309,0.088,0.614,0.147,0.736,0.532
	c0.05,0.162,0.225,0.312,0.377,0.418c0.397,0.273,0.811,0.521,1.22,0.779c0.053,0.03,0.115,0.074,0.172,0.072
	c0.879,0.012,1.58,0.528,2.318,0.883c0.814,0.394,1.493,0.989,1.753,1.935c0.137,0.49,0.395,0.942,0.363,1.485
	c-0.041,0.733-0.216,1.393-0.76,1.923c-0.253,0.241-0.444,0.585-0.737,0.751c-1.193,0.678-2.503,0.899-3.817,0.511
	c-0.894-0.265-1.483-1.003-1.907-1.828c-0.148-0.287-0.193-0.613-0.036-0.994c0.459-0.271,0.994-0.467,1.573-0.554
	c0.344-0.053,0.65,0.013,0.823,0.349c0.272,0.532,0.724,0.793,1.256,0.897c0.099-0.021,0.164-0.026,0.222-0.049
	c0.366-0.144,0.79-0.334,0.739-0.765c-0.058-0.483-0.135-1.044-0.715-1.27c-0.182-0.07-0.36-0.147-0.537-0.216
	c-0.475-0.184-1.009-0.237-1.313-0.743c-0.063-0.104-0.282-0.133-0.435-0.163c-0.844-0.184-1.547-0.634-2.202-1.161
	c-0.908-0.726-1.166-1.768-1.143-2.856c0.021-0.86,0.526-1.521,1.267-1.941c0.992-0.564,2.056-0.909,3.221-0.863
	c0.83,0.033,1.485,0.378,1.952,1.069c0.161,0.24,0.329,0.478,0.472,0.73c0.244,0.435,0.143,0.858-0.286,1.059
	c-0.532,0.252-1.106,0.348-1.692,0.254C25.12,121.995,25.118,121.654,25.031,121.329"/>
<path d="M26.786,98.872c0.773-0.221,1.546-0.439,2.317-0.658c0.154-0.044,0.304-0.105,0.463-0.122
	c0.37-0.045,0.605,0.105,0.738,0.469c0.106,0.304,0.204,0.613,0.275,0.927c0.139,0.626-0.099,0.994-0.72,1.123
	c-0.533,0.111-1.07,0.21-1.607,0.313c-0.032,0.004-0.063,0.009-0.096,0.016c-0.567,0.101-1.129,0.313-1.201,0.936
	c-0.071,0.617,0.17,1.204,0.716,1.6c0.228,0.165,0.475,0.184,0.732,0.084c0.268-0.104,0.533-0.229,0.809-0.313
	c0.245-0.073,0.5-0.13,0.756-0.144c0.352-0.018,0.611,0.18,0.714,0.525c0.088,0.308,0.125,0.63,0.21,0.94
	c0.208,0.758-0.04,0.907-0.705,1.063c-0.344,0.082-0.697,0.129-1.042,0.194c-0.328,0.062-0.618,0.2-0.805,0.487
	c-0.079,0.127-0.15,0.309-0.127,0.447c0.088,0.469,0.194,0.937,0.336,1.393c0.15,0.49,0.349,0.969,0.521,1.455
	c0.053,0.149,0.097,0.307,0.12,0.463c0.108,0.762-0.027,0.999-0.759,1.196c-0.466,0.125-0.942,0.214-1.422,0.272
	c-0.374,0.049-0.608-0.166-0.676-0.532c-0.017-0.097-0.036-0.193-0.025-0.288c0.063-0.629-0.141-1.209-0.319-1.795
	c-0.779-2.588-1.568-5.173-2.35-7.762c-0.083-0.274-0.161-0.558-0.211-0.842c-0.057-0.322,0.074-0.526,0.39-0.691
	C24.714,99.161,24.843,99.128,26.786,98.872"/>
<path d="M93.258,109.813c-0.371-1.009-0.634-2.037-0.694-3.108c-0.043-0.817,0.197-1.115,1.004-1.211
	c0.286-0.035,0.578-0.064,0.864-0.056c0.479,0.015,0.739,0.196,0.802,0.67c0.1,0.763,0.199,1.539,0.166,2.308
	c-0.063,1.478-0.214,2.95-0.336,4.428c-0.034,0.386-0.357,0.567-0.688,0.365c-0.18-0.109-0.346-0.296-0.435-0.485
	c-0.122-0.259-0.176-0.551-0.239-0.835C93.549,111.2,93.405,110.507,93.258,109.813"/>
<path d="M96.019,114.794c0.087,0.549,0.156,0.988,0.229,1.426c0.029,0.19,0.094,0.379,0.104,0.566
	c0.038,0.542-0.291,0.936-0.824,0.984c-0.351,0.033-0.707,0.053-1.056,0.036c-0.456-0.024-0.685-0.26-0.754-0.716
	c-0.051-0.317-0.107-0.635-0.146-0.95c-0.03-0.256-0.063-0.515-0.038-0.767c0.048-0.567,0.261-0.751,0.839-0.85
	C94.963,114.423,95.522,114.439,96.019,114.794"/>
</svg>
